<svg xmlns="http://www.w3.org/2000/svg" viewBox="0 0 750 500"><g id="freepik--background-complete--inject-121"><rect x="357.47" y="231.57" width="40.12" height="152.16" transform="translate(755.06 615.3) rotate(180)" style="fill:#ebebeb"></rect><rect x="357.47" y="221.47" width="34.42" height="10.09" transform="translate(749.35 453.04) rotate(180)" style="fill:#c7c7c7"></rect><rect x="361.87" y="236.83" width="31.32" height="113.75" transform="translate(755.06 587.42) rotate(180)" style="fill:#dbdbdb"></rect><rect x="361.87" y="247.69" width="31.32" height="2.69" transform="translate(755.06 498.06) rotate(180)" style="fill:#fff"></rect><rect x="361.87" y="258.82" width="31.32" height="2.69" transform="translate(755.06 520.33) rotate(180)" style="fill:#fff"></rect><rect x="361.87" y="269.96" width="31.32" height="2.69" transform="translate(755.06 542.6) rotate(180)" style="fill:#fff"></rect><rect x="361.87" y="281.09" width="31.32" height="2.69" transform="translate(755.06 564.87) rotate(180)" style="fill:#fff"></rect><rect x="361.87" y="292.23" width="31.32" height="2.69" transform="translate(755.06 587.14) rotate(180)" style="fill:#fff"></rect><rect x="361.87" y="303.36" width="31.32" height="2.69" transform="translate(755.06 609.41) rotate(180)" style="fill:#fff"></rect><rect x="361.87" y="314.49" width="31.32" height="2.69" transform="translate(755.06 631.68) rotate(180)" style="fill:#fff"></rect><rect x="361.87" y="325.63" width="31.32" height="2.69" transform="translate(755.06 653.95) rotate(180)" style="fill:#fff"></rect><rect x="361.87" y="336.76" width="31.32" height="2.69" transform="translate(755.06 676.21) rotate(180)" style="fill:#fff"></rect><rect x="361.87" y="347.9" width="31.32" height="2.69" transform="translate(755.06 698.48) rotate(180)" style="fill:#fff"></rect><rect x="332.34" y="231.57" width="25.13" height="152.16" transform="translate(689.8 615.3) rotate(180)" style="fill:#dbdbdb"></rect><rect x="336.11" y="221.47" width="21.36" height="10.09" transform="translate(693.57 453.04) rotate(180)" style="fill:#a6a6a6"></rect><rect x="334.68" y="236.83" width="19.32" height="113.75" transform="translate(688.68 587.42) rotate(180)" style="fill:#c7c7c7"></rect><rect x="334.68" y="247.69" width="19.32" height="2.69" transform="translate(688.68 498.06) rotate(180)" style="fill:#fff"></rect><rect x="334.68" y="258.82" width="19.32" height="2.69" transform="translate(688.68 520.33) rotate(180)" style="fill:#fff"></rect><rect x="334.68" y="269.96" width="19.32" height="2.69" transform="translate(688.68 542.6) rotate(180)" style="fill:#fff"></rect><rect x="334.68" y="281.09" width="19.32" height="2.69" transform="translate(688.68 564.87) rotate(180)" style="fill:#fff"></rect><rect x="334.68" y="292.23" width="19.32" height="2.69" transform="translate(688.68 587.14) rotate(180)" style="fill:#fff"></rect><rect x="334.68" y="303.36" width="19.32" height="2.69" transform="translate(688.68 609.41) rotate(180)" style="fill:#fff"></rect><rect x="334.68" y="314.49" width="19.32" height="2.69" transform="translate(688.68 631.68) rotate(180)" style="fill:#fff"></rect><rect x="334.68" y="325.63" width="19.32" height="2.69" transform="translate(688.68 653.95) rotate(180)" style="fill:#fff"></rect><rect x="334.68" y="336.76" width="19.32" height="2.69" transform="translate(688.68 676.21) rotate(180)" style="fill:#fff"></rect><rect x="334.68" y="347.9" width="19.32" height="2.69" transform="translate(688.68 698.48) rotate(180)" style="fill:#fff"></rect><rect x="148.77" y="171.15" width="40.55" height="212.58" transform="translate(338.09 554.88) rotate(180)" style="fill:#dbdbdb"></rect><rect x="175.14" y="178.05" width="7.88" height="8.12" transform="translate(358.17 364.22) rotate(180)" style="fill:#ebebeb"></rect><rect x="165.06" y="178.05" width="7.88" height="8.12" transform="translate(338 364.22) rotate(180)" style="fill:#ebebeb"></rect><rect x="175.14" y="191.83" width="7.88" height="8.12" transform="translate(358.17 391.78) rotate(180)" style="fill:#ebebeb"></rect><rect x="165.06" y="191.83" width="7.88" height="8.12" transform="translate(338 391.78) rotate(180)" style="fill:#ebebeb"></rect><rect x="175.14" y="205.61" width="7.88" height="8.12" transform="translate(358.17 419.34) rotate(180)" style="fill:#ebebeb"></rect><rect x="165.06" y="205.61" width="7.88" height="8.12" transform="translate(338 419.34) rotate(180)" style="fill:#ebebeb"></rect><rect x="175.14" y="219.39" width="7.88" height="8.12" transform="translate(358.17 446.9) rotate(180)" style="fill:#ebebeb"></rect><rect x="165.06" y="219.39" width="7.88" height="8.12" transform="translate(338 446.9) rotate(180)" style="fill:#ebebeb"></rect><rect x="175.14" y="233.17" width="7.88" height="8.12" transform="translate(358.17 474.47) rotate(180)" style="fill:#ebebeb"></rect><rect x="165.06" y="233.17" width="7.88" height="8.12" transform="translate(338 474.47) rotate(180)" style="fill:#ebebeb"></rect><rect x="175.14" y="246.96" width="7.88" height="8.12" transform="translate(358.17 502.03) rotate(180)" style="fill:#ebebeb"></rect><rect x="165.06" y="246.96" width="7.88" height="8.12" transform="translate(338 502.03) rotate(180)" style="fill:#ebebeb"></rect><rect x="175.14" y="260.74" width="7.88" height="8.12" transform="translate(358.17 529.59) rotate(180)" style="fill:#ebebeb"></rect><rect x="165.06" y="260.74" width="7.88" height="8.12" transform="translate(338 529.59) rotate(180)" style="fill:#ebebeb"></rect><rect x="175.14" y="274.52" width="7.88" height="8.12" transform="translate(358.17 557.15) rotate(180)" style="fill:#ebebeb"></rect><rect x="165.06" y="274.52" width="7.88" height="8.12" transform="translate(338 557.15) rotate(180)" style="fill:#ebebeb"></rect><rect x="175.14" y="288.3" width="7.88" height="8.12" transform="translate(358.17 584.72) rotate(180)" style="fill:#ebebeb"></rect><rect x="165.06" y="288.3" width="7.88" height="8.12" transform="translate(338 584.72) rotate(180)" style="fill:#ebebeb"></rect><rect x="175.14" y="302.08" width="7.88" height="8.12" transform="translate(358.17 612.28) rotate(180)" style="fill:#ebebeb"></rect><rect x="165.06" y="302.08" width="7.88" height="8.12" transform="translate(338 612.28) rotate(180)" style="fill:#ebebeb"></rect><rect x="175.14" y="315.86" width="7.88" height="8.12" transform="translate(358.17 639.84) rotate(180)" style="fill:#ebebeb"></rect><rect x="165.06" y="315.86" width="7.88" height="8.12" transform="translate(338 639.84) rotate(180)" style="fill:#ebebeb"></rect><rect x="175.14" y="329.64" width="7.88" height="8.12" transform="translate(358.17 667.4) rotate(180)" style="fill:#ebebeb"></rect><rect x="165.06" y="329.64" width="7.88" height="8.12" transform="translate(338 667.4) rotate(180)" style="fill:#ebebeb"></rect><rect x="175.14" y="343.42" width="7.88" height="8.12" transform="translate(358.17 694.96) rotate(180)" style="fill:#ebebeb"></rect><rect x="165.06" y="343.42" width="7.88" height="8.12" transform="translate(338 694.96) rotate(180)" style="fill:#ebebeb"></rect><rect x="175.14" y="357.2" width="7.88" height="8.12" transform="translate(358.17 722.53) rotate(180)" style="fill:#ebebeb"></rect><rect x="155.06" y="357.2" width="7.88" height="8.12" style="fill:#ebebeb"></rect><rect x="155.06" y="343.42" width="7.88" height="8.12" style="fill:#ebebeb"></rect><rect x="155.06" y="329.64" width="7.88" height="8.12" style="fill:#ebebeb"></rect><rect x="155.06" y="315.86" width="7.88" height="8.12" style="fill:#ebebeb"></rect><rect x="155.06" y="302.08" width="7.88" height="8.12" style="fill:#ebebeb"></rect><rect x="155.06" y="288.3" width="7.88" height="8.12" style="fill:#ebebeb"></rect><rect x="155.06" y="274.52" width="7.88" height="8.12" style="fill:#ebebeb"></rect><rect x="155.06" y="260.74" width="7.88" height="8.12" style="fill:#ebebeb"></rect><rect x="155.06" y="246.96" width="7.88" height="8.12" style="fill:#ebebeb"></rect><rect x="155.06" y="233.17" width="7.88" height="8.12" style="fill:#ebebeb"></rect><rect x="155.06" y="219.39" width="7.88" height="8.12" style="fill:#ebebeb"></rect><rect x="155.06" y="205.61" width="7.88" height="8.12" style="fill:#ebebeb"></rect><rect x="155.06" y="191.83" width="7.88" height="8.12" style="fill:#ebebeb"></rect><rect x="155.06" y="178.05" width="7.88" height="8.12" style="fill:#ebebeb"></rect><rect x="165.06" y="357.2" width="7.88" height="8.12" transform="translate(338 722.53) rotate(180)" style="fill:#ebebeb"></rect><rect x="116.79" y="171.15" width="31.97" height="212.58" transform="translate(265.56 554.88) rotate(180)" style="fill:#a6a6a6"></rect><rect x="120.09" y="357.2" width="6.51" height="8.12" style="fill:#c7c7c7"></rect><rect x="128.42" y="357.2" width="6.51" height="8.12" style="fill:#c7c7c7"></rect><rect x="120.09" y="343.42" width="6.51" height="8.12" style="fill:#c7c7c7"></rect><rect x="128.42" y="343.42" width="6.51" height="8.12" style="fill:#c7c7c7"></rect><rect x="120.09" y="329.64" width="6.51" height="8.12" style="fill:#c7c7c7"></rect><rect x="128.42" y="329.64" width="6.51" height="8.12" style="fill:#c7c7c7"></rect><rect x="120.09" y="315.86" width="6.51" height="8.12" style="fill:#c7c7c7"></rect><rect x="128.42" y="315.86" width="6.51" height="8.12" style="fill:#c7c7c7"></rect><rect x="120.09" y="302.08" width="6.51" height="8.12" style="fill:#c7c7c7"></rect><rect x="128.42" y="302.08" width="6.51" height="8.12" style="fill:#c7c7c7"></rect><rect x="120.09" y="288.3" width="6.51" height="8.12" style="fill:#c7c7c7"></rect><rect x="128.42" y="288.3" width="6.51" height="8.12" style="fill:#c7c7c7"></rect><rect x="120.09" y="274.52" width="6.51" height="8.12" style="fill:#c7c7c7"></rect><rect x="128.42" y="274.52" width="6.51" height="8.12" style="fill:#c7c7c7"></rect><rect x="120.09" y="260.74" width="6.51" height="8.12" style="fill:#c7c7c7"></rect><rect x="128.42" y="260.74" width="6.51" height="8.12" style="fill:#c7c7c7"></rect><rect x="120.09" y="246.96" width="6.51" height="8.12" style="fill:#c7c7c7"></rect><rect x="128.42" y="246.96" width="6.51" height="8.12" style="fill:#c7c7c7"></rect><rect x="120.09" y="233.17" width="6.51" height="8.12" style="fill:#c7c7c7"></rect><rect x="128.42" y="233.17" width="6.51" height="8.12" style="fill:#c7c7c7"></rect><rect x="120.09" y="219.39" width="6.51" height="8.12" style="fill:#c7c7c7"></rect><rect x="128.42" y="219.39" width="6.51" height="8.12" style="fill:#c7c7c7"></rect><rect x="120.09" y="205.61" width="6.51" height="8.12" style="fill:#c7c7c7"></rect><rect x="128.42" y="205.61" width="6.51" height="8.12" style="fill:#c7c7c7"></rect><rect x="120.09" y="191.83" width="6.51" height="8.12" style="fill:#c7c7c7"></rect><rect x="128.42" y="191.83" width="6.51" height="8.12" style="fill:#c7c7c7"></rect><rect x="120.09" y="178.05" width="6.51" height="8.12" style="fill:#c7c7c7"></rect><rect x="136.67" y="178.05" width="6.51" height="8.12" transform="translate(279.85 364.22) rotate(180)" style="fill:#c7c7c7"></rect><rect x="136.67" y="191.83" width="6.51" height="8.12" transform="translate(279.85 391.78) rotate(180)" style="fill:#c7c7c7"></rect><rect x="136.67" y="205.61" width="6.51" height="8.12" transform="translate(279.85 419.34) rotate(180)" style="fill:#c7c7c7"></rect><rect x="136.67" y="219.39" width="6.51" height="8.12" transform="translate(279.85 446.9) rotate(180)" style="fill:#c7c7c7"></rect><rect x="136.67" y="233.17" width="6.51" height="8.12" transform="translate(279.85 474.47) rotate(180)" style="fill:#c7c7c7"></rect><rect x="136.67" y="246.96" width="6.51" height="8.12" transform="translate(279.85 502.03) rotate(180)" style="fill:#c7c7c7"></rect><rect x="136.67" y="260.74" width="6.51" height="8.12" transform="translate(279.85 529.59) rotate(180)" style="fill:#c7c7c7"></rect><rect x="136.67" y="274.52" width="6.51" height="8.12" transform="translate(279.85 557.15) rotate(180)" style="fill:#c7c7c7"></rect><rect x="136.67" y="288.3" width="6.51" height="8.12" transform="translate(279.85 584.72) rotate(180)" style="fill:#c7c7c7"></rect><rect x="136.67" y="302.08" width="6.51" height="8.12" transform="translate(279.85 612.28) rotate(180)" style="fill:#c7c7c7"></rect><rect x="136.67" y="315.86" width="6.51" height="8.12" transform="translate(279.85 639.84) rotate(180)" style="fill:#c7c7c7"></rect><rect x="136.67" y="329.64" width="6.51" height="8.12" transform="translate(279.85 667.4) rotate(180)" style="fill:#c7c7c7"></rect><rect x="136.67" y="343.42" width="6.51" height="8.12" transform="translate(279.85 694.96) rotate(180)" style="fill:#c7c7c7"></rect><rect x="136.67" y="357.2" width="6.51" height="8.12" transform="translate(279.85 722.53) rotate(180)" style="fill:#c7c7c7"></rect><rect x="128.42" y="178.05" width="6.51" height="8.12" style="fill:#c7c7c7"></rect><rect x="462.93" y="166.51" width="42.31" height="217.22" style="fill:#ebebeb"></rect><rect x="462.93" y="162.18" width="43.32" height="4.33" transform="translate(969.18 328.69) rotate(180)" style="fill:#c7c7c7"></rect><rect x="497.12" y="172.88" width="4.29" height="210.85" style="fill:#fff"></rect><rect x="489.53" y="172.88" width="4.29" height="210.85" style="fill:#fff"></rect><rect x="481.94" y="172.88" width="4.29" height="210.85" style="fill:#fff"></rect><rect x="474.35" y="172.88" width="4.29" height="210.85" style="fill:#fff"></rect><rect x="466.75" y="172.88" width="4.29" height="210.85" style="fill:#fff"></rect><rect x="497.12" y="178.35" width="4.29" height="8.54" transform="translate(998.53 365.23) rotate(180)" style="fill:#ebebeb"></rect><rect x="489.53" y="178.35" width="4.29" height="8.54" transform="translate(983.35 365.23) rotate(180)" style="fill:#ebebeb"></rect><rect x="481.94" y="178.35" width="4.29" height="8.54" transform="translate(968.16 365.23) rotate(180)" style="fill:#ebebeb"></rect><rect x="474.35" y="178.35" width="4.29" height="8.54" transform="translate(952.98 365.23) rotate(180)" style="fill:#ebebeb"></rect><rect x="466.75" y="178.35" width="4.29" height="8.54" transform="translate(937.79 365.23) rotate(180)" style="fill:#ebebeb"></rect><rect x="497.12" y="192.22" width="4.29" height="8.54" transform="translate(998.53 392.99) rotate(180)" style="fill:#ebebeb"></rect><rect x="489.53" y="192.22" width="4.29" height="8.54" transform="translate(983.35 392.99) rotate(180)" style="fill:#ebebeb"></rect><rect x="481.94" y="192.22" width="4.29" height="8.54" transform="translate(968.16 392.99) rotate(180)" style="fill:#ebebeb"></rect><rect x="474.35" y="192.22" width="4.29" height="8.54" transform="translate(952.98 392.99) rotate(180)" style="fill:#ebebeb"></rect><rect x="466.75" y="192.22" width="4.29" height="8.54" transform="translate(937.79 392.99) rotate(180)" style="fill:#ebebeb"></rect><rect x="497.12" y="206.1" width="4.29" height="8.54" transform="translate(998.53 420.74) rotate(180)" style="fill:#ebebeb"></rect><rect x="489.53" y="206.1" width="4.29" height="8.54" transform="translate(983.35 420.74) rotate(180)" style="fill:#ebebeb"></rect><rect x="481.94" y="206.1" width="4.29" height="8.54" transform="translate(968.16 420.74) rotate(180)" style="fill:#ebebeb"></rect><rect x="474.35" y="206.1" width="4.29" height="8.54" transform="translate(952.98 420.74) rotate(180)" style="fill:#ebebeb"></rect><rect x="466.75" y="206.1" width="4.29" height="8.54" transform="translate(937.79 420.74) rotate(180)" style="fill:#ebebeb"></rect><rect x="497.12" y="219.98" width="4.29" height="8.54" transform="translate(998.53 448.5) rotate(180)" style="fill:#ebebeb"></rect><rect x="489.53" y="219.98" width="4.29" height="8.54" transform="translate(983.35 448.5) rotate(180)" style="fill:#ebebeb"></rect><rect x="481.94" y="219.98" width="4.29" height="8.54" transform="translate(968.16 448.5) rotate(180)" style="fill:#ebebeb"></rect><rect x="474.35" y="219.98" width="4.29" height="8.54" transform="translate(952.98 448.5) rotate(180)" style="fill:#ebebeb"></rect><rect x="466.75" y="219.98" width="4.29" height="8.54" transform="translate(937.79 448.5) rotate(180)" style="fill:#ebebeb"></rect><rect x="497.12" y="233.86" width="4.29" height="8.54" transform="translate(998.53 476.25) rotate(180)" style="fill:#ebebeb"></rect><rect x="489.53" y="233.86" width="4.29" height="8.54" transform="translate(983.35 476.25) rotate(180)" style="fill:#ebebeb"></rect><rect x="481.94" y="233.86" width="4.29" height="8.54" transform="translate(968.16 476.25) rotate(180)" style="fill:#ebebeb"></rect><rect x="474.35" y="233.86" width="4.29" height="8.54" transform="translate(952.98 476.25) rotate(180)" style="fill:#ebebeb"></rect><rect x="466.75" y="233.86" width="4.29" height="8.54" transform="translate(937.79 476.25) rotate(180)" style="fill:#ebebeb"></rect><rect x="497.12" y="247.73" width="4.29" height="8.54" transform="translate(998.53 504.01) rotate(180)" style="fill:#ebebeb"></rect><rect x="489.53" y="247.73" width="4.29" height="8.54" transform="translate(983.35 504.01) rotate(180)" style="fill:#ebebeb"></rect><rect x="481.94" y="247.73" width="4.29" height="8.54" transform="translate(968.16 504.01) rotate(180)" style="fill:#ebebeb"></rect><rect x="474.35" y="247.73" width="4.29" height="8.54" transform="translate(952.98 504.01) rotate(180)" style="fill:#ebebeb"></rect><rect x="466.75" y="247.73" width="4.29" height="8.54" transform="translate(937.79 504.01) rotate(180)" style="fill:#ebebeb"></rect><rect x="497.12" y="261.61" width="4.29" height="8.54" transform="translate(998.53 531.76) rotate(180)" style="fill:#ebebeb"></rect><rect x="489.53" y="261.61" width="4.29" height="8.54" transform="translate(983.35 531.76) rotate(180)" style="fill:#ebebeb"></rect><rect x="481.94" y="261.61" width="4.29" height="8.54" transform="translate(968.16 531.76) rotate(180)" style="fill:#ebebeb"></rect><rect x="474.35" y="261.61" width="4.29" height="8.54" transform="translate(952.98 531.76) rotate(180)" style="fill:#ebebeb"></rect><rect x="466.75" y="261.61" width="4.29" height="8.54" transform="translate(937.79 531.76) rotate(180)" style="fill:#ebebeb"></rect><rect x="497.12" y="275.49" width="4.29" height="8.54" transform="translate(998.53 559.52) rotate(180)" style="fill:#ebebeb"></rect><rect x="489.53" y="275.49" width="4.29" height="8.54" transform="translate(983.35 559.52) rotate(180)" style="fill:#ebebeb"></rect><rect x="481.94" y="275.49" width="4.29" height="8.54" transform="translate(968.16 559.52) rotate(180)" style="fill:#ebebeb"></rect><rect x="474.35" y="275.49" width="4.29" height="8.54" transform="translate(952.98 559.52) rotate(180)" style="fill:#ebebeb"></rect><rect x="466.75" y="275.49" width="4.29" height="8.54" transform="translate(937.79 559.52) rotate(180)" style="fill:#ebebeb"></rect><rect x="497.12" y="289.37" width="4.29" height="8.54" transform="translate(998.53 587.27) rotate(180)" style="fill:#ebebeb"></rect><rect x="489.53" y="289.37" width="4.29" height="8.54" transform="translate(983.35 587.27) rotate(180)" style="fill:#ebebeb"></rect><rect x="481.94" y="289.37" width="4.29" height="8.54" transform="translate(968.16 587.27) rotate(180)" style="fill:#ebebeb"></rect><rect x="474.35" y="289.37" width="4.29" height="8.54" transform="translate(952.98 587.27) rotate(180)" style="fill:#ebebeb"></rect><rect x="466.75" y="289.37" width="4.29" height="8.54" transform="translate(937.79 587.27) rotate(180)" style="fill:#ebebeb"></rect><rect x="497.12" y="303.24" width="4.29" height="8.54" transform="translate(998.53 615.03) rotate(180)" style="fill:#ebebeb"></rect><rect x="489.53" y="303.24" width="4.29" height="8.54" transform="translate(983.35 615.03) rotate(180)" style="fill:#ebebeb"></rect><rect x="481.94" y="303.24" width="4.29" height="8.54" transform="translate(968.16 615.03) rotate(180)" style="fill:#ebebeb"></rect><rect x="474.35" y="303.24" width="4.29" height="8.54" transform="translate(952.98 615.03) rotate(180)" style="fill:#ebebeb"></rect><rect x="466.75" y="303.24" width="4.29" height="8.54" transform="translate(937.79 615.03) rotate(180)" style="fill:#ebebeb"></rect><rect x="497.12" y="317.12" width="4.29" height="8.54" transform="translate(998.53 642.78) rotate(180)" style="fill:#ebebeb"></rect><rect x="489.53" y="317.12" width="4.29" height="8.54" transform="translate(983.35 642.78) rotate(180)" style="fill:#ebebeb"></rect><rect x="481.94" y="317.12" width="4.29" height="8.54" transform="translate(968.16 642.78) rotate(180)" style="fill:#ebebeb"></rect><rect x="474.35" y="317.12" width="4.29" height="8.54" transform="translate(952.98 642.78) rotate(180)" style="fill:#ebebeb"></rect><rect x="466.75" y="317.12" width="4.29" height="8.54" transform="translate(937.79 642.78) rotate(180)" style="fill:#ebebeb"></rect><rect x="497.12" y="331" width="4.29" height="8.54" transform="translate(998.53 670.54) rotate(180)" style="fill:#ebebeb"></rect><rect x="489.53" y="331" width="4.29" height="8.54" transform="translate(983.35 670.54) rotate(180)" style="fill:#ebebeb"></rect><rect x="481.94" y="331" width="4.29" height="8.54" transform="translate(968.16 670.54) rotate(180)" style="fill:#ebebeb"></rect><rect x="474.35" y="331" width="4.29" height="8.54" transform="translate(952.98 670.54) rotate(180)" style="fill:#ebebeb"></rect><rect x="466.75" y="331" width="4.29" height="8.54" transform="translate(937.79 670.54) rotate(180)" style="fill:#ebebeb"></rect><rect x="497.12" y="344.88" width="4.29" height="8.54" transform="translate(998.53 698.29) rotate(180)" style="fill:#ebebeb"></rect><rect x="489.53" y="344.88" width="4.29" height="8.54" transform="translate(983.35 698.29) rotate(180)" style="fill:#ebebeb"></rect><rect x="481.94" y="344.88" width="4.29" height="8.54" transform="translate(968.16 698.29) rotate(180)" style="fill:#ebebeb"></rect><rect x="474.35" y="344.88" width="4.29" height="8.54" transform="translate(952.98 698.29) rotate(180)" style="fill:#ebebeb"></rect><rect x="466.75" y="344.88" width="4.29" height="8.54" transform="translate(937.79 698.29) rotate(180)" style="fill:#ebebeb"></rect><rect x="497.12" y="358.75" width="4.29" height="24.97" style="fill:#ebebeb"></rect><rect x="489.53" y="358.75" width="4.29" height="24.97" style="fill:#ebebeb"></rect><rect x="481.94" y="358.75" width="4.29" height="24.97" style="fill:#ebebeb"></rect><rect x="474.35" y="358.75" width="4.29" height="24.97" style="fill:#ebebeb"></rect><rect x="466.75" y="358.75" width="4.29" height="24.97" style="fill:#ebebeb"></rect><rect x="435.77" y="166.51" width="27.16" height="217.22" style="fill:#dbdbdb"></rect><rect x="434.59" y="162.18" width="28.34" height="4.33" transform="translate(897.52 328.69) rotate(180)" style="fill:#c7c7c7"></rect><rect x="454.82" y="172.88" width="4.29" height="210.85" style="fill:#c7c7c7"></rect><rect x="447.22" y="172.88" width="4.29" height="210.85" style="fill:#c7c7c7"></rect><rect x="439.63" y="172.88" width="4.29" height="210.85" style="fill:#c7c7c7"></rect><rect x="454.82" y="178.35" width="4.29" height="8.54" transform="translate(913.92 365.23) rotate(180)" style="fill:#dbdbdb"></rect><rect x="447.22" y="178.35" width="4.29" height="8.54" transform="translate(898.73 365.23) rotate(180)" style="fill:#dbdbdb"></rect><rect x="439.63" y="178.35" width="4.29" height="8.54" transform="translate(883.55 365.23) rotate(180)" style="fill:#dbdbdb"></rect><rect x="454.82" y="192.22" width="4.29" height="8.54" transform="translate(913.92 392.99) rotate(180)" style="fill:#dbdbdb"></rect><rect x="447.22" y="192.22" width="4.29" height="8.54" transform="translate(898.73 392.99) rotate(180)" style="fill:#dbdbdb"></rect><rect x="439.63" y="192.22" width="4.29" height="8.54" transform="translate(883.55 392.99) rotate(180)" style="fill:#dbdbdb"></rect><rect x="454.82" y="206.1" width="4.29" height="8.54" transform="translate(913.92 420.74) rotate(180)" style="fill:#dbdbdb"></rect><rect x="447.22" y="206.1" width="4.29" height="8.54" transform="translate(898.73 420.74) rotate(180)" style="fill:#dbdbdb"></rect><rect x="439.63" y="206.1" width="4.29" height="8.54" transform="translate(883.55 420.74) rotate(180)" style="fill:#dbdbdb"></rect><rect x="454.82" y="219.98" width="4.29" height="8.54" transform="translate(913.92 448.5) rotate(180)" style="fill:#dbdbdb"></rect><rect x="447.22" y="219.98" width="4.29" height="8.54" transform="translate(898.73 448.5) rotate(180)" style="fill:#dbdbdb"></rect><rect x="439.63" y="219.98" width="4.29" height="8.54" transform="translate(883.55 448.5) rotate(180)" style="fill:#dbdbdb"></rect><rect x="454.82" y="233.86" width="4.29" height="8.54" transform="translate(913.92 476.25) rotate(180)" style="fill:#dbdbdb"></rect><rect x="447.22" y="233.86" width="4.29" height="8.54" transform="translate(898.73 476.25) rotate(180)" style="fill:#dbdbdb"></rect><rect x="439.63" y="233.86" width="4.29" height="8.54" transform="translate(883.55 476.25) rotate(180)" style="fill:#dbdbdb"></rect><rect x="454.82" y="247.73" width="4.29" height="8.54" transform="translate(913.92 504.01) rotate(180)" style="fill:#dbdbdb"></rect><rect x="447.22" y="247.73" width="4.29" height="8.54" transform="translate(898.73 504.01) rotate(180)" style="fill:#dbdbdb"></rect><rect x="439.63" y="247.73" width="4.29" height="8.54" transform="translate(883.55 504.01) rotate(180)" style="fill:#dbdbdb"></rect><rect x="454.82" y="261.61" width="4.29" height="8.54" transform="translate(913.92 531.76) rotate(180)" style="fill:#dbdbdb"></rect><rect x="447.22" y="261.61" width="4.29" height="8.54" transform="translate(898.73 531.76) rotate(180)" style="fill:#dbdbdb"></rect><rect x="439.63" y="261.61" width="4.29" height="8.54" transform="translate(883.55 531.76) rotate(180)" style="fill:#dbdbdb"></rect><rect x="454.82" y="275.49" width="4.29" height="8.54" transform="translate(913.92 559.52) rotate(180)" style="fill:#dbdbdb"></rect><rect x="447.22" y="275.49" width="4.29" height="8.54" transform="translate(898.73 559.52) rotate(180)" style="fill:#dbdbdb"></rect><rect x="439.63" y="275.49" width="4.29" height="8.54" transform="translate(883.55 559.52) rotate(180)" style="fill:#dbdbdb"></rect><rect x="454.82" y="289.37" width="4.29" height="8.54" transform="translate(913.92 587.27) rotate(180)" style="fill:#dbdbdb"></rect><rect x="447.22" y="289.37" width="4.29" height="8.54" transform="translate(898.73 587.27) rotate(180)" style="fill:#dbdbdb"></rect><rect x="439.63" y="289.37" width="4.29" height="8.54" transform="translate(883.55 587.27) rotate(180)" style="fill:#dbdbdb"></rect><rect x="454.82" y="303.24" width="4.29" height="8.54" transform="translate(913.92 615.03) rotate(180)" style="fill:#dbdbdb"></rect><rect x="447.22" y="303.24" width="4.29" height="8.54" transform="translate(898.73 615.03) rotate(180)" style="fill:#dbdbdb"></rect><rect x="439.63" y="303.24" width="4.29" height="8.54" transform="translate(883.55 615.03) rotate(180)" style="fill:#dbdbdb"></rect><rect x="454.82" y="317.12" width="4.29" height="8.54" transform="translate(913.92 642.78) rotate(180)" style="fill:#dbdbdb"></rect><rect x="447.22" y="317.12" width="4.29" height="8.54" transform="translate(898.73 642.78) rotate(180)" style="fill:#dbdbdb"></rect><rect x="439.63" y="317.12" width="4.29" height="8.54" transform="translate(883.55 642.78) rotate(180)" style="fill:#dbdbdb"></rect><rect x="454.82" y="331" width="4.29" height="8.54" transform="translate(913.92 670.54) rotate(180)" style="fill:#dbdbdb"></rect><rect x="447.22" y="331" width="4.29" height="8.54" transform="translate(898.73 670.54) rotate(180)" style="fill:#dbdbdb"></rect><rect x="439.63" y="331" width="4.29" height="8.54" transform="translate(883.55 670.54) rotate(180)" style="fill:#dbdbdb"></rect><rect x="454.82" y="344.88" width="4.29" height="8.54" transform="translate(913.92 698.29) rotate(180)" style="fill:#dbdbdb"></rect><rect x="447.22" y="344.88" width="4.29" height="8.54" transform="translate(898.73 698.29) rotate(180)" style="fill:#dbdbdb"></rect><rect x="439.63" y="344.88" width="4.29" height="8.54" transform="translate(883.55 698.29) rotate(180)" style="fill:#dbdbdb"></rect><rect x="454.82" y="358.75" width="4.29" height="24.97" style="fill:#dbdbdb"></rect><rect x="447.22" y="358.75" width="4.29" height="24.97" style="fill:#dbdbdb"></rect><rect x="439.63" y="358.75" width="4.29" height="24.97" style="fill:#dbdbdb"></rect><rect x="278.17" y="255.41" width="50.85" height="128.4" style="fill:#ebebeb"></rect><rect x="278.17" y="251.08" width="52.07" height="4.33" transform="translate(608.41 506.5) rotate(180)" style="fill:#c7c7c7"></rect><rect x="319.27" y="261.79" width="5.15" height="122.02" style="fill:#fff"></rect><rect x="310.14" y="261.79" width="5.16" height="122.02" style="fill:#fff"></rect><rect x="301.02" y="261.79" width="5.15" height="122.02" style="fill:#fff"></rect><rect x="291.89" y="261.79" width="5.16" height="122.02" style="fill:#fff"></rect><rect x="282.77" y="261.79" width="5.15" height="122.02" style="fill:#fff"></rect><rect x="319.27" y="267.25" width="5.15" height="8.54" transform="translate(643.69 543.04) rotate(180)" style="fill:#ebebeb"></rect><rect x="310.14" y="267.25" width="5.15" height="8.54" transform="translate(625.44 543.04) rotate(180)" style="fill:#ebebeb"></rect><rect x="301.02" y="267.25" width="5.15" height="8.54" transform="translate(607.19 543.04) rotate(180)" style="fill:#ebebeb"></rect><rect x="291.9" y="267.25" width="5.15" height="8.54" transform="translate(588.94 543.04) rotate(180)" style="fill:#ebebeb"></rect><rect x="282.77" y="267.25" width="5.15" height="8.54" transform="translate(570.69 543.04) rotate(180)" style="fill:#ebebeb"></rect><rect x="319.27" y="281.13" width="5.15" height="8.54" transform="translate(643.69 570.8) rotate(180)" style="fill:#ebebeb"></rect><rect x="310.14" y="281.13" width="5.15" height="8.54" transform="translate(625.44 570.8) rotate(180)" style="fill:#ebebeb"></rect><rect x="301.02" y="281.13" width="5.15" height="8.54" transform="translate(607.19 570.8) rotate(180)" style="fill:#ebebeb"></rect><rect x="291.9" y="281.13" width="5.15" height="8.54" transform="translate(588.94 570.8) rotate(180)" style="fill:#ebebeb"></rect><rect x="282.77" y="281.13" width="5.15" height="8.54" transform="translate(570.69 570.8) rotate(180)" style="fill:#ebebeb"></rect><rect x="319.27" y="295.01" width="5.15" height="8.54" transform="translate(643.69 598.55) rotate(180)" style="fill:#ebebeb"></rect><rect x="310.14" y="295.01" width="5.15" height="8.54" transform="translate(625.44 598.55) rotate(180)" style="fill:#ebebeb"></rect><rect x="301.02" y="295.01" width="5.15" height="8.54" transform="translate(607.19 598.55) rotate(180)" style="fill:#ebebeb"></rect><rect x="291.9" y="295.01" width="5.15" height="8.54" transform="translate(588.94 598.55) rotate(180)" style="fill:#ebebeb"></rect><rect x="282.77" y="295.01" width="5.15" height="8.54" transform="translate(570.69 598.55) rotate(180)" style="fill:#ebebeb"></rect><rect x="319.27" y="308.88" width="5.15" height="8.54" transform="translate(643.69 626.31) rotate(180)" style="fill:#ebebeb"></rect><rect x="310.14" y="308.88" width="5.15" height="8.54" transform="translate(625.44 626.31) rotate(180)" style="fill:#ebebeb"></rect><rect x="301.02" y="308.88" width="5.15" height="8.54" transform="translate(607.19 626.31) rotate(180)" style="fill:#ebebeb"></rect><rect x="291.9" y="308.88" width="5.15" height="8.54" transform="translate(588.94 626.31) rotate(180)" style="fill:#ebebeb"></rect><rect x="282.77" y="308.88" width="5.15" height="8.54" transform="translate(570.69 626.31) rotate(180)" style="fill:#ebebeb"></rect><rect x="319.27" y="322.76" width="5.15" height="8.54" transform="translate(643.69 654.06) rotate(180)" style="fill:#ebebeb"></rect><rect x="310.14" y="322.76" width="5.15" height="8.54" transform="translate(625.44 654.06) rotate(180)" style="fill:#ebebeb"></rect><rect x="301.02" y="322.76" width="5.15" height="8.54" transform="translate(607.19 654.06) rotate(180)" style="fill:#ebebeb"></rect><rect x="291.9" y="322.76" width="5.15" height="8.54" transform="translate(588.94 654.06) rotate(180)" style="fill:#ebebeb"></rect><rect x="282.77" y="322.76" width="5.15" height="8.54" transform="translate(570.69 654.06) rotate(180)" style="fill:#ebebeb"></rect><rect x="319.27" y="336.64" width="5.15" height="8.54" transform="translate(643.69 681.82) rotate(180)" style="fill:#ebebeb"></rect><rect x="310.14" y="336.64" width="5.15" height="8.54" transform="translate(625.44 681.82) rotate(180)" style="fill:#ebebeb"></rect><rect x="301.02" y="336.64" width="5.15" height="8.54" transform="translate(607.19 681.82) rotate(180)" style="fill:#ebebeb"></rect><rect x="291.9" y="336.64" width="5.15" height="8.54" transform="translate(588.94 681.82) rotate(180)" style="fill:#ebebeb"></rect><rect x="282.77" y="336.64" width="5.15" height="8.54" transform="translate(570.69 681.82) rotate(180)" style="fill:#ebebeb"></rect><rect x="319.27" y="350.52" width="5.15" height="8.54" transform="translate(643.69 709.57) rotate(180)" style="fill:#ebebeb"></rect><rect x="310.14" y="350.52" width="5.15" height="8.54" transform="translate(625.44 709.57) rotate(180)" style="fill:#ebebeb"></rect><rect x="301.02" y="350.52" width="5.15" height="8.54" transform="translate(607.19 709.57) rotate(180)" style="fill:#ebebeb"></rect><rect x="291.9" y="350.52" width="5.15" height="8.54" transform="translate(588.94 709.57) rotate(180)" style="fill:#ebebeb"></rect><rect x="282.77" y="350.52" width="5.15" height="8.54" transform="translate(570.69 709.57) rotate(180)" style="fill:#ebebeb"></rect><rect x="319.27" y="364.39" width="5.15" height="8.54" transform="translate(643.69 737.33) rotate(180)" style="fill:#ebebeb"></rect><rect x="310.14" y="364.39" width="5.15" height="8.54" transform="translate(625.44 737.33) rotate(180)" style="fill:#ebebeb"></rect><rect x="301.02" y="364.39" width="5.15" height="8.54" transform="translate(607.19 737.33) rotate(180)" style="fill:#ebebeb"></rect><rect x="291.9" y="364.39" width="5.15" height="8.54" transform="translate(588.94 737.33) rotate(180)" style="fill:#ebebeb"></rect><rect x="282.77" y="364.39" width="5.15" height="8.54" transform="translate(570.69 737.33) rotate(180)" style="fill:#ebebeb"></rect><rect x="319.27" y="378.27" width="5.15" height="5.54" style="fill:#ebebeb"></rect><rect x="310.14" y="378.27" width="5.16" height="5.54" style="fill:#ebebeb"></rect><rect x="301.02" y="378.27" width="5.15" height="5.54" style="fill:#ebebeb"></rect><rect x="291.89" y="378.27" width="5.16" height="5.54" style="fill:#ebebeb"></rect><rect x="282.77" y="378.27" width="5.15" height="5.54" style="fill:#ebebeb"></rect><rect x="245.53" y="255.41" width="32.64" height="128.4" style="fill:#dbdbdb"></rect><rect x="244.12" y="251.08" width="34.05" height="4.33" transform="translate(522.29 506.5) rotate(180)" style="fill:#c7c7c7"></rect><rect x="268.42" y="261.79" width="5.16" height="122.02" style="fill:#c7c7c7"></rect><rect x="259.3" y="261.79" width="5.15" height="122.02" style="fill:#c7c7c7"></rect><rect x="250.17" y="261.79" width="5.16" height="122.02" style="fill:#c7c7c7"></rect><rect x="268.43" y="267.25" width="5.15" height="8.54" transform="translate(542 543.04) rotate(180)" style="fill:#dbdbdb"></rect><rect x="259.3" y="267.25" width="5.15" height="8.54" transform="translate(523.75 543.04) rotate(180)" style="fill:#dbdbdb"></rect><rect x="250.18" y="267.25" width="5.15" height="8.54" transform="translate(505.5 543.04) rotate(180)" style="fill:#dbdbdb"></rect><rect x="268.43" y="281.13" width="5.15" height="8.54" transform="translate(542 570.8) rotate(180)" style="fill:#dbdbdb"></rect><rect x="259.3" y="281.13" width="5.15" height="8.54" transform="translate(523.75 570.8) rotate(180)" style="fill:#dbdbdb"></rect><rect x="250.18" y="281.13" width="5.15" height="8.54" transform="translate(505.5 570.8) rotate(180)" style="fill:#dbdbdb"></rect><rect x="268.43" y="295.01" width="5.15" height="8.54" transform="translate(542 598.55) rotate(180)" style="fill:#dbdbdb"></rect><rect x="259.3" y="295.01" width="5.15" height="8.54" transform="translate(523.75 598.55) rotate(180)" style="fill:#dbdbdb"></rect><rect x="250.18" y="295.01" width="5.15" height="8.54" transform="translate(505.5 598.55) rotate(180)" style="fill:#dbdbdb"></rect><rect x="268.43" y="308.88" width="5.15" height="8.54" transform="translate(542 626.31) rotate(180)" style="fill:#dbdbdb"></rect><rect x="259.3" y="308.88" width="5.15" height="8.54" transform="translate(523.75 626.31) rotate(180)" style="fill:#dbdbdb"></rect><rect x="250.18" y="308.88" width="5.15" height="8.54" transform="translate(505.5 626.31) rotate(180)" style="fill:#dbdbdb"></rect><rect x="268.43" y="322.76" width="5.15" height="8.54" transform="translate(542 654.06) rotate(180)" style="fill:#dbdbdb"></rect><rect x="259.3" y="322.76" width="5.15" height="8.54" transform="translate(523.75 654.06) rotate(180)" style="fill:#dbdbdb"></rect><rect x="250.18" y="322.76" width="5.15" height="8.54" transform="translate(505.5 654.06) rotate(180)" style="fill:#dbdbdb"></rect><rect x="268.43" y="336.64" width="5.15" height="8.54" transform="translate(542 681.82) rotate(180)" style="fill:#dbdbdb"></rect><rect x="259.3" y="336.64" width="5.15" height="8.54" transform="translate(523.75 681.82) rotate(180)" style="fill:#dbdbdb"></rect><rect x="250.18" y="336.64" width="5.15" height="8.54" transform="translate(505.5 681.82) rotate(180)" style="fill:#dbdbdb"></rect><rect x="268.43" y="350.52" width="5.15" height="8.54" transform="translate(542 709.57) rotate(180)" style="fill:#dbdbdb"></rect><rect x="259.3" y="350.52" width="5.15" height="8.54" transform="translate(523.75 709.57) rotate(180)" style="fill:#dbdbdb"></rect><rect x="250.18" y="350.52" width="5.15" height="8.54" transform="translate(505.5 709.57) rotate(180)" style="fill:#dbdbdb"></rect><rect x="268.43" y="364.39" width="5.15" height="8.54" transform="translate(542 737.33) rotate(180)" style="fill:#dbdbdb"></rect><rect x="259.3" y="364.39" width="5.15" height="8.54" transform="translate(523.75 737.33) rotate(180)" style="fill:#dbdbdb"></rect><rect x="250.18" y="364.39" width="5.15" height="8.54" transform="translate(505.5 737.33) rotate(180)" style="fill:#dbdbdb"></rect><rect x="268.42" y="378.27" width="5.16" height="5.54" style="fill:#dbdbdb"></rect><rect x="259.3" y="378.27" width="5.15" height="5.54" style="fill:#dbdbdb"></rect><rect x="250.17" y="378.27" width="5.16" height="5.54" style="fill:#dbdbdb"></rect><rect x="93.03" y="234.13" width="21.43" height="25.31" transform="translate(207.48 493.57) rotate(180)" style="fill:#dbdbdb"></rect><rect x="79.44" y="234.13" width="13.59" height="26.24" transform="translate(172.47 494.5) rotate(180)" style="fill:#c7c7c7"></rect><rect x="78.53" y="245.31" width="13.48" height="15.06" transform="translate(170.55 505.68) rotate(180)" style="fill:#dbdbdb"></rect><rect x="70.12" y="245.31" width="8.41" height="15.06" transform="translate(148.66 505.68) rotate(180)" style="fill:#c7c7c7"></rect><rect x="88.02" y="257.8" width="34.65" height="125.93" transform="translate(210.7 641.53) rotate(180)" style="fill:#ebebeb"></rect><rect x="107.82" y="263.21" width="10.9" height="4.45" transform="translate(226.53 530.88) rotate(180)" style="fill:#fff"></rect><rect x="93.88" y="263.21" width="10.9" height="4.45" transform="translate(198.65 530.88) rotate(180)" style="fill:#fff"></rect><rect x="107.82" y="270.77" width="10.9" height="4.45" transform="translate(226.53 545.99) rotate(180)" style="fill:#fff"></rect><rect x="93.88" y="270.77" width="10.9" height="4.45" transform="translate(198.65 545.99) rotate(180)" style="fill:#fff"></rect><rect x="107.82" y="278.33" width="10.9" height="4.45" transform="translate(226.53 561.11) rotate(180)" style="fill:#fff"></rect><rect x="93.88" y="278.33" width="10.9" height="4.45" transform="translate(198.65 561.11) rotate(180)" style="fill:#fff"></rect><rect x="107.82" y="285.89" width="10.9" height="4.45" transform="translate(226.53 576.23) rotate(180)" style="fill:#fff"></rect><rect x="93.88" y="285.89" width="10.9" height="4.45" transform="translate(198.65 576.23) rotate(180)" style="fill:#fff"></rect><rect x="107.82" y="293.45" width="10.9" height="4.45" transform="translate(226.53 591.35) rotate(180)" style="fill:#fff"></rect><rect x="93.88" y="293.45" width="10.9" height="4.45" transform="translate(198.65 591.35) rotate(180)" style="fill:#fff"></rect><rect x="107.82" y="301.01" width="10.9" height="4.45" transform="translate(226.53 606.46) rotate(180)" style="fill:#fff"></rect><rect x="93.88" y="301.01" width="10.9" height="4.45" transform="translate(198.65 606.46) rotate(180)" style="fill:#fff"></rect><rect x="107.82" y="308.56" width="10.9" height="4.45" transform="translate(226.53 621.58) rotate(180)" style="fill:#fff"></rect><rect x="93.88" y="308.56" width="10.9" height="4.45" transform="translate(198.65 621.58) rotate(180)" style="fill:#fff"></rect><rect x="107.82" y="316.12" width="10.9" height="4.45" transform="translate(226.53 636.7) rotate(180)" style="fill:#fff"></rect><rect x="93.88" y="316.12" width="10.9" height="4.45" transform="translate(198.65 636.7) rotate(180)" style="fill:#fff"></rect><rect x="107.82" y="323.68" width="10.9" height="4.45" transform="translate(226.53 651.82) rotate(180)" style="fill:#fff"></rect><rect x="93.88" y="323.68" width="10.9" height="4.45" transform="translate(198.65 651.82) rotate(180)" style="fill:#fff"></rect><rect x="107.82" y="331.24" width="10.9" height="4.45" transform="translate(226.53 666.93) rotate(180)" style="fill:#fff"></rect><rect x="93.88" y="331.24" width="10.9" height="4.45" transform="translate(198.65 666.93) rotate(180)" style="fill:#fff"></rect><rect x="107.82" y="338.8" width="10.9" height="4.45" transform="translate(226.53 682.05) rotate(180)" style="fill:#fff"></rect><rect x="93.88" y="338.8" width="10.9" height="4.45" transform="translate(198.65 682.05) rotate(180)" style="fill:#fff"></rect><rect x="107.82" y="346.36" width="10.9" height="4.45" transform="translate(226.53 697.17) rotate(180)" style="fill:#fff"></rect><rect x="93.88" y="346.36" width="10.9" height="4.45" transform="translate(198.65 697.17) rotate(180)" style="fill:#fff"></rect><rect x="107.82" y="353.92" width="10.9" height="4.45" transform="translate(226.53 712.29) rotate(180)" style="fill:#fff"></rect><rect x="93.88" y="353.92" width="10.9" height="4.45" transform="translate(198.65 712.29) rotate(180)" style="fill:#fff"></rect><rect x="107.82" y="361.48" width="10.9" height="4.45" transform="translate(226.53 727.4) rotate(180)" style="fill:#fff"></rect><rect x="93.88" y="361.48" width="10.9" height="4.45" transform="translate(198.65 727.4) rotate(180)" style="fill:#fff"></rect><rect x="59.95" y="257.8" width="28.08" height="125.93" transform="translate(147.97 641.53) rotate(180)" style="fill:#c7c7c7"></rect><rect x="62.76" y="361.48" width="8.95" height="4.45" style="fill:#ebebeb"></rect><rect x="74.21" y="361.48" width="8.95" height="4.45" style="fill:#ebebeb"></rect><rect x="62.76" y="353.92" width="8.95" height="4.45" style="fill:#ebebeb"></rect><rect x="74.21" y="353.92" width="8.95" height="4.45" style="fill:#ebebeb"></rect><rect x="62.76" y="346.36" width="8.95" height="4.45" style="fill:#ebebeb"></rect><rect x="74.21" y="346.36" width="8.95" height="4.45" style="fill:#ebebeb"></rect><rect x="62.76" y="338.8" width="8.95" height="4.45" style="fill:#ebebeb"></rect><rect x="74.21" y="338.8" width="8.95" height="4.45" style="fill:#ebebeb"></rect><rect x="62.76" y="331.24" width="8.95" height="4.45" style="fill:#ebebeb"></rect><rect x="74.21" y="331.24" width="8.95" height="4.45" style="fill:#ebebeb"></rect><rect x="62.76" y="323.68" width="8.95" height="4.45" style="fill:#ebebeb"></rect><rect x="74.21" y="323.68" width="8.95" height="4.45" style="fill:#ebebeb"></rect><rect x="62.76" y="316.12" width="8.95" height="4.45" style="fill:#ebebeb"></rect><rect x="74.21" y="316.12" width="8.95" height="4.45" style="fill:#ebebeb"></rect><rect x="62.76" y="308.56" width="8.95" height="4.45" style="fill:#ebebeb"></rect><rect x="74.21" y="308.56" width="8.95" height="4.45" style="fill:#ebebeb"></rect><rect x="62.76" y="301.01" width="8.95" height="4.45" style="fill:#ebebeb"></rect><rect x="74.21" y="301.01" width="8.95" height="4.45" style="fill:#ebebeb"></rect><rect x="62.76" y="293.45" width="8.95" height="4.45" style="fill:#ebebeb"></rect><rect x="74.21" y="293.45" width="8.95" height="4.45" style="fill:#ebebeb"></rect><rect x="62.76" y="285.89" width="8.95" height="4.45" style="fill:#ebebeb"></rect><rect x="74.21" y="285.89" width="8.95" height="4.45" style="fill:#ebebeb"></rect><rect x="62.76" y="278.33" width="8.95" height="4.45" style="fill:#ebebeb"></rect><rect x="74.21" y="278.33" width="8.95" height="4.45" style="fill:#ebebeb"></rect><rect x="62.76" y="270.77" width="8.95" height="4.45" style="fill:#ebebeb"></rect><rect x="74.21" y="270.77" width="8.95" height="4.45" style="fill:#ebebeb"></rect><rect x="62.76" y="263.21" width="8.95" height="4.45" style="fill:#ebebeb"></rect><rect x="74.21" y="263.21" width="8.95" height="4.45" style="fill:#ebebeb"></rect><rect x="421.25" y="234.13" width="21.43" height="25.31" transform="translate(863.94 493.57) rotate(180)" style="fill:#dbdbdb"></rect><rect x="407.67" y="234.13" width="13.59" height="26.24" transform="translate(828.92 494.5) rotate(180)" style="fill:#c7c7c7"></rect><rect x="406.76" y="245.31" width="13.48" height="15.06" transform="translate(827.01 505.68) rotate(180)" style="fill:#dbdbdb"></rect><rect x="398.35" y="245.31" width="8.41" height="15.06" transform="translate(805.12 505.68) rotate(180)" style="fill:#c7c7c7"></rect><rect x="416.25" y="257.8" width="34.65" height="125.93" transform="translate(867.16 641.53) rotate(180)" style="fill:#ebebeb"></rect><rect x="436.05" y="263.21" width="10.9" height="4.45" transform="translate(882.99 530.88) rotate(180)" style="fill:#fff"></rect><rect x="422.11" y="263.21" width="10.9" height="4.45" transform="translate(855.11 530.88) rotate(180)" style="fill:#fff"></rect><rect x="436.05" y="270.77" width="10.9" height="4.45" transform="translate(882.99 545.99) rotate(180)" style="fill:#fff"></rect><rect x="422.11" y="270.77" width="10.9" height="4.45" transform="translate(855.11 545.99) rotate(180)" style="fill:#fff"></rect><rect x="436.05" y="278.33" width="10.9" height="4.45" transform="translate(882.99 561.11) rotate(180)" style="fill:#fff"></rect><rect x="422.11" y="278.33" width="10.9" height="4.45" transform="translate(855.11 561.11) rotate(180)" style="fill:#fff"></rect><rect x="436.05" y="285.89" width="10.9" height="4.45" transform="translate(882.99 576.23) rotate(180)" style="fill:#fff"></rect><rect x="422.11" y="285.89" width="10.9" height="4.45" transform="translate(855.11 576.23) rotate(180)" style="fill:#fff"></rect><rect x="436.05" y="293.45" width="10.9" height="4.45" transform="translate(882.99 591.35) rotate(180)" style="fill:#fff"></rect><rect x="422.11" y="293.45" width="10.9" height="4.45" transform="translate(855.11 591.35) rotate(180)" style="fill:#fff"></rect><rect x="436.05" y="301.01" width="10.9" height="4.45" transform="translate(882.99 606.46) rotate(180)" style="fill:#fff"></rect><rect x="422.11" y="301.01" width="10.9" height="4.45" transform="translate(855.11 606.46) rotate(180)" style="fill:#fff"></rect><rect x="436.05" y="308.56" width="10.9" height="4.45" transform="translate(882.99 621.58) rotate(180)" style="fill:#fff"></rect><rect x="422.11" y="308.56" width="10.9" height="4.45" transform="translate(855.11 621.58) rotate(180)" style="fill:#fff"></rect><rect x="436.05" y="316.12" width="10.9" height="4.45" transform="translate(882.99 636.7) rotate(180)" style="fill:#fff"></rect><rect x="422.11" y="316.12" width="10.9" height="4.45" transform="translate(855.11 636.7) rotate(180)" style="fill:#fff"></rect><rect x="436.05" y="323.68" width="10.9" height="4.45" transform="translate(882.99 651.82) rotate(180)" style="fill:#fff"></rect><rect x="422.11" y="323.68" width="10.9" height="4.45" transform="translate(855.11 651.82) rotate(180)" style="fill:#fff"></rect><rect x="436.05" y="331.24" width="10.9" height="4.45" transform="translate(882.99 666.93) rotate(180)" style="fill:#fff"></rect><rect x="422.11" y="331.24" width="10.9" height="4.45" transform="translate(855.11 666.93) rotate(180)" style="fill:#fff"></rect><rect x="436.05" y="338.8" width="10.9" height="4.45" transform="translate(882.99 682.05) rotate(180)" style="fill:#fff"></rect><rect x="422.11" y="338.8" width="10.9" height="4.45" transform="translate(855.11 682.05) rotate(180)" style="fill:#fff"></rect><rect x="436.05" y="346.36" width="10.9" height="4.45" transform="translate(882.99 697.17) rotate(180)" style="fill:#fff"></rect><rect x="422.11" y="346.36" width="10.9" height="4.45" transform="translate(855.11 697.17) rotate(180)" style="fill:#fff"></rect><rect x="436.05" y="353.92" width="10.9" height="4.45" transform="translate(882.99 712.29) rotate(180)" style="fill:#fff"></rect><rect x="422.11" y="353.92" width="10.9" height="4.45" transform="translate(855.11 712.29) rotate(180)" style="fill:#fff"></rect><rect x="436.05" y="361.48" width="10.9" height="4.45" transform="translate(882.99 727.4) rotate(180)" style="fill:#fff"></rect><rect x="422.11" y="361.48" width="10.9" height="4.45" transform="translate(855.11 727.4) rotate(180)" style="fill:#fff"></rect><rect x="388.17" y="257.8" width="28.08" height="125.93" transform="translate(804.43 641.53) rotate(180)" style="fill:#c7c7c7"></rect><rect x="390.99" y="361.48" width="8.95" height="4.45" style="fill:#ebebeb"></rect><rect x="402.43" y="361.48" width="8.95" height="4.45" style="fill:#ebebeb"></rect><rect x="390.99" y="353.92" width="8.95" height="4.45" style="fill:#ebebeb"></rect><rect x="402.43" y="353.92" width="8.95" height="4.45" style="fill:#ebebeb"></rect><rect x="390.99" y="346.36" width="8.95" height="4.45" style="fill:#ebebeb"></rect><rect x="402.43" y="346.36" width="8.95" height="4.45" style="fill:#ebebeb"></rect><rect x="390.99" y="338.8" width="8.95" height="4.45" style="fill:#ebebeb"></rect><rect x="402.43" y="338.8" width="8.95" height="4.45" style="fill:#ebebeb"></rect><rect x="390.99" y="331.24" width="8.95" height="4.45" style="fill:#ebebeb"></rect><rect x="402.43" y="331.24" width="8.95" height="4.45" style="fill:#ebebeb"></rect><rect x="390.99" y="323.68" width="8.95" height="4.45" style="fill:#ebebeb"></rect><rect x="402.43" y="323.68" width="8.95" height="4.45" style="fill:#ebebeb"></rect><rect x="390.99" y="316.12" width="8.95" height="4.45" style="fill:#ebebeb"></rect><rect x="402.43" y="316.12" width="8.95" height="4.45" style="fill:#ebebeb"></rect><rect x="390.99" y="308.56" width="8.95" height="4.45" style="fill:#ebebeb"></rect><rect x="402.43" y="308.56" width="8.95" height="4.45" style="fill:#ebebeb"></rect><rect x="390.99" y="301.01" width="8.95" height="4.45" style="fill:#ebebeb"></rect><rect x="402.43" y="301.01" width="8.95" height="4.45" style="fill:#ebebeb"></rect><rect x="390.99" y="293.45" width="8.95" height="4.45" style="fill:#ebebeb"></rect><rect x="402.43" y="293.45" width="8.95" height="4.45" style="fill:#ebebeb"></rect><rect x="390.99" y="285.89" width="8.95" height="4.45" style="fill:#ebebeb"></rect><rect x="402.43" y="285.89" width="8.95" height="4.45" style="fill:#ebebeb"></rect><rect x="390.99" y="278.33" width="8.95" height="4.45" style="fill:#ebebeb"></rect><rect x="402.43" y="278.33" width="8.95" height="4.45" style="fill:#ebebeb"></rect><rect x="390.99" y="270.77" width="8.95" height="4.45" style="fill:#ebebeb"></rect><rect x="402.43" y="270.77" width="8.95" height="4.45" style="fill:#ebebeb"></rect><rect x="390.99" y="263.21" width="8.95" height="4.45" style="fill:#ebebeb"></rect><rect x="402.43" y="263.21" width="8.95" height="4.45" style="fill:#ebebeb"></rect><rect x="213.18" y="301.67" width="40.87" height="82.06" transform="translate(467.24 685.4) rotate(180)" style="fill:#c7c7c7"></rect><rect x="240.39" y="308.77" width="7.23" height="5.03" transform="translate(488.02 622.58) rotate(180)" style="fill:#dbdbdb"></rect><rect x="240.39" y="319.51" width="7.23" height="5.03" transform="translate(488.02 644.05) rotate(180)" style="fill:#dbdbdb"></rect><rect x="240.39" y="330.25" width="7.23" height="5.03" transform="translate(488.02 665.53) rotate(180)" style="fill:#dbdbdb"></rect><rect x="240.39" y="340.99" width="7.23" height="5.03" transform="translate(488.02 687) rotate(180)" style="fill:#dbdbdb"></rect><rect x="240.39" y="351.73" width="7.23" height="5.03" transform="translate(488.02 708.48) rotate(180)" style="fill:#dbdbdb"></rect><rect x="240.39" y="362.46" width="7.23" height="5.03" transform="translate(488.02 729.96) rotate(180)" style="fill:#dbdbdb"></rect><rect x="240.39" y="373.2" width="7.23" height="5.03" transform="translate(488.02 751.43) rotate(180)" style="fill:#dbdbdb"></rect><rect x="229.99" y="308.77" width="7.23" height="5.03" transform="translate(467.21 622.58) rotate(180)" style="fill:#dbdbdb"></rect><rect x="229.99" y="319.51" width="7.23" height="5.03" transform="translate(467.21 644.05) rotate(180)" style="fill:#dbdbdb"></rect><rect x="229.99" y="330.25" width="7.23" height="5.03" transform="translate(467.21 665.53) rotate(180)" style="fill:#dbdbdb"></rect><rect x="229.99" y="340.99" width="7.23" height="5.03" transform="translate(467.21 687) rotate(180)" style="fill:#dbdbdb"></rect><rect x="229.99" y="351.73" width="7.23" height="5.03" transform="translate(467.21 708.48) rotate(180)" style="fill:#dbdbdb"></rect><rect x="229.99" y="362.46" width="7.23" height="5.03" transform="translate(467.21 729.96) rotate(180)" style="fill:#dbdbdb"></rect><rect x="229.99" y="373.2" width="7.23" height="5.03" transform="translate(467.21 751.43) rotate(180)" style="fill:#dbdbdb"></rect><rect x="219.61" y="308.77" width="7.23" height="5.03" transform="translate(446.45 622.58) rotate(180)" style="fill:#dbdbdb"></rect><rect x="219.61" y="319.51" width="7.23" height="5.03" transform="translate(446.45 644.05) rotate(180)" style="fill:#dbdbdb"></rect><rect x="219.61" y="330.25" width="7.23" height="5.03" transform="translate(446.45 665.53) rotate(180)" style="fill:#dbdbdb"></rect><rect x="219.61" y="340.99" width="7.23" height="5.03" transform="translate(446.45 687) rotate(180)" style="fill:#dbdbdb"></rect><rect x="219.61" y="351.73" width="7.23" height="5.03" transform="translate(446.45 708.48) rotate(180)" style="fill:#dbdbdb"></rect><rect x="219.61" y="362.46" width="7.23" height="5.03" transform="translate(446.45 729.96) rotate(180)" style="fill:#dbdbdb"></rect><rect x="219.61" y="373.2" width="7.23" height="5.03" transform="translate(446.45 751.43) rotate(180)" style="fill:#dbdbdb"></rect><rect x="213.18" y="293.12" width="27.21" height="8.55" transform="translate(453.58 594.79) rotate(180)" style="fill:#dbdbdb"></rect><rect x="213.18" y="287.83" width="17.25" height="5.29" transform="translate(443.62 580.95) rotate(180)" style="fill:#ebebeb"></rect><rect x="184.51" y="301.67" width="28.67" height="82.06" transform="translate(397.69 685.4) rotate(180)" style="fill:#a6a6a6"></rect><rect x="187.44" y="372.4" width="5.89" height="5.03" style="fill:#c7c7c7"></rect><rect x="187.44" y="361.66" width="5.89" height="5.03" style="fill:#c7c7c7"></rect><rect x="187.44" y="350.92" width="5.89" height="5.03" style="fill:#c7c7c7"></rect><rect x="187.44" y="340.19" width="5.89" height="5.03" style="fill:#c7c7c7"></rect><rect x="187.44" y="329.45" width="5.89" height="5.03" style="fill:#c7c7c7"></rect><rect x="187.44" y="318.71" width="5.89" height="5.03" style="fill:#c7c7c7"></rect><rect x="187.44" y="307.97" width="5.89" height="5.03" style="fill:#c7c7c7"></rect><rect x="195.91" y="372.4" width="5.89" height="5.03" style="fill:#c7c7c7"></rect><rect x="195.91" y="361.66" width="5.89" height="5.03" style="fill:#c7c7c7"></rect><rect x="195.91" y="350.92" width="5.89" height="5.03" style="fill:#c7c7c7"></rect><rect x="195.91" y="340.19" width="5.89" height="5.03" style="fill:#c7c7c7"></rect><rect x="195.91" y="329.45" width="5.89" height="5.03" style="fill:#c7c7c7"></rect><rect x="195.91" y="318.71" width="5.89" height="5.03" style="fill:#c7c7c7"></rect><rect x="195.91" y="307.97" width="5.89" height="5.03" style="fill:#c7c7c7"></rect><rect x="204.36" y="372.4" width="5.89" height="5.03" style="fill:#c7c7c7"></rect><rect x="204.36" y="361.66" width="5.89" height="5.03" style="fill:#c7c7c7"></rect><rect x="204.36" y="350.92" width="5.89" height="5.03" style="fill:#c7c7c7"></rect><rect x="204.36" y="340.19" width="5.89" height="5.03" style="fill:#c7c7c7"></rect><rect x="204.36" y="329.45" width="5.89" height="5.03" style="fill:#c7c7c7"></rect><rect x="204.36" y="318.71" width="5.89" height="5.03" style="fill:#c7c7c7"></rect><rect x="204.36" y="307.97" width="5.89" height="5.03" style="fill:#c7c7c7"></rect><rect x="188.85" y="293.12" width="24.33" height="8.55" transform="translate(402.04 594.79) rotate(180)" style="fill:#c7c7c7"></rect><rect x="200" y="287.83" width="13.18" height="5.29" transform="translate(413.18 580.95) rotate(180)" style="fill:#dbdbdb"></rect><path d="M693.74,179.15H586.06S596.74,150,613.17,150s21.58,20.13,21.58,20.13,11.08-10.94,20.19-10.94,17,14.45,17,14.45S684.83,165.86,693.74,179.15Z" style="fill:#ebebeb"></path><path d="M562,137.94H511.68s11.24-16.3,20.1-16.3,11.47,10.87,11.47,10.87,6.26-5.07,12-4.17S562,137.94,562,137.94Z" style="fill:#ebebeb"></path><path d="M273,177H222.63s11.24-16.29,20.1-16.29,11.48,10.86,11.48,10.86,6.25-5.07,12-4.17S273,177,273,177Z" style="fill:#ebebeb"></path><path d="M154.28,119.14h-98s13.43-30,27.79-31.84,21.22,22.26,21.22,22.26,9.26-8.53,16.54-8.53,12.91,11.24,12.91,11.24S149.28,104.57,154.28,119.14Z" style="fill:#ebebeb"></path><path d="M328.31,63.47H262.1s11.37-21.71,23.71-22,18.82,16.43,18.82,16.43S323.82,42.47,328.31,63.47Z" style="fill:#ebebeb"></path></g><g id="freepik--Plants--inject-121"><rect x="52.38" y="331.3" width="193.42" height="52.44" transform="translate(298.17 715.04) rotate(180)" style="fill:#FFC107"></rect><rect x="210.4" y="331.3" width="35.4" height="52.44" transform="translate(456.19 715.04) rotate(180)" style="opacity:0.1"></rect><path d="M62.9,331.3s2.47-11.5,7.39-13.28,7.92,3.39,7.92,3.39,1.16-11,8.14-14.28,12.22,3.45,12.22,3.45,5.36-13.95,14.93-13.95S127.89,317,127.89,317s5.65-6.08,11.44-2.65,5.79,16.91,5.79,16.91Z" style="fill:#37474f"></path><path d="M161,331.3h74.15s-2.44-10.46-7.36-11.2-7.2,4.11-7.2,4.11.22-14.58-9-17.06-16.89,10.4-16.89,10.4-5.75-7.35-13.6-6.88-9.84,12.61-9.84,12.61S164.12,319.06,161,331.3Z" style="fill:#37474f"></path><path d="M139.8,331.3h45.56s-.1-6.78-4.58-8.58a6.1,6.1,0,0,0-7.14,1.71S171.81,312,163.46,312s-12.34,10.76-12.34,10.76a6.4,6.4,0,0,0-6.5-2.65C140,320.68,139.8,331.3,139.8,331.3Z" style="fill:#455a64"></path><rect x="505.21" y="331.3" width="193.42" height="52.44" transform="translate(1203.84 715.04) rotate(180)" style="fill:#FFC107"></rect><rect x="663.23" y="331.3" width="35.4" height="52.44" transform="translate(1361.86 715.04) rotate(180)" style="opacity:0.1"></rect><path d="M515.74,331.3s2.46-11.5,7.39-13.28,7.92,3.39,7.92,3.39,1.16-11,8.14-14.28,12.22,3.45,12.22,3.45,5.35-13.95,14.92-13.95S580.73,317,580.73,317s5.64-6.08,11.43-2.65S598,331.3,598,331.3Z" style="fill:#37474f"></path><path d="M613.8,331.3H688s-2.45-10.46-7.36-11.2-7.21,4.11-7.21,4.11.23-14.58-9-17.06-16.88,10.4-16.88,10.4-5.76-7.35-13.6-6.88-9.84,12.61-9.84,12.61S617,319.06,613.8,331.3Z" style="fill:#37474f"></path><path d="M592.64,331.3H638.2s-.11-6.78-4.59-8.58a6.1,6.1,0,0,0-7.14,1.71S624.64,312,616.3,312,604,322.72,604,322.72a6.4,6.4,0,0,0-6.5-2.65C592.82,320.68,592.64,331.3,592.64,331.3Z" style="fill:#455a64"></path></g><g id="freepik--Floor--inject-121"><polygon points="49.44 383.84 130.83 383.59 212.22 383.51 375 383.34 537.78 383.5 619.17 383.59 700.56 383.84 619.17 384.08 537.78 384.17 375 384.34 212.22 384.17 130.83 384.08 49.44 383.84" style="fill:#263238"></polygon><polygon points="49.44 453.66 130.83 453.42 212.22 453.33 375 453.17 537.78 453.33 619.17 453.42 700.56 453.66 619.17 453.91 537.78 454 375 454.16 212.22 454 130.83 453.91 49.44 453.66" style="fill:#263238"></polygon><rect x="49.44" y="453.66" width="651.13" height="6.07" style="fill:#c7c7c7"></rect><path d="M95.09,453.66a5.93,5.93,0,0,1,.77,3,5.8,5.8,0,0,1-.77,3,5.72,5.72,0,0,1-.78-3A5.94,5.94,0,0,1,95.09,453.66Z" style="fill:#263238"></path><path d="M146,453.66a6.37,6.37,0,0,1,0,6.07,6.37,6.37,0,0,1,0-6.07Z" style="fill:#263238"></path><path d="M196.87,453.66a5.94,5.94,0,0,1,.78,3,5.81,5.81,0,0,1-.78,3,5.8,5.8,0,0,1-.77-3A5.93,5.93,0,0,1,196.87,453.66Z" style="fill:#263238"></path><path d="M247.77,453.66a5.93,5.93,0,0,1,.77,3,5.8,5.8,0,0,1-.77,3,5.81,5.81,0,0,1-.78-3A5.94,5.94,0,0,1,247.77,453.66Z" style="fill:#263238"></path><path d="M298.66,453.66a6.37,6.37,0,0,1,0,6.07,6.37,6.37,0,0,1,0-6.07Z" style="fill:#263238"></path><path d="M349.55,453.66a5.94,5.94,0,0,1,.78,3,5.81,5.81,0,0,1-.78,3,5.8,5.8,0,0,1-.77-3A5.93,5.93,0,0,1,349.55,453.66Z" style="fill:#263238"></path><path d="M400.45,453.66a5.93,5.93,0,0,1,.77,3,5.8,5.8,0,0,1-.77,3,5.81,5.81,0,0,1-.78-3A5.94,5.94,0,0,1,400.45,453.66Z" style="fill:#263238"></path><path d="M451.34,453.66a6.37,6.37,0,0,1,0,6.07,6.37,6.37,0,0,1,0-6.07Z" style="fill:#263238"></path><path d="M502.23,453.66a5.94,5.94,0,0,1,.78,3,5.81,5.81,0,0,1-.78,3,5.8,5.8,0,0,1-.77-3A5.93,5.93,0,0,1,502.23,453.66Z" style="fill:#263238"></path><path d="M553.13,453.66a5.93,5.93,0,0,1,.77,3,5.8,5.8,0,0,1-.77,3,5.81,5.81,0,0,1-.78-3A5.94,5.94,0,0,1,553.13,453.66Z" style="fill:#263238"></path><path d="M604,453.66a6.37,6.37,0,0,1,0,6.07,6.37,6.37,0,0,1,0-6.07Z" style="fill:#263238"></path><path d="M654.91,453.66a5.94,5.94,0,0,1,.78,3,5.72,5.72,0,0,1-.78,3,5.8,5.8,0,0,1-.77-3A5.93,5.93,0,0,1,654.91,453.66Z" style="fill:#263238"></path></g><g id="freepik--Shadow--inject-121"><ellipse cx="441.25" cy="428.83" rx="191.14" ry="14.46" style="fill:#ebebeb"></ellipse></g><g id="freepik--bus-stop--inject-121"><path d="M593,87.85H157c4.36-20.64,22.6-29.9,22.6-29.9H570.44S588.68,67.21,593,87.85Z" style="fill:#FFC107"></path><path d="M307.54,58a103.72,103.72,0,0,0-10.26,29.9H286.11A118.66,118.66,0,0,1,295.22,58Z" style="fill:#263238"></path><path d="M463.89,87.85H452.73A102.81,102.81,0,0,0,442.48,58h12.3A118.66,118.66,0,0,1,463.89,87.85Z" style="fill:#263238"></path><path d="M593,87.85H157a41.56,41.56,0,0,1,3.59-10.2L587.31,73.9A42.1,42.1,0,0,1,593,87.85Z" style="opacity:0.1"></path><rect x="151.32" y="87.85" width="13.87" height="315.99" style="fill:#263238"></rect><rect x="187.53" y="114.79" width="13.87" height="269.05" style="fill:#263238"></rect><rect x="293.79" y="114.79" width="10.87" height="269.05" style="fill:#263238"></rect><rect x="445.34" y="114.79" width="10.87" height="269.05" style="fill:#263238"></rect><rect x="584.81" y="87.85" width="13.87" height="315.99" transform="translate(1183.5 491.69) rotate(180)" style="fill:#263238"></rect><rect x="548.6" y="114.79" width="13.87" height="269.05" transform="translate(1111.07 498.63) rotate(180)" style="fill:#263238"></rect><path d="M600.68,81.85H149.32l-4,8.15,40.21,28,4,1.19H560.47l4-1.19L604.68,90Zm-42.5,28H191.82L165,91.18H585Z" style="fill:#263238"></path><polygon points="584.97 91.18 558.18 109.8 191.82 109.8 165.03 91.18 584.97 91.18" style="fill:#FFC107;opacity:0.4"></polygon><polygon points="295.32 117.74 286.69 84.8 296.49 83.24 305.12 116.19 295.32 117.74" style="fill:#263238"></polygon><polygon points="454.68 117.74 444.88 116.19 453.51 83.24 463.31 84.8 454.68 117.74" style="fill:#263238"></polygon><polygon points="555.6 323.94 584.81 343.06 584.81 164.57 555.6 172.57 555.6 323.94" style="fill:#dbdbdb;opacity:0.7000000000000001"></polygon><polygon points="194.24 323.94 165.03 343.06 165.03 164.57 194.24 172.57 194.24 323.94" style="fill:#dbdbdb;opacity:0.7000000000000001"></polygon></g><g id="freepik--Bench--inject-121"><rect x="201.4" y="232.1" width="243.94" height="19.86" style="fill:#FFC107"></rect><rect x="201.4" y="232.1" width="243.94" height="19.86" style="opacity:0.2"></rect><rect x="201.4" y="261.3" width="243.94" height="19.86" style="fill:#FFC107"></rect><rect x="201.4" y="261.3" width="243.94" height="19.86" style="opacity:0.2"></rect><polygon points="475.34 310.23 171.4 310.23 201.4 290.37 445.34 290.37 475.34 310.23" style="fill:#FFC107"></polygon><polygon points="475.34 310.23 171.4 310.23 201.4 290.37 445.34 290.37 475.34 310.23" style="opacity:0.2"></polygon><rect x="171.4" y="310.23" width="303.94" height="6.33" style="fill:#FFC107"></rect></g><g id="freepik--Sign--inject-121"><rect x="656.85" y="57.95" width="7.78" height="325.89" style="fill:#37474f"></rect><polygon points="693.56 62.93 693.56 139.64 627.92 139.64 627.92 62.93 660.74 62.93 693.56 62.93" style="fill:#FFC107"></polygon><path d="M689.59,135.86h-57.7V66.7h57.7Zm-56.7-1h55.7V67.7h-55.7Z" style="fill:#263238"></path><polygon points="676.68 108.3 644.79 108.3 644.79 94.45 647.59 76.41 673.88 76.41 676.68 94.45 676.68 108.3" style="fill:#263238"></polygon><rect x="646.96" y="108.3" width="3.45" height="6.41" style="fill:#263238"></rect><rect x="671.06" y="108.3" width="3.45" height="6.41" style="fill:#263238"></rect><path d="M650.36,101.39a1.67,1.67,0,1,1-1.67-1.67A1.67,1.67,0,0,1,650.36,101.39Z" style="fill:#FFC107"></path><path d="M674.45,101.39a1.67,1.67,0,1,1-1.67-1.67A1.67,1.67,0,0,1,674.45,101.39Z" style="fill:#FFC107"></path><polygon points="671.12 82.65 650.36 82.65 648.52 94.45 672.96 94.45 671.12 82.65" style="fill:#FFC107"></polygon><rect x="654.78" y="77.98" width="11.91" height="2.29" style="fill:#FFC107"></rect><path d="M662.26,69.87a1.52,1.52,0,1,1-1.52-1.52A1.52,1.52,0,0,1,662.26,69.87Z" style="fill:#dbdbdb"></path><path d="M662.26,132.7a1.52,1.52,0,1,1-1.52-1.52A1.52,1.52,0,0,1,662.26,132.7Z" style="fill:#dbdbdb"></path><path d="M645.91,123.88a1.35,1.35,0,0,1-.55,1.11,2.09,2.09,0,0,1-.6.29,2.86,2.86,0,0,1-.73.1h-2.81v-5.83h3.11a1.1,1.1,0,0,1,.55.14,1.17,1.17,0,0,1,.42.34,1.37,1.37,0,0,1,.27.47,1.7,1.7,0,0,1,.09.54,1.62,1.62,0,0,1-.21.8,1.28,1.28,0,0,1-.62.55,1.45,1.45,0,0,1,1.08,1.49Zm-3.56-3.36V122h1.51a.66.66,0,0,0,.49-.2.73.73,0,0,0,.2-.54.72.72,0,0,0-.19-.53.59.59,0,0,0-.45-.2Zm2.42,3.14a1,1,0,0,0,0-.3,1.28,1.28,0,0,0-.15-.25.65.65,0,0,0-.21-.16.5.5,0,0,0-.27-.07h-1.74v1.54H644a.68.68,0,0,0,.29-.06.78.78,0,0,0,.24-.16,1,1,0,0,0,.15-.24A.73.73,0,0,0,644.77,123.66Z" style="fill:#263238"></path><path d="M649.26,124.42a1.28,1.28,0,0,0,.67-.17,1.4,1.4,0,0,0,.45-.42,1.72,1.72,0,0,0,.23-.61,3.2,3.2,0,0,0,.07-.7v-3h1.13v3a4.11,4.11,0,0,1-.15,1.13,2.47,2.47,0,0,1-.45.92,2.12,2.12,0,0,1-.79.62,2.73,2.73,0,0,1-1.16.23,2.64,2.64,0,0,1-1.18-.24,2.19,2.19,0,0,1-.79-.64,2.5,2.5,0,0,1-.44-.93,4.34,4.34,0,0,1-.14-1.09v-3h1.13v3a3.22,3.22,0,0,0,.08.71,1.72,1.72,0,0,0,.23.61,1.24,1.24,0,0,0,1.11.58Z" style="fill:#263238"></path><path d="M656.42,121.08l-.21-.16a3.15,3.15,0,0,0-.37-.19l-.47-.16a2.31,2.31,0,0,0-.52-.06,1.15,1.15,0,0,0-.7.17.56.56,0,0,0-.23.48.49.49,0,0,0,.09.3.75.75,0,0,0,.25.21,1.75,1.75,0,0,0,.41.16c.17,0,.36.11.58.16s.54.16.78.25a2.08,2.08,0,0,1,.59.32,1.44,1.44,0,0,1,.37.48,1.51,1.51,0,0,1,.13.67,1.66,1.66,0,0,1-.18.8,1.44,1.44,0,0,1-.47.54,2,2,0,0,1-.69.3,3.62,3.62,0,0,1-.82.09,4.38,4.38,0,0,1-1.29-.19,4,4,0,0,1-1.15-.56l.5-1a1.55,1.55,0,0,0,.27.2l.45.23a3.3,3.3,0,0,0,.58.2,2.5,2.5,0,0,0,.66.09c.62,0,.94-.2.94-.6a.5.5,0,0,0-.11-.32.8.8,0,0,0-.3-.23,2.41,2.41,0,0,0-.48-.18l-.62-.18a6.16,6.16,0,0,1-.73-.25,1.94,1.94,0,0,1-.51-.32,1.27,1.27,0,0,1-.31-.43,1.44,1.44,0,0,1-.1-.58,1.75,1.75,0,0,1,.16-.78,1.54,1.54,0,0,1,.46-.58,2.14,2.14,0,0,1,.67-.35,2.82,2.82,0,0,1,.83-.12,3.15,3.15,0,0,1,1.13.2,4.06,4.06,0,0,1,.91.45Z" style="fill:#263238"></path><path d="M663.41,121.08l-.21-.16a2.51,2.51,0,0,0-.37-.19,4.29,4.29,0,0,0-.47-.16,2.24,2.24,0,0,0-.52-.06,1.1,1.1,0,0,0-.69.17.54.54,0,0,0-.23.48.56.56,0,0,0,.08.3.75.75,0,0,0,.25.21,1.68,1.68,0,0,0,.42.16c.17,0,.36.11.58.16s.54.16.77.25a2,2,0,0,1,.59.32,1.47,1.47,0,0,1,.38.48,1.83,1.83,0,0,1,0,1.47,1.56,1.56,0,0,1-.48.54,1.91,1.91,0,0,1-.68.3,3.68,3.68,0,0,1-.82.09,4.45,4.45,0,0,1-1.3-.19,3.91,3.91,0,0,1-1.14-.56l.5-1a1.39,1.39,0,0,0,.26.2c.13.07.28.15.46.23a3,3,0,0,0,.58.2,2.39,2.39,0,0,0,.66.09q.93,0,.93-.6a.45.45,0,0,0-.11-.32.8.8,0,0,0-.3-.23,2.2,2.2,0,0,0-.48-.18l-.62-.18a5.41,5.41,0,0,1-.72-.25,2,2,0,0,1-.52-.32,1.24,1.24,0,0,1-.3-.43,1.43,1.43,0,0,1-.11-.58,1.76,1.76,0,0,1,.17-.78,1.62,1.62,0,0,1,.45-.58,2.19,2.19,0,0,1,.68-.35,2.78,2.78,0,0,1,.83-.12,3.19,3.19,0,0,1,1.13.2,4.2,4.2,0,0,1,.9.45Z" style="fill:#263238"></path><path d="M669.28,120.55h-1.86v4.83H666.3v-4.83h-1.86v-1h4.84Z" style="fill:#263238"></path><path d="M672.22,125.42a2.6,2.6,0,0,1-1.16-.25,2.86,2.86,0,0,1-.9-.67,3.13,3.13,0,0,1-.78-2,2.87,2.87,0,0,1,.22-1.12,2.9,2.9,0,0,1,.6-.94,2.67,2.67,0,0,1,.9-.65,2.57,2.57,0,0,1,1.14-.25,2.6,2.6,0,0,1,1.16.26,3,3,0,0,1,.89.68,3.25,3.25,0,0,1,.57,1,3,3,0,0,1-.6,3.13,2.81,2.81,0,0,1-.9.65A2.71,2.71,0,0,1,672.22,125.42Zm-1.69-3a2.58,2.58,0,0,0,.11.73,2,2,0,0,0,.34.62,1.6,1.6,0,0,0,.53.43,1.61,1.61,0,0,0,1.44,0,1.67,1.67,0,0,0,.54-.45,2.16,2.16,0,0,0,.33-.62,2.5,2.5,0,0,0,.11-.71,2.19,2.19,0,0,0-.12-.73,2.12,2.12,0,0,0-.34-.63,1.6,1.6,0,0,0-.53-.43,1.65,1.65,0,0,0-.71-.16,1.54,1.54,0,0,0-.73.17,1.53,1.53,0,0,0-.53.44,1.81,1.81,0,0,0-.33.63A2.45,2.45,0,0,0,670.53,122.47Z" style="fill:#263238"></path><path d="M675.93,125.38v-5.83h2.47a1.72,1.72,0,0,1,.75.17,1.82,1.82,0,0,1,.58.45,2.1,2.1,0,0,1,.39.62,1.94,1.94,0,0,1,.14.7,2.18,2.18,0,0,1-.13.72,2,2,0,0,1-.37.62,1.79,1.79,0,0,1-.58.43,1.64,1.64,0,0,1-.74.17h-1.37v1.95Zm1.14-2.95h1.31a.64.64,0,0,0,.52-.25,1.05,1.05,0,0,0,.21-.69,1,1,0,0,0-.07-.4,1,1,0,0,0-.17-.3.64.64,0,0,0-.25-.18.72.72,0,0,0-.29-.06h-1.26Z" style="fill:#263238"></path><rect x="654.06" y="297" width="13.35" height="86.84" style="fill:#263238"></rect></g></svg>