<svg xmlns="http://www.w3.org/2000/svg" viewBox="0 0 750 500"><g id="freepik--background-complete--inject-190"><rect x="59.48" y="186.31" width="97.79" height="181.87" style="fill:#ebebeb"></rect><rect x="54.74" y="181.29" width="107.26" height="5.02" style="fill:#dbdbdb"></rect><rect x="162" y="181.29" width="33.73" height="5.02" style="fill:#ebebeb"></rect><rect x="157.27" y="186.31" width="33.13" height="181.87" style="fill:#dbdbdb"></rect><path d="M146.74,249H70V205.57h76.74Zm-76.49-.25h76.24V205.82H70.25Z" style="fill:#c7c7c7"></path><rect x="97.66" y="218.25" width="14.94" height="8.59" style="fill:#c7c7c7"></rect><path d="M117.14,226.31H102v-7.54h15.18Zm-14.93-.25h14.68v-7H102.21Z" style="fill:#c7c7c7"></path><path d="M146.74,303.43H70V260.05h76.74Zm-76.49-.25h76.24V260.3H70.25Z" style="fill:#c7c7c7"></path><rect x="97.66" y="272.73" width="14.94" height="8.59" style="fill:#c7c7c7"></rect><path d="M117.14,280.8H102v-7.55h15.18Zm-14.93-.25h14.68V273.5H102.21Z" style="fill:#c7c7c7"></path><path d="M146.74,357.91H70V314.53h76.74Zm-76.49-.25h76.24V314.78H70.25Z" style="fill:#c7c7c7"></path><rect x="97.66" y="327.21" width="14.94" height="8.59" style="fill:#c7c7c7"></rect><path d="M117.14,335.28H102v-7.54h15.18ZM102.21,335h14.68v-7H102.21Z" style="fill:#c7c7c7"></path><rect x="559" y="239.31" width="97.79" height="128.87" style="fill:#ebebeb"></rect><rect x="554.26" y="234.29" width="107.26" height="5.02" style="fill:#dbdbdb"></rect><rect x="661.52" y="234.29" width="33.73" height="5.02" style="fill:#ebebeb"></rect><rect x="656.79" y="239.31" width="33.13" height="128.87" style="fill:#dbdbdb"></rect><rect x="569.65" y="258.7" width="76.49" height="43.12" style="fill:#a6a6a6"></rect><rect x="580.46" y="247.66" width="58.23" height="42.21" style="fill:#c7c7c7"></rect><polygon points="601.03 243.28 580.46 243.28 580.46 247.66 602.22 247.66 601.03 243.28" style="fill:#c7c7c7"></polygon><polygon points="638.53 289.86 580.31 289.86 575.82 251.16 634.04 251.16 638.53 289.86" style="fill:#a6a6a6"></polygon><polygon points="595.92 247.15 575.35 247.15 575.82 251.16 597.57 251.16 595.92 247.15" style="fill:#a6a6a6"></polygon><rect x="532.8" y="258.7" width="76.49" height="43.12" style="fill:#ebebeb"></rect><path d="M609.41,302H532.68V258.57h76.73Zm-76.48-.25h76.23V258.82H532.93Z" style="fill:#c7c7c7"></path><rect x="560.34" y="271.25" width="14.94" height="8.59" style="fill:#c7c7c7"></rect><path d="M579.81,279.32H564.63v-7.55h15.18Zm-14.93-.25h14.68V272H564.88Z" style="fill:#c7c7c7"></path><rect x="609.48" y="265.16" width="36.66" height="36.66" style="fill:#dbdbdb"></rect><path d="M646.26,356.43H569.52V313.05h76.74Zm-76.49-.25H646V313.3H569.77Z" style="fill:#c7c7c7"></path><rect x="597.18" y="325.73" width="14.94" height="8.59" style="fill:#c7c7c7"></rect><path d="M616.66,333.8H601.48v-7.55h15.18Zm-14.93-.25h14.68V326.5H601.73Z" style="fill:#c7c7c7"></path></g><g id="freepik--Floor--inject-190"><polygon points="49.03 368.18 130.53 367.94 212.02 367.85 375 367.68 537.98 367.85 619.47 367.94 700.97 368.18 619.47 368.43 537.98 368.51 375 368.68 212.02 368.51 130.53 368.42 49.03 368.18" style="fill:#263238"></polygon></g><g id="freepik--Shadow--inject-190"><ellipse cx="375" cy="427.41" rx="286.74" ry="31.42" style="fill:#ebebeb"></ellipse></g><g id="freepik--Plant--inject-190"><path d="M674.35,296.87a57.33,57.33,0,0,0-1.85,10.46c.1.17.08.82,0,.64,0,.58-.89.47-.89-.09l0-1.1c-2-2.54-5-4.15-7.41-6.35a13.93,13.93,0,0,1-4.06-6.46c-2-6.86-.12-14.13-2.52-21-2.06-5.89-5.76-11-8.89-16.36-3.3-5.65-5.74-11.59-6-18.21-.19-5.06.41-11.82,4.27-15.61,4.09-4,9.16-1,12.3,2.58,9.08,10.42,13.28,23.59,15,37.06.94,7.46,1.91,15,1.69,22.48A60.64,60.64,0,0,1,674.35,296.87Z" style="fill:#FFC107"></path><path d="M672.54,310.06a128.26,128.26,0,0,0-.25-21.11s0-.05,0-.08c.11-5.71.56-11.39.34-17.11a101.4,101.4,0,0,0-2.51-18.35c0-.07-.13,0-.11,0a118.64,118.64,0,0,1,2,17.94q.18,4.85-.07,9.68c-.06,1.05-.16,2.1-.23,3.16h0a113,113,0,0,0-17-44.94c-.12-.19-.45,0-.33.2a117.41,117.41,0,0,1,13.82,33.32c-4.37-8.09-11-14.74-15.86-22.52,0,0-.09,0-.07.05,4.39,8.66,11.66,15.48,16.29,24,.8,3.48,1.46,7,1.95,10.51a117.25,117.25,0,0,1,1.05,14.61c-2.66-5-5.42-9.73-7.6-15,0-.14-.26,0-.21.1,1.85,5.46,4.34,11.35,7.83,16q0,5.19-.29,10.37c-.54,9.22-2.12,18.32-2.85,27.51a.21.21,0,0,0,.42.05A210.56,210.56,0,0,0,672.54,310.06Z" style="fill:#263238"></path><path d="M662.75,239a.06.06,0,0,0-.1,0c1.68,4.65,2.63,9.37,3.85,14.15a.18.18,0,0,0,.35-.06A51.19,51.19,0,0,0,662.75,239Z" style="fill:#263238"></path><path d="M705.51,258.48a70.39,70.39,0,0,1-3.87,8c-3,5.5-6.2,10.55-6.77,17a38.66,38.66,0,0,1-1.22,8.5,25.28,25.28,0,0,1-3.38,6.65c-3.29,4.79-7.4,8.91-10.44,13.88a58.31,58.31,0,0,0-6.94,16.73c-.08.32-.58.23-.51-.09a.14.14,0,0,0,0-.07s0,0,0-.07c-.48-13.75.62-27.6,4.81-40.78a140.68,140.68,0,0,1,6.66-17,40.27,40.27,0,0,1,9-12.93c2.56-2.31,8.11-6.68,11.75-4.36C706.33,255,706.2,256.76,705.51,258.48Z" style="fill:#FFC107"></path><path d="M691.7,289.65a113.66,113.66,0,0,1-8,11.48c-1.34,1.74-2.69,3.46-4,5.2-.63.83-1.34,1.65-1.91,2.53.36-1.45.71-2.9,1.08-4.34,1.78-6.95,3.48-13.95,6.13-20.63a139,139,0,0,1,9.54-18.72c.09-.16-.16-.27-.26-.12-2.9,4.78-5.85,9.55-8.29,14.59a74.29,74.29,0,0,0-3.52,8.65,133.15,133.15,0,0,1,4.68-18.49c0-.05-.06-.09-.08,0A63.18,63.18,0,0,0,682.21,289s0,0,0,0c-.6,1.78-1.15,3.59-1.66,5.4-2.17,7.69-4.07,15.47-5.83,23.27a82.61,82.61,0,0,1,1.33-15.29.09.09,0,0,0-.18,0,48.32,48.32,0,0,0-1.33,16.11q-1,4.45-1.95,8.91c-1.35,6.34-3,12.79-3.8,19.22a.13.13,0,0,0,.25.05c1-3.47,1.51-7.07,2.29-10.58s1.57-7,2.39-10.55q1.78-7.68,3.72-15.32c.85-1.86,2.49-3.52,3.73-5.09s2.7-3.44,4-5.19a77.49,77.49,0,0,0,6.62-10.24C691.86,289.63,691.74,289.57,691.7,289.65Z" style="fill:#263238"></path><path d="M692.28,283.77a71.49,71.49,0,0,0-7.82,12.42c0,.06.06.12.1.06,2.63-4.12,5.22-8.28,7.84-12.41C692.45,283.78,692.33,283.7,692.28,283.77Z" style="fill:#263238"></path><path d="M633.75,271.51c1.79,3.07,3.82,6.76,3,10.44-.48,2.33-2.19,4.23-2.5,6.61-.69,5.25,4.55,8.72,8.34,11.2,9.44,6.2,22.38,11.72,24.1,24.37.07.44.84.33.78-.11a.31.31,0,0,0,0-.08s0,0,0-.07a48.34,48.34,0,0,0-.18-19.32c-1.4-6.52-4.25-12.38-7.61-18.11-5.68-9.69-11.7-19.62-20.29-27-2.38-2.06-7.25-5.75-9.14-1.11S631.57,267.77,633.75,271.51Z" style="fill:#FFC107"></path><path d="M642.4,292.06c6.25,6.78,16.21,10.58,21.59,18.17a75.92,75.92,0,0,0-16.6-31.18c-.2-.23.12-.57.35-.35a61.4,61.4,0,0,1,13.56,19.65,87,87,0,0,0-5.84-14.94.16.16,0,0,1,.28-.16A56.89,56.89,0,0,1,662,300c7.09,17.19,7.75,37.34,6.26,55.46,0,.26-.41.27-.4,0,.4-14.28.17-28.8-3.25-42.74-.07-.29-.15-.58-.22-.87-5.86-8.17-15.77-12-22.14-19.72C642.23,292.1,642.33,292,642.4,292.06Z" style="fill:#263238"></path><path d="M640.94,286.24c3.29,3,6.52,6.1,9.82,9.11a0,0,0,0,1,0,.07,48.1,48.1,0,0,1-10-9C640.64,286.3,640.81,286.12,640.94,286.24Z" style="fill:#263238"></path><path d="M640.42,273.18a103.59,103.59,0,0,0,9.84,13.53.06.06,0,0,1-.09.08,47.57,47.57,0,0,1-9.92-13.5A.1.1,0,0,1,640.42,273.18Z" style="fill:#263238"></path><polygon points="655.22 368.27 684 368.27 680.12 329.55 659.65 329.55 655.22 368.27" style="fill:#455a64"></polygon><polygon points="658.93 335.85 680.75 335.85 680.12 329.55 659.65 329.55 658.93 335.85" style="fill:#263238"></polygon><rect x="656.12" y="325.26" width="26.98" height="6.18" transform="translate(1339.22 656.71) rotate(180)" style="fill:#455a64"></rect></g><g id="freepik--Character--inject-190"><path d="M221.65,437.42c-2.33.76-68.71-.1-71.21-1.74-1-.61-1.41-10.29-1.6-22v-.37c-.05-2.41-.08-4.9-.08-7.41,0-.35,0-.7,0-1-.1-16.9.17-34.44.17-34.44l44.4.44L192,405l-.05,1.35-.27,7.06,0,.73s25.26,11.69,27.83,13.78S224,436.68,221.65,437.42Z" style="fill:#dd6a57"></path><path d="M201.7,418.66c-.17-.05-.26-.11-.27-.16Z" style="fill:#FFC107"></path><path d="M221.64,437.42c-2.32.75-68.7-.1-71.21-1.75-.85-.53-1.3-8.24-1.52-18.17,12.16,2.54,59.3,12.07,60.59,8,.51-1.58-3.52-4.32-6.07-5.87,7,3.32,14.68,7.12,16,8.24C222,430,224,436.68,221.64,437.42Z" style="fill:#FFC107"></path><path d="M180,437.32c-14.94-.36-28.41-.92-29.52-1.65-.85-.53-1.3-8.24-1.52-18.17,1.73.35,4.16.86,7.07,1.44Z" style="opacity:0.1"></path><path d="M135.3,179.21s10,112.17,11.59,120.73c.37,1.95.61,12.55.76,26.17.34,29.74.14,83.36.14,83.36h46.79s-1.39-92.91-3.46-110-15.31-120.25-15.31-120.25Z" style="fill:#37474f"></path><path d="M192.46,401.32c-7.3-.15-5.2-.21-12.5-.28-3.57,0-27.06-.24-30.4.31-.07,0-.07.14,0,.15,3.34.55,26.83.35,30.4.31,7.3-.07,5.2-.13,12.5-.28A.11.11,0,0,0,192.46,401.32Z" style="fill:#263238"></path><path d="M156.68,348.2l-.15-20.36c-.05-6.57,0-13.15-.35-19.72-.64-13.29-3.34-26.37-5.25-39.51s-3.52-26.36-5-39.57c-1.63-14.82-3.07-29.67-4.59-44.5,0-.1-.17-.1-.16,0,2.21,26.49,4.67,53,8.33,79.3q1.38,9.82,3,19.61c1.1,6.6,2.18,13.21,2.7,19.89s.6,13.09.66,19.65l.21,20.34c.14,15.07.29,38.26.43,53.32a.23.23,0,0,0,.46,0C156.88,383.2,156.78,361.64,156.68,348.2Z" style="fill:#263238"></path><path d="M125.43,179.21s19.83,112.17,21.46,120.73c.37,1.95.61,12.55.76,26.17v0L170,179.21Z" style="fill:#263238"></path><path d="M167.31,441.38c-2.37.59-68.53-5-70.91-6.79-.91-.67-.67-10.36,0-22,0-.12,0-.25,0-.37.13-2.41.27-4.89.45-7.4,0-.35,0-.69.06-1,1.1-16.86,2.61-34.34,2.61-34.34L143.77,373,140,406.91l-.14,1.35-.77,7L139,416s24.37,13.45,26.78,15.72S169.69,440.81,167.31,441.38Z" style="fill:#dd6a57"></path><path d="M167.31,441.38c-2.38.59-68.52-5-70.91-6.79-.78-.57-.72-7.73-.28-17.08,10.24,2.62,59.62,15,61.14,11,.31-.87-.74-2.15-2.16-3.4,5.12,3,9.73,5.73,10.72,6.65C168.2,434,169.68,440.8,167.31,441.38Z" style="fill:#FFC107"></path><path d="M141,412l-46.75-2s12.76-102.58,13-108.89c.35-9.37,4.84-48.06,8.62-79.38,0,0-7.16-17,6.24-42.58h53.72s-3.6,24.38-9.77,39.84a71.23,71.23,0,0,0-11.94,5.45s-5.35,69.84-5.55,78.55C148.2,320.23,141,412,141,412Z" style="fill:#37474f"></path><path d="M139.77,403.43c-7.28-.46-5.19-.43-12.48-.81-3.57-.19-27-1.38-30.38-1-.07,0-.08.13,0,.14,3.31.7,26.78,1.49,30.35,1.61,7.3.24,5.2.09,12.51.24C139.9,403.65,139.91,403.44,139.77,403.43Z" style="fill:#263238"></path><path d="M125.67,181.46c-2.77,6-5.35,12.31-6.32,18.89a50.7,50.7,0,0,0,2.31,20.92s-.39,5.53-.81,9.06-.83,7.1-1.24,10.65q-1.23,10.76-2.48,21.52-2.46,21.4-4.91,42.83t-4.85,42.84c-1.59,14.24-3.29,28.47-4.7,42.73-.18,1.78-.35,3.55-.52,5.33,0,.17.29.21.31,0,1.9-14.23,3.52-28.49,5.22-42.75s3.33-28.39,5-42.59,3.31-28.54,4.95-42.82c1.62-14.07,3.44-28.14,4.83-42.23a32.34,32.34,0,0,0,.12-4.91s-3-10-2.63-16.48c.37-6.77,2-11.91,4.41-18.14.6-1.56,1.23-3.12,1.83-4.67C126.31,181.37,125.81,181.17,125.67,181.46Z" style="fill:#263238"></path><path d="M168.12,218a88.29,88.29,0,0,0-14,6.51.16.16,0,0,0,.13.29c4.71-2,9.51-4,14.11-6.24A.31.31,0,0,0,168.12,218Z" style="fill:#263238"></path><path d="M161.54,210.17c.46-2.81.84-5.63,1.08-8.46a77.13,77.13,0,0,0-.17-15.86.14.14,0,0,0-.27,0,147.08,147.08,0,0,1-1.28,21.9c-.53,3.49-2.29,8.74,1.36,9.27s6.12-8.24,6.57-10.65a80.11,80.11,0,0,0,.79-20.75c0-.17-.3-.2-.3,0a157,157,0,0,1-.79,15.74c-.22,2.43-2.17,15.84-6.38,14.86-.7-.17-1.06-.86-1.17-1.92a17,17,0,0,1,.56-4.11" style="fill:#263238"></path><path d="M162.27,216.56a22.77,22.77,0,0,0-1,2.78,6.19,6.19,0,0,0-.39,2.28c0,.15.21.17.29.07a8.07,8.07,0,0,0,1-2.23c.32-.86.66-1.71,1-2.58A.47.47,0,0,0,162.27,216.56Z" style="fill:#263238"></path><path d="M147,81.74c-8.7,7.46-6.28,18.34-9.91,24.25-2.23,3.61-9.47,7.42-10.91,11.58-2.36,6.83,3.43,9.29,2.13,13-1.83,5.27-8.88,4.86-10.15,13.47s8.21,17.77,30.69,20.25,34.84-5.75,35.64-13.06-6.67-9.74-7.18-15.19c-.32-3.49,4.29-5.91,4.53-12.33s-6-8.5-6.92-13.95,2-18.69-6-25.45S151.33,78.05,147,81.74Z" style="fill:#263238"></path><path d="M148,81.93a18.58,18.58,0,0,0-5.78,6.67,40.64,40.64,0,0,0-3.21,8.84,24.68,24.68,0,0,1-1.75,5.29,13.21,13.21,0,0,1-3,3.72c-2.43,2.2-5.33,3.87-7.52,6.35s-3.67,5.47-2.85,8.66c.45,1.74,1.6,3.15,2.31,4.77s.94,3.44-.38,4.72c-1.12,1.09-2.75,1.59-4,2.48a14.14,14.14,0,0,0-3.28,3.18,11,11,0,0,0-2.07,8.65c1.33,7,7.89,11,14,13.47l2.54,1c.13.05.24-.14.11-.2-6.08-2.72-13.14-5.91-15.47-12.71a10.24,10.24,0,0,1,1-9,12.94,12.94,0,0,1,3.22-3.38c1.22-.91,2.63-1.46,3.88-2.32a4.13,4.13,0,0,0,1.91-3.69A10.12,10.12,0,0,0,126,124a8.31,8.31,0,0,1-1.43-4.71,9.06,9.06,0,0,1,1.8-4.5c1.89-2.68,4.69-4.43,7.2-6.46a15.27,15.27,0,0,0,5.48-7.57c.46-1.61.75-3.26,1.15-4.88a42.86,42.86,0,0,1,1.35-4.44,21.19,21.19,0,0,1,4.75-7.84,12.45,12.45,0,0,1,1.86-1.52C148.19,82,148.12,81.88,148,81.93Z" style="fill:#263238"></path><path d="M185.52,145.87A8.51,8.51,0,0,0,184,142.6c-.78-1-1.73-1.83-2.6-2.74a6.43,6.43,0,0,1-1.84-3,6.12,6.12,0,0,1,1-4,32.18,32.18,0,0,0,2-3.92,14,14,0,0,0,.85-4.19,14.37,14.37,0,0,0-2.26-8.36c-.77-1.26-1.63-2.45-2.4-3.7a17.83,17.83,0,0,1-2-4.37c-1-3.38-1.23-7-2.06-10.38A52.77,52.77,0,0,0,171,87.65c0-.08-.16,0-.12.07a47,47,0,0,1,3.2,9.21c.71,3,1,6.08,1.52,9.12a22.76,22.76,0,0,0,1.14,4.38,23.52,23.52,0,0,0,2,3.76c1.52,2.48,3.09,4.92,3.51,7.86a13.82,13.82,0,0,1-1.45,8.42c-1.18,2.23-2.84,4.69-1.81,7.31.88,2.22,3,3.55,4.39,5.38a8.91,8.91,0,0,1,1.53,7.11c-1.22,6.29-7.52,9.42-13.43,9.73a.15.15,0,0,0,0,.29c5.13-.06,10.72-2.32,13.13-7.13A10.89,10.89,0,0,0,185.52,145.87Z" style="fill:#263238"></path><path d="M160,135.62c3.2,8.44,18.2,39.22,29.46,41.63,12.59,2.69,37-7,52.7-13.76,5.64-2.44-8.12-21.9-14.32-24.17-3.72-1.37-29.61,12-35.34,12-3.23,0-10.51-11.89-24.91-23.11C159.71,122,155.7,124.27,160,135.62Z" style="fill:#dd6a57"></path><path d="M238.19,164.66c3.37-1,22.39-6.49,26.22-9s14.3-10.75,12.63-13.88-4.92-1-4.92-1S276,136.6,274,133.6s-6.93.52-6.93.52,3.67-4.56,1.5-7.41-6.57,1.52-6.57,1.52,3.55-4,.77-5.61c-3.34-1.91-9.05,6.22-13.49,8.73-1,.57-21.24,10.13-21.24,10.13Z" style="fill:#dd6a57"></path><path d="M262.41,127.86c-4.21,6-7.08,7.85-13.73,10.61-.13.05-.07.26.07.21,6.75-2.1,10.69-3.94,14-10.63C262.87,127.72,262.62,127.58,262.41,127.86Z" style="fill:#263238"></path><path d="M267.43,133.64c-4.92,5.82-8,7.89-14.76,11.28-.1.05,0,.22.07.18,6.9-2.78,10.8-4.71,14.94-11.17C267.87,133.64,267.65,133.37,267.43,133.64Z" style="fill:#263238"></path><path d="M271.77,140.92c-5.17,5.29-8.47,7.7-15.44,10.16a.13.13,0,0,0,.07.26c7.36-1.81,11.5-4.8,15.51-10.25C272.19,140.72,272.09,140.58,271.77,140.92Z" style="fill:#263238"></path><path d="M222.18,141s5.52-8.31,8.73-10.9,18.7-7.82,20-4.54c1.7,4.24-6.64,9-11,10.83,0,0,4,9.8-1.29,14.53S222.18,141,222.18,141Z" style="fill:#dd6a57"></path><path d="M251,126.85c-1.23,5-7.15,7-11.28,9.06a.42.42,0,0,0-.13.68c1.38,4.22,2.11,10.57-.71,14.32a.11.11,0,0,0,.16.14c3.57-3.6,3.36-9.9,1.55-14.43,4.27-2.06,10.12-4.33,10.46-9.76A0,0,0,1,0,251,126.85Z" style="fill:#263238"></path><path d="M183.28,179.56l6.8-30.72a274.39,274.39,0,0,0-21.78-21.57c-11.05-9.55-16.31-8.53-9.69,8.48S175,172.46,183.28,179.56Z" style="fill:#FFC107"></path><path d="M183.28,179.56l6.8-30.72a274.39,274.39,0,0,0-21.78-21.57c-11.05-9.55-16.31-8.53-9.69,8.48S175,172.46,183.28,179.56Z" style="fill:#FFC107"></path><path d="M186.23,148.18c-1.17,4.2-2.18,8.41-3.06,12.68q-.66,3.21-1.23,6.45c-.39,2.19-.63,4.41-1,6.62,0,.1.14.12.16,0,.8-4.3,1.75-8.59,2.63-12.89l2.61-12.84C186.4,148.13,186.26,148.09,186.23,148.18Z" style="fill:#263238"></path><path d="M161,140.58a8.19,8.19,0,0,1,.59,2.12c0,.12,0,.24,0,.37-.22-.56-.45-1.1-.68-1.65A4.89,4.89,0,0,1,161,140.58Zm18.28-1.88a8.61,8.61,0,0,0,.61,4.29,7.64,7.64,0,0,0,0-2.19A7.94,7.94,0,0,0,179.23,138.7Zm-6.18,22a7.57,7.57,0,0,0,0,2.18,7.91,7.91,0,0,0,.59,2.11,7.3,7.3,0,0,0,0-2.19A7.56,7.56,0,0,0,173.05,160.7Zm5.78-6.84a8.32,8.32,0,0,0,4.29-.61,7.64,7.64,0,0,0-2.19,0A7.56,7.56,0,0,0,178.83,153.86Zm-22.47-28.75a8,8,0,0,0,2.19,0,7.72,7.72,0,0,0,2.11-.58,7.64,7.64,0,0,0-2.19,0A8.12,8.12,0,0,0,156.36,125.11Zm10,28.52a.09.09,0,0,0,0,.06.84.84,0,0,0,.06-.14A.36.36,0,0,0,166.37,153.63ZM185,164.53a7.83,7.83,0,0,0-1.53,1.57,7.52,7.52,0,0,0-1.07,1.9,7.48,7.48,0,0,0,1.52-1.56A7.79,7.79,0,0,0,185,164.53Zm-11.36-16.15a8.06,8.06,0,0,0-1.56-1.53,7.76,7.76,0,0,0-1.91-1.07,8.68,8.68,0,0,0,3.47,2.6Zm-4.15-16.22a7.84,7.84,0,0,0-1.54,1.56,7.73,7.73,0,0,0-1.08,1.9,8.61,8.61,0,0,0,2.62-3.46Z" style="fill:#fff"></path><path d="M158.61,135.75c6.62,17,16.35,36.71,24.67,43.81l2.8-12.65-29.85-44.73C155.1,124,155.72,128.34,158.61,135.75Z" style="fill:#263238"></path><path d="M177.72,187.05s-21.24,5-61.47,1.55c0,0,15.73-50.21,28.4-63.75,5.77-6.16,11.4-5.22,16.18-1.25,1.19,1,16,19.73,17.21,26.27,1.11,5.77-3.58,12.18-3.58,12.18Z" style="fill:#FFC107"></path><path d="M161.54,142.7a7.57,7.57,0,0,1,0,2.18,7.56,7.56,0,0,1-.58-2.1,7.3,7.3,0,0,1,0-2.19A7.91,7.91,0,0,1,161.54,142.7Zm.37,33.91a8,8,0,0,0,0,2.19,7.32,7.32,0,0,0,.59,2.11,8,8,0,0,0,0-2.19A7.74,7.74,0,0,0,161.91,176.61Zm10.43,6.51a8.32,8.32,0,0,0,.61,4.29,8,8,0,0,0,0-2.19A7.56,7.56,0,0,0,172.34,183.12Zm-33.78-29.75a7.3,7.3,0,0,0,0,2.19,7.56,7.56,0,0,0,.58,2.1,7.57,7.57,0,0,0,0-2.18A8,8,0,0,0,138.56,153.37Zm34.49,7.33a7.57,7.57,0,0,0,0,2.18,7.91,7.91,0,0,0,.59,2.11,7.3,7.3,0,0,0,0-2.19A7.56,7.56,0,0,0,173.05,160.7Zm-24.88-13.26a7.64,7.64,0,0,0,2.19,0,7.72,7.72,0,0,0,2.11-.58,7.64,7.64,0,0,0-2.19,0A8,8,0,0,0,148.17,147.44Zm-12.52,21.25a8.34,8.34,0,0,0,4.3-.61,7.64,7.64,0,0,0-2.19,0A7.72,7.72,0,0,0,135.65,168.69ZM156.5,167a8,8,0,0,0,2.19,0,7.72,7.72,0,0,0,2.11-.58,7.64,7.64,0,0,0-2.19,0A7.74,7.74,0,0,0,156.5,167Zm-37.82,19.53a7.94,7.94,0,0,0,2.18,0,7.53,7.53,0,0,0,2.11-.58,8.32,8.32,0,0,0-4.29.61Zm37.68-61.37a8,8,0,0,0,2.19,0,7.72,7.72,0,0,0,2.11-.58,7.64,7.64,0,0,0-2.19,0A8.12,8.12,0,0,0,156.36,125.11ZM149.28,129a7.79,7.79,0,0,0-1.53,1.56,7.58,7.58,0,0,0-1.07,1.91,7.78,7.78,0,0,0,1.52-1.57A7.55,7.55,0,0,0,149.28,129Zm-19,27.13a7.53,7.53,0,0,0-1.53,1.56,7.61,7.61,0,0,0-1.08,1.91,8.59,8.59,0,0,0,2.61-3.47Zm36.14-2.53a7.53,7.53,0,0,0-1.53,1.56,7.61,7.61,0,0,0-1.08,1.91,8.59,8.59,0,0,0,2.61-3.47Zm-18.07,20.22a8.06,8.06,0,0,0-1.53,1.56,7.76,7.76,0,0,0-1.07,1.91,7.84,7.84,0,0,0,1.53-1.57A7.52,7.52,0,0,0,148.39,173.78Zm20-40.6-.44.54a7.55,7.55,0,0,0-1.08,1.9,7.34,7.34,0,0,0,1.53-1.57c.1-.14.19-.28.3-.42Zm5.25,15.2a8.06,8.06,0,0,0-1.56-1.53,7.76,7.76,0,0,0-1.91-1.07,8.68,8.68,0,0,0,3.47,2.6Zm-46,25.21a7.83,7.83,0,0,0-1.57-1.53,7.55,7.55,0,0,0-1.9-1.08,7.53,7.53,0,0,0,1.56,1.53A8.13,8.13,0,0,0,127.65,173.59Zm47,.79a8.41,8.41,0,0,0-3.47-2.61,7.33,7.33,0,0,0,1.57,1.53A7.55,7.55,0,0,0,174.62,174.38ZM142.18,143a8.11,8.11,0,0,0-1.57-1.53,7.52,7.52,0,0,0-1.9-1.07,7.48,7.48,0,0,0,1.56,1.52A7.79,7.79,0,0,0,142.18,143Zm13.34,45a8.68,8.68,0,0,0-3.47-2.6,7.53,7.53,0,0,0,1.56,1.53A7.76,7.76,0,0,0,155.52,188Zm-4-27.66A7.29,7.29,0,0,0,150,158.8a7.61,7.61,0,0,0-1.91-1.08,8.59,8.59,0,0,0,3.47,2.61Zm-15.09,22.22a8.47,8.47,0,0,0-3.46-2.61,7.53,7.53,0,0,0,1.56,1.53A7.73,7.73,0,0,0,136.46,182.55Z" style="fill:#fff"></path><path d="M170.34,136.05a60.35,60.35,0,0,1,3.59,5.41c-.45-1.05-.88-2.11-1.25-3.2a0,0,0,1,1,.07,0c.39.77.79,1.53,1.11,2.33s.57,1.44.84,2.16l0,0c1.25,2.2,2.71,4.42,3.34,6.89a13.47,13.47,0,0,1-.14,6.76,16.92,16.92,0,0,1-1.32,3.28,10,10,0,0,1-1.73,2.59c.41,2.31.68,4.66,1,7a56.56,56.56,0,0,1,.71,6.86.12.12,0,0,1-.24,0l-.15-.48a.07.07,0,0,1,0-.08,63.62,63.62,0,0,1-1-6.43c-.3-2.22-.86-6.84-.87-6.86s1.06-1.94,1.47-2.82a19.09,19.09,0,0,0,1.22-3.34,12.58,12.58,0,0,0,.14-6.64,32.14,32.14,0,0,0-3.12-6.67c-1.25-2.24-2.54-4.46-3.83-6.68C170.14,136.07,170.28,136,170.34,136.05Z" style="fill:#263238"></path><path d="M141.3,128.28c-10.5,14.22-30.56,47.86-23.83,55.27,11.07,12.18,37.69,22.48,46,24.74,3.58,1,15.56-25.2,12.16-27.23-4.08-2.45-32.59-11.17-32.51-13.59,0-1.38,3-12.92,5.45-27.72C151.38,122.58,146.31,121.51,141.3,128.28Z" style="fill:#dd6a57"></path><path d="M164.94,178.76s6.42-2.08,13.15-5.13c3.75-1.7,10.44-4,13.77-4,5,0,25.78,3.28,25.1,8.34-.62,4.58-18.13-.49-18.13-.49S217,181,215.2,186.38s-20.79-3-20.79-3,18.55,4.06,15.86,9.32c-2,4-19.7-2.62-19.7-2.62s15.92,3.61,14,7.78c-2.11,4.62-18.8-.44-18.8-.44-6.65,9.8-16.94,13.62-24.2,10.29C160.4,207.2,164.94,178.76,164.94,178.76Z" style="fill:#dd6a57"></path><path d="M192.63,175.82c2.15.34,4.32.67,6.43,1.2s4.2,1.13,6.25,1.86a37.15,37.15,0,0,1,7.7,3.57c-4.49-2.31-12-4.33-14.12-4.86s-4.18-1.16-6.28-1.69C192.56,175.89,192.58,175.82,192.63,175.82Z" style="fill:#263238"></path><path d="M190.58,183.4c2.72.55,5.44,1,8.14,1.67s5.17,1.54,7.8,2.39c.2.07.1.16-.1.1-2.67-.75-5.19-1.23-7.86-1.95s-5.31-1.53-8-2.15A0,0,0,1,1,190.58,183.4Z" style="fill:#263238"></path><path d="M187.66,189.58a62.22,62.22,0,0,1,12.24,3.51c.2.08.06.17-.15.11-4.05-1.24-7.22-2.25-12.12-3.47C187.56,189.71,187.57,189.57,187.66,189.58Z" style="fill:#263238"></path><path d="M182.07,172a20.74,20.74,0,0,1,3.36-1.61,23.82,23.82,0,0,1,3.31-1.11,18,18,0,0,1,7.48-.3,70.19,70.19,0,0,1,17.29,5.17c.09,0,.06.22,0,.19-4.68-1.26-9.79-3.26-16.94-4.34a20.39,20.39,0,0,0-7.39.07,37.09,37.09,0,0,0-3.7,1.06c-1.09.35-2.16.83-3.27,1.08A.12.12,0,0,1,182.07,172Z" style="fill:#263238"></path><path d="M114.87,178.72,144,166.87a274,274,0,0,0,5.39-30.17c1.59-14.52-2.24-18.27-12.48-3.17S116,167.84,114.87,178.72Z" style="fill:#FFC107"></path><path d="M138.38,132.91a5.34,5.34,0,0,1-.34-1q.19-.28.39-.54A5.91,5.91,0,0,1,138.38,132.91Zm.18,20.46a7.3,7.3,0,0,0,0,2.19,7.56,7.56,0,0,0,.58,2.1,7.57,7.57,0,0,0,0-2.18A8,8,0,0,0,138.56,153.37Zm-2.91,15.32a8.34,8.34,0,0,0,4.3-.61,7.64,7.64,0,0,0-2.19,0A7.72,7.72,0,0,0,135.65,168.69Zm-6.27-23.34-.36.59.32,0a7.62,7.62,0,0,0,2.11-.58A6.83,6.83,0,0,0,129.38,145.35ZM149.28,129a7.79,7.79,0,0,0-1.53,1.56,7.58,7.58,0,0,0-1.07,1.91,7.78,7.78,0,0,0,1.52-1.57A7.55,7.55,0,0,0,149.28,129Zm-19,27.13a7.53,7.53,0,0,0-1.53,1.56,7.61,7.61,0,0,0-1.08,1.91,8.59,8.59,0,0,0,2.61-3.47Zm-2.67,17.5a7.83,7.83,0,0,0-1.57-1.53,7.55,7.55,0,0,0-1.9-1.08,7.53,7.53,0,0,0,1.56,1.53A8.13,8.13,0,0,0,127.65,173.59ZM142.18,143a8.11,8.11,0,0,0-1.57-1.53,7.52,7.52,0,0,0-1.9-1.07,7.48,7.48,0,0,0,1.56,1.52A7.79,7.79,0,0,0,142.18,143Z" style="fill:#fff"></path><path d="M149.13,145.7a16.1,16.1,0,0,0-1,2.62c-.11.3-.2.61-.3.91.25-1.68.49-3.37.72-5.06,0-.11-.15-.16-.17,0-.74,3.81-4.13,21.69-4.28,22.61-.09,0-1,.53-1.05.52s0,.19.07.15,1.17-.53,1.17-.54c.37-.81,3-14.45,3.3-16.11a2.26,2.26,0,0,0,.11-.22c.09-.24.17-.48.26-.71.17-.44.31-.88.47-1.32a20.6,20.6,0,0,0,.85-2.77A.05.05,0,0,0,149.13,145.7Z" style="fill:#263238"></path><path d="M143.48,163.59a31.68,31.68,0,0,0-3.41,1c-1.13.36-2.27.69-3.4,1.06-2.17.71-4.32,1.48-6.47,2.28a135.51,135.51,0,0,0-12.7,5.3c-.09,0,0,.19.07.16,4.39-1.54,8.71-3.28,13.07-4.91l6.44-2.39,3.21-1.22c1.07-.39,2.22-.7,3.24-1.19C143.59,163.66,143.54,163.58,143.48,163.59Z" style="fill:#263238"></path><path d="M149.87,123.24c.24,1.09,5.33,8.17,10.28,8,1.61-.06,1.68-8.88,1.68-8.88l.15-.65,2.14-9.1-10.64-7-1.53-.92s-.43,2.53-.92,5.68c0,.14-.05.29-.07.45s-.07.34-.09.51c-.08.47-.16,1-.23,1.43s-.11.72-.15,1.11-.09.76-.15,1.14A59.07,59.07,0,0,0,149.87,123.24Z" style="fill:#dd6a57"></path><path d="M151,110.37A18.76,18.76,0,0,0,162,121.71l2.14-9.1-10.64-7-1.53-.92S151.52,107.22,151,110.37Z" style="fill:#263238"></path><path d="M177.27,98.22c2.1,16.27-7.4,19.37-10.91,19.82-3.19.41-14.08,1.4-17.86-14.57s3.12-22.08,10.35-23.41S175.16,82,177.27,98.22Z" style="fill:#dd6a57"></path><path d="M174.61,95.71a10.55,10.55,0,0,1-1.13-.12,1.81,1.81,0,0,1-1.13-.33.59.59,0,0,1-.07-.71,1.44,1.44,0,0,1,1.38-.49,2.14,2.14,0,0,1,1.41.61A.62.62,0,0,1,174.61,95.71Z" style="fill:#263238"></path><path d="M163.42,96.87a10.28,10.28,0,0,0,1.07-.35,1.79,1.79,0,0,0,1-.57.57.57,0,0,0-.07-.7,1.44,1.44,0,0,0-1.46-.19,2.11,2.11,0,0,0-1.24.89A.62.62,0,0,0,163.42,96.87Z" style="fill:#263238"></path><path d="M166.43,100.6s-.08.06-.07.11c.18,1.1.2,2.39-.75,2.89,0,0,0,.07,0,.06C166.82,103.33,166.78,101.61,166.43,100.6Z" style="fill:#263238"></path><path d="M165.29,99.57c-1.8.1-1.47,3.69.2,3.6S166.8,99.49,165.29,99.57Z" style="fill:#263238"></path><path d="M164.6,99.83c-.29.23-.57.61-.94.69s-.8-.27-1.12-.6c0,0-.06,0-.06,0,.06.68.39,1.37,1.13,1.4s1.11-.62,1.22-1.33C164.85,99.91,164.72,99.73,164.6,99.83Z" style="fill:#263238"></path><path d="M172.59,99.8s.09,0,.1.09c.05,1.12.31,2.38,1.35,2.67a0,0,0,0,1,0,.06C172.79,102.55,172.47,100.87,172.59,99.8Z" style="fill:#263238"></path><path d="M173.49,98.55c1.78-.28,2.22,3.3.57,3.56S172,98.79,173.49,98.55Z" style="fill:#263238"></path><path d="M174.27,98.7c.3.15.62.46,1,.44s.64-.44.85-.84c0,0,0,0,.06,0,.1.68,0,1.42-.68,1.63s-1.1-.34-1.35-1C174.07,98.84,174.14,98.63,174.27,98.7Z" style="fill:#263238"></path><path d="M167.14,109.74c.28.25.56.6,1,.61a2.9,2.9,0,0,0,1.18-.33s.08,0,.06,0a1.51,1.51,0,0,1-1.39.67,1.2,1.2,0,0,1-.93-.94C167,109.73,167.1,109.71,167.14,109.74Z" style="fill:#263238"></path><path d="M171.37,105.25s.4,1.63.48,2.41c0,.08-.18.13-.44.17,0,0,0,0,0,0a3.75,3.75,0,0,1-3.76-1c-.06-.07,0-.16.11-.12a5.6,5.6,0,0,0,3.49.62c0-.22-.78-2.77-.65-2.8a7.21,7.21,0,0,1,1.82.22c-.74-3.43-2-6.72-2.7-10.14a.11.11,0,0,1,.2-.07,56.77,56.77,0,0,1,3.37,10.8C173.37,105.77,171.7,105.35,171.37,105.25Z" style="fill:#263238"></path><path d="M150.05,103.89c2.64-.09,2.62-5.65,2.62-5.65s5.32-.58,6.21-8.43a11.82,11.82,0,0,1-1.64,6.59s9.27-2.05,12.34-10.34c0,0-1.13,4.17-2.45,5.76a11.06,11.06,0,0,0,5.37-4.95s2.16,4.34,3.56,5.45c0,0-2.24-16.37-17.25-12.91,0,0-9.45,1.71-12,9.63S150.05,103.89,150.05,103.89Z" style="fill:#263238"></path><path d="M164.06,106.93a5.09,5.09,0,1,1,4.88-6.4h0a5.1,5.1,0,0,1-3.63,6.23A5.37,5.37,0,0,1,164.06,106.93ZM164,97.42a4.59,4.59,0,0,0-1.09.14,4.43,4.43,0,1,0,1.09-.14Z" style="fill:#FFC107"></path><path d="M175.65,105.41c-2,0-3.73-2-4.07-4.61a6.11,6.11,0,0,1,.63-3.66,3.17,3.17,0,0,1,5.39-.68,6.09,6.09,0,0,1,1.51,3.4c.35,2.78-1.05,5.26-3.13,5.52A1.84,1.84,0,0,1,175.65,105.41Zm-.6-9.48-.25,0a2.74,2.74,0,0,0-2,1.51,5.42,5.42,0,0,0-.54,3.26c.3,2.41,1.93,4.2,3.64,4s2.84-2.35,2.53-4.77a5.41,5.41,0,0,0-1.33-3A2.84,2.84,0,0,0,175.05,95.93Z" style="fill:#FFC107"></path><path d="M168.85,101.14l-.5-.46c.68-.74,2.35-1.83,3.75-.67l-.44.53C170.41,99.49,168.91,101.07,168.85,101.14Z" style="fill:#FFC107"></path><path d="M147.51,105.33l-.64-.23c.11-.3,1.12-2.93,2.59-3.36s9.53-.75,9.92-.77l0,.69a90.49,90.49,0,0,0-9.74.73C148.68,102.68,147.78,104.61,147.51,105.33Z" style="fill:#FFC107"></path><path d="M149.25,109.48a3.23,3.23,0,0,0,.76.16,2.53,2.53,0,0,0,.78,0,2.26,2.26,0,0,0,.93-.35,2.7,2.7,0,0,0,.6-.5,3.29,3.29,0,0,0,.58-1l-1.09-4.34s-3.8-5-6.06-3.59S146.48,108.58,149.25,109.48Z" style="fill:#dd6a57"></path><path d="M146.65,102a0,0,0,0,0,0,.07c2,.7,3,2.43,3.81,4.23a1.54,1.54,0,0,0-2.31-.32s0,.12.06.1a1.69,1.69,0,0,1,1.9.52,8.53,8.53,0,0,1,1,1.48c.1.17.41.06.33-.13,0,0,0,0,0,0C151.32,105.43,149.28,102.11,146.65,102Z" style="fill:#263238"></path><path d="M149.44,108.78a.76.76,0,1,0,.56-.92A.77.77,0,0,0,149.44,108.78Z" style="fill:#fff"></path><path d="M147.83,107.7a.55.55,0,0,0,.65.39.54.54,0,0,0,.4-.65.53.53,0,0,0-.65-.39A.54.54,0,0,0,147.83,107.7Z" style="fill:#fff"></path><path d="M161.85,123.06l-2.45,7.44-9.6-8.6L147.43,125s9.76,14,9.77,13.36l2.59-6.45,4.6,4.08-1.06-10.9Z" style="fill:#ebebeb"></path><path d="M164.17,130.58c-.23-1.8-.42-3.61-.74-5.39,0-.06-.11-.09-.12,0-.25,1.76.68,8.62.78,10.27l0,0c-.19-.17-4.25-3.57-4.28-3.51-.59,1-2.49,5.73-2.61,6.16-1.54-2.23-7.43-10.31-9.22-12.39-.06-.06-.15,0-.11.07,1.39,2.36,9.2,13.25,9.3,13.21a67.39,67.39,0,0,0,2.7-6.81c.7.75,4.82,4.61,4.82,4.34A56,56,0,0,0,164.17,130.58Z" style="fill:#263238"></path></g><g id="freepik--Documents--inject-190"><rect x="235.13" y="139.45" width="115.66" height="148.48" style="fill:#ebebeb"></rect><path d="M350.79,287.93l-57.74.2-57.92.11h-.32v-.32l-.17-148.48V139h.49l115.66.12h.38v.37L351,213.79Zm0,0-.25-74.34-.12-74.14.37.38-115.66.11.49-.49-.18,148.48-.31-.32,57.75.12Z" style="fill:#dbdbdb"></path><polygon points="247.78 171.19 292.96 171.07 338.14 171.19 292.96 171.3 247.78 171.19" style="fill:#c7c7c7"></polygon><polygon points="247.78 174.87 292.96 174.76 338.14 174.87 292.96 174.99 247.78 174.87" style="fill:#c7c7c7"></polygon><polygon points="247.78 178.56 292.96 178.44 338.14 178.56 292.96 178.67 247.78 178.56" style="fill:#c7c7c7"></polygon><polygon points="247.78 182.24 292.96 182.13 338.14 182.24 292.96 182.35 247.78 182.24" style="fill:#c7c7c7"></polygon><polygon points="247.78 185.93 292.96 185.81 338.14 185.93 292.96 186.04 247.78 185.93" style="fill:#c7c7c7"></polygon><polygon points="247.78 189.61 292.96 189.5 338.14 189.61 292.96 189.72 247.78 189.61" style="fill:#c7c7c7"></polygon><polygon points="247.78 193.29 292.96 193.18 338.14 193.29 292.96 193.41 247.78 193.29" style="fill:#c7c7c7"></polygon><polygon points="247.78 196.98 292.96 196.87 338.14 196.98 292.96 197.09 247.78 196.98" style="fill:#c7c7c7"></polygon><polygon points="247.78 200.66 292.96 200.55 338.14 200.66 292.96 200.78 247.78 200.66" style="fill:#c7c7c7"></polygon><polygon points="247.78 204.35 292.96 204.23 338.14 204.35 292.96 204.46 247.78 204.35" style="fill:#c7c7c7"></polygon><polygon points="247.78 208.03 292.96 207.92 338.14 208.03 292.96 208.15 247.78 208.03" style="fill:#c7c7c7"></polygon><polygon points="247.78 211.72 292.96 211.6 338.14 211.72 292.96 211.83 247.78 211.72" style="fill:#c7c7c7"></polygon><polygon points="247.78 215.4 292.96 215.29 338.14 215.4 292.96 215.52 247.78 215.4" style="fill:#c7c7c7"></polygon><polygon points="247.78 219.09 292.96 218.97 338.14 219.09 292.96 219.2 247.78 219.09" style="fill:#c7c7c7"></polygon><polygon points="247.78 222.77 292.96 222.66 338.14 222.77 292.96 222.89 247.78 222.77" style="fill:#c7c7c7"></polygon><rect x="257.34" y="211.6" width="6.85" height="15.46" style="fill:#FFC107"></rect><rect x="270.05" y="203.35" width="6.85" height="23.71" style="fill:#FFC107"></rect><rect x="282.76" y="194.12" width="6.85" height="32.95" style="fill:#FFC107"></rect><rect x="295.47" y="190.16" width="6.85" height="36.91" style="fill:#FFC107"></rect><rect x="308.18" y="183.09" width="6.85" height="43.98" style="fill:#FFC107"></rect><rect x="320.89" y="176.1" width="6.85" height="50.96" style="fill:#FFC107"></rect><path d="M250.23,168.6l.18,14.62.12,14.61c.09,9.75.11,19.49.13,29.24l-.43-.43h22l22,.05,22,.14,22,.25-22,.25-22,.14-22,0-22,0h-.42v-.42q0-14.62.12-29.24l.13-14.61Z" style="fill:#c7c7c7"></path><rect x="257.34" y="230.16" width="6.85" height="0.62" style="fill:#c7c7c7"></rect><rect x="270.05" y="230.16" width="6.85" height="0.62" style="fill:#c7c7c7"></rect><rect x="282.76" y="230.16" width="6.85" height="0.62" style="fill:#c7c7c7"></rect><rect x="295.47" y="230.16" width="6.85" height="0.62" style="fill:#c7c7c7"></rect><rect x="308.18" y="230.16" width="6.85" height="0.62" style="fill:#c7c7c7"></rect><rect x="320.89" y="230.16" width="6.85" height="0.62" style="fill:#c7c7c7"></rect><path d="M258.11,213.55a83.81,83.81,0,0,0,10-.75A99.83,99.83,0,0,0,278,211a85.56,85.56,0,0,0,18.82-6.63,67.12,67.12,0,0,0,16.45-11.2l.93-.84.88-.89,1.74-1.79c1.08-1.27,2.24-2.48,3.22-3.83a68,68,0,0,0,5.62-8.31l.05,0A60.13,60.13,0,0,1,306,200.14a66.79,66.79,0,0,1-8.72,5.12,85.12,85.12,0,0,1-39.12,8.29Z" style="fill:#263238"></path><polygon points="327.58 182.3 326.63 182.54 325.46 177.86 320.88 179.37 320.58 178.44 326.16 176.61 327.58 182.3" style="fill:#263238"></polygon><rect x="245.85" y="250.06" width="94.22" height="3.81" transform="translate(585.92 503.92) rotate(180)" style="fill:#dbdbdb"></rect><rect x="245.85" y="259.68" width="53.05" height="3.81" transform="translate(544.75 523.17) rotate(180)" style="fill:#dbdbdb"></rect><rect x="266.44" y="155.86" width="53.05" height="3.81" transform="translate(585.92 315.53) rotate(180)" style="fill:#dbdbdb"></rect><polygon points="328.93 324.13 215.63 347.41 185.75 201.97 269.87 184.69 304.74 206.41 328.93 324.13" style="fill:#FFC107"></polygon><polygon points="328.93 324.13 215.63 347.41 185.75 201.97 269.87 184.69 304.74 206.41 328.93 324.13" style="fill:#fff;opacity:0.8"></polygon><polygon points="269.87 184.69 304.74 206.41 275.56 212.4 269.87 184.69" style="fill:#FFC107"></polygon><rect x="201.54" y="217.59" width="64.31" height="3.81" transform="translate(506.78 387.47) rotate(168.39)" style="fill:#dbdbdb"></rect><rect x="203.48" y="227.02" width="64.31" height="3.81" transform="translate(512.51 405.74) rotate(168.39)" style="fill:#dbdbdb"></rect><rect x="205.41" y="236.45" width="64.31" height="3.81" transform="translate(518.25 424.01) rotate(168.39)" style="fill:#dbdbdb"></rect><rect x="207.04" y="242.86" width="94.22" height="3.81" transform="translate(552.37 433.37) rotate(168.39)" style="fill:#dbdbdb"></rect><rect x="208.98" y="252.29" width="94.22" height="3.81" transform="matrix(-0.98, 0.2, -0.2, -0.98, 558.11, 451.64)" style="fill:#dbdbdb"></rect><rect x="210.92" y="261.72" width="94.22" height="3.81" transform="translate(563.84 469.91) rotate(168.39)" style="fill:#dbdbdb"></rect><rect x="212.85" y="271.14" width="94.22" height="3.81" transform="translate(569.57 488.18) rotate(168.39)" style="fill:#dbdbdb"></rect><rect x="214.79" y="280.57" width="94.22" height="3.81" transform="translate(575.3 506.45) rotate(168.39)" style="fill:#dbdbdb"></rect><rect x="216.73" y="289.99" width="94.22" height="3.81" transform="translate(581.03 524.72) rotate(168.39)" style="fill:#dbdbdb"></rect><rect x="218.67" y="299.42" width="94.22" height="3.81" transform="translate(586.76 542.99) rotate(168.39)" style="fill:#dbdbdb"></rect><rect x="220.6" y="308.85" width="94.22" height="3.81" transform="translate(592.5 561.26) rotate(168.39)" style="fill:#dbdbdb"></rect><rect x="222.54" y="318.27" width="94.22" height="3.81" transform="translate(598.23 579.53) rotate(168.39)" style="fill:#dbdbdb"></rect><path d="M561.25,218.42l-126.91,9.24c-14.45-54.94,1-109.88-10.23-164.82L551,53.6C565.46,108.54,550,163.48,561.25,218.42Z" style="fill:#ebebeb"></path><path d="M561.25,218.42,434.42,228l-.3,0a2.81,2.81,0,0,1-.08-.31c-14.53-54.93.89-109.87-10.42-164.81,0-.16-.07-.33-.11-.49l.5,0,126.91-9.09.35,0a3.57,3.57,0,0,0,.1.35C565.7,108.52,550.09,163.47,561.25,218.42Zm0,0c-11.4-54.93,4-109.86-10.58-164.79l.44.32-126.9,9.39.39-.54c11.21,55-4.34,109.89,10,164.84l-.39-.29Z" style="fill:#dbdbdb"></path><path d="M439.43,86.38l71.25-5.13q.24,2.11.42,4.23l-71.34,5.14C439.66,89.2,439.55,87.79,439.43,86.38Z" style="fill:#dbdbdb"></path><path d="M440.14,97.07l71.47-5.14q.13,2.11.24,4.23l-71.54,5.14C440.26,99.89,440.2,98.48,440.14,97.07Z" style="fill:#dbdbdb"></path><path d="M440.47,107.75l71.64-5.14c0,1.41.07,2.82.1,4.23L440.51,112C440.51,110.57,440.49,109.16,440.47,107.75Z" style="fill:#dbdbdb"></path><path d="M440.51,118.43l105.13-7.52c0,1.41,0,2.82,0,4.23l-105.19,7.52C440.49,121.25,440.51,119.84,440.51,118.43Z" style="fill:#dbdbdb"></path><path d="M440.37,129.11l105.26-7.52-.06,4.23-105.29,7.53Z" style="fill:#dbdbdb"></path><path d="M440.12,139.8l105.32-7.53c0,1.41-.06,2.82-.1,4.23L440,144C440.05,142.62,440.09,141.21,440.12,139.8Z" style="fill:#dbdbdb"></path><path d="M439.87,150.48,545.18,143c0,1.41-.06,2.83-.1,4.24l-105.29,7.52C439.82,153.3,439.84,151.89,439.87,150.48Z" style="fill:#dbdbdb"></path><path d="M439.71,161.16,545,153.64c0,1.41-.05,2.82-.07,4.23l-105.2,7.52C439.69,164,439.69,162.57,439.71,161.16Z" style="fill:#dbdbdb"></path><path d="M439.72,171.84l105.1-7.52c0,1.41,0,2.82,0,4.23l-105,7.53C439.76,174.67,439.74,173.26,439.72,171.84Z" style="fill:#dbdbdb"></path><path d="M440,182.53,544.91,175c0,1.41.06,2.82.11,4.24l-104.81,7.52Q440.09,184.65,440,182.53Z" style="fill:#dbdbdb"></path><path d="M440.65,193.21l104.64-7.53c.07,1.42.16,2.83.25,4.24L441,197.44C440.88,196,440.76,194.62,440.65,193.21Z" style="fill:#dbdbdb"></path><path d="M441.75,203.89l104.31-7.52c.13,1.41.27,2.82.43,4.23l-104.16,7.53C442.12,206.72,441.93,205.3,441.75,203.89Z" style="fill:#dbdbdb"></path><path d="M543.2,277.23Q477.56,266.1,413.41,255C419,200.71,446.4,146.46,445,92.21q65.64,11.13,129.79,22.26C569.24,168.72,541.8,223,543.2,277.23Z" style="fill:#FFC107"></path><path d="M543.2,277.23Q477.56,266.1,413.41,255C419,200.71,446.4,146.46,445,92.21q65.64,11.13,129.79,22.26C569.24,168.72,541.8,223,543.2,277.23Z" style="fill:#fff;opacity:0.8"></path><path d="M455.76,118.36q35.58,6.19,70.83,12.38c-.24,1.4-.49,2.79-.75,4.18q-35.18-6.18-70.63-12.38C455.41,121.15,455.59,119.76,455.76,118.36Z" style="fill:#dbdbdb"></path><path d="M454.24,128.91q35.29,6.19,70.33,12.38c-.3,1.4-.6,2.79-.91,4.18q-34.95-6.18-70.15-12.38C453.76,131.7,454,130.31,454.24,128.91Z" style="fill:#dbdbdb"></path><path d="M452.28,139.46l69.92,12.38c-.34,1.39-.67,2.79-1,4.18q-34.8-6.2-69.78-12.38C451.7,142.25,452,140.86,452.28,139.46Z" style="fill:#dbdbdb"></path><path d="M450,150q51.12,9.08,101.9,18.14c-.37,1.39-.75,2.78-1.13,4.18Q500,163.26,449,154.19C449.3,152.8,449.63,151.41,450,150Z" style="fill:#dbdbdb"></path><path d="M447.37,160.56Q498.29,169.64,549,178.7c-.38,1.39-.76,2.78-1.15,4.18L446.29,164.74C446.65,163.35,447,162,447.37,160.56Z" style="fill:#dbdbdb"></path><path d="M444.59,171.11l101.49,18.14c-.38,1.39-.77,2.78-1.15,4.18L443.46,175.29C443.84,173.9,444.22,172.5,444.59,171.11Z" style="fill:#dbdbdb"></path><path d="M441.71,181.66l101.5,18.14c-.38,1.39-.75,2.78-1.12,4.17q-50.84-9.06-101.54-18.13C440.94,184.45,441.32,183.05,441.71,181.66Z" style="fill:#dbdbdb"></path><path d="M438.8,192.21q50.74,9.06,101.65,18.13c-.35,1.4-.7,2.79-1,4.18q-51-9.06-101.76-18.13C438,195,438.41,193.6,438.8,192.21Z" style="fill:#dbdbdb"></path><path d="M436,202.76q50.82,9.06,101.94,18.13c-.32,1.4-.63,2.79-.94,4.18q-51.24-9.06-102.1-18.13C435.21,205.54,435.58,204.15,436,202.76Z" style="fill:#dbdbdb"></path><path d="M433.24,213.31q51,9.06,102.38,18.13c-.28,1.4-.54,2.79-.8,4.18q-51.57-9.06-102.6-18.13C432.55,216.09,432.89,214.7,433.24,213.31Z" style="fill:#dbdbdb"></path><path d="M430.75,223.85q51.22,9.08,103,18.14c-.23,1.39-.44,2.79-.64,4.18Q481.15,237.11,429.85,228C430.14,226.64,430.44,225.25,430.75,223.85Z" style="fill:#dbdbdb"></path><path d="M428.57,234.4q51.53,9.07,103.69,18.14c-.16,1.39-.3,2.79-.43,4.18q-52.4-9.08-104-18.14C428.06,237.19,428.31,235.8,428.57,234.4Z" style="fill:#dbdbdb"></path></g><g id="freepik--Folder--inject-190"><rect x="265.97" y="254.99" width="224.29" height="162.58" style="fill:#FFC107"></rect><polygon points="345.22 238.15 265.97 238.15 265.97 254.99 349.77 254.99 345.22 238.15" style="fill:#FFC107"></polygon><g style="opacity:0.1"><rect x="265.97" y="254.99" width="224.29" height="162.58"></rect><polygon points="345.22 238.15 265.97 238.15 265.97 254.99 349.77 254.99 345.22 238.15"></polygon></g><path d="M488.73,356.73c-43.79-12.53-86.6-24.91-128.75-37.17,10.6-49.55,40.3-98.09,42.32-148.37C446.05,183,488.83,194.81,531,206.67,520.21,257,490.55,306,488.73,356.73Z" style="fill:#ebebeb"></path><path d="M488.73,356.73C444.94,344.3,402.1,332,359.92,319.84l-.31-.09.06-.28c10.56-49.56,40.2-98.12,42.12-148.42,0-.15,0-.31,0-.46l.51.14c43.78,11.84,86.58,23.71,128.7,35.62l.35.1c0,.1,0,.21-.07.32C520.42,257.09,490.67,306.08,488.73,356.73Zm0,0C490.43,306,520,257,530.61,206.57c.09.14.18.28.28.42C488.77,195.18,446,183.4,402.28,171.64l.53-.32c-2.13,50.27-31.88,98.79-42.53,148.32l-.24-.36C402.15,331.63,445,344.11,488.73,356.73Z" style="fill:#dbdbdb"></path><path d="M481.8,264.67c-6.51,17.39-26.24,27.08-44.65,21.64s-28.06-23.81-21.71-41.1,25.34-27.13,44-21.8S488.39,247.27,481.8,264.67Z" style="fill:#455a64"></path><path d="M448.64,254.92c-7.55,8.62-15.19,17.22-22.64,25.82a30.74,30.74,0,0,1-10.56-35.53c6.26-17.21,25.46-27.1,44-21.8s28.93,24,22.38,41.26Q465.23,259.78,448.64,254.92Z" style="fill:#dbdbdb"></path><path d="M448.64,254.92c6.58,8.85,13.09,17.7,19.74,26.58a37.32,37.32,0,0,1-31.23,4.81c-18.38-5.39-28-23.92-21.71-41.1s25.46-27.1,44-21.8,28.93,24,22.38,41.26Q465.23,259.78,448.64,254.92Z" style="fill:#dbdbdb"></path><path d="M448.64,254.92l-34.79,5.8a31.63,31.63,0,0,1,1.59-15.51c6.26-17.21,25.46-27.1,44-21.8s28.93,24,22.38,41.26Q465.23,259.78,448.64,254.92Z" style="fill:#FFC107"></path><path d="M412.2,193q26.67,7.41,52.95,14.83c-.31,1.29-.62,2.57-.95,3.85q-26.2-7.43-52.72-14.84C411.73,195.56,412,194.28,412.2,193Z" style="fill:#dbdbdb"></path><path d="M408.19,292.06q35.13,10.37,70.64,20.81c-.35,1.28-.7,2.56-1,3.84q-35.67-10.47-70.86-20.84C407.35,294.6,407.77,293.33,408.19,292.06Z" style="fill:#dbdbdb"></path><path d="M405.13,301.67q35.36,10.4,71.21,20.9c-.3,1.28-.59,2.57-.87,3.85q-36-10.53-71.47-20.94C404.37,304.21,404.74,302.94,405.13,301.67Z" style="fill:#dbdbdb"></path><path d="M402.39,311.29q35.64,10.45,71.9,21c-.24,1.28-.47,2.57-.68,3.86q-36.45-10.59-72.21-21.05C401.72,313.84,402.05,312.56,402.39,311.29Z" style="fill:#dbdbdb"></path><path d="M394.34,292.16l-8.52-2.5,1.29-3.8,8.51,2.51C395.19,289.63,394.76,290.9,394.34,292.16Z" style="fill:#FFC107"></path><path d="M391.31,301.76l-8.58-2.52c.39-1.26.79-2.53,1.19-3.8l8.56,2.52C392.08,299.22,391.69,300.49,391.31,301.76Z" style="fill:#455a64"></path><path d="M388.61,311.37,380,308.84c.34-1.27.69-2.53,1.05-3.8l8.62,2.52Q389.1,309.46,388.61,311.37Z" style="fill:#dbdbdb"></path><polygon points="489.67 417.57 265.38 417.57 248.08 268.48 472.37 268.48 489.67 417.57" style="fill:#FFC107"></polygon><polygon points="325.54 253.04 246.29 253.04 248.08 268.48 331.88 268.48 325.54 253.04" style="fill:#FFC107"></polygon><path d="M401.46,154.36a14.39,14.39,0,0,1-.5-4,14,14,0,0,1,.5-4,16.21,16.21,0,0,1,0,8Z" style="fill:#263238"></path><path d="M393.32,156.71a14.68,14.68,0,0,1-2.43-3.21,14.36,14.36,0,0,1-1.56-3.71,14.6,14.6,0,0,1,2.43,3.21A14.36,14.36,0,0,1,393.32,156.71Z" style="fill:#263238"></path><path d="M387.46,162.81a14.36,14.36,0,0,1-3.71-1.56,14.15,14.15,0,0,1-3.21-2.43,14.36,14.36,0,0,1,3.71,1.56A14.92,14.92,0,0,1,387.46,162.81Z" style="fill:#263238"></path><path d="M385.43,171a16.21,16.21,0,0,1-8,0,16.53,16.53,0,0,1,8,0Z" style="fill:#263238"></path><path d="M387.78,179.17a14.6,14.6,0,0,1-3.21,2.43,14.36,14.36,0,0,1-3.71,1.56,16.15,16.15,0,0,1,6.92-4Z" style="fill:#263238"></path><path d="M393.88,185a14.51,14.51,0,0,1-1.56,3.71,14.32,14.32,0,0,1-2.43,3.2,14.29,14.29,0,0,1,1.56-3.7A14.45,14.45,0,0,1,393.88,185Z" style="fill:#263238"></path><path d="M402.1,187.07a16.17,16.17,0,0,1,0,8,16.17,16.17,0,0,1,0-8Z" style="fill:#263238"></path><path d="M410.24,184.71a14.92,14.92,0,0,1,2.43,3.21,14.36,14.36,0,0,1,1.56,3.71,14.15,14.15,0,0,1-2.43-3.21A14.36,14.36,0,0,1,410.24,184.71Z" style="fill:#263238"></path><path d="M416.11,178.61a14.29,14.29,0,0,1,3.7,1.56A14.45,14.45,0,0,1,423,182.6a16,16,0,0,1-6.91-4Z" style="fill:#263238"></path><path d="M418.13,170.39a14.87,14.87,0,0,1,4-.5,14,14,0,0,1,4,.5,14,14,0,0,1-4,.5A14.87,14.87,0,0,1,418.13,170.39Z" style="fill:#263238"></path><path d="M415.78,162.26a14.6,14.6,0,0,1,3.21-2.43,14,14,0,0,1,3.71-1.57,14.15,14.15,0,0,1-3.21,2.43A14.74,14.74,0,0,1,415.78,162.26Z" style="fill:#263238"></path><path d="M409.68,156.39a14.36,14.36,0,0,1,1.56-3.71,14.15,14.15,0,0,1,2.43-3.21,14.36,14.36,0,0,1-1.56,3.71A14.6,14.6,0,0,1,409.68,156.39Z" style="fill:#263238"></path></g><g id="freepik--Note--inject-190"><path d="M405.54,336.36h51.39a27.41,27.41,0,0,0,2.55-10.23V285H408.09v41.7C408.09,330.83,405.54,336.36,405.54,336.36Z" style="fill:#455a64"></path><path d="M414.38,297.12c6-.5,12.09-.61,18.13-.64s12.09.14,18.13.64c-6,.49-12.09.61-18.13.63S420.42,297.61,414.38,297.12Z" style="fill:#fff"></path><path d="M414.38,303.89c5.44-.49,10.87-.61,16.31-.64s10.87.14,16.3.64c-5.43.5-10.87.61-16.3.64S419.82,304.39,414.38,303.89Z" style="fill:#fff"></path><path d="M414.38,310.67c4.75-.5,9.51-.61,14.26-.64a141.93,141.93,0,0,1,14.27.64c-4.76.49-9.51.61-14.27.63S419.13,311.16,414.38,310.67Z" style="fill:#fff"></path><path d="M414.38,317.44c6-.49,12.09-.61,18.13-.64s12.09.14,18.13.64c-6,.5-12.09.61-18.13.64S420.42,317.94,414.38,317.44Z" style="fill:#fff"></path></g></svg>