<svg xmlns="http://www.w3.org/2000/svg" viewBox="0 0 750 500"><g id="freepik--background-complete--inject-71"><polygon points="77.01 142.81 128.72 142.81 128.72 205.6 142.02 205.6 142.02 170.05 207.77 170.05 207.77 226.34 216.47 226.34 216.47 94.25 273.61 94.25 273.61 130.51 302.9 130.51 302.9 175.61 311.77 175.61 311.77 147.25 363.71 147.25 363.71 231.91 378.91 231.91 378.91 163.08 426.42 163.08 426.42 110.81 458.72 110.81 458.72 81.03 496.09 81.03 496.09 213.08 508.65 213.08 508.65 157.98 570.2 157.98 570.2 236.85 578.72 236.85 578.72 172.47 641.14 172.47 641.14 114.47 672.99 114.47 672.99 337.29 77.01 337.29 77.01 142.81" style="fill:#ebebeb"></polygon><rect x="83.35" y="150.71" width="8.75" height="12" style="fill:#fff"></rect><rect x="98.52" y="150.71" width="8.75" height="12" style="fill:#fff"></rect><rect x="113.68" y="150.71" width="8.75" height="12" style="fill:#fff"></rect><rect x="83.35" y="168.77" width="8.75" height="12" style="fill:#fff"></rect><rect x="98.52" y="168.77" width="8.75" height="12" style="fill:#fff"></rect><rect x="113.68" y="168.77" width="8.75" height="12" style="fill:#fff"></rect><rect x="83.35" y="186.83" width="8.75" height="12" style="fill:#fff"></rect><rect x="98.52" y="186.83" width="8.75" height="12" style="fill:#fff"></rect><rect x="113.68" y="186.83" width="8.75" height="12" style="fill:#fff"></rect><rect x="83.35" y="204.89" width="8.75" height="12" style="fill:#fff"></rect><rect x="98.52" y="204.89" width="8.75" height="12" style="fill:#fff"></rect><rect x="113.68" y="204.89" width="8.75" height="12" style="fill:#fff"></rect><rect x="386.21" y="171.66" width="8.75" height="10.01" style="fill:#fff"></rect><rect x="401.37" y="171.66" width="8.75" height="10.01" style="fill:#fff"></rect><rect x="416.53" y="171.66" width="8.75" height="10.01" style="fill:#fff"></rect><rect x="386.21" y="186.73" width="8.75" height="10.01" style="fill:#fff"></rect><rect x="401.37" y="186.73" width="8.75" height="10.01" style="fill:#fff"></rect><rect x="416.53" y="186.73" width="8.75" height="10.01" style="fill:#fff"></rect><rect x="386.21" y="201.8" width="8.75" height="10.01" style="fill:#fff"></rect><rect x="401.37" y="201.8" width="8.75" height="10.01" style="fill:#fff"></rect><rect x="416.53" y="201.8" width="8.75" height="10.01" style="fill:#fff"></rect><rect x="386.21" y="216.86" width="8.75" height="10.01" style="fill:#fff"></rect><rect x="401.37" y="216.86" width="8.75" height="10.01" style="fill:#fff"></rect><rect x="416.53" y="216.86" width="8.75" height="10.01" style="fill:#fff"></rect><rect x="386.21" y="232.31" width="8.75" height="10.01" style="fill:#fff"></rect><rect x="401.37" y="232.31" width="8.75" height="10.01" style="fill:#fff"></rect><rect x="416.53" y="232.31" width="8.75" height="10.01" style="fill:#fff"></rect><rect x="386.21" y="247.75" width="8.75" height="10.01" style="fill:#fff"></rect><rect x="401.37" y="247.75" width="8.75" height="10.01" style="fill:#fff"></rect><rect x="416.53" y="247.75" width="8.75" height="10.01" style="fill:#fff"></rect><rect x="386.21" y="263.19" width="8.75" height="10.01" style="fill:#fff"></rect><rect x="401.37" y="263.19" width="8.75" height="10.01" style="fill:#fff"></rect><rect x="416.53" y="263.19" width="8.75" height="10.01" style="fill:#fff"></rect><rect x="386.21" y="278.63" width="8.75" height="10.01" style="fill:#fff"></rect><rect x="401.37" y="278.63" width="8.75" height="10.01" style="fill:#fff"></rect><rect x="416.53" y="278.63" width="8.75" height="10.01" style="fill:#fff"></rect><rect x="149.49" y="177.75" width="50.36" height="7.51" style="fill:#fff"></rect><rect x="149.49" y="192.32" width="50.36" height="7.51" style="fill:#fff"></rect><rect x="149.49" y="206.89" width="50.36" height="7.51" style="fill:#fff"></rect><rect x="149.49" y="221.45" width="50.36" height="7.51" style="fill:#fff"></rect><rect x="149.49" y="236.02" width="50.36" height="7.51" style="fill:#fff"></rect><rect x="149.49" y="250.59" width="50.36" height="7.51" style="fill:#fff"></rect><rect x="149.49" y="265.16" width="50.36" height="7.51" style="fill:#fff"></rect><rect x="149.49" y="279.72" width="50.36" height="7.51" style="fill:#fff"></rect><rect x="516.09" y="164.98" width="46.3" height="7.51" style="fill:#fff"></rect><rect x="516.09" y="179.55" width="46.3" height="7.51" style="fill:#fff"></rect><rect x="516.09" y="194.11" width="46.3" height="7.51" style="fill:#fff"></rect><rect x="516.09" y="208.68" width="46.3" height="7.51" style="fill:#fff"></rect><rect x="516.09" y="223.25" width="46.3" height="7.51" style="fill:#fff"></rect><rect x="516.09" y="237.81" width="46.3" height="7.51" style="fill:#fff"></rect><rect x="516.09" y="252.38" width="46.3" height="7.51" style="fill:#fff"></rect><rect x="516.09" y="266.95" width="46.3" height="7.51" style="fill:#fff"></rect><rect x="516.09" y="280.79" width="46.3" height="7.51" style="fill:#fff"></rect><rect x="516.09" y="294.63" width="46.3" height="7.51" style="fill:#fff"></rect><rect x="516.09" y="308.47" width="46.3" height="7.51" style="fill:#fff"></rect><rect x="516.09" y="322.32" width="46.3" height="7.51" style="fill:#fff"></rect><rect x="588.35" y="182.57" width="48.91" height="7.51" style="fill:#fff"></rect><rect x="588.35" y="197.14" width="48.91" height="7.51" style="fill:#fff"></rect><rect x="588.35" y="211.71" width="48.91" height="7.51" style="fill:#fff"></rect><rect x="588.35" y="226.28" width="48.91" height="7.51" style="fill:#fff"></rect><rect x="588.35" y="240.84" width="48.91" height="7.51" style="fill:#fff"></rect><rect x="588.35" y="255.41" width="48.91" height="7.51" style="fill:#fff"></rect><rect x="588.35" y="269.98" width="48.91" height="7.51" style="fill:#fff"></rect><rect x="588.35" y="284.54" width="48.91" height="7.51" style="fill:#fff"></rect><rect x="588.35" y="297.58" width="48.91" height="7.51" style="fill:#fff"></rect><rect x="588.35" y="310.62" width="48.91" height="7.51" style="fill:#fff"></rect><rect x="588.35" y="323.66" width="48.91" height="7.51" style="fill:#fff"></rect><rect x="326.97" y="154.04" width="15.55" height="7.25" style="fill:#fff"></rect><rect x="326.97" y="168.11" width="15.55" height="7.25" style="fill:#fff"></rect><rect x="326.97" y="182.18" width="15.55" height="7.25" style="fill:#fff"></rect><rect x="326.97" y="196.25" width="15.55" height="7.25" style="fill:#fff"></rect><rect x="326.97" y="210.31" width="15.55" height="7.25" style="fill:#fff"></rect><rect x="326.97" y="224.38" width="15.55" height="7.25" style="fill:#fff"></rect><rect x="326.97" y="238.45" width="15.55" height="7.25" style="fill:#fff"></rect><rect x="326.97" y="252.52" width="15.55" height="7.25" style="fill:#fff"></rect><rect x="348.13" y="154.04" width="15.55" height="7.25" style="fill:#fff"></rect><rect x="348.13" y="168.11" width="15.55" height="7.25" style="fill:#fff"></rect><rect x="348.13" y="182.18" width="15.55" height="7.25" style="fill:#fff"></rect><rect x="348.13" y="196.25" width="15.55" height="7.25" style="fill:#fff"></rect><rect x="348.13" y="210.31" width="15.55" height="7.25" style="fill:#fff"></rect><rect x="348.13" y="224.38" width="15.55" height="7.25" style="fill:#fff"></rect><rect x="348.13" y="238.45" width="15.55" height="7.25" style="fill:#fff"></rect><rect x="348.13" y="252.52" width="15.55" height="7.25" style="fill:#fff"></rect><rect x="225.14" y="101.85" width="16.2" height="11.43" style="fill:#fff"></rect><rect x="249.29" y="101.85" width="16.2" height="11.43" style="fill:#fff"></rect><rect x="225.14" y="118.65" width="16.2" height="11.43" style="fill:#fff"></rect><rect x="249.29" y="118.65" width="16.2" height="11.43" style="fill:#fff"></rect><rect x="225.14" y="135.44" width="16.2" height="11.43" style="fill:#fff"></rect><rect x="249.29" y="135.44" width="16.2" height="11.43" style="fill:#fff"></rect><rect x="225.14" y="152.24" width="16.2" height="11.43" style="fill:#fff"></rect><rect x="249.29" y="152.24" width="16.2" height="11.43" style="fill:#fff"></rect><rect x="225.14" y="169.04" width="16.2" height="11.43" style="fill:#fff"></rect><rect x="249.29" y="169.04" width="16.2" height="11.43" style="fill:#fff"></rect><rect x="225.14" y="185.83" width="16.2" height="11.43" style="fill:#fff"></rect><rect x="249.29" y="185.83" width="16.2" height="11.43" style="fill:#fff"></rect><rect x="225.14" y="202.63" width="16.2" height="11.43" style="fill:#fff"></rect><rect x="249.29" y="202.63" width="16.2" height="11.43" style="fill:#fff"></rect><rect x="225.14" y="219.42" width="16.2" height="11.43" style="fill:#fff"></rect><rect x="249.29" y="219.42" width="16.2" height="11.43" style="fill:#fff"></rect><rect x="279.23" y="135.44" width="16.2" height="11.43" style="fill:#fff"></rect><rect x="279.23" y="152.24" width="16.2" height="11.43" style="fill:#fff"></rect><rect x="279.23" y="169.04" width="16.2" height="11.43" style="fill:#fff"></rect><rect x="279.23" y="185.83" width="16.2" height="11.43" style="fill:#fff"></rect><rect x="279.23" y="202.63" width="16.2" height="11.43" style="fill:#fff"></rect><rect x="279.23" y="219.42" width="16.2" height="11.43" style="fill:#fff"></rect><rect x="225.14" y="236.02" width="16.2" height="11.43" style="fill:#fff"></rect><rect x="249.29" y="236.02" width="16.2" height="11.43" style="fill:#fff"></rect><rect x="279.23" y="236.02" width="16.2" height="11.43" style="fill:#fff"></rect><rect x="225.14" y="252.62" width="16.2" height="11.43" style="fill:#fff"></rect><rect x="249.29" y="252.62" width="16.2" height="11.43" style="fill:#fff"></rect><rect x="279.23" y="252.62" width="16.2" height="11.43" style="fill:#fff"></rect><rect x="225.14" y="269.21" width="16.2" height="11.43" style="fill:#fff"></rect><rect x="249.29" y="269.21" width="16.2" height="11.43" style="fill:#fff"></rect><rect x="279.23" y="269.21" width="16.2" height="11.43" style="fill:#fff"></rect><rect x="225.14" y="285.81" width="16.2" height="11.43" style="fill:#fff"></rect><rect x="249.29" y="285.81" width="16.2" height="11.43" style="fill:#fff"></rect><rect x="279.23" y="285.81" width="16.2" height="11.43" style="fill:#fff"></rect><rect x="225.14" y="302.4" width="16.2" height="11.43" style="fill:#fff"></rect><rect x="249.29" y="302.4" width="16.2" height="11.43" style="fill:#fff"></rect><rect x="279.23" y="302.4" width="16.2" height="11.43" style="fill:#fff"></rect><rect x="433.02" y="118.17" width="8.75" height="10.01" style="fill:#fff"></rect><rect x="448.18" y="118.17" width="8.75" height="10.01" style="fill:#fff"></rect><rect x="433.02" y="133.24" width="8.75" height="10.01" style="fill:#fff"></rect><rect x="448.18" y="133.24" width="8.75" height="10.01" style="fill:#fff"></rect><rect x="433.02" y="148.31" width="8.75" height="10.01" style="fill:#fff"></rect><rect x="448.18" y="148.31" width="8.75" height="10.01" style="fill:#fff"></rect><rect x="433.02" y="163.38" width="8.75" height="10.01" style="fill:#fff"></rect><rect x="448.18" y="163.38" width="8.75" height="10.01" style="fill:#fff"></rect><rect x="433.02" y="178.82" width="8.75" height="10.01" style="fill:#fff"></rect><rect x="448.18" y="178.82" width="8.75" height="10.01" style="fill:#fff"></rect><rect x="433.02" y="194.26" width="8.75" height="10.01" style="fill:#fff"></rect><rect x="448.18" y="194.26" width="8.75" height="10.01" style="fill:#fff"></rect><rect x="433.02" y="209.7" width="8.75" height="10.01" style="fill:#fff"></rect><rect x="448.18" y="209.7" width="8.75" height="10.01" style="fill:#fff"></rect><rect x="433.02" y="225.14" width="8.75" height="10.01" style="fill:#fff"></rect><rect x="448.18" y="225.14" width="8.75" height="10.01" style="fill:#fff"></rect><rect x="433.02" y="240.75" width="8.75" height="10.01" style="fill:#fff"></rect><rect x="448.18" y="240.75" width="8.75" height="10.01" style="fill:#fff"></rect><rect x="433.02" y="256.36" width="8.75" height="10.01" style="fill:#fff"></rect><rect x="448.18" y="256.36" width="8.75" height="10.01" style="fill:#fff"></rect><rect x="433.02" y="271.96" width="8.75" height="10.01" style="fill:#fff"></rect><rect x="448.18" y="271.96" width="8.75" height="10.01" style="fill:#fff"></rect><rect x="433.02" y="287.57" width="8.75" height="10.01" style="fill:#fff"></rect><rect x="448.18" y="287.57" width="8.75" height="10.01" style="fill:#fff"></rect><rect x="646.62" y="119.8" width="8.75" height="11.8" style="fill:#fff"></rect><rect x="661.78" y="119.8" width="8.75" height="11.8" style="fill:#fff"></rect><rect x="646.62" y="137.55" width="8.75" height="11.8" style="fill:#fff"></rect><rect x="661.78" y="137.55" width="8.75" height="11.8" style="fill:#fff"></rect><rect x="646.62" y="155.31" width="8.75" height="11.8" style="fill:#fff"></rect><rect x="661.78" y="155.31" width="8.75" height="11.8" style="fill:#fff"></rect><rect x="646.62" y="173.06" width="8.75" height="11.8" style="fill:#fff"></rect><rect x="661.78" y="173.06" width="8.75" height="11.8" style="fill:#fff"></rect><rect x="646.62" y="191.25" width="8.75" height="11.8" style="fill:#fff"></rect><rect x="661.78" y="191.25" width="8.75" height="11.8" style="fill:#fff"></rect><rect x="646.62" y="209.44" width="8.75" height="11.8" style="fill:#fff"></rect><rect x="661.78" y="209.44" width="8.75" height="11.8" style="fill:#fff"></rect><rect x="646.62" y="227.63" width="8.75" height="11.8" style="fill:#fff"></rect><rect x="661.78" y="227.63" width="8.75" height="11.8" style="fill:#fff"></rect><rect x="646.62" y="245.83" width="8.75" height="11.8" style="fill:#fff"></rect><rect x="661.78" y="245.83" width="8.75" height="11.8" style="fill:#fff"></rect><rect x="646.62" y="264.21" width="8.75" height="11.8" style="fill:#fff"></rect><rect x="661.78" y="264.21" width="8.75" height="11.8" style="fill:#fff"></rect><rect x="646.62" y="282.6" width="8.75" height="11.8" style="fill:#fff"></rect><rect x="661.78" y="282.6" width="8.75" height="11.8" style="fill:#fff"></rect><rect x="646.62" y="300.98" width="8.75" height="11.8" style="fill:#fff"></rect><rect x="661.78" y="300.98" width="8.75" height="11.8" style="fill:#fff"></rect><rect x="646.62" y="319.37" width="8.75" height="11.8" style="fill:#fff"></rect><rect x="661.78" y="319.37" width="8.75" height="11.8" style="fill:#fff"></rect><rect x="465.44" y="118.17" width="8.75" height="10.01" style="fill:#fff"></rect><rect x="480.6" y="118.17" width="8.75" height="10.01" style="fill:#fff"></rect><rect x="465.44" y="102.72" width="8.75" height="10.01" style="fill:#fff"></rect><rect x="480.6" y="102.72" width="8.75" height="10.01" style="fill:#fff"></rect><rect x="465.44" y="87.27" width="8.75" height="10.01" style="fill:#fff"></rect><rect x="480.6" y="87.27" width="8.75" height="10.01" style="fill:#fff"></rect><rect x="465.44" y="133.24" width="8.75" height="10.01" style="fill:#fff"></rect><rect x="480.6" y="133.24" width="8.75" height="10.01" style="fill:#fff"></rect><rect x="465.44" y="148.31" width="8.75" height="10.01" style="fill:#fff"></rect><rect x="480.6" y="148.31" width="8.75" height="10.01" style="fill:#fff"></rect><rect x="465.44" y="163.38" width="8.75" height="10.01" style="fill:#fff"></rect><rect x="480.6" y="163.38" width="8.75" height="10.01" style="fill:#fff"></rect><rect x="465.44" y="178.82" width="8.75" height="10.01" style="fill:#fff"></rect><rect x="480.6" y="178.82" width="8.75" height="10.01" style="fill:#fff"></rect><rect x="465.44" y="194.26" width="8.75" height="10.01" style="fill:#fff"></rect><rect x="480.6" y="194.26" width="8.75" height="10.01" style="fill:#fff"></rect><rect x="465.44" y="209.7" width="8.75" height="10.01" style="fill:#fff"></rect><rect x="480.6" y="209.7" width="8.75" height="10.01" style="fill:#fff"></rect><rect x="465.44" y="225.14" width="8.75" height="10.01" style="fill:#fff"></rect><rect x="480.6" y="225.14" width="8.75" height="10.01" style="fill:#fff"></rect><rect x="465.44" y="240.75" width="8.75" height="10.01" style="fill:#fff"></rect><rect x="480.6" y="240.75" width="8.75" height="10.01" style="fill:#fff"></rect><rect x="465.44" y="256.36" width="8.75" height="10.01" style="fill:#fff"></rect><rect x="480.6" y="256.36" width="8.75" height="10.01" style="fill:#fff"></rect><rect x="465.44" y="271.96" width="8.75" height="10.01" style="fill:#fff"></rect><rect x="480.6" y="271.96" width="8.75" height="10.01" style="fill:#fff"></rect><rect x="465.44" y="287.57" width="8.75" height="10.01" style="fill:#fff"></rect><rect x="480.6" y="287.57" width="8.75" height="10.01" style="fill:#fff"></rect><path d="M183.78,132.27l-87.6-.13s4.36-5.67,9.16-6.37c0,0,9.38-27.79,25-28,14.54-.16,20.34,17.13,20.34,17.13s6.75-7.74,13.18-4.18,10.05,13.71,10.05,13.71S181.17,128.37,183.78,132.27Z" style="fill:#ebebeb"></path><path d="M558.08,100l110.79.17s0-7.08-15.25-8.49c0,0-13.89-31-35.17-26.83C605.2,67.37,598.4,85.55,598.4,85.55s-10-14.33-18-11.57-12.8,18-12.8,18S559.34,96,558.08,100Z" style="fill:#ebebeb"></path><path d="M289.3,96.15l75.34.11s-7.1-6.63-10.26-6.63S342,67.4,330.24,68.32s-18.06,17.46-18.06,17.46S297.87,81.27,289.3,96.15Z" style="fill:#ebebeb"></path><path d="M499.75,140.26l64.42.1s-3.2-4.18-6.73-4.7c0,0-6.83-20.46-18.33-20.62-10.69-.15-15,12.55-15,12.55s-4.94-5.71-9.67-3.11S507,134.54,507,134.54,501.68,137.4,499.75,140.26Z" style="fill:#ebebeb"></path></g><g id="freepik--Shadow--inject-71"><ellipse cx="371" cy="396.82" rx="274.84" ry="23.23" style="fill:#ebebeb"></ellipse><ellipse cx="479.83" cy="435.76" rx="136.25" ry="18.23" style="fill:#ebebeb"></ellipse></g><g id="freepik--Floor--inject-71"><polygon points="47.51 341.89 129.38 341.65 211.25 341.56 375 341.39 538.75 341.56 620.62 341.65 702.49 341.89 620.62 342.14 538.75 342.23 375 342.39 211.25 342.23 129.38 342.14 47.51 341.89" style="fill:#263238"></polygon><rect x="47.51" y="331.32" width="654.98" height="10.58" style="fill:#c7c7c7"></rect><path d="M81.21,331.32a28.18,28.18,0,0,1,0,10.57,24.22,24.22,0,0,1-.5-5.28A24.89,24.89,0,0,1,81.21,331.32Z" style="fill:#263238"></path><path d="M120.38,331.32a24.89,24.89,0,0,1,.5,5.29,24.22,24.22,0,0,1-.5,5.28,24.85,24.85,0,0,1-.5-5.28A25.55,25.55,0,0,1,120.38,331.32Z" style="fill:#263238"></path><path d="M159.55,331.32a28.18,28.18,0,0,1,0,10.57,28.18,28.18,0,0,1,0-10.57Z" style="fill:#263238"></path><path d="M198.73,331.32a28.75,28.75,0,0,1,0,10.57,28.18,28.18,0,0,1,0-10.57Z" style="fill:#263238"></path><path d="M237.9,331.32a28.18,28.18,0,0,1,0,10.57,28.18,28.18,0,0,1,0-10.57Z" style="fill:#263238"></path><path d="M277.07,331.32a25.55,25.55,0,0,1,.5,5.29,24.85,24.85,0,0,1-.5,5.28,24.22,24.22,0,0,1-.5-5.28A25.55,25.55,0,0,1,277.07,331.32Z" style="fill:#263238"></path><path d="M316.24,331.32a24.89,24.89,0,0,1,.5,5.29,24.22,24.22,0,0,1-.5,5.28,28.18,28.18,0,0,1,0-10.57Z" style="fill:#263238"></path><path d="M355.41,331.32a28.18,28.18,0,0,1,0,10.57,28.18,28.18,0,0,1,0-10.57Z" style="fill:#263238"></path><path d="M394.59,331.32a28.18,28.18,0,0,1,0,10.57,28.18,28.18,0,0,1,0-10.57Z" style="fill:#263238"></path><path d="M433.76,331.32a28.18,28.18,0,0,1,0,10.57,24.22,24.22,0,0,1-.5-5.28A24.89,24.89,0,0,1,433.76,331.32Z" style="fill:#263238"></path><path d="M472.93,331.32a25.55,25.55,0,0,1,.5,5.29,24.22,24.22,0,0,1-.5,5.28,24.85,24.85,0,0,1-.5-5.28A25.55,25.55,0,0,1,472.93,331.32Z" style="fill:#263238"></path><path d="M512.1,331.32a28.18,28.18,0,0,1,0,10.57,28.18,28.18,0,0,1,0-10.57Z" style="fill:#263238"></path><path d="M551.28,331.32a28.75,28.75,0,0,1,0,10.57,28.18,28.18,0,0,1,0-10.57Z" style="fill:#263238"></path><path d="M590.45,331.32a28.18,28.18,0,0,1,0,10.57,28.18,28.18,0,0,1,0-10.57Z" style="fill:#263238"></path><path d="M629.62,331.32a25.55,25.55,0,0,1,.5,5.29,24.85,24.85,0,0,1-.5,5.28,24.22,24.22,0,0,1-.5-5.28A24.89,24.89,0,0,1,629.62,331.32Z" style="fill:#263238"></path><path d="M668.79,331.32a24.89,24.89,0,0,1,.5,5.29,24.22,24.22,0,0,1-.5,5.28,28.18,28.18,0,0,1,0-10.57Z" style="fill:#263238"></path></g><g id="freepik--traffic-light--inject-71"><polygon points="675.81 314.93 671.29 314.93 672.44 218.45 672.54 210.41 674.56 210.41 674.66 218.45 675.81 314.93" style="fill:#FFC107"></polygon><polygon points="674.66 218.45 672.44 218.45 672.54 210.41 674.56 210.41 674.66 218.45" style="fill:#263238"></polygon><polygon points="662.28 181.15 664.05 212.64 666.13 212.97 668.02 213.27 668.02 179.27 664 180.59 662.28 181.15" style="fill:#FFC107"></polygon><path d="M664.24,184.83s-7.67.07-7.51.5,3.24,1.29,3.52,1.49,3.2,5.79,4,5.79S664.24,184.83,664.24,184.83Z" style="fill:#FFC107"></path><path d="M664.8,193.74s-7.66.08-7.51.51,3.25,1.29,3.52,1.49,3.21,5.78,4,5.78S664.8,193.74,664.8,193.74Z" style="fill:#FFC107"></path><path d="M665.37,202.66s-7.67.08-7.51.51,3.24,1.29,3.52,1.48,3.2,5.79,4,5.79S665.37,202.66,665.37,202.66Z" style="fill:#FFC107"></path><polygon points="664 180.59 666.13 212.97 668.02 213.27 668.02 179.27 664 180.59" style="opacity:0.1"></polygon><polygon points="684.82 181.15 683.05 212.64 680.97 212.97 679.08 213.27 679.08 179.27 683.1 180.59 684.82 181.15" style="fill:#FFC107"></polygon><path d="M682.87,184.83s7.66.07,7.5.5-3.24,1.29-3.52,1.49-3.2,5.79-4,5.79S682.87,184.83,682.87,184.83Z" style="fill:#FFC107"></path><path d="M682.3,193.74s7.67.08,7.51.51-3.25,1.29-3.52,1.49-3.21,5.78-4,5.78S682.3,193.74,682.3,193.74Z" style="fill:#FFC107"></path><path d="M681.74,202.66s7.66.08,7.5.51-3.24,1.29-3.52,1.48-3.2,5.79-4,5.79S681.74,202.66,681.74,202.66Z" style="fill:#FFC107"></path><polygon points="683.1 180.59 680.97 212.97 679.08 213.27 679.08 179.27 683.1 180.59" style="opacity:0.1"></polygon><polygon points="680.75 176.71 680.12 214.04 666.98 214.04 666.35 176.71 680.75 176.71" style="fill:#FFC107"></polygon><path d="M678.23,183.33a4.68,4.68,0,1,1-4.68-4.68A4.68,4.68,0,0,1,678.23,183.33Z" style="fill:#dd6a57"></path><path d="M678.23,207a4.68,4.68,0,1,1-4.68-4.68A4.68,4.68,0,0,1,678.23,207Z" style="fill:#fff"></path><path d="M678.23,195.27a4.68,4.68,0,1,1-4.68-4.69A4.68,4.68,0,0,1,678.23,195.27Z" style="fill:#fff"></path><polygon points="677.17 331.32 669.93 331.32 670.55 312.36 670.74 306.47 676.21 306.47 676.44 312.36 677.17 331.32" style="fill:#FFC107"></polygon><polygon points="676.44 312.36 670.55 312.36 670.74 306.47 676.21 306.47 676.44 312.36" style="fill:#455a64"></polygon></g><g id="freepik--Car--inject-71"><path d="M140,355.29H259s-13-55.59-59.49-55.59S142,342.88,140,355.29Z" style="fill:#FFC107"></path><path d="M140,355.29H259s-13-55.59-59.49-55.59S142,342.88,140,355.29Z" style="opacity:0.2"></path><path d="M485.3,361.29h119s-13-55.59-59.49-55.59S487.35,348.88,485.3,361.29Z" style="fill:#FFC107"></path><path d="M485.3,361.29h119s-13-55.59-59.49-55.59S487.35,348.88,485.3,361.29Z" style="opacity:0.2"></path><path d="M112.77,253.9c-2.55,4-7,48.69-7.29,50.25s-4,8.4-4,9.7-1,21.42-.45,22.72a56.73,56.73,0,0,0,4.1,6.84c.65.78,17.51,15.29,19.4,15.49s19.33.32,19.66,0,2.34-54,55.26-54,52.34,57,53.32,57.22,237.87,5.6,237.87,5.6c0-8.73.68-60.67,52.59-60.67,33.82,0,50.91,27.87,51.5,48.43.24,8.56-1.19,18-.72,18,1.56,0,6.9.39,7.81,0s12-7.69,12.89-7.95,7.29-.39,8.85-.78,12.5-10,12.7-10.35.52-4.16.58-4.49,11.14-13.87,11.66-15.36.71-13.87.71-15.11-20.11-33.85-24.8-37.36-38.08-15.23-47.85-17-63.47-9.77-65.42-11.13S417.49,200,401.54,196.09c-12.89-3.12-162.09,1.17-169.9,1.56s-29.43,4.3-31.51,4.3-26-.13-27.47.52,0,6.38,1.82,7.42S117.2,246.87,112.77,253.9Z" style="fill:#FFC107"></path><path d="M116.19,250.51c.56.52,9.89.75,10.87.36s59.74-39.48,59.78-40.62c0-.57-11-.42-12.36-.36S115.11,249.53,116.19,250.51Z" style="fill:#455a64"></path><path d="M181.63,249.89c2.55,7.52,311.18,21.58,312.87,17.94,1.25-2.7-26.36-24.87-39.25-32.1s-49.8-28.12-68-30.27-55-2-87.1-1.36c-31.84.58-69.33,1.36-82.61,7C205.93,216.1,179.61,243.91,181.63,249.89Z" style="fill:#263238"></path><path d="M190.24,245.5c.77,2.83,68.93,10.16,148.81,13.87s119.32,4.29,120.3,3.9-2.74-21.67-4.1-23.43S396.66,208.79,387.68,208s-57.52-.88-82-.49-75.57,3.32-84.27,6.83C213.74,217.44,189.45,242.67,190.24,245.5Z" style="fill:#455a64"></path><g style="opacity:0.1"><path d="M296,207.76l-45.75,45.75c-8.16-.72-15.71-1.44-22.49-2.13L270.15,209C279.19,208.42,288.2,208,296,207.76Z" style="fill:#fff"></path><path d="M459.19,258.76l-4.61,4.61q-7,0-24.15-.46l23.8-23.79a6.5,6.5,0,0,1,1,.71C456.22,241.09,458.4,252.31,459.19,258.76Z" style="fill:#fff"></path><path d="M330.1,207.32,281.45,256c-3.9-.27-7.73-.55-11.46-.84l47.74-47.75C321.65,207.35,325.82,207.32,330.1,207.32Z" style="fill:#fff"></path><path d="M434.53,228.64,401.19,262l-11.86-.44,37-37C429.14,225.93,431.9,227.3,434.53,228.64Z" style="fill:#fff"></path><path d="M262,209.46l-41.15,41.17h0l-3.14-.35,40.56-40.56Z" style="fill:#fff"></path><path d="M441.62,232.27l-30,30.06-3.38-.12,31.12-31.13Z" style="fill:#fff"></path><path d="M398.45,211.62,350.2,259.87l-3.36-.14L396,210.61Z" style="fill:#fff"></path><path d="M229.3,212.6,194.86,247c-1.15-.23-2.1-.45-2.83-.67l33-33C226.28,213.09,227.7,212.84,229.3,212.6Z" style="fill:#fff"></path></g><path d="M233,212.08c.32,0,.47.42.19,1.17-1.6,4.43-14.09,29.52-17.21,35.38a2.76,2.76,0,0,1-1.77,1.24l22,2.35a1.79,1.79,0,0,1-1.09-2c.22-1.39,8.39-30.88,11-38.13a3.09,3.09,0,0,1,1.47-1.54c.44,0-3.75.06-7.73.47C236.32,211.4,233,212.08,233,212.08Z" style="fill:#263238"></path><path d="M262,209.46s.4.22.42,1c.14,6.94.92,41.69.25,43.59a.75.75,0,0,1-.32.46l4.16.33a2,2,0,0,1-.38-1c-.47-5.87-.89-37.73-.81-43.62a1.79,1.79,0,0,1,.39-1Z" style="fill:#263238"></path><path d="M330.43,208.75c.49,1.54,1.3,46.91,1.3,48.37s-1.67,1.81-1.67,1.81l25.79,1.2s-1.67-.47-2-1.25-8.4-49.7-8.35-50.34,1.32-1.24,1.32-1.24h-18A2.74,2.74,0,0,1,330.43,208.75Z" style="fill:#263238"></path><path d="M117.33,260.28c-3.17.4-10.29,7.81-10.81,9.37s-2.47,12.11-1.43,13.67,4.82,5.47,8.07,5.6,19.14-7.42,20.57-8.72,2.47-9.23.78-11.78S121.36,259.76,117.33,260.28Z" style="fill:#fff"></path><path d="M133.73,280.2c-1.43,1.3-17.32,8.85-20.57,8.72-2.48-.1-5.27-2.4-6.91-4.18a10.54,10.54,0,0,0,6.36,2c1.75-.16,16.63-6.56,18.54-8.31s2-8.34,1.74-9.53-9.86-7.38-9.86-7.38c4.75,1.83,10.34,5.17,11.48,6.89C136.2,271,135.16,278.89,133.73,280.2Z" style="fill:#ebebeb"></path><path d="M104.18,319.19c-.88.88-1.18,7.49-.26,8.07s6.25.52,7.29,0,3.71-5.47,3.51-7.16S105.22,318.15,104.18,319.19Z" style="fill:#fff"></path><path d="M579.45,282.6c2.81,4.55,23.44,12.6,31.15,13.87,4.86.8,21.68,1.86,22.66,1s-7.13-12.11-11.33-14.85-25.19-9.76-31.54-9.47S576.62,278,579.45,282.6Z" style="fill:#fff"></path><path d="M633.26,297.45c-1,.88-17.8-.18-22.66-1-7.71-1.27-28.34-9.32-31.15-13.87s4.59-9.17,10.94-9.47a12.65,12.65,0,0,1,1.48,0c-5.91,2.18-7.12,6.8-3.52,9.44s15.14,8.81,19.75,10.1c4.44,1.25,21,3.83,22.44,2.7a2.88,2.88,0,0,0,.63-2.38C632.69,295.3,633.63,297.12,633.26,297.45Z" style="fill:#ebebeb"></path><g style="opacity:0.5"><path d="M183.23,281.54a10.54,10.54,0,0,1-3,7.44,10.67,10.67,0,0,1-15.08.22,10.66,10.66,0,0,1,0-15.31,10.65,10.65,0,0,1,15.08.22A10.52,10.52,0,0,1,183.23,281.54Zm0,0a10.42,10.42,0,0,0-3.11-7.34,10.3,10.3,0,0,0-7.34-2.88,10.2,10.2,0,0,0-7.12,3.1,10.23,10.23,0,0,0,0,14.25,10.2,10.2,0,0,0,7.12,3.1,10.3,10.3,0,0,0,7.34-2.88A10.46,10.46,0,0,0,183.23,281.54Z"></path><path d="M140,313.27c-1.06-2.36-2-4.74-3-7.14s-1.84-4.8-2.76-7.21-1.75-4.84-2.57-7.28-1.64-4.89-2.36-7.37c1.07,2.36,2,4.74,3,7.13s1.84,4.81,2.77,7.22,1.75,4.84,2.57,7.28S139.26,310.79,140,313.27Z"></path><path d="M103.36,313.27c5.13-.1,10.25-.09,15.38-.07l15.37.16,15.37.37c5.12.16,10.24.33,15.36.6-5.12.1-10.25.09-15.37.08l-15.38-.17-15.37-.37C113.6,313.71,108.48,313.54,103.36,313.27Z"></path><path d="M345.34,263.4l1.76,12.49.76,6.26c.12,1.05.23,2.09.31,3.15s0,2.1,0,3.16L348,313.68l-.2,12.62-.11,6.3-.05,3.16-.24,3.14-1,12.58L345.34,364l.64-12.59.72-12.58.18-3.15,0-3.15.06-6.3.13-12.59.43-25.2c0-1.05.09-2.11,0-3.14s-.15-2.09-.25-3.13l-.63-6.27Z"></path><path d="M483.83,269.13,486,281.68,487,288l.26,1.57a8.53,8.53,0,0,1,.19,1.59c0,1.06,0,2.12,0,3.19-.07,8.49-.28,17-.54,25.46q-.1,3.18-.27,6.36a23.53,23.53,0,0,1-1.22,6.28c-1.16,4.09-2.49,8.12-3.95,12.12a93.14,93.14,0,0,1-5.08,11.7l-.79,1.4c-.27.46-.58.9-.87,1.35a12.07,12.07,0,0,1-1,1.29l-.52.63a2,2,0,0,1-.93.28c-2.15.22-4.26.25-6.39.32-17,.35-33.95.2-50.93.08s-33.95-.37-50.93-.68-33.94-.78-50.91-1.4c-8.48-.35-17-.63-25.44-1.39a19.56,19.56,0,0,1-3.22-.51c-.6-.23-.95-.51-1.46-.73s-.94-.46-1.42-.68c-1.93-.87-3.91-1.64-5.83-2.6a22.37,22.37,0,0,1-5.35-3.56,50.69,50.69,0,0,1-3.86-5.14c-4.78-7-9.35-14.18-13.91-21.33s-9.08-14.35-13.57-21.55-8.92-14.45-13.3-21.72l-1.62-2.74-.39-.72-.19-.36a1.83,1.83,0,0,1-.05-.4l-.16-1.58c-.18-2.12-.34-4.24-.42-6.36,0-.53,0-1.06,0-1.6a9.45,9.45,0,0,1,.34-1.56c.29-1,.64-2,1-3,.71-2,1.47-4,2.26-5.95q-1.16,3-2.21,6c-.34,1-.68,2-1,3a9.53,9.53,0,0,0-.33,1.55c0,.53,0,1.06,0,1.59.09,2.11.28,4.23.47,6.34l.17,1.58a2.44,2.44,0,0,0,.06.39l.19.34c.13.22.24.44.38.67l1.64,2.73c4.43,7.23,9,14.42,13.48,21.6,9,14.35,18.07,28.74,27.6,42.78a50.4,50.4,0,0,0,3.78,5,22.1,22.1,0,0,0,5.22,3.45c1.89.93,3.86,1.69,5.81,2.57.49.22,1,.44,1.45.68s1,.56,1.39.7a20.64,20.64,0,0,0,3.06.46c8.43.74,16.93,1,25.41,1.31,17,.58,33.93.95,50.9,1.26s33.94.64,50.92.83,34,.37,50.91.07c2.11-.06,4.25-.09,6.33-.3.24,0,.55-.1.59-.11l.5-.6a10.47,10.47,0,0,0,.94-1.25c.28-.44.59-.87.86-1.32l.78-1.37A91.63,91.63,0,0,0,481,344.35q2.21-6,4-12.07a23.61,23.61,0,0,0,1.22-6.17l.29-6.36c.34-8.48.62-17,.76-25.45,0-1.06,0-2.12,0-3.17a9.44,9.44,0,0,0-.18-1.58l-.25-1.57-1-6.28Z"></path><path d="M593.07,290.71a58,58,0,0,1-7,5.05c-2.43,1.57-4.91,3.05-7.37,4.56s-5,2.91-7.51,4.31-5.06,2.77-7.65,4.06c2.41-1.6,4.86-3.13,7.31-4.65l7.4-4.48,7.46-4.37,3.74-2.18A35.65,35.65,0,0,0,593.07,290.71Z"></path><polygon points="235.74 315.54 268.8 316.41 301.87 317.41 368 319.43 434.12 321.74 467.18 322.9 500.23 324.2 467.16 323.33 434.1 322.33 367.97 320.31 301.85 318 268.79 316.83 235.74 315.54"></polygon><path d="M233.79,268.15l-1.3.07h-.32c-.07,0-.08.06-.12.16a4.25,4.25,0,0,0-.12.62,16.71,16.71,0,0,0-.05,2.55,10.35,10.35,0,0,0,.11,1.26,2.44,2.44,0,0,0,.14.55l0,0h.1l.24,0c.84.08,1.71.1,2.56.13,3.44.11,6.89.22,10.33.28l5.16.15,2.58,0h1.1a2,2,0,0,0,.14-.32,5.13,5.13,0,0,0,.12-.59,14.06,14.06,0,0,0,.11-2.52,10.37,10.37,0,0,0-.11-1.25,2,2,0,0,0-.14-.48,1.46,1.46,0,0,0-.48-.14c-1.67-.29-3.41-.39-5.12-.56a47.48,47.48,0,0,1,5.19.14,1.39,1.39,0,0,1,.73.22,1.56,1.56,0,0,1,.3.72,10,10,0,0,1,.19,1.32,15.52,15.52,0,0,1,0,2.64,5.65,5.65,0,0,1-.11.68,1.21,1.21,0,0,1-.47.79.42.42,0,0,1-.25.08l-.2,0-.35,0h-3.24l-5.18-.07c-3.44-.13-6.89-.23-10.33-.48-.87-.08-1.72-.13-2.6-.26a1.29,1.29,0,0,1-.38-.08.65.65,0,0,1-.22-.08.51.51,0,0,1-.16-.23,2.42,2.42,0,0,1-.16-.7,9.77,9.77,0,0,1-.05-1.32,16.23,16.23,0,0,1,.25-2.6,3.83,3.83,0,0,1,.18-.64.6.6,0,0,1,.08-.16.25.25,0,0,1,.21-.1l.32,0Z"></path><path d="M360.34,271.28l-1.29.07h-.32c-.07,0-.09.06-.13.16a3.22,3.22,0,0,0-.11.62,16.68,16.68,0,0,0-.06,2.55c0,.43.05.85.11,1.26a2.42,2.42,0,0,0,.15.55s0,.05,0,0h.09l.25,0c.84.08,1.71.1,2.56.13,3.44.11,6.88.22,10.32.28l5.17.15,2.57,0h1.06c.06,0,.1,0,0,0a1.11,1.11,0,0,0,.13-.31,5.11,5.11,0,0,0,.13-.59,15.1,15.1,0,0,0,.11-2.52,10.37,10.37,0,0,0-.12-1.25,2.17,2.17,0,0,0-.13-.48,1.46,1.46,0,0,0-.48-.14c-1.68-.29-3.41-.39-5.12-.56a49.91,49.91,0,0,1,5.18.13,1.37,1.37,0,0,1,.73.23,1.59,1.59,0,0,1,.31.72c.09.44.14.88.19,1.32a15.52,15.52,0,0,1,0,2.64,5.65,5.65,0,0,1-.11.68c-.1.23-.06.48-.47.79a.43.43,0,0,1-.26.08l-.19,0-.35,0h-3.25l-5.17-.07c-3.45-.13-6.89-.23-10.34-.49-.86-.07-1.71-.13-2.59-.25a1.41,1.41,0,0,1-.39-.08,1.11,1.11,0,0,1-.21-.08.74.74,0,0,1-.17-.23,2.45,2.45,0,0,1-.15-.7,11.77,11.77,0,0,1-.06-1.32,17.48,17.48,0,0,1,.26-2.6,3.79,3.79,0,0,1,.17-.64.83.83,0,0,1,.09-.16.24.24,0,0,1,.21-.1l.32,0Z"></path></g><circle cx="198.44" cy="357.91" r="49.21" transform="translate(-194.96 245.14) rotate(-45)" style="fill:#263238"></circle><circle cx="198.44" cy="357.91" r="35.93" transform="translate(-194.96 245.14) rotate(-45)" style="fill:#dbdbdb"></circle><circle cx="198.44" cy="357.91" r="33.13" style="fill:#a6a6a6"></circle><path d="M203.64,349.6H193.23c3.51-5.08-8.72-22.78-8.72-22.78L190,325c3.64,6.25,5.46,8.08,8.46,8.08s4.81-1.83,8.46-8.08l5.47,1.83S200.13,344.52,203.64,349.6Z" style="fill:#dbdbdb"></path><path d="M192.36,350.23l-3.21,9.9c-3.74-4.91-24.36,1.26-24.36,1.26l0-5.77c7.07-1.53,9.37-2.7,10.3-5.55s-.26-5.14-5.07-10.55l3.43-4.63S186.45,352,192.36,350.23Z" style="fill:#dbdbdb"></path><path d="M189.48,361.15l8.42,6.12c-5.83,2-6.33,23.55-6.33,23.55l-5.5-1.73c.72-7.2.33-9.75-2.1-11.51s-5-1.35-11.6,1.56L169,374.45S189.34,367.32,189.48,361.15Z" style="fill:#dbdbdb"></path><path d="M199,367.27l8.42-6.12c.14,6.17,20.45,13.3,20.45,13.3l-3.35,4.7c-6.62-2.92-9.17-3.33-11.59-1.57s-2.82,4.31-2.1,11.51l-5.5,1.73S204.8,369.31,199,367.27Z" style="fill:#dbdbdb"></path><path d="M207.73,360.13l-3.22-9.9c5.91,1.77,19-15.34,19-15.34l3.44,4.64c-4.82,5.39-6,7.69-5.08,10.54s3.24,4,10.31,5.56l-.06,5.76S211.47,355.22,207.73,360.13Z" style="fill:#dbdbdb"></path><circle cx="198.44" cy="357.67" r="9.62" style="fill:#dbdbdb"></circle><circle cx="542.78" cy="357.91" r="49.21" transform="matrix(0.94, -0.34, 0.34, 0.94, -88.66, 203.02)" style="fill:#263238"></circle><circle cx="542.78" cy="357.91" r="35.93" transform="translate(58.19 791.36) rotate(-75.21)" style="fill:#dbdbdb"></circle><circle cx="542.78" cy="357.91" r="33.13" style="fill:#a6a6a6"></circle><path d="M548,349.6H537.57c3.52-5.08-8.72-22.78-8.72-22.78l5.47-1.83c3.64,6.25,5.46,8.08,8.46,8.08s4.81-1.83,8.47-8.08l5.46,1.83S544.47,344.52,548,349.6Z" style="fill:#dbdbdb"></path><path d="M536.7,350.23l-3.21,9.9c-3.74-4.91-24.36,1.26-24.36,1.26l-.05-5.77c7.07-1.53,9.37-2.7,10.3-5.55s-.26-5.14-5.07-10.55l3.43-4.63S530.79,352,536.7,350.23Z" style="fill:#dbdbdb"></path><path d="M533.82,361.15l8.42,6.12c-5.82,2-6.33,23.55-6.33,23.55l-5.5-1.73c.73-7.2.33-9.75-2.09-11.51s-5-1.35-11.6,1.56l-3.35-4.69S533.68,367.32,533.82,361.15Z" style="fill:#dbdbdb"></path><path d="M543.32,367.27l8.42-6.12c.14,6.17,20.44,13.3,20.44,13.3l-3.35,4.7c-6.62-2.92-9.17-3.33-11.59-1.57s-2.82,4.31-2.1,11.51l-5.5,1.73S549.14,369.31,543.32,367.27Z" style="fill:#dbdbdb"></path><path d="M552.07,360.13l-3.22-9.9c5.91,1.77,19-15.34,19-15.34l3.43,4.64c-4.82,5.39-6,7.69-5.07,10.54s3.23,4,10.3,5.56l-.06,5.76S555.81,355.22,552.07,360.13Z" style="fill:#dbdbdb"></path><circle cx="542.78" cy="357.67" r="9.62" style="fill:#dbdbdb"></circle><path d="M448.05,244.91c-1.79,1.8-1.63,17.84-.33,19.14s19.14,2.48,20.57-7.48S450.85,242.11,448.05,244.91Z" style="fill:#FFC107"></path><path d="M513.14,254.5H498.63c-37.76-24.91-89.58-49.56-89.58-49.56l8.6-2.07c31.37,15.18,91.86,49.91,93.45,51A9,9,0,0,0,513.14,254.5Z" style="fill:#455a64"></path><g style="opacity:0.5"><path d="M140,325.76a63.45,63.45,0,0,1,11-13.54,69.55,69.55,0,0,1,14.18-10.32A68.73,68.73,0,0,1,199,293.57l4.4.2,2.2.11c.73.08,1.46.2,2.19.3l4.36.62c1.44.3,2.86.68,4.29,1a54.2,54.2,0,0,1,16.14,6.92,56.38,56.38,0,0,1,13.06,11.68,78.41,78.41,0,0,1,9.23,14.86,81.82,81.82,0,0,0-9.67-14.49,55.87,55.87,0,0,0-13.1-11.29c-9.86-6.15-21.57-8.65-33.1-8.76a70.64,70.64,0,0,0-17.21,1.85,68.6,68.6,0,0,0-16.2,6.1,69.36,69.36,0,0,0-14.22,9.95A66.22,66.22,0,0,0,140,325.76Z" style="fill:#fff"></path><path d="M484.78,325.76a63.45,63.45,0,0,1,11-13.54A69.55,69.55,0,0,1,510,301.9a68.73,68.73,0,0,1,33.84-8.33l4.4.2,2.2.11c.73.08,1.46.2,2.18.3l4.37.62c1.43.3,2.86.68,4.29,1a54.2,54.2,0,0,1,16.14,6.92,56.38,56.38,0,0,1,13.06,11.68,78.41,78.41,0,0,1,9.23,14.86c-2.86-5.08-5.81-10.13-9.67-14.49a56.28,56.28,0,0,0-13.1-11.29c-9.86-6.15-21.57-8.65-33.11-8.76a70.62,70.62,0,0,0-17.2,1.85,69.25,69.25,0,0,0-30.42,16.05A65.9,65.9,0,0,0,484.78,325.76Z" style="fill:#fff"></path><path d="M147.1,244.09c7.67-6,15.45-11.87,23.28-17.66s15.75-11.48,23.9-16.87c1-.65,2.06-1.31,3.13-1.92.53-.32,1.07-.62,1.64-.9a10,10,0,0,1,1.79-.67c2.36-.69,4.72-1.29,7.08-1.88,4.74-1.17,9.48-2.29,14.27-3.22a84.24,84.24,0,0,1,14.58-1.5c4.88-.1,9.75-.09,14.62.14-4.87,0-9.74.14-14.59.44a83.74,83.74,0,0,0-14.42,1.8c-4.74,1.07-9.49,2.16-14.19,3.37-2.36.61-4.72,1.22-7,1.92a8.39,8.39,0,0,0-1.62.62c-.52.27-1.05.56-1.56.87-1,.61-2.06,1.26-3.08,1.92-8.15,5.28-16,11-24,16.61Z" style="fill:#fff"></path></g><path d="M528.85,308.54c-37.7,8.62-38.25,51.32-38.25,59.15,0,0-236.9-5.4-237.87-5.6-.79-.17-.55-37.55-28.51-51.8,12.56,6.21,28.65,21.25,34.74,43.21.66,2.34,35.16,6,94.13,7.89s110.23.7,120-.67S494.19,308.39,528.85,308.54Z" style="opacity:0.1"></path><path d="M648.46,334.49c-.52,1.5-11.6,15-11.65,15.36s-.39,4.1-.59,4.5-11.14,10-12.7,10.34-7.94.52-8.84.78-12,7.55-12.9,7.94-6.25,0-7.81,0c-.47,0,1-9.41.72-18-.43-14.92-9.54-33.7-27.44-42.87,9.71,2.07,25.91,15.33,32.45,29s4.86,14.68,6.39,16.33,6.6-1.68,8.94-2.27,10-.78,12.9-1.36,3.4-5.86,5.41-7S645.56,337.94,648.46,334.49Z" style="opacity:0.1"></path></g><g id="freepik--Locator--inject-71"><path d="M400,106.11c-1.24-12.48-9.84-24.9-25-24.9s-23.7,12.42-24.94,24.9c-1.91,19.26,11.09,36.71,24.94,52.63C388.86,142.82,401.86,125.37,400,106.11ZM375,120a13.67,13.67,0,1,1,13.68-13.66A13.65,13.65,0,0,1,375,120Z" style="fill:#FFC107"></path></g><g id="freepik--Character--inject-71"><path d="M434.59,439.57c2,.63,57.57-.09,59.67-1.47.81-.51,1.17-8.62,1.34-18.43v-.31c0-2,.06-4.1.07-6.21,0-.29,0-.58,0-.87L493,383.43l-37.21.37,3.67,28.58.05,1.13.22,5.92,0,.61s-21.16,9.79-23.31,11.55S432.64,439,434.59,439.57Z" style="fill: rgb(235, 148, 129);"></path><path d="M434.59,439.57c2,.63,57.57-.09,59.67-1.47.81-.51,1.17-8.62,1.34-18.43v-.31c0-2,.06-4.1.07-6.21,0-.29,0-.58,0-.87l-36.24.1.05,1.13.22,5.92,0,.61s-21.16,9.79-23.31,11.55S432.64,439,434.59,439.57Z" style="fill:#ebebeb"></path><path d="M434.59,439.56c1,.33,16.11.29,30.88,0,3-.06,5.92-.12,8.74-.2,10.53-.29,19.24-.72,20-1.25s1.17-8.39,1.33-18c0-.14,0-.27,0-.41s0-.21,0-.31h0l-35.85.06,0,.62s-21.17,9.79-23.31,11.54S432.64,438.94,434.59,439.56Z" style="fill:#FFC107"></path><path d="M435.19,437.4c9.38-.35,47.21-.88,56.5-.52.08,0,.08.05,0,.06-9.28.55-47.12.78-56.49.62C435,437.55,435,437.41,435.19,437.4Z" style="fill:#263238"></path><path d="M455.72,419.58c3.68-.73,8.2-.23,11,2.37.11.1,0,.25-.15.22a51.71,51.71,0,0,0-10.88-2.12A.24.24,0,0,1,455.72,419.58Z" style="fill:#263238"></path><path d="M453.08,421.22c3.68-.73,8.2-.23,11.05,2.36.11.11,0,.26-.15.22a51.69,51.69,0,0,0-10.88-2.11A.24.24,0,0,1,453.08,421.22Z" style="fill:#263238"></path><path d="M450.43,422.86c3.68-.74,8.2-.23,11.06,2.36.11.1,0,.26-.16.22a51.48,51.48,0,0,0-10.87-2.11A.24.24,0,0,1,450.43,422.86Z" style="fill:#263238"></path><path d="M465.47,439.55c3-.06,5.92-.12,8.74-.2,10.53-.29,19.24-.72,20-1.25s1.17-8.39,1.33-18c0-.14,0-.27,0-.41s0-.21,0-.31h0C490.65,422.8,473.34,434.32,465.47,439.55Z" style="fill:#263238"></path><path d="M457.27,419.55h40.06s-8.07-93.55-7.75-95.19c.4-2.09,2.76-11.56,5.91-23.93l3.15-12.33c3-11.63,6.28-24.35,9.15-35.42,4.31-16.59,7.67-29.47,7.67-29.47h-34s-4,12.54-8.94,28.86c-8.13,26.52-19,63-20.06,71.9C450.78,338.29,457.27,419.55,457.27,419.55Z" style="fill:#455a64"></path><path d="M459,412.72c6.12-.13,4.36-.18,10.48-.24,3,0,22.67-.2,25.47.26.06,0,.06.12,0,.13-2.8.46-22.47.29-25.47.26-6.12-.06-4.36-.11-10.48-.23C458.93,412.89,458.93,412.72,459,412.72Z" style="fill:#263238"></path><path d="M482,318.65c1.31-5.79,3.27-11.47,5-17.15q5.21-17.33,10.48-34.63,2.63-8.65,5.28-17.3c.9-2.91,1.79-5.82,2.71-8.72s1.9-5.66,2.71-8.53c.32-1.17.5-.53.08,1-.84,3-1.68,6-2.55,9q-2.58,8.85-5.21,17.7-5.2,17.6-10.5,35.18l-5.31,17.62a74,74,0,0,0-2.16,8.53,38.67,38.67,0,0,0-.35,9.12c.38,6.13,1.09,12.25,1.66,18.37s1.13,12.25,1.7,18.38q1.68,18.28,3.35,36.58c.14,1.54.28,3.09.4,4.64,0,.51-.75.47-.8,0-1.32-12.06-2.33-24.16-3.47-36.23s-2.25-24-3.37-36.05c-.28-3-.6-6-.61-9.07A37.63,37.63,0,0,1,482,318.65Z" style="fill:#263238"></path><path d="M485.36,223.21c2.36,18.24,6.85,52.42,10.13,77.22,7.66-30.05,20-77.22,20-77.22Z" style="fill:#263238"></path><path d="M477,440.1c1.94.64,57.56.12,59.67-1.25.81-.5,1.2-8.61,1.4-18.42v-.31c0-2,.08-4.1.09-6.21,0-.29,0-.58,0-.87.13-14.16-.89-28.86-.89-28.86l-36.36.24L502,413l0,1.13.21,5.92,0,.6s-21.2,9.73-23.36,11.47S475.08,439.47,477,440.1Z" style="fill: rgb(235, 148, 129);"></path><path d="M477,440.1c1.94.64,57.56.12,59.67-1.25.81-.5,1.2-8.61,1.4-18.42v-.31c0-2,.08-4.1.09-6.21,0-.29,0-.58,0-.87L502,413l0,1.13.21,5.92,0,.6s-21.2,9.73-23.36,11.47S475.08,439.47,477,440.1Z" style="fill:#ebebeb"></path><path d="M477,440.1c1.94.64,57.56.12,59.67-1.25.81-.5,1.2-8.61,1.4-18.42v-.31l-35.88-.06,0,.6s-21.2,9.73-23.36,11.47S475.08,439.47,477,440.1Z" style="fill:#FFC107"></path><path d="M477.64,437.94c9.37-.32,47.21-.71,56.5-.32.07,0,.07.06,0,.06-9.29.52-47.13.61-56.5.41C477.44,438.09,477.44,438,477.64,437.94Z" style="fill:#263238"></path><path d="M498.22,420.2c3.69-.73,8.2-.2,11,2.4.11.1,0,.25-.16.22a51.44,51.44,0,0,0-10.87-2.16A.23.23,0,0,1,498.22,420.2Z" style="fill:#263238"></path><path d="M495.58,421.83c3.68-.73,8.2-.2,11,2.4.11.1,0,.25-.15.22a51.57,51.57,0,0,0-10.87-2.16A.23.23,0,0,1,495.58,421.83Z" style="fill:#263238"></path><path d="M492.93,423.45c3.68-.72,8.2-.19,11,2.41.11.1,0,.25-.15.22A51.57,51.57,0,0,0,493,423.92.24.24,0,0,1,492.93,423.45Z" style="fill:#263238"></path><path d="M482.61,223.21s.78,16.25,4.5,29.11c.3,1.06.62,2.11,1,3.11a60.91,60.91,0,0,1,9.78,5s.39,13.07.78,27.64c.44,16.3.89,34.47.8,38.32-.34,14.42,1.8,93.72,1.8,93.72l40,.16s-7.24-88.55-7.19-93.83c.07-8.49-1.94-46-3.5-73.39-1-16.87-1.73-29.87-1.73-29.87Z" style="fill:#455a64"></path><path d="M502.61,413c6.12-.11,4.36-.16,10.48-.2,3,0,22.67-.1,25.47.38a.06.06,0,0,1,0,.12c-2.8.45-22.48.2-25.47.15-6.12-.08-4.36-.12-10.48-.28A.09.09,0,0,1,502.61,413Z" style="fill:#263238"></path><path d="M525.5,229c.74,22.34,1.52,44.68,2.52,67s2.35,44.81,4.23,67.16c1,12.49,2,30.06,3.38,42.52,0,.08-.12.11-.13,0-2.92-22.16-4.54-49.57-6-71.87s-2.4-44.64-3.16-67c-.43-12.64-.76-25.27-1.14-37.91C525.22,228.82,525.49,228.84,525.5,229Z" style="fill:#263238"></path><path d="M486.41,254.47a73.78,73.78,0,0,1,11.45,6,.13.13,0,0,1-.12.24c-3.86-1.88-7.81-3.69-11.56-5.77A.26.26,0,0,1,486.41,254.47Z" style="fill:#263238"></path><path d="M484,236.5c.32,1.72.73,3.42,1.1,5.12s.61,3.24,1,4.82a8.23,8.23,0,0,0,2.24,4c.63.58,1.32,1.1,2,1.63l1.13.86c-.05-.23-.09-.46-.13-.69l-.33-1.95c-.25-1.45-.48-2.9-.7-4.35-.43-2.85-.83-5.73-1.43-8.55a.09.09,0,0,1,.18,0c.71,2.79,1.49,5.56,2.11,8.38.3,1.38,1.38,8.2,1.43,8.69s.09,1,.11,1.5a5.6,5.6,0,0,1,0,1.53c0,.12-.18.1-.23,0h0a6.37,6.37,0,0,1-.43-1.49,14.81,14.81,0,0,1-.32-1.47l-.09-.55c-.67-.41-1.29-.95-1.92-1.4s-1.37-1-2-1.51a7.68,7.68,0,0,1-2.45-3.83,27,27,0,0,1-.8-4.91c-.22-1.93-.38-3.88-.65-5.82C483.82,236.43,484,236.38,484,236.5Z" style="fill:#263238"></path><path d="M456.5,147l4.82,26.13c.23.78-.19,1.37-.93,1.32l-13.27-.85a2.18,2.18,0,0,1-1.76-1.49l-4.82-26.14c-.23-.77.19-1.36.93-1.31l13.27.85A2.16,2.16,0,0,1,456.5,147Z" style="fill:#37474f"></path><path d="M454.92,146.83,459.75,173c.23.77-.19,1.36-.93,1.31l-13.28-.85a2.15,2.15,0,0,1-1.75-1.49L439,145.81c-.23-.78.19-1.36.93-1.32l13.28.86A2.14,2.14,0,0,1,454.92,146.83Z" style="fill:#455a64"></path><path d="M451.21,147.77a1.13,1.13,0,1,0,1.17-1.08A1.12,1.12,0,0,0,451.21,147.77Z" style="fill:#263238"></path><path d="M496.78,188.64c-8.4,15.59-26.43,35.44-33.41,35.14-3.32-.14-9.3.33-13.45-3.73-9.05-8.85-16.12-25.22-17.23-34.43-.4-3.27,15.77-9.43,17.95-6.66,5.11,6.49,10.79,19,11.76,19,3.58-.08,18.2-10.94,28.41-18.59C503.2,170,500.13,182.43,496.78,188.64Z" style="fill: rgb(235, 148, 129);"></path><path d="M433.22,168.84c2-6.49,3.56-7.85,2.36-14.24-.78-4.19,1.56-6.49,4.31-3,4.5,5.7,3.63,14.63,2.44,17.63Z" style="fill: rgb(235, 148, 129);"></path><path d="M433.3,188.49s-2.43-9.34-.95-16.47c1-4.93,4.46-15.42,18.69-20.26,3.38-1.15,9-.39,4.17,3.49-3.43,2.75-6.44,3.46-8.15,5.43,0,0,7.05,1.81,8.07,5.24a66,66,0,0,1,2,9.15,14.22,14.22,0,0,1-1.68.53s.86,3.24-1.75,7.62Z" style="fill: rgb(235, 148, 129);"></path><path d="M434.08,167.47c2.11-1.6,6.63-4.9,11.26-6.32,5.15-1.57,15.5-3.22,16.62.6.82,2.79-3.07,3.77-3.07,3.77s4.42.22,4.61,2.91c.17,2.45-2.89,3-2.89,3s2.66.6,2.37,3c-.34,2.88-5.85,1.16-8.72,3.77C453.62,178.8,434.08,167.47,434.08,167.47Z" style="fill: rgb(235, 148, 129);"></path><path d="M446.1,166.87a21.52,21.52,0,0,1,12.71-1.43c.11,0,.14.12,0,.12a53,53,0,0,0-12.74,1.36S446.07,166.88,446.1,166.87Z" style="fill:#263238"></path><path d="M447.84,172a24.18,24.18,0,0,1,12.77-.67c.11,0,.14.13,0,.12a56.8,56.8,0,0,0-12.8.6S447.81,172,447.84,172Z" style="fill:#263238"></path><path d="M432.17,192.29s11.54,26.24,18.89,29.61,11.88,3,14.7,2.69a7.7,7.7,0,0,0,3-1.26c7.87-5,22.48-23.38,28.58-33.84,4.57-7.85,4.51-15.2-1.88-13.18a20.94,20.94,0,0,0-6,3.37c-12,9-25.91,17.48-26.53,17.11s-6.66-11.21-6.66-11.21Z" style="fill:#FFC107"></path><path d="M461.94,202.29a7,7,0,0,1-.5,3.47,6.54,6.54,0,0,1,0-1.77A6.09,6.09,0,0,1,461.94,202.29Z" style="fill:#fff"></path><path d="M446.88,208.78a6.55,6.55,0,0,1,0,1.77,6.18,6.18,0,0,1-.48,1.7,6.55,6.55,0,0,1,0-1.77A6.45,6.45,0,0,1,446.88,208.78Z" style="fill:#fff"></path><path d="M473.43,215.11a6.55,6.55,0,0,1,0,1.77,6.09,6.09,0,0,1-.48,1.7,6.72,6.72,0,0,1,.5-3.47Z" style="fill:#fff"></path><path d="M480.72,189.33a6.55,6.55,0,0,1,0,1.77,6.09,6.09,0,0,1-.48,1.7,6.55,6.55,0,0,1,0-1.77A6.18,6.18,0,0,1,480.72,189.33Z" style="fill:#fff"></path><path d="M483.07,199.9a7,7,0,0,1-3.47-.5,6.55,6.55,0,0,1,1.77,0A6.18,6.18,0,0,1,483.07,199.9Z" style="fill:#fff"></path><path d="M452.34,203a6.54,6.54,0,0,1-1.77,0,6.23,6.23,0,0,1-1.71-.47,5.82,5.82,0,0,1,1.77,0A6.23,6.23,0,0,1,452.34,203Z" style="fill:#fff"></path><path d="M468,212.16a5.82,5.82,0,0,1-1.77,0,6.07,6.07,0,0,1-1.7-.47,6.86,6.86,0,0,1,3.47.49Z" style="fill:#fff"></path><path d="M438.26,193.9a6.16,6.16,0,0,1-1.77,0,6.23,6.23,0,0,1-1.71-.47,6.54,6.54,0,0,1,1.77,0A6.25,6.25,0,0,1,438.26,193.9Z" style="fill:#fff"></path><path d="M453.47,220.76a6.91,6.91,0,0,1-3.48-.49,5.82,5.82,0,0,1,1.77,0A6.23,6.23,0,0,1,453.47,220.76Z" style="fill:#fff"></path><path d="M498.64,177.17a5.87,5.87,0,0,0,1.52.44,2.78,2.78,0,0,0-.28-.47A4.69,4.69,0,0,0,498.64,177.17Z" style="fill:#fff"></path><path d="M469.43,195.84a6.42,6.42,0,0,1,1.23,1.27,6,6,0,0,1,.87,1.54,5.92,5.92,0,0,1-1.23-1.27A5.68,5.68,0,0,1,469.43,195.84Z" style="fill:#fff"></path><path d="M455,210.51a6.48,6.48,0,0,1,1.24,1.27,6.26,6.26,0,0,1,.87,1.54,6,6,0,0,1-1.24-1.27A6.26,6.26,0,0,1,455,210.51Z" style="fill:#fff"></path><path d="M446.77,191.07a6.43,6.43,0,0,1,1.24,1.26,6.26,6.26,0,0,1,.87,1.54,6,6,0,0,1-1.24-1.27A6.39,6.39,0,0,1,446.77,191.07Z" style="fill:#fff"></path><path d="M478.55,208.68a6.42,6.42,0,0,1,1.23,1.27,6,6,0,0,1,.87,1.54,6.95,6.95,0,0,1-2.1-2.81Z" style="fill:#fff"></path><path d="M489.42,184a6.16,6.16,0,0,1,1.24,1.26,6.26,6.26,0,0,1,.87,1.54,6.43,6.43,0,0,1-1.24-1.26A6.65,6.65,0,0,1,489.42,184Z" style="fill:#fff"></path><path d="M490.13,196.07a6.74,6.74,0,0,1,2.8-2.11,6.16,6.16,0,0,1-1.26,1.24A6.65,6.65,0,0,1,490.13,196.07Z" style="fill:#fff"></path><path d="M439.07,201.85a6,6,0,0,1,1.27-1.24,6.26,6.26,0,0,1,1.54-.87,6.85,6.85,0,0,1-2.81,2.11Z" style="fill:#fff"></path><path d="M454.78,197.12a6.11,6.11,0,0,1,1.26-1.23,6,6,0,0,1,1.54-.87,6.38,6.38,0,0,1-1.26,1.23A6.13,6.13,0,0,1,454.78,197.12Z" style="fill:#fff"></path><path d="M472.08,206.81a6.11,6.11,0,0,1,1.26-1.23,6,6,0,0,1,1.54-.87,6.38,6.38,0,0,1-1.26,1.23A6.45,6.45,0,0,1,472.08,206.81Z" style="fill:#fff"></path><path d="M461.67,221.26a6.42,6.42,0,0,1,1.27-1.23,5.68,5.68,0,0,1,1.54-.87,6.16,6.16,0,0,1-1.27,1.23A6,6,0,0,1,461.67,221.26Z" style="fill:#fff"></path><path d="M468.8,223.33c7.87-5,22.48-23.38,28.58-33.84,4.57-7.85,4.51-15.2-1.88-13.18C492,182.48,476.46,209.5,468.8,223.33Z" style="opacity:0.1"></path><path d="M435.11,197.12c.88-.43,9.17-3.14,11-3.69s9.19-2.87,11.11-3.28a.07.07,0,0,1,0,.13c-1.8.76-9.24,3.12-11.08,3.72s-10.08,3.1-11,3.25C435.06,197.26,435.05,197.15,435.11,197.12Z" style="fill:#263238"></path><path d="M475,243.08c.8,1,57.22,4.52,57.53,4.18.85-.9-12.32-62.89-24.38-73.85-2.59-2.35-10.49-.51-12.67,1.22-1.37,1.09-4.92,8.54-7.41,14.75C483.11,201.82,474.29,242.2,475,243.08Z" style="fill:#263238"></path><path d="M496.93,172.24c-2.42,1.4-5.11,9.73-.16,11.47s10.6-5.74,11.59-8.26S502.14,169.23,496.93,172.24Z" style="fill:#FFC107"></path><path d="M497.27,182.59c3.11.77,8.5-3.94,10.66-7.77.14-.27-.23-3.06-.53-6.47-.17-2.07-.32-4.38-.3-6.5l-13.31,3.09a33.45,33.45,0,0,1,1.19,8.15,4,4,0,0,1-.1.86,1,1,0,0,1,0,.15C494.58,175.75,494.27,181.84,497.27,182.59Z" style="fill: rgb(235, 148, 129);"></path><path d="M506.47,162c-.44,2.65-2.55,12.1-10.24,12.2a9.65,9.65,0,0,1-1.37-.09.57.57,0,0,1,0-.15,4.71,4.71,0,0,0,.1-.86,34.09,34.09,0,0,0-1.21-8.15Z" style="fill:#263238"></path><path d="M507.77,145.32c1.75,4.6.17,18.35-3,21.6-4.55,4.71-12.46,5.66-16.58.08-4-5.4-1.62-23.28,1.93-26.28C495.38,136.3,505.19,138.51,507.77,145.32Z" style="fill: rgb(235, 148, 129);"></path><path d="M495.34,154.49s.07,0,.06.09c-.13.92-.13,2,.68,2.4,0,0,0,.06,0,.05C495.06,156.78,495.07,155.35,495.34,154.49Z" style="fill:#263238"></path><path d="M496.27,153.61c1.5.06,1.29,3.06-.1,3S495,153.57,496.27,153.61Z" style="fill:#263238"></path><path d="M490.13,154.15s-.07,0-.08.08c0,.93-.23,2-1.09,2.24,0,0,0,.06,0,.06C490,156.45,490.25,155,490.13,154.15Z" style="fill:#263238"></path><path d="M489.37,153.12c-1.49-.21-1.81,2.78-.44,3S490.62,153.31,489.37,153.12Z" style="fill:#263238"></path><path d="M497.55,152.33c-.4-.14-.75-.32-1.13-.49a2,2,0,0,1-1.06-.73.64.64,0,0,1,.15-.76,1.6,1.6,0,0,1,1.6,0,2.31,2.31,0,0,1,1.26,1.1A.68.68,0,0,1,497.55,152.33Z" style="fill:#263238"></path><path d="M488.29,152.2a12.26,12.26,0,0,0,1.21-.22,2.05,2.05,0,0,0,1.2-.47.64.64,0,0,0,0-.78,1.57,1.57,0,0,0-1.54-.4,2.32,2.32,0,0,0-1.48.78A.68.68,0,0,0,488.29,152.2Z" style="fill:#263238"></path><path d="M496.28,163.24c-.24.2-.48.48-.82.49a2.66,2.66,0,0,1-1-.3,0,0,0,0,0,0,0,1.26,1.26,0,0,0,1.14.59,1,1,0,0,0,.79-.77C496.39,163.23,496.32,163.21,496.28,163.24Z" style="fill:#263238"></path><path d="M495.5,160.39a3.2,3.2,0,0,1-2.21,1.26,4.36,4.36,0,0,1-1.14,0l-.22,0-.2-.05a.22.22,0,0,1-.17-.22h0a.28.28,0,0,1,0-.09h0v-.08c0-.72.18-1.8.18-1.8-.27.11-1.65.62-1.6.25a47.74,47.74,0,0,1,1.9-9.5.09.09,0,0,1,.17,0c-.27,3-1.06,5.89-1.38,8.88a5.09,5.09,0,0,1,1.53-.35c.1,0-.32,2.09-.31,2.41v0a4.41,4.41,0,0,0,3.35-.78C495.49,160.25,495.56,160.32,495.5,160.39Z" style="fill:#263238"></path><path d="M492.69,161.46a3.68,3.68,0,0,0,1.51,1.13,1.68,1.68,0,0,0,1,0c.73-.2.74-.88.6-1.46a4.12,4.12,0,0,0-.35-.88A4.84,4.84,0,0,1,492.69,161.46Z" style="fill:#263238"></path><path d="M494.2,162.59a1.68,1.68,0,0,0,1,0c.73-.2.74-.88.6-1.46A1.74,1.74,0,0,0,494.2,162.59Z" style="fill:#f392b9"></path><path d="M504.71,156.19s2.86-4.54,4.91-3.54,0,7.49-2.27,8.47A2.38,2.38,0,0,1,504.1,160Z" style="fill: rgb(235, 148, 129);"></path><path d="M509,154.5s0,0,0,.06a6,6,0,0,0-2.93,3.91A1.31,1.31,0,0,1,508,158s0,.1,0,.09a1.47,1.47,0,0,0-1.59.58,6.88,6.88,0,0,0-.71,1.34c-.07.16-.34.09-.29-.08v0C505.27,157.82,506.76,154.81,509,154.5Z" style="fill:#263238"></path><path d="M488.52,146.72c4.49,2.85,10.32-1.91,10.32-1.91a4.78,4.78,0,0,0,5,2.85s1.12,7.39,3.08,7.31c3-.12,3.54-10.28,2.53-12.23a5.32,5.32,0,0,0-3.56-2.38,4.9,4.9,0,0,0-2.13-2.88c-2.09-1.48-9,.86-9,.86a6.51,6.51,0,0,0-1.89-2.36,1.84,1.84,0,0,0-2.64.33,4.4,4.4,0,0,1,.78,1.81c.43,2.16-1.35,2.22-1.4.25a3.11,3.11,0,0,1,.62-2.06c-.92-1.25-2.37-1.62-3.21-.9C485.4,136.72,484.78,144.35,488.52,146.72Z" style="fill:#263238"></path><path d="M513.32,178.42c16.9,17.59,41.54,62.13,44.58,68.52,2.07,4.34-20.6,15.77-21.56,12.61-1.23-4-21-53.89-26.22-72.7C507.22,176.48,509.83,174.78,513.32,178.42Z" style="fill: rgb(235, 148, 129);"></path><path d="M535.27,256.57c.79,2.16,3.48,11.34,5.37,12.48s11.76.9,16.74.9,6-1.39,5.88-3.11-10.53-2-10.53-2,13.95,4,17.46,4.66,11.6,2.69,12.77-.22c.52-1.31-1.69-2.64-1.69-2.64s3.39,1,3.93-.7c.62-1.92-2.08-3-2.08-3s2.12.42,2.17-1.14c.11-3.5-13.16-5.22-13.16-5.22s10.16,4.95,10.48,2.1c.46-4-20.37-8.28-22.54-10a14.67,14.67,0,0,1-3.47-4.28Z" style="fill: rgb(235, 148, 129);"></path><path d="M563.18,267.71a1.52,1.52,0,0,0-.47-1.33,4.42,4.42,0,0,0-1.22-.79,16.65,16.65,0,0,0-2.85-.92c-2-.5-4-.85-6-1.37a24.54,24.54,0,0,1,6.15.69,11.29,11.29,0,0,1,2.94,1.12,3.87,3.87,0,0,1,1.22,1.06A1.57,1.57,0,0,1,563.18,267.71Z" style="fill:#263238"></path><path d="M581.27,266.6c-1.44-.35-2.85-.76-4.26-1.16s-2.82-.85-4.23-1.27l-4.2-1.32c-1.4-.44-2.8-.87-4.22-1.29a30.63,30.63,0,0,1,4.36.78c1.44.32,2.86.74,4.27,1.16s2.81.9,4.18,1.43S579.93,266,581.27,266.6Z" style="fill:#263238"></path><path d="M567.73,258.07a27.33,27.33,0,0,1,4,.56,38.57,38.57,0,0,1,3.94,1,35,35,0,0,1,3.81,1.43,28,28,0,0,1,3.61,1.86c-1.28-.45-2.53-.94-3.81-1.36s-2.54-.87-3.82-1.26-2.57-.78-3.86-1.16S569,258.43,567.73,258.07Z" style="fill:#263238"></path><path d="M569.78,254.74A26.95,26.95,0,0,1,582.09,259c-2.07-.74-4.07-1.51-6.12-2.2S571.87,255.41,569.78,254.74Z" style="fill:#263238"></path><path d="M510.33,191.73c4,17.24,23.17,64.4,23.17,64.4l17.22-8.3,8.68-4.19s-29.57-46.2-41.65-61.31c-.94-1.16-1.79-2.16-2.57-3C507.69,171.33,507.23,178.43,510.33,191.73Z" style="fill:#FFC107"></path><path d="M532.07,251c10.13-5.89,21.67-10.53,23.62-11.48.09,0,.15.11.06.15-2,.84-14.58,7.57-23.62,11.49C532,251.2,532,251,532.07,251Z" style="fill:#263238"></path><path d="M528.43,201.86a6.54,6.54,0,0,1,0,1.77,6.07,6.07,0,0,1-.47,1.7,5.76,5.76,0,0,1,0-1.76A6.23,6.23,0,0,1,528.43,201.86Z" style="fill:#fff"></path><path d="M520.47,217a6.55,6.55,0,0,1,0,1.77,6.16,6.16,0,0,1-.47,1.7,5.83,5.83,0,0,1,0-1.77A6.07,6.07,0,0,1,520.47,217Z" style="fill:#fff"></path><path d="M540.53,240.91a6.48,6.48,0,0,1,0,1.76,6.25,6.25,0,0,1-.48,1.71,6.54,6.54,0,0,1,0-1.77A6.09,6.09,0,0,1,540.53,240.91Z" style="fill:#fff"></path><path d="M539.92,214.69a5.76,5.76,0,0,1,0,1.76,6.23,6.23,0,0,1-.47,1.71,6.16,6.16,0,0,1,0-1.77A6.07,6.07,0,0,1,539.92,214.69Z" style="fill:#fff"></path><path d="M546,225.74a6.54,6.54,0,0,1,0,1.77,6.23,6.23,0,0,1-.47,1.71,5.82,5.82,0,0,1,0-1.77A6.23,6.23,0,0,1,546,225.74Z" style="fill:#fff"></path><path d="M519,185.35a6.16,6.16,0,0,1-1.77,0,6.07,6.07,0,0,1-1.7-.47,6.48,6.48,0,0,1,1.76,0A6.25,6.25,0,0,1,519,185.35Z" style="fill:#fff"></path><path d="M518.83,202.53a7,7,0,0,1-3.47-.5,6.55,6.55,0,0,1,1.77,0A6.18,6.18,0,0,1,518.83,202.53Z" style="fill:#fff"></path><path d="M534.44,211.74a6.48,6.48,0,0,1-1.76,0,6.25,6.25,0,0,1-1.71-.48,6.16,6.16,0,0,1,1.77,0A6.07,6.07,0,0,1,534.44,211.74Z" style="fill:#fff"></path><path d="M550,246.53a6.48,6.48,0,0,1-1.76,0,6.6,6.6,0,0,1-1.71-.47,5.82,5.82,0,0,1,1.77,0A6.07,6.07,0,0,1,550,246.53Z" style="fill:#fff"></path><path d="M533.75,247.11a6.48,6.48,0,0,1-1.76,0,6.23,6.23,0,0,1-1.71-.47,5.82,5.82,0,0,1,1.77,0A6.07,6.07,0,0,1,533.75,247.11Z" style="fill:#fff"></path><path d="M529,229.91a6.55,6.55,0,0,1-1.77,0,6.18,6.18,0,0,1-1.7-.48,6.55,6.55,0,0,1,1.77,0A6.45,6.45,0,0,1,529,229.91Z" style="fill:#fff"></path><path d="M544.44,234.6a6.41,6.41,0,0,1,1.23,1.27,5.68,5.68,0,0,1,.87,1.54,6.16,6.16,0,0,1-1.23-1.27A6,6,0,0,1,544.44,234.6Z" style="fill:#fff"></path><path d="M521.48,210.09a6.38,6.38,0,0,1,1.23,1.26,6.31,6.31,0,0,1,.87,1.54,6.11,6.11,0,0,1-1.23-1.26A5.83,5.83,0,0,1,521.48,210.09Z" style="fill:#fff"></path><path d="M513.27,190.64a6.16,6.16,0,0,1,1.23,1.27,6,6,0,0,1,.87,1.54,6.16,6.16,0,0,1-1.23-1.27A5.68,5.68,0,0,1,513.27,190.64Z" style="fill:#fff"></path><path d="M537,222.94a6.16,6.16,0,0,1,1.24,1.26,6.65,6.65,0,0,1,.87,1.54,6.16,6.16,0,0,1-1.24-1.26A6.45,6.45,0,0,1,537,222.94Z" style="fill:#fff"></path><path d="M529.94,238.1a6.48,6.48,0,0,1,1.24,1.27,6.26,6.26,0,0,1,.87,1.54,6.85,6.85,0,0,1-2.11-2.81Z" style="fill:#fff"></path><path d="M551.26,239.75a6.85,6.85,0,0,1,2.81-2.11,6.85,6.85,0,0,1-2.81,2.11Z" style="fill:#fff"></path><path d="M537,252.21a6.16,6.16,0,0,1,1.27-1.23,5.68,5.68,0,0,1,1.54-.87,6.16,6.16,0,0,1-1.27,1.23A6,6,0,0,1,537,252.21Z" style="fill:#fff"></path><path d="M535.57,234.1a6.85,6.85,0,0,1,2.81-2.11,6.48,6.48,0,0,1-1.27,1.24A6.26,6.26,0,0,1,535.57,234.1Z" style="fill:#fff"></path><path d="M521.28,196.7a6.16,6.16,0,0,1,1.26-1.24,6.26,6.26,0,0,1,1.54-.87,6,6,0,0,1-1.27,1.24A6.39,6.39,0,0,1,521.28,196.7Z" style="fill:#fff"></path><path d="M509.4,182.35a6.16,6.16,0,0,1,1.26-1.24,6.45,6.45,0,0,1,1.54-.87,6.16,6.16,0,0,1-1.26,1.24A6.65,6.65,0,0,1,509.4,182.35Z" style="fill:#fff"></path><path d="M528.17,220.84a6.43,6.43,0,0,1,1.26-1.24,6.65,6.65,0,0,1,1.54-.87,6.16,6.16,0,0,1-1.26,1.24A6.65,6.65,0,0,1,528.17,220.84Z" style="fill:#fff"></path></g></svg>