<svg xmlns="http://www.w3.org/2000/svg" viewBox="0 0 500 500"><g id="freepik--background-complete--inject-86"><rect x="53.73" y="146.43" width="26.48" height="11.19" style="fill:#ebebeb"></rect><rect x="38.96" y="160.54" width="26.48" height="11.19" style="fill:#ebebeb"></rect><rect x="68.5" y="160.54" width="26.48" height="11.19" style="fill:#ebebeb"></rect><rect x="419.79" y="160.54" width="26.48" height="11.19" style="fill:#ebebeb"></rect><rect x="419.79" y="45.1" width="26.48" height="11.19" style="fill:#ebebeb"></rect><rect x="434.56" y="59.21" width="26.48" height="11.19" style="fill:#ebebeb"></rect><rect x="38.96" y="45.11" width="26.48" height="11.19" style="fill:#ebebeb"></rect><rect x="252.11" y="296.18" width="26.48" height="11.19" transform="translate(530.7 603.56) rotate(180)" style="fill:#ebebeb"></rect><rect x="266.88" y="282.07" width="26.48" height="11.19" transform="translate(560.25 575.34) rotate(180)" style="fill:#ebebeb"></rect><polygon points="89.98 262.29 62.24 262.29 46.37 183.14 71.77 171.47 89.98 262.29" style="fill:#dbdbdb"></polygon><polygon points="169.38 262.29 89.98 262.29 71.77 171.47 151.16 171.47 169.38 262.29" style="fill:#ebebeb"></polygon><rect x="33.23" y="219.83" width="42.51" height="87.23" style="fill:#dbdbdb"></rect><polygon points="189.79 307.06 178.17 307.06 160.86 219.83 189.79 219.83 189.79 307.06" style="fill:#dbdbdb"></polygon><rect x="75.74" y="219.83" width="23.36" height="87.23" style="fill:#ebebeb"></rect><rect x="189.79" y="219.83" width="23.36" height="87.23" style="fill:#ebebeb"></rect><rect x="99.1" y="262.29" width="90.68" height="44.76" style="fill:#ebebeb"></rect><rect x="99.1" y="242.94" width="90.68" height="19.53" style="fill:#ebebeb"></rect><path d="M81.47,219.83l8.81-.16,8.82-.11h.27v.28l.1,10.2,0,10.21c0,6.81,0,13.61,0,20.42s0,13.61-.11,20.42-.15,13.61-.3,20.41q-.21-10.2-.29-20.41c-.09-6.81-.1-13.61-.12-20.42s0-13.61,0-20.42l0-10.21.09-10.2.27.26L90.28,220Z" style="fill:#dbdbdb"></path><path d="M189.79,219.83c.18,6.83.26,13.66.33,20.49l.11,20.49-.11,20.49L190,291.55l-.21,10.25-.22-10.25-.12-10.25-.1-20.49.1-20.49C189.52,233.49,189.6,226.66,189.79,219.83Z" style="fill:#dbdbdb"></path><path d="M189.79,262.29c-7.56.18-15.12.27-22.68.34l-22.67.1-22.67-.1-11.33-.12-11.34-.22,11.34-.21,11.33-.13,22.67-.1,22.67.11C174.67,262,182.23,262.11,189.79,262.29Z" style="fill:#dbdbdb"></path><path d="M189.79,242.94c-7.56.18-15.12.27-22.68.34l-22.67.1-22.67-.1-11.33-.12-11.34-.22,11.34-.21,11.33-.13,22.67-.1,22.67.1C174.67,242.67,182.23,242.76,189.79,242.94Z" style="fill:#dbdbdb"></path><polygon points="49.38 307.06 48.81 314.12 47.47 330.45 41.31 330.45 39.97 314.12 39.39 307.06 49.38 307.06" style="fill:#c7c7c7"></polygon><polygon points="39.39 307.06 49.38 307.06 48.81 314.12 39.97 314.12 39.39 307.06" style="fill:#a6a6a6"></polygon><polygon points="92.42 307.06 91.84 314.12 90.5 330.45 84.34 330.45 83 314.12 82.43 307.06 92.42 307.06" style="fill:#c7c7c7"></polygon><polygon points="82.43 307.06 92.42 307.06 91.84 314.12 83 314.12 82.43 307.06" style="fill:#a6a6a6"></polygon><polygon points="163.79 307.06 163.22 314.12 161.88 330.45 155.72 330.45 154.38 314.12 153.8 307.06 163.79 307.06" style="fill:#c7c7c7"></polygon><polygon points="153.8 307.06 163.79 307.06 163.22 314.12 154.38 314.12 153.8 307.06" style="fill:#a6a6a6"></polygon><polygon points="206.84 307.06 206.26 314.12 204.92 330.45 198.76 330.45 197.42 314.12 196.84 307.06 206.84 307.06" style="fill:#c7c7c7"></polygon><polygon points="206.84 307.06 206.26 314.12 197.42 314.12 196.84 307.06 206.84 307.06" style="fill:#a6a6a6"></polygon><path d="M181,50.83H288V205.71H181ZM284.9,54H184.14V202.59H284.9Z" style="fill:#ebebeb"></path><rect x="232.95" y="54.77" width="3.12" height="149.38" style="fill:#ebebeb"></rect><rect x="178.18" y="57.14" width="112.68" height="4.35" transform="translate(469.03 118.64) rotate(180)" style="fill:#ebebeb"></rect><rect x="178.18" y="62.04" width="112.68" height="4.35" transform="translate(469.03 128.43) rotate(180)" style="fill:#ebebeb"></rect><rect x="178.18" y="66.94" width="112.68" height="4.35" transform="translate(469.03 138.22) rotate(180)" style="fill:#ebebeb"></rect><rect x="178.18" y="71.83" width="112.68" height="4.35" transform="translate(469.03 148.01) rotate(180)" style="fill:#ebebeb"></rect><rect x="178.18" y="76.73" width="112.68" height="4.35" transform="translate(469.03 157.8) rotate(180)" style="fill:#ebebeb"></rect><rect x="178.18" y="81.62" width="112.68" height="4.35" transform="translate(469.03 167.59) rotate(180)" style="fill:#ebebeb"></rect><rect x="178.18" y="86.52" width="112.68" height="4.35" transform="translate(469.03 177.39) rotate(180)" style="fill:#ebebeb"></rect><rect x="178.18" y="91.41" width="112.68" height="4.35" transform="translate(469.03 187.18) rotate(180)" style="fill:#ebebeb"></rect><rect x="178.18" y="96.31" width="112.68" height="4.35" transform="translate(469.03 196.97) rotate(180)" style="fill:#ebebeb"></rect><rect x="187.46" y="56.26" width="0.78" height="100.3" style="fill:#a6a6a6"></rect><polygon points="186.46 160.2 189.24 160.2 188.54 156.22 187.16 156.22 186.46 160.2" style="fill:#a6a6a6"></polygon><rect x="184.64" y="56.26" width="0.78" height="145.1" style="fill:#a6a6a6"></rect><polygon points="183.65 204.29 186.42 204.29 185.73 200.31 184.34 200.31 183.65 204.29" style="fill:#a6a6a6"></polygon><rect x="173.33" y="50.22" width="122.37" height="9.1" transform="translate(469.03 109.54) rotate(180)" style="fill:#dbdbdb"></rect></g><g id="freepik--Shadow--inject-86"><ellipse cx="250" cy="420.04" rx="213.95" ry="27.54" style="fill:#ebebeb"></ellipse></g><g id="freepik--Plant--inject-86"><path d="M58.18,286.54a183.62,183.62,0,0,1,.27-19.49,247.9,247.9,0,0,1,6.11-39.72c1.7-7.35,3.8-14.58,6-21.8.07-.21.41-.15.35.08-6.75,25.44-12.3,51.7-11.92,78.15.11,7.4,1,14.67,1.67,22,0,.19-.3.27-.35.07A110.8,110.8,0,0,1,58.18,286.54Z" style="fill:#FFC107"></path><path d="M70.89,205.61s10.24,26,8,32.09-7,7.41-7,7.41,6.27,8.94,1.89,17.33-14.1,8-14.75,17.5C59,279.94,58.42,240.17,70.89,205.61Z" style="fill:#FFC107"></path><path d="M70.89,205.61s10.24,26,8,32.09-7,7.41-7,7.41,6.27,8.94,1.89,17.33-14.1,8-14.75,17.5C59,279.94,58.42,240.17,70.89,205.61Z" style="opacity:0.1"></path><path d="M60.07,263.52a.23.23,0,0,1,0-.14A238.53,238.53,0,0,1,70,211.11c0-.05.1,0,.09,0q-3,11.4-5.38,22.92a11.41,11.41,0,0,1,4.89-2.72s0,0,0,0a13,13,0,0,0-5,3.37c-.3,1.51-.59,3-.87,4.52,2.29-2.55,5.46-3.82,8.64-5,0,0,.07.06,0,.07-3.3,1.35-6.6,3.08-8.84,5.93q-1.17,6.47-2.05,13a12.35,12.35,0,0,1,6.1-3.5c.07,0,.11.09,0,.11a12.91,12.91,0,0,0-6.19,4l0,0c-.2,1.52-.4,3-.58,4.58a16.06,16.06,0,0,1,4.28-2.58s.06,0,0,.07a14.76,14.76,0,0,0-4.28,2.83l-.06,0c-.17,1.45-.34,2.91-.48,4.37a20.65,20.65,0,0,1,8.68-6.2c.07,0,.1.07,0,.1a22.58,22.58,0,0,0-8.56,6.58.19.19,0,0,1-.22.07c-.22,2.24-.42,4.48-.58,6.72a0,0,0,0,1,0,0C59.73,268.11,59.89,265.81,60.07,263.52Z" style="fill:#263238"></path><path d="M68.3,228.75a12.82,12.82,0,0,1,6.15-1.92s0,.07,0,.08a24.21,24.21,0,0,0-6.08,2A.08.08,0,0,1,68.3,228.75Z" style="fill:#263238"></path><path d="M67.06,256.26a12.76,12.76,0,0,1,4.61-1.58c.06,0,.06.08,0,.09a17,17,0,0,0-4.57,1.6C67.05,256.4,67,256.29,67.06,256.26Z" style="fill:#263238"></path><path d="M31.27,238.12a69.19,69.19,0,0,1,11.85,10.36,42.54,42.54,0,0,1,8.31,14.09,105.6,105.6,0,0,1,6.19,33.7,81.58,81.58,0,0,1-1.83,19,.18.18,0,0,1-.35-.07A106.09,106.09,0,0,0,55.25,282c-1.76-10.75-4.52-22.44-11.35-31.18-3.72-4.76-8.36-8.5-12.95-12.37C30.71,238.28,31,238,31.27,238.12Z" style="fill:#FFC107"></path><path d="M56.11,288.53a63.33,63.33,0,0,0-8.64-11c-5.12-5.12-9.43-8.76-10.1-12.14s5.13-5.88,5.13-5.88-7.08,1.27-9-1.7-2.88-20.2-2.88-20.2,12.9,9.2,18.9,22.1S56.11,288.53,56.11,288.53Z" style="fill:#FFC107"></path><path d="M56.11,288.53a63.33,63.33,0,0,0-8.64-11c-5.12-5.12-9.43-8.76-10.1-12.14s5.13-5.88,5.13-5.88-7.08,1.27-9-1.7-2.88-20.2-2.88-20.2,12.9,9.2,18.9,22.1S56.11,288.53,56.11,288.53Z" style="opacity:0.1"></path><path d="M35.06,242c5.43,5.33,10.89,11,14.08,18A68.43,68.43,0,0,1,52,267.41h0c.17.51.34,1,.49,1.53a.16.16,0,0,1,0,.09A146.79,146.79,0,0,1,56.17,285s-.05.05-.05,0c-.56-2.69-1.17-5.4-1.86-8.11h-.07A11.35,11.35,0,0,0,50.8,276c-.07,0-.07-.14,0-.14a13.19,13.19,0,0,1,3.35.61c-.63-2.44-1.31-4.87-2.07-7.27a35.89,35.89,0,0,0-7.65-1s0,0,0,0a28.74,28.74,0,0,1,7.52.64c-.13-.41-.27-.82-.41-1.23a38.12,38.12,0,0,0-5.09-.87s0-.05,0-.05a23.89,23.89,0,0,1,5,.61c-.7-2.08-1.46-4.13-2.3-6.12a37.69,37.69,0,0,0-2.44-4.73,30.38,30.38,0,0,0-4.12-.73s0-.07,0-.07a11.19,11.19,0,0,1,3.86.38c-.68-1.09-1.39-2.17-2.15-3.21h0c-2.89-.64-5.82-1.23-8.77-.68-.06,0-.07-.07,0-.09,2.81-.74,5.61-.31,8.41.25-.31-.41-.62-.81-.94-1.21a19,19,0,0,0-5.4-.85,0,0,0,1,1,0-.06,14,14,0,0,1,5,.45c-2.39-3-5-5.76-7.64-8.52C34.84,241.93,34.94,241.86,35.06,242Z" style="fill:#263238"></path><path d="M35.21,253.73a11,11,0,0,1,2.56-.09.09.09,0,0,1,0,.18c-.85,0-1.69,0-2.54,0C35.15,253.83,35.14,253.73,35.21,253.73Z" style="fill:#263238"></path><path d="M44.49,270.44a11.5,11.5,0,0,1,4,.79s0,.07,0,.06c-1.31-.31-2.64-.44-4-.66A.1.1,0,0,1,44.49,270.44Z" style="fill:#263238"></path><path d="M47.27,264.66a8.06,8.06,0,0,1,1.69.16s0,.1,0,.1a8.67,8.67,0,0,1-1.69-.08A.09.09,0,0,1,47.27,264.66Z" style="fill:#263238"></path><path d="M93.91,256.4a58.86,58.86,0,0,0-12,5.64,35.94,35.94,0,0,0-10,9.49,88.63,88.63,0,0,0-12.8,25.84,68.74,68.74,0,0,0-2.9,15.76.15.15,0,1,0,.3,0,89.39,89.39,0,0,1,7.81-26.77c3.91-8.29,8.84-17.12,16.39-22.61,4.11-3,8.73-4.94,13.34-7C94.32,256.66,94.15,256.32,93.91,256.4Z" style="fill:#FFC107"></path><path d="M62.15,291.46a53.47,53.47,0,0,1,9.54-6.94c5.33-3,9.66-4.91,11-7.49s-2.79-5.95-2.79-5.95,5.44,2.67,7.7.71,7-15.68,7-15.68S82,260.58,74.17,269.63,62.15,291.46,62.15,291.46Z" style="fill:#FFC107"></path><path d="M62.15,291.46a53.47,53.47,0,0,1,9.54-6.94c5.33-3,9.66-4.91,11-7.49s-2.79-5.95-2.79-5.95,5.44,2.67,7.7.71,7-15.68,7-15.68S82,260.58,74.17,269.63,62.15,291.46,62.15,291.46Z" style="opacity:0.1"></path><path d="M62.8,288.63c6.29-11.8,14.67-22.46,26.16-29.5h0a58.36,58.36,0,0,0-8.41,6.58,13.38,13.38,0,0,1,6.76,1.43s0,.08,0,.07a18.49,18.49,0,0,0-7-1.18s0,0-.07,0L79,267.18a20.88,20.88,0,0,1,3.61.48s0,.06,0,0a18.14,18.14,0,0,0-3.82-.31,79,79,0,0,0-5.92,6.72,6,6,0,0,1,2.52.19,0,0,0,1,1,0,.09,13.44,13.44,0,0,0-2.69,0l-1,1.32a24.22,24.22,0,0,1,7.63.74s0,.07,0,.06a30.75,30.75,0,0,0-7.84-.51c-.32.43-.62.86-.93,1.29a16.9,16.9,0,0,1,4.53.52c.06,0,0,.11,0,.09a17.26,17.26,0,0,0-4.7-.36q-2,2.79-3.89,5.69a4.19,4.19,0,0,1,2,.12s0,.06,0,.05a8.58,8.58,0,0,0-2.15.11q-1.68,2.61-3.24,5.27C63,288.89,62.72,288.78,62.8,288.63Z" style="fill:#263238"></path><path d="M72.58,278.85a9.65,9.65,0,0,1,3.65.44,0,0,0,0,1,0,.06,27.75,27.75,0,0,0-3.63-.38C72.51,279,72.49,278.85,72.58,278.85Z" style="fill:#263238"></path><path d="M83.53,264.47a6.38,6.38,0,0,1,1.69.1c.06,0,0,.11,0,.1-.56-.06-1.1,0-1.66-.05A.08.08,0,0,1,83.53,264.47Z" style="fill:#263238"></path><polygon points="45.95 330.45 74.3 330.45 70.26 300.84 69.23 293.24 51.02 293.24 49.99 300.84 45.95 330.45" style="fill:#455a64"></polygon><polygon points="49.99 300.84 70.26 300.84 69.23 293.24 51.02 293.24 49.99 300.84" style="fill:#263238"></polygon><rect x="48.42" y="290.61" width="23.41" height="6.43" transform="translate(120.25 587.65) rotate(180)" style="fill:#455a64"></rect></g><g id="freepik--Floor--inject-86"><polygon points="28.43 330.45 83.82 330.21 139.22 330.12 250 329.95 360.78 330.12 416.18 330.21 471.57 330.45 416.18 330.7 360.78 330.79 250 330.95 139.22 330.78 83.82 330.69 28.43 330.45" style="fill:#263238"></polygon></g><g id="freepik--Door--inject-86"><rect x="332.48" y="61.83" width="117.94" height="268.62" style="fill:#455a64"></rect><path d="M382.54,105.59l-17.19.49c-5.82.15-11.7.26-17.6.34l-.82,0v-.85l-.13-13.87,0-13.87v-1h1l17.4.07c5.8,0,11.6.11,17.39.21h.75l0,.71-.14,7.05-.18,7Zm0,0-.4-14L382,84.68l-.13-6.83.72.73q-8.69.15-17.39.2l-17.4.07,1-1,0,13.87-.13,13.87-.83-.83c5.7.08,11.42.2,17.2.35Z" style="fill:#37474f"></path><path d="M430.81,105.59l-17.19.49c-5.82.15-11.7.26-17.6.34l-.82,0v-.85l-.13-13.87,0-13.87v-1h1l17.4.07c5.8,0,11.6.11,17.39.21h.75l0,.71-.14,7.05-.18,7Zm0,0-.4-14-.19-6.88-.13-6.83.72.73q-8.69.15-17.39.2l-17.4.07,1-1,0,13.87-.13,13.87-.83-.83c5.7.08,11.42.2,17.2.35Z" style="fill:#37474f"></path><path d="M382.54,200.8l-17.27.29c-5.81.1-11.65.23-17.52.27h-.54v-.56L347,180.88c-.07-6.64-.13-13.28-.13-19.92l-.13-39.84v-1h1l34.79.11h.9v.89c0,6.69,0,13.39-.11,20.07l-.22,20-.26,19.89Zm0,0L382,160.73l-.23-19.84c-.09-6.6-.07-13.18-.11-19.77l.89.89-34.79.11,1-1L348.62,161q0,10-.13,19.92l-.19,19.92-.55-.55c5.73,0,11.48.17,17.28.27Z" style="fill:#37474f"></path><path d="M430.81,200.8l-17.27.29c-5.81.1-11.65.23-17.52.27h-.54v-.56l-.19-19.92c-.07-6.64-.13-13.28-.13-19.92L395,121.12v-1h1l34.79.11h.9v.89c0,6.69,0,13.39-.12,20.07l-.22,20-.26,19.89Zm0,0-.55-40.07L430,140.89c-.1-6.6-.08-13.18-.12-19.77l.89.89-34.79.11,1-1L396.89,161q0,10-.13,19.92l-.19,19.92-.55-.55c5.73,0,11.48.17,17.28.27Z" style="fill:#37474f"></path><path d="M382.54,296l-17.27.29c-5.81.1-11.65.23-17.52.26h-.54V296L347,276.09c-.07-6.64-.13-13.28-.13-19.92l-.13-39.84v-1h1l34.79.11h.9v.89c0,6.69,0,13.39-.11,20.07l-.22,20-.26,19.89Zm0,0L382,255.94l-.23-19.84c-.09-6.6-.07-13.18-.11-19.77l.89.89-34.79.1,1-1-.13,39.84q0,10-.13,19.92L348.3,296l-.55-.55c5.73,0,11.48.17,17.28.27Z" style="fill:#37474f"></path><path d="M430.81,296l-17.27.29c-5.81.1-11.65.23-17.52.26h-.54V296l-.19-19.92c-.07-6.64-.13-13.28-.13-19.92L395,216.33v-1h1l34.79.11h.9v.89c0,6.69,0,13.39-.12,20.07l-.22,20-.26,19.89Zm0,0-.55-40.07L430,236.1c-.1-6.6-.08-13.18-.12-19.77l.89.89-34.79.1,1-1-.13,39.84q0,10-.13,19.92L396.57,296l-.55-.55c5.73,0,11.48.17,17.28.27Z" style="fill:#37474f"></path><polygon points="460.97 50.98 460.97 330.45 450.43 330.45 450.43 61.83 332.48 61.83 332.48 330.45 321.94 330.45 321.94 50.98 460.97 50.98" style="fill:#37474f"></polygon><rect x="435.52" y="200.8" width="10.7" height="29.29" style="fill:#FFC107"></rect><path d="M445.18,205.91a4.31,4.31,0,1,1-4.31-4.44A4.38,4.38,0,0,1,445.18,205.91Z" style="opacity:0.32"></path></g><g id="freepik--character-2--inject-86"><path d="M249.6,393.43h30.19S278.09,345.7,275,332c-3.75-16.63-14.06-67.3-14.06-67.3H227.18s15.84,51.81,17.29,69.19C245.18,342.38,249.6,393.43,249.6,393.43Z" style="fill: rgb(247, 169, 160);"></path><path d="M301.58,420.86c-1.65.53-48.56-.09-50.34-1.25-.67-.43-1-7.27-1.12-15.54,0-1.79-.05-3.64-.06-5.51l-2.17-25.08,30.64.33,2.05,25.07-.21,5.5s17.86,8.27,19.67,9.75S303.23,420.34,301.58,420.86Z" style="fill: rgb(247, 169, 160);"></path><path d="M301.58,420.86c-1.65.53-48.56-.09-50.34-1.25-.82-.53-1.1-10.52-1.18-21.05l30.52.32-.21,5.5s17.86,8.27,19.67,9.75S303.23,420.34,301.58,420.86Z" style="fill:#fff"></path><path d="M301.58,420.86c-1.65.53-48.56-.09-50.34-1.25-.67-.43-1-7.27-1.12-15.54l30.25.31s17.86,8.27,19.67,9.75S303.23,420.34,301.58,420.86Z" style="fill:#FFC107"></path><path d="M263.65,420.54c-6.75-.25-11.84-.56-12.41-.93s-.94-6.46-1.09-14.05C253.44,409.45,259.9,416.48,263.65,420.54Z" style="fill:#263238"></path><path d="M300.93,419c-7.86-.3-39.6-.76-47.39-.46-.07,0-.07.05,0,.05,7.78.47,39.52.67,47.39.54C301.1,419.1,301.1,419,300.93,419Z" style="fill:#263238"></path><path d="M297,412.4a6.31,6.31,0,0,0-4.73,1.86,6.12,6.12,0,0,0-1.81,4.17c0,.05.09.05.09,0A7.3,7.3,0,0,1,297,412.5C297.11,412.49,297.11,412.4,297,412.4Z" style="fill:#263238"></path><path d="M283.41,405.2c-3.14-.08-6.81,1-8.8,3.53-.08.1.06.2.16.16a43.22,43.22,0,0,1,8.69-3.3A.2.2,0,0,0,283.41,405.2Z" style="fill:#263238"></path><path d="M285.83,406.18c-3.15-.08-6.81,1-8.8,3.53-.08.1.06.2.16.16a43.22,43.22,0,0,1,8.69-3.3A.2.2,0,0,0,285.83,406.18Z" style="fill:#263238"></path><path d="M288.25,407.16c-3.15-.08-6.81,1-8.8,3.53-.08.1.06.2.15.16a43.54,43.54,0,0,1,8.7-3.3A.2.2,0,0,0,288.25,407.16Z" style="fill:#263238"></path><path d="M290.67,408.14c-3.15-.08-6.82,1-8.81,3.53-.07.1.07.2.16.16a43.68,43.68,0,0,1,8.69-3.3A.2.2,0,0,0,290.67,408.14Z" style="fill:#263238"></path><path d="M255.64,411.08c-3.53,0-3.6,5.45-.06,5.49S259.18,411.12,255.64,411.08Z" style="fill:#263238"></path><path d="M286.93,396.85c-1.58-1.35-3.6-.08-4.6,1.28a16.41,16.41,0,0,0-3,8c0,.07,0,.09.09.09a.39.39,0,0,0,.57.26c2.26-1.52,4.87-2.86,6.59-5C287.62,400.19,288.42,398.12,286.93,396.85ZM283,403.49c-1.1.77-2.22,1.49-3.29,2.3a48.64,48.64,0,0,1,1.84-4.64A19.8,19.8,0,0,1,282.7,399c.7-1,3.83-3.62,4.09-.19C286.94,400.74,284.28,402.56,283,403.49Z" style="fill:#263238"></path><path d="M271.52,407.2c2.74.46,5.57-.28,8.27-.66A.39.39,0,0,0,280,406s.06-.09,0-.14a16.53,16.53,0,0,0-7.57-4c-1.65-.34-4,.07-4.27,2.12S269.92,406.94,271.52,407.2Zm-1.88-1.81c-2.09-2.73,2-2.9,3.17-2.6a19.91,19.91,0,0,1,2.29.78c1.55.62,3,1.46,4.47,2.23-1.34.1-2.66.32-4,.48C274,406.46,270.8,406.89,269.64,405.39Z" style="fill:#263238"></path><polygon points="239.06 309.97 272.47 309.97 260.94 264.7 227.18 264.7 239.06 309.97" style="fill:#455a64"></polygon><path d="M269,304.1c-4.88-.3-9.78-.37-14.67-.35-2.42,0-4.85,0-7.27.05s-4.93.19-7.4.3c-.09,0-.09.14,0,.15,2.47.11,4.92.28,7.39.32s4.85.06,7.28.07c4.88,0,9.79,0,14.67-.3A.12.12,0,1,0,269,304.1Z" style="fill:#263238"></path><path d="M258.83,420.82c-1.65.52-48.57-.1-50.34-1.26-.68-.43-1-7.27-1.12-15.54,0-1.79-.05-3.63-.06-5.51-.08-12.17,1-25.08,1-25.08l32.14.33-2.66,25.07-.21,5.5s17.85,8.27,19.66,9.75S260.47,420.29,258.83,420.82Z" style="fill: rgb(247, 169, 160);"></path><path d="M258.83,420.82c-1.65.52-48.57-.1-50.34-1.26-.82-.53-1.11-10.51-1.18-21.05l30.52.32-.21,5.5s17.85,8.27,19.66,9.75S260.47,420.29,258.83,420.82Z" style="fill:#fff"></path><path d="M258.83,420.82c-1.65.52-48.57-.1-50.34-1.26-.68-.43-1-7.27-1.12-15.54l30.25.31s17.85,8.27,19.66,9.75S260.47,420.29,258.83,420.82Z" style="fill:#FFC107"></path><path d="M258.18,418.93c-7.87-.3-39.61-.76-47.4-.45-.06,0-.06,0,0,0,7.79.46,39.53.66,47.4.53C258.34,419.06,258.34,418.94,258.18,418.93Z" style="fill:#263238"></path><path d="M254.29,412.35a6.3,6.3,0,0,0-4.73,1.86,6.13,6.13,0,0,0-1.82,4.18s.09.05.1,0a7.3,7.3,0,0,1,6.45-5.94C254.35,412.45,254.35,412.36,254.29,412.35Z" style="fill:#263238"></path><path d="M240.66,405.15c-3.15-.08-6.82,1-8.81,3.53-.07.1.07.21.16.16a43.54,43.54,0,0,1,8.7-3.3A.2.2,0,0,0,240.66,405.15Z" style="fill:#263238"></path><path d="M243.07,406.13c-3.14-.08-6.81,1-8.8,3.53-.08.1.07.21.16.16a43.68,43.68,0,0,1,8.69-3.3A.2.2,0,0,0,243.07,406.13Z" style="fill:#263238"></path><path d="M245.49,407.11c-3.15-.08-6.81,1-8.8,3.53-.08.1.06.21.16.16a43.22,43.22,0,0,1,8.69-3.3A.2.2,0,0,0,245.49,407.11Z" style="fill:#263238"></path><path d="M247.91,408.09c-3.15-.08-6.81,1-8.8,3.53-.08.1.06.21.16.16a43.22,43.22,0,0,1,8.69-3.3A.2.2,0,0,0,247.91,408.09Z" style="fill:#263238"></path><path d="M212.88,411c-3.53,0-3.59,5.46,0,5.49S216.42,411.07,212.88,411Z" style="fill:#263238"></path><path d="M244.17,396.8c-1.58-1.34-3.6-.08-4.6,1.28a16.51,16.51,0,0,0-3,8,.08.08,0,0,0,.1.09.39.39,0,0,0,.56.27c2.26-1.53,4.87-2.87,6.6-5C244.87,400.14,245.66,398.07,244.17,396.8Zm-3.95,6.64c-1.09.77-2.22,1.49-3.29,2.31.59-1.57,1.1-3.14,1.84-4.65A17.34,17.34,0,0,1,240,399c.7-1,3.82-3.62,4.09-.2C244.19,400.7,241.52,402.52,240.22,403.44Z" style="fill:#263238"></path><path d="M228.77,407.16c2.73.45,5.57-.29,8.27-.67a.38.38,0,0,0,.24-.57.09.09,0,0,0,0-.14,16.55,16.55,0,0,0-7.56-4c-1.66-.34-4,.07-4.28,2.13S227.17,406.89,228.77,407.16Zm-1.88-1.82c-2.1-2.73,2-2.89,3.17-2.59a17,17,0,0,1,2.28.78,48.89,48.89,0,0,1,4.47,2.22c-1.34.1-2.65.32-4,.48C231.24,406.42,228,406.84,226.89,405.34Z" style="fill:#263238"></path><path d="M207.31,393.43H238.4s3.84-35.37,5.08-48.25c1.32-13.69,3.42-56.5,3.42-56.5l3.83-1.22c4.8-3,9.66-18.5,10.21-22.76H216.37s-6.49,18.56-3,30c0,0-2.14,40.34-2.87,47.57C209.11,355.9,207.31,393.43,207.31,393.43Z" style="fill: rgb(247, 169, 160);"></path><path d="M211.51,311.83H245.6l1.3-23.15,3.83-1.22c4.8-3,9.66-18.5,10.21-22.76H216.37s-6.49,18.56-3,30Z" style="fill:#455a64"></path><path d="M251.77,286.85a77.45,77.45,0,0,0-10.38,3.73c-.13.05,0,.21.1.16,3.49-1.16,7.06-2.26,10.47-3.56C252.23,287.07,252.05,286.78,251.77,286.85Z" style="fill:#263238"></path><path d="M252.88,268.38c0-.1-.22-.12-.22,0a69.09,69.09,0,0,1-.58,9c-.17,1.39-1.62,9.05-4.74,8.49-.52-.09-.79-.49-.87-1.09a7.69,7.69,0,0,1,.41-2.35,47.44,47.44,0,0,0,.81-4.84,34,34,0,0,0-.13-9.07c0-.1-.2-.09-.2,0a65,65,0,0,1-1,12.52c-.39,2-1.7,5,1,5.3s4.54-4.71,4.88-6.09A35.32,35.32,0,0,0,252.88,268.38Z" style="fill:#263238"></path><path d="M247.42,286.06a11.14,11.14,0,0,0-.7,1.59,2.9,2.9,0,0,0-.29,1.31c0,.08.16.09.22,0a4.24,4.24,0,0,0,.72-1.27c.24-.49.49-1,.71-1.48C248.22,285.92,247.6,285.74,247.42,286.06Z" style="fill:#263238"></path><path d="M243.92,306.41c-4.87-.3-9.78-.36-14.66-.35-2.43,0-4.85,0-7.28.05s-4.92.2-7.39.31a.07.07,0,1,0,0,.14c2.46.12,4.92.28,7.39.33s4.85.05,7.27.07c4.89,0,9.79,0,14.67-.3A.13.13,0,0,0,243.92,306.41Z" style="fill:#263238"></path><path d="M246.85,289.42c-.95,11.65-1.65,23.32-2.23,35-.16,3.3-.16,6.6-.3,9.89,0,.1.14.09.15,0,.21-2.92.52-5.84.75-8.75s.41-5.84.58-8.75c.34-5.83.73-11.66.93-17.49.11-3.3.25-6.6.36-9.89C247.1,289.26,246.86,289.27,246.85,289.42Z" style="fill:#263238"></path><path d="M233.64,267.19a48.4,48.4,0,0,1-1.23,5.43c-.45,1.57-.94,3.18-2.39,4.12a17.91,17.91,0,0,1-9.88,2.48c-.07,0-.09.11,0,.12a16.26,16.26,0,0,0,5.48,0,12.75,12.75,0,0,0,5.12-1.83,6.62,6.62,0,0,0,2.41-4.26,28.05,28.05,0,0,0,.68-6.05A.09.09,0,0,0,233.64,267.19Z" style="fill:#263238"></path><path d="M244.75,183.8c-1.07.1-5.7-.61-9,3.5-3.08,3.88-4.56,16-5.28,18.63s-4.22,2.9-5.15,5.94c-.8,2.62,1.09,3.67,1.21,5.61.1,1.52-1.5,3.72-.21,6,1.17,2.07,3.39,1.72,4.69,2.4s2,3.79,4.44,4.71,4.68-1.24,6-1.18,2.69,4.12,7,3.93,5.63-3.75,7.41-4.39,6.15.74,8.24-1.38,2.55-5,3.49-6.08,2.84-.8,4.06-3.25-1-4.13-1.29-6.3c-.17-1.52,1.22-2.86.36-5.2-1.17-3.21-5.08-2.68-6.43-6-1.07-2.6-3-13.78-9.65-16.76C250.07,181.94,244.75,183.8,244.75,183.8Z" style="fill:#263238"></path><path d="M230.66,205.3a3.77,3.77,0,0,1-1.19,1.38L228,207.83a11.55,11.55,0,0,0-2.54,2.49,3.65,3.65,0,0,0-.53,3.22,5.62,5.62,0,0,0,.83,1.51,6.45,6.45,0,0,1,1,1.65,3.06,3.06,0,0,1-.25,2c-.21.59-.45,1.14-.64,1.7a4.35,4.35,0,0,0,0,3.34,2.49,2.49,0,0,0,1.13,1.18,4.3,4.3,0,0,0,1.68.43c.59.07,1.2.07,1.82.1a3.05,3.05,0,0,1,1.75.47,3.21,3.21,0,0,0-1.76-.28c-.6,0-1.21.07-1.83.05a4.86,4.86,0,0,1-1.86-.37A3,3,0,0,1,225.4,224a4.71,4.71,0,0,1-.11-3.77c.19-.59.43-1.16.63-1.73a2.54,2.54,0,0,0,.21-1.56c-.33-1-1.4-1.89-1.77-3.17a4.1,4.1,0,0,1,.7-3.71,11.83,11.83,0,0,1,2.78-2.47l1.52-1A4.16,4.16,0,0,0,230.66,205.3Z" style="fill:#263238"></path><path d="M260.59,190.49a54,54,0,0,1,2.58,6c.42,1,.8,2,1.29,3a7.54,7.54,0,0,0,.82,1.32,1.18,1.18,0,0,0,.25.25,1.26,1.26,0,0,0,.28.2c.23.13.47.25.71.36a31.37,31.37,0,0,1,2.94,1.5,5.55,5.55,0,0,1,2.3,2.49,3.48,3.48,0,0,1,.28,1.72,4.3,4.3,0,0,1-.56,1.6,7.08,7.08,0,0,0-1.13,3,6.77,6.77,0,0,1,.82-3.17,4.15,4.15,0,0,0,.43-1.49,3,3,0,0,0-.32-1.46,5.47,5.47,0,0,0-2.15-2.17,30.36,30.36,0,0,0-2.92-1.41c-.25-.13-.5-.25-.74-.4a2.3,2.3,0,0,1-.7-.62,7.87,7.87,0,0,1-.88-1.46,26.92,26.92,0,0,1-1.23-3.07l-1-3.11A27.44,27.44,0,0,0,260.59,190.49Z" style="fill:#263238"></path><path d="M268.65,220.79a5.59,5.59,0,0,0-.78,2.17c-.19.75-.39,1.51-.62,2.27a11.12,11.12,0,0,1-.9,2.22,5.19,5.19,0,0,1-1.63,1.87,6.48,6.48,0,0,1-4.8.38c-.77-.17-1.52-.38-2.28-.53a4.92,4.92,0,0,0-2.29-.08,4.58,4.58,0,0,1,2.35-.26c.78.09,1.55.24,2.32.35a6.6,6.6,0,0,0,4.33-.45,4.66,4.66,0,0,0,1.43-1.61,14,14,0,0,0,1-2.07c.29-.72.53-1.45.79-2.19.14-.37.29-.74.45-1.1A2.19,2.19,0,0,1,268.65,220.79Z" style="fill:#263238"></path><path d="M245.51,224.79c13.36,8.34,29.56,14.89,33.32,15.7,10.09,2.17,29.11-3.79,34.72-7.5,2.11-1.39-4.65-20-7-18.57C302.32,217,281,223.21,279.37,223c-1.14-.11-17-3.44-27-5C239.81,216.13,242,222.6,245.51,224.79Z" style="fill: rgb(247, 169, 160);"></path><path d="M337.48,214.8a1.08,1.08,0,0,1-.51.85c1.52.87,2.53,1.95,2.12,3.21a2,2,0,0,1-1.8,1.24,1.48,1.48,0,0,1,.57,2c-.66,1.31-4,1.3-7.28.93,2.22.61,3.94,1.49,3.4,2.69-1.47,3.18-8.76,1.56-13.85,1.16a16.5,16.5,0,0,0-4.74.2,4,4,0,0,0-.67.23c-.6.25-1,.63-1,1.16,0,1,2.12,1.5,3.58,1.43,2.76-.15,6.39,2.1,6.5,3.83.17,2.54-6.22,2-8.49,2.42-3,.51-8.2-.38-8.59-.39,0,0-.67-1.8-1.45-4.34-1.51-4.85-3.44-12.41-2-15.34a74.79,74.79,0,0,1,19-7.44C325.58,207.87,338,211.31,337.48,214.8Z" style="fill: rgb(247, 169, 160);"></path><path d="M318.71,221.5a12.7,12.7,0,0,1,5.78-.42c2.66.38,4,1.13,6.45,1.9a.05.05,0,1,1,0,.1c-1.16-.36-5.11-1.41-6.28-1.64a12.06,12.06,0,0,0-5.91.1A0,0,0,0,1,318.71,221.5Z" style="fill:#263238"></path><path d="M318.84,216.94a27.65,27.65,0,0,1,6.42-.57,23.59,23.59,0,0,1,7.62,2q2.22.84,4.4,1.77c.06,0,0,.13,0,.11q-3.76-1.47-7.61-2.71a19,19,0,0,0-7.36-.88c-1.42.11-2,.11-3.43.33C318.82,217,318.81,216.94,318.84,216.94Z" style="fill:#263238"></path><path d="M319,212.73a18.39,18.39,0,0,1,6.54-.86,28.26,28.26,0,0,1,7.29,2.06c1.36.53,2.69,1.11,4,1.71.05,0,0,.12-.05.09a76.06,76.06,0,0,0-9.17-3.22,12.08,12.08,0,0,0-4.1-.48,27.61,27.61,0,0,0-4.52.71S319,212.73,319,212.73Z" style="fill:#263238"></path><path d="M300.79,216.16l-2.65,27.68s-15.19.83-21.83-1.12-24.88-13-30.45-17.2-4.1-8.77,4-8.17,29.49,4.87,30.37,4.86S300.79,216.16,300.79,216.16Z" style="fill:#FFC107"></path><path d="M292.69,239.94c.57-3.14,1.07-6.29,1.48-9.46.2-1.56.43-3.12.6-4.68s.25-3.25.43-4.86c0-.12-.16-.15-.17,0-.23,1.56-.57,3.09-.82,4.65s-.43,3.21-.64,4.82c-.42,3.17-.76,6.36-1,9.55A.07.07,0,1,0,292.69,239.94Z" style="fill:#263238"></path><path d="M288.93,244c-4.45-.07-9.49-.36-12.62-1.28-6.63-1.95-24.87-13-30.46-17.2-3.93-2.94-4.35-6.1-1.41-7.49Z" style="opacity:0.1"></path><path d="M213.85,272.24c0,.05,48.68.31,49,0,.17-.15-5.38-40.45-11-51.29-1.45-2.76-8.38-7.09-13.84-2.31C226.49,228.74,213.66,272,213.85,272.24Z" style="fill:#c7c7c7"></path><path d="M247.38,216.5a17.11,17.11,0,0,1,8,9.84c2.24,6.52,9.64,47,8.4,47.42-2.6.85-13.51,1.52-13.51,1.52s-.85-17.79-.57-23.44c.15-3.07,4.16-17,3.81-19C252.09,225,247.38,216.5,247.38,216.5Z" style="fill:#FFC107"></path><path d="M240.23,216.87s1.57,10.92,1.46,14.18c-.05,1.51,5.17,11.44,7.23,21.37.75,3.66,1.49,22.82,1.32,22.86-.33.09-38.59-2.89-38.59-2.89L220.73,249c.81-2.11,10-22.45,13.39-26.8S240.23,216.87,240.23,216.87Z" style="fill:#FFC107"></path><circle cx="246.35" cy="252.5" r="1.03" style="fill:#263238"></circle><path d="M244.8,243.42a1,1,0,1,1-1-1A1,1,0,0,1,244.8,243.42Z" style="fill:#263238"></path><circle cx="240.23" cy="234.81" r="1.03" style="fill:#263238"></circle><circle cx="246.71" cy="262.03" r="1.03" style="fill:#263238"></circle><circle cx="247.38" cy="270.71" r="1.03" style="fill:#263238"></circle><path d="M252.21,243.24a2.83,2.83,0,0,1,2.83.18,2.9,2.9,0,0,1-2.83-.18Z" style="fill:#263238"></path><path d="M250.43,252.41a2.66,2.66,0,0,1,1.43-.28,2.6,2.6,0,0,1,1.39.47,2.66,2.66,0,0,1-1.43.28A2.6,2.6,0,0,1,250.43,252.41Z" style="fill:#263238"></path><path d="M253.94,235.19A1.45,1.45,0,0,1,255,235a1.49,1.49,0,0,1,.88.59,1.51,1.51,0,0,1-1.93-.44Z" style="fill:#263238"></path><path d="M239.67,222.86c-3.31,6.37-15.89,27.17-25.1,30.87-6.2,2.49-22.31-2.21-31.65-9.46-1.12-.87,9.25-18.68,10.22-18.12,4,2.32,15.16,8.49,17.08,8s14-9.95,23.12-14.46C239,216.88,241.53,219.28,239.67,222.86Z" style="fill: rgb(247, 169, 160);"></path><path d="M198.94,230.83l-7,8.56,0,0-.15.18-5.32,6.5a15.16,15.16,0,0,1-1.86-.89h0a71.31,71.31,0,0,1-13-9.34c-2.4-2.26-8.59-9.45-7-11.42s3.59,0,3.59,0-2.17-3.43-.39-5.27c1.47-1.51,3.74.32,4.53,1l.12.12h0l.14.13s-2-3.69-.07-5.39c1.71-1.52,3.88,1.23,4.33,1.83l.05.07a.16.16,0,0,1,0-.06c-.31-.56-1.66-3.26.28-3.93,2.59-.89,5.51,5.58,8.28,7.93l1.93,1.45,4.51,3.31Z" style="fill: rgb(247, 169, 160);"></path><path d="M185.11,226.43a31.15,31.15,0,0,1-4-2.48,11.83,11.83,0,0,1-4.34-6.85c0-.15,0-.22.08-.23h0s.09.05.13.13a18,18,0,0,0,4.19,6.25,29.69,29.69,0,0,0,4,3C185.26,226.34,185.2,226.48,185.11,226.43Z" style="fill:#263238"></path><path d="M181.17,230.28c-4.47-2.87-6.94-4.75-9-9.83-.07-.16,0-.29.1-.28a.2.2,0,0,1,.11.1s0,0,0,0h0c2.66,4.72,4.56,6.59,8.83,9.87C181.31,230.21,181.23,230.32,181.17,230.28Z" style="fill:#263238"></path><path d="M168.39,224.8c2.91,4.4,4.9,6.54,9.46,9.2a.1.1,0,0,1-.09.17,17.55,17.55,0,0,1-9.5-9.27C168.12,224.6,168.2,224.52,168.39,224.8Z" style="fill:#263238"></path><path d="M190.47,237.78a6.38,6.38,0,0,1-.49-.67l-.11-.2a0,0,0,0,1,0,0c-2.13-3.89,1.08-9.52,1.08-9.52a25.22,25.22,0,0,1-3.59-2.52c-1.62-1.37-3-3-3.4-4.43,0,0,0,0,0,0a2.32,2.32,0,0,1,0-1.17,2,2,0,0,1,.22-.58.1.1,0,0,1,0,0c.65-1,3.34-.34,6.18.84,3.13,1.29,6.46,3.22,7.51,4.33,1.35,1.43,4.53,8.89,4.53,8.89S193.72,241.63,190.47,237.78Z" style="fill: rgb(247, 169, 160);"></path><path d="M184,219.58c.39,3.65,4.39,5.63,7.12,7.49a.31.31,0,0,1,0,.5c-1.38,2.85-2.5,7.28-.86,10.19a.08.08,0,0,1-.13.09c-2.18-2.89-1.43-7.33.28-10.36-2.82-1.86-6.75-4-6.47-7.91C183.94,219.56,184,219.56,184,219.58Z" style="fill:#263238"></path><path d="M202.36,230.63l-8.75,21s13.25,4.49,20.14,3.32,20.12-21.23,24.62-28.81c3.95-6.65,2.86-10.61-5.75-6.42S210.69,233.11,210,233.23,202.36,230.63,202.36,230.63Z" style="fill:#FFC107"></path><path d="M199,251.9q2-4.36,3.72-8.82c.57-1.47,1.17-2.93,1.71-4.4s1-3.09,1.59-4.61c0-.11-.11-.19-.16-.08-.6,1.45-1.3,2.86-1.91,4.31s-1.2,3-1.79,4.52q-1.75,4.47-3.3,9C198.81,251.93,198.93,252,199,251.9Z" style="fill:#263238"></path><path d="M220.08,250.79l3.43-4.2,3.39-4.22c1.13-1.4,2.22-2.83,3.33-4.26s2.16-2.88,3.26-4.32a57.32,57.32,0,0,1-6,9.05c-1.13,1.41-2.3,2.8-3.54,4.12A53.65,53.65,0,0,1,220.08,250.79Z" style="fill:#263238"></path><path d="M230.06,238.85a11.64,11.64,0,0,1,1.28-1.25,12.72,12.72,0,0,1,1.44-1.06,12.57,12.57,0,0,1-1.28,1.25A11.35,11.35,0,0,1,230.06,238.85Z" style="fill:#263238"></path><path d="M243.72,215.18c-3.25.33-3.11,4-2,6.91s3,5.1,5.18,5,1.82-3.48,1.82-3.48,1.54,2.55,2.78,2S248.79,214.67,243.72,215.18Z" style="fill:#fff"></path><path d="M241.49,217.51c.21.77,4,5.65,7.56,5.37,1.14-.09.92-6.36.92-6.36l.09-.47,1.24-6.53-8.9-5.26S241.41,217.19,241.49,217.51Z" style="fill: rgb(247, 169, 160);"></path><path d="M251.3,209.52l-1.25,6.53-.08.47s0,1.14,0,2.45a10.08,10.08,0,0,1-8.16-6.55c.26-3.74.6-8.16.6-8.16Z" style="fill:#263238"></path><path d="M262.5,200.39c.76,14.23-7.67,16.29-10.74,16.45-2.78.15-12.29.29-14.51-13.78s4.15-18.93,10.5-19.6S261.74,186.16,262.5,200.39Z" style="fill: rgb(247, 169, 160);"></path><path d="M260.07,198.84a8.3,8.3,0,0,1-1-.22,1.55,1.55,0,0,1-.93-.41.5.5,0,0,1,0-.61,1.24,1.24,0,0,1,1.24-.28,1.85,1.85,0,0,1,1.15.68A.54.54,0,0,1,260.07,198.84Z" style="fill:#263238"></path><path d="M250.39,199.14c.33,0,.64-.12,1-.18a1.61,1.61,0,0,0,1-.38.5.5,0,0,0,0-.62,1.23,1.23,0,0,0-1.23-.31,1.79,1.79,0,0,0-1.17.63A.54.54,0,0,0,250.39,199.14Z" style="fill:#263238"></path><path d="M251.69,201c-1.56-.11-1.66,3-.22,3.12S253,201.07,251.69,201Z" style="fill:#263238"></path><path d="M251.07,201.13c-.28.17-.56.47-.89.49s-.66-.31-.9-.63c0,0-.05,0-.05,0,0,.6.18,1.22.82,1.33s1-.41,1.19-1C251.27,201.23,251.18,201.06,251.07,201.13Z" style="fill:#263238"></path><path d="M258.69,200.87c1.57-.06,1.57,3.07.12,3.13S257.38,200.92,258.69,200.87Z" style="fill:#263238"></path><path d="M259.35,201.07c.24.17.49.47.78.49s.6-.31.82-.64c0,0,.05,0,.05,0,0,.6-.18,1.22-.76,1.33s-.91-.41-1.05-1C259.16,201.18,259.25,201,259.35,201.07Z" style="fill:#263238"></path><path d="M251.94,209.55c.21.24.42.57.77.63a2.59,2.59,0,0,0,1.06-.17,0,0,0,0,1,0,.06,1.31,1.31,0,0,1-1.27.43,1,1,0,0,1-.69-.92C251.83,209.52,251.91,209.51,251.94,209.55Z" style="fill:#263238"></path><path d="M256.06,206.12s.17,1.46.16,2.14c0,.06-.17.09-.4.1h0a3.26,3.26,0,0,1-3.13-1.28.07.07,0,0,1,.11-.09,4.9,4.9,0,0,0,2.95.91c.05-.19-.38-2.51-.27-2.49.45.09,1.25.31,1.54.39-.08-1-.47-3.62-.63-5.35a.09.09,0,0,1,.18,0,45.61,45.61,0,0,1,1.14,6C257.7,206.56,256.34,206.24,256.06,206.12Z" style="fill:#263238"></path><path d="M255.78,207.83a4,4,0,0,1-1.47,1.38,1.8,1.8,0,0,1-1.08.17c-.8-.13-.89-.85-.8-1.48a4.47,4.47,0,0,1,.26-1A5.15,5.15,0,0,0,255.78,207.83Z" style="fill:#263238"></path><path d="M254.31,209.21a1.8,1.8,0,0,1-1.08.17c-.8-.13-.89-.85-.8-1.48A1.85,1.85,0,0,1,254.31,209.21Z" style="fill:#ff99ba"></path><path d="M237.83,206.22a6,6,0,0,0,3.32-4.93,15.27,15.27,0,0,0,6.29-5.15c-.09.3-.79,2.5-1.17,3.61A15.83,15.83,0,0,0,258.2,191a16.58,16.58,0,0,1,4,6s.06-5.77-2.81-9.68a9,9,0,0,0-8.33-3.95,12.5,12.5,0,0,0-12.58,3.83C232.54,193.75,237.83,206.22,237.83,206.22Z" style="fill:#263238"></path><path d="M253.2,198.29a16.57,16.57,0,0,1-4.68,1.71s0,0,0,0a14,14,0,0,0,6.69-4.08,13.54,13.54,0,0,0,2-2.82,9.57,9.57,0,0,0,1.21-3.57.07.07,0,1,1,.14,0,11.42,11.42,0,0,1-.72,3.7,10.09,10.09,0,0,1-2,3.08,11.55,11.55,0,0,1-2.58,2Z" style="fill:#263238"></path><path d="M239.57,204s-3-4.55-5-3.51.07,7.56,2.41,8.52a2.41,2.41,0,0,0,3.27-1.18Z" style="fill: rgb(247, 169, 160);"></path><path d="M235.21,202.37a0,0,0,0,0,0,.07,6.08,6.08,0,0,1,3,3.91,1.32,1.32,0,0,0-2-.43c-.05,0,0,.1,0,.09a1.48,1.48,0,0,1,1.61.57,7.35,7.35,0,0,1,.74,1.35c.07.15.34.08.29-.1v0C239,205.68,237.47,202.66,235.21,202.37Z" style="fill:#263238"></path></g><g id="freepik--character-3--inject-86"><path d="M448.21,438.54c-.23-2.14-24.77-55-27-56.42-.83-.55-8.74,2.57-18.19,6.62l-.3.13c-1.95.83-37.91,10.49-37.91,10.49L380.77,434l37.42-10.8.57-.29s18.44,16,21,17.34S448.45,440.67,448.21,438.54Z" style="fill: rgb(235, 148, 129);"></path><path d="M395.91,390.88l16.39,34,5.88-1.7.58-.28s18.44,16,21,17.34,8.66.46,8.41-1.67-24.77-55-27-56.42c-.84-.55-8.75,2.57-18.21,6.62l-.28.13C402.26,389.08,399.6,389.85,395.91,390.88Z" style="fill:#ebebeb"></path><path d="M448.42,438.8c-.23-2.15-24.82-55.62-27.05-57.07-.84-.55-8.83,2.58-18.39,6.63l15.75,34.52s18.57,16.26,21.18,17.58S448.65,441,448.42,438.8Z" style="fill:#FFC107"></path><path d="M445.93,439c-4.34-8.86-21-45-24.64-54.1,0-.08,0-.1.06,0,4.5,8.69,20.88,45,24.73,54.06C446.16,439.14,446,439.21,445.93,439Z" style="fill:#263238"></path><path d="M436.41,437.91a8,8,0,0,1-.28-6.37,7.7,7.7,0,0,1,3.87-4.2c.05,0,.1.07.05.1a9.16,9.16,0,0,0-3.53,10.42A.06.06,0,0,1,436.41,437.91Z" style="fill:#263238"></path><path d="M421.22,425.94c-1.7-3.56-2.34-8.3-.43-11.88.07-.14.27,0,.26.1a54.67,54.67,0,0,0,.64,11.64A.25.25,0,0,1,421.22,425.94Z" style="fill:#263238"></path><path d="M423.58,428.22c-1.7-3.57-2.35-8.31-.44-11.89.07-.14.27,0,.26.1a54.16,54.16,0,0,0,.65,11.65A.25.25,0,0,1,423.58,428.22Z" style="fill:#263238"></path><path d="M425.93,430.49c-1.7-3.57-2.35-8.31-.44-11.88.08-.14.27,0,.27.1a54.71,54.71,0,0,0,.64,11.64A.25.25,0,0,1,425.93,430.49Z" style="fill:#263238"></path><path d="M428.28,432.76c-1.7-3.56-2.34-8.3-.43-11.88.07-.14.27,0,.26.1a54.67,54.67,0,0,0,.64,11.64A.25.25,0,0,1,428.28,432.76Z" style="fill:#263238"></path><path d="M413.83,391.11c-1.84-4,4.42-6.89,6.26-2.85S415.67,395.15,413.83,391.11Z" style="fill:#263238"></path><path d="M418.56,431.52c1.61-3.09,1.82-6.76,2.42-10.13.06-.34-.3-.55-.59-.51a.1.1,0,0,0-.15-.06,20.64,20.64,0,0,0-7.68,7.48c-1.05,1.83-1.47,4.8.87,5.92S417.62,433.32,418.56,431.52Zm-2.9,1.53c-4.06,1.44-2.68-3.46-1.86-4.79a22.5,22.5,0,0,1,1.82-2.42,59.58,59.58,0,0,1,4.39-4.46c-.4,1.63-.65,3.29-1,4.94C418.64,428.28,417.91,432.26,415.66,433.05Z" style="fill:#263238"></path><path d="M412.09,409.13c-2.21,1.36-1.49,4.26-.26,6a20.68,20.68,0,0,0,8.4,6.65c.08,0,.13,0,.15-.08.29,0,.63-.22.53-.56-.94-3.29-1.53-6.92-3.44-9.83C416.35,409.6,414.18,407.85,412.09,409.13Zm6.38,7.29c.5,1.61.92,3.23,1.48,4.81a59.3,59.3,0,0,1-4.82-4,21.58,21.58,0,0,1-2.06-2.22c-1-1.23-2.83-6,1.36-4.95C416.74,410.62,417.88,414.51,418.47,416.42Z" style="fill:#263238"></path><path d="M322.63,286.5s.67,20.72,3.77,30.93c0,0,3.39,1.78,4.41,2.42,0,0-25.75,61.64-24.28,85.36.48,7.78,8.76,17.61,17.65,23.15,15.74,9.79,88.1,4.14,88.1,4.14l-11.15-46.19s-43.57,2.7-44.8.07c-1.56-3.33,8.12-29.26,15.84-50.33.78-2.12,8.55-10,7.65-24.18a73.74,73.74,0,0,0-6.69-25.37Z" style="fill:#37474f"></path><path d="M392.27,391.44c-10.59-.19-19.23.71-29.83.71h-7a11.63,11.63,0,0,1-2.76-.25,3.4,3.4,0,0,1-2.13-1.27c-.71-1.05-.33-2.38-.09-3.52q.81-3.74,1.8-7.43c2.66-10,6.15-19.79,9.43-29.61l5.07-15.18c.41-1.23.82-2.46,1.34-3.65a32,32,0,0,1,1.66-3.18,29.26,29.26,0,0,0,2.88-6.25c2.87-9.42.11-19.17-3.24-28.06-.45-1.19-.92-2.38-1.4-3.56a.07.07,0,0,0-.14,0c3.06,9.39,6.7,19.15,4.65,29.17a23.85,23.85,0,0,1-2.45,6.73c-.58,1.08-1.23,2.12-1.8,3.2a26.54,26.54,0,0,0-1.48,3.42c-1.79,5-3.38,10-5.07,15-3.34,10-6.86,19.92-9.66,30.06-.69,2.53-1.33,5.07-1.9,7.63-.42,1.88-1.37,4.45.28,6,1.2,1.14,3.09,1.28,4.66,1.29,2.65,0,5.29,0,7.93,0,10.75,0,27.94-.93,29.27-1C392.52,391.81,392.51,391.45,392.27,391.44Z" style="fill:#263238"></path><path d="M404.12,430.35c-1-5.39-2-10.81-3.23-16.18S398.4,403.43,397,398.1c-.39-1.5-.8-3-1.2-4.51-.19-.72-.38-1.43-.59-2.14a19.13,19.13,0,0,0-.66-2.15.07.07,0,0,0-.13,0,29.43,29.43,0,0,0,.73,4.14c.27,1.3.52,2.6.78,3.91.56,2.67,1.12,5.34,1.7,8,1.17,5.36,2.5,10.66,3.87,16q1.15,4.53,2.34,9C403.89,430.57,404.16,430.53,404.12,430.35Z" style="fill:#263238"></path><path d="M315.35,362l54.54-19.75c.77-2.1,1.53-4.18,2.28-6.21s8.55-10,7.64-24.19a73.35,73.35,0,0,0-6.68-25.37H322.64s.65,20.72,3.77,30.92c0,0,3.39,1.79,4.4,2.43C330.81,319.85,322.31,340.2,315.35,362Z" style="fill:#263238"></path><path d="M232.44,441c2.06.62,60.31-1.31,62.48-2.79.83-.55,1.05-9.05,1-19.34v-.32c0-2.12-.92-37.65-.92-37.65l-40.77,1.23,4.09,37.25,0,.63s-22,10.71-24.18,12.6S230.39,440.41,232.44,441Z" style="fill: rgb(235, 148, 129);"></path><path d="M232.44,441c2.06.61,60.31-1.32,62.48-2.8.83-.55,1.05-9.05,1-19.33v-.33c0-.58,0-3.46-.17-7.83l-38.22,1.47.79,7.18,0,.64s-22,10.72-24.19,12.6S230.39,440.41,232.44,441Z" style="fill:#ebebeb"></path><path d="M232,441.28c2.08.61,60.9-1.34,63.09-2.84.84-.56,1.05-9.14,1-19.52l-37.93,1.15S236,430.9,233.76,432.79,229.92,440.66,232,441.28Z" style="fill:#FFC107"></path><path d="M232.77,438.89c9.85-.57,49.64-1.94,59.42-1.75.08,0,.08.05,0,.06-9.75.78-49.55,1.83-59.42,1.86C232.56,439.06,232.56,438.91,232.77,438.89Z" style="fill:#263238"></path><path d="M237.48,430.55a8,8,0,0,1,6,2.21,7.63,7.63,0,0,1,2.37,5.19.06.06,0,0,1-.11,0,9.18,9.18,0,0,0-8.24-7.29A.06.06,0,1,1,237.48,430.55Z" style="fill:#263238"></path><path d="M254.39,421.18c3.94-.18,8.57,1.06,11.13,4.2.09.12-.08.26-.2.21a54.83,54.83,0,0,0-11-3.92A.25.25,0,0,1,254.39,421.18Z" style="fill:#263238"></path><path d="M251.38,422.47c4-.19,8.57,1.06,11.13,4.2.1.12-.08.26-.2.21a54.61,54.61,0,0,0-11-3.92A.25.25,0,0,1,251.38,422.47Z" style="fill:#263238"></path><path d="M248.38,423.76c3.94-.19,8.56,1.05,11.12,4.2.1.12-.07.26-.19.2a54.67,54.67,0,0,0-11-3.91A.25.25,0,0,1,248.38,423.76Z" style="fill:#263238"></path><path d="M245.37,425.05c3.94-.19,8.56,1.05,11.12,4.2.1.12-.07.26-.19.2a54.8,54.8,0,0,0-11-3.91A.25.25,0,0,1,245.37,425.05Z" style="fill:#263238"></path><path d="M289.36,427.86c4.43-.14,4.65,6.74.21,6.88S284.93,428,289.36,427.86Z" style="fill:#263238"></path><path d="M250.28,416.57c2.22,2.67,5.52,4.3,8.4,6.15a.49.49,0,0,0,.7-.35.1.1,0,0,0,.12-.11,20.86,20.86,0,0,0-3.92-10c-1.29-1.67-3.86-3.21-5.81-1.49S249,415,250.28,416.57ZM250,413.3c.25-4.3,4.23-1.13,5.13.14a22.11,22.11,0,0,1,1.53,2.62,60.63,60.63,0,0,1,2.42,5.77c-1.35-1-2.78-1.87-4.18-2.81C253.24,417.89,249.85,415.68,250,413.3Z" style="fill:#263238"></path><path d="M273.43,419.27c-.4-2.56-3.36-3-5.42-2.55a20.69,20.69,0,0,0-9.38,5.17.1.1,0,0,0,0,.16.48.48,0,0,0,.32.71c3.4.41,7,1.27,10.39.63C271.35,423,273.8,421.7,273.43,419.27Zm-9.2,3.06c-1.67-.16-3.33-.4-5-.5,1.83-1,3.61-2.08,5.54-2.9a22.56,22.56,0,0,1,2.85-1c1.51-.41,6.6-.31,4,3.17C270.25,423,266.23,422.53,264.23,422.33Z" style="fill:#263238"></path><path d="M255,416.55h45.62s-8.13-62.09-5.43-66.14c1.19-1.78,60.4,4.15,77.73-14.61,15.84-17.16-.28-49.3-.28-49.3H324s-1,13.78-3.6,19.28c-1.12,2.37-55.42-1-63.92,14.51C245.17,341,255,416.55,255,416.55Z" style="fill:#37474f"></path><path d="M295.82,407.88c-5.15-.15-10.31-.35-15.46-.35s-10.33.11-15.5.32c-1.46,0-5.76.26-6.46.31a16.37,16.37,0,0,0-2.1.18c-.08,0-.06.12,0,.14,1.12.19,12.79.32,15.35.33,5.14,0,10.26-.14,15.39-.32,2.92-.11,5.84-.21,8.75-.33C296,408.15,296,407.88,295.82,407.88Z" style="fill:#263238"></path><path d="M326,301.38c.2-1.46.39-2.92.56-4.38.4-3.33.74-6.69.85-10,0-.27-.37-.25-.4,0-.31,2.59-.55,5.19-.84,7.78s-.52,5.18-1,7.72c-.15.77-.47,2.05-1.45,2.06-1.32,0-1.57-1.75-1.68-2.72a42.81,42.81,0,0,1-.13-7.25c.14-2.76.49-5.5.79-8.24,0-.1-.15-.12-.17,0-1.13,5.32-2.22,10.91-1.28,16.36a3,3,0,0,0,1.77,2.57l.05,0a.19.19,0,0,0,0,.09c0,.15,0,.3,0,.46v.39c0,.27,0,.54,0,.81a.2.2,0,0,0,.4,0,.15.15,0,0,0,.14-.13,4.2,4.2,0,0,0,0-1.58,1.92,1.92,0,0,0,1.62-.87A6.91,6.91,0,0,0,326,301.38Z" style="fill:#263238"></path><path d="M321.19,305.33a77.51,77.51,0,0,1,10.46,8.6.14.14,0,0,1-.17.21c-3.57-2.75-7.22-5.45-10.63-8.39A.27.27,0,0,1,321.19,305.33Z" style="fill:#263238"></path><path d="M361.14,308a20.43,20.43,0,0,1-3.13-.24,25.4,25.4,0,0,1-2.73-.7c-1.69-.49-3.74-1.08-5-2.41a17.75,17.75,0,0,1-2.82-4.86,19.51,19.51,0,0,1-1.66-5.79.07.07,0,0,0-.14,0,29.75,29.75,0,0,0,1,6.14,19.39,19.39,0,0,0,1.14,2.9,10.57,10.57,0,0,0,1.63,2.59,10.34,10.34,0,0,0,5.49,2.57,17.11,17.11,0,0,0,6.18,0C361.32,308.18,361.27,308,361.14,308Z" style="fill:#263238"></path><path d="M290.28,347.47a2.68,2.68,0,0,1,2.24-2.12,22.54,22.54,0,0,1,3.94-.08c3,0,6.08.06,9.12.07,12,0,24-.31,35.81-2.67a83.77,83.77,0,0,0,16.75-5.05c4.56-2,9.13-4.69,12-8.9,3.28-4.83,3.53-11.16,3.42-16.82a64.43,64.43,0,0,0-2.93-18c-.47-1.48-1-2.94-1.58-4.38,0-.09.1-.16.14-.07a62.38,62.38,0,0,1,4.75,17.37,59.88,59.88,0,0,1,.4,8.88,34.32,34.32,0,0,1-1.12,8.62c-3.1,10.59-15,15-24.57,17.65-11.55,3.24-23.59,4.14-35.54,4.32-6,.09-12,0-18-.08-1.15,0-3-.34-3.72.86a6.53,6.53,0,0,0-.54,2.18c-.13.85-.22,1.7-.29,2.55a72.91,72.91,0,0,0,.13,9.58q.57,9.72,1.35,19.44c.51,6.5,1.24,13,1.71,19.51.12,1.59.27,3.19.43,4.78a.17.17,0,0,1-.33,0c-1.66-12.86-2.86-25.78-3.7-38.73-.21-3.2-.45-6.4-.53-9.61A34.3,34.3,0,0,1,290.28,347.47Z" style="fill:#263238"></path><path d="M319.49,349.85A100.15,100.15,0,0,0,331.6,349c3.79-.48,7.56-1,11.32-1.63,6.54-1.12,13.23-2.35,19.4-4.84a33.89,33.89,0,0,0,9.35-5.42c.07-.06.18.05.1.12-4.67,4.53-10.59,7.19-16.82,8.89a136.21,136.21,0,0,1-21.78,3.82,117.93,117.93,0,0,1-13.69.4A.23.23,0,0,1,319.49,349.85Z" style="fill:#263238"></path><path d="M334.29,239.11c-5.29,14.34-17,32-23.45,35.87-6,3.62-18,.66-28.13-3.32-4.54-1.77,3.77-24.55,9.47-23.47,3.55.67,13,5.46,14.11,4.59,5.55-4.26,7.51-7.28,18.82-16.83C330.85,231.1,337.67,229.94,334.29,239.11Z" style="fill: rgb(235, 148, 129);"></path><path d="M286.89,253.49s-15.47-2-16.26-1.86-.59,1.3-.47,2.19a8.13,8.13,0,0,0,.7,1.46c1.21,2.27,3.27,6.31.18,7.31-4.06,1.31-8.68-7.77-9.18-9.3a4.89,4.89,0,0,1,.07-2.13c.5-2.53,2.16-6.23,5.1-7.25,4-1.39,8.71-.93,12.78-.82Z" style="fill: rgb(235, 148, 129);"></path><path d="M286.89,253.49s-15.47-2-16.26-1.86-.59,1.3-.47,2.19a8.13,8.13,0,0,0,.7,1.46c-3.18-1.45-6.7-3.07-8.93-4.12.5-2.53,2.16-6.23,5.1-7.25,4-1.39,8.71-.93,12.78-.82Z" style="fill:#263238"></path><path d="M287.5,273.44c-.81-.41-4.59-1.66-10.24-3.47-1.61-4.29-5.8-12.47-6.91-14.64-.81-2.62-4.05-7.77-4.28-7.64-.45.23-2,1-4.05,1.88-2.65,1.1-6,2.24-8.46,2.14a3.07,3.07,0,0,1-2.87-1.46c-.92-1.77,2.87-3.93,7.14-6.89,5.81-4,13.16-8.67,16.83-7.68,5.43,1.46,10.91,7.93,12.76,9.67s10.05,5.33,10.05,5.33C295.34,260,288.6,274,287.5,273.44Z" style="fill: rgb(235, 148, 129);"></path><path d="M277.26,270c-1.93-.61-3.66-1.14-4.84-1.46a14.48,14.48,0,0,1-8.75-6.17c-1.9-2.66-11.39-5.34-6.87-8.29s12.88,3.82,13.65,2.6a1.79,1.79,0,0,0-.1-1.32C271.46,257.5,275.65,265.68,277.26,270Z" style="fill: rgb(235, 148, 129);"></path><path d="M269.7,253.7c-.06-.1-.13,0-.07.09.16.42.87,2.3.46,2.52-.71.37-5.08-1.85-7.07-2.47-.11,0-.16.12-.06.14a31.27,31.27,0,0,1,2.94,1.32c.92.43,3.62,1.94,4.52,1.47C271,256.46,270,254.12,269.7,253.7Z" style="fill:#263238"></path><path d="M311.66,247.37l13.58,18.42s11-22.63,12.37-30.2c1.53-8.52-3.17-7.44-10-2.8S311.66,247.37,311.66,247.37Z" style="fill:#FFC107"></path><g style="opacity:0.1"><path d="M337.87,232l-2.14-2.76a2.36,2.36,0,0,1,.54.12l1.48,1.91A5.06,5.06,0,0,1,337.87,232Z"></path><path d="M337.47,236.27c0,.15-.07.3-.1.45l-5.13-6.62.33-.16Z"></path><path d="M336.33,240.16c-.05.13-.1.26-.14.4l-6.87-8.86c.11-.07.21-.14.31-.19Z"></path><path d="M335,243.79c-.05.13-.09.26-.15.38l-8.24-10.63a2.64,2.64,0,0,1,.29-.21Z"></path><path d="M333.58,247.33c-.06.13-.11.25-.16.38L324,235.57a2.76,2.76,0,0,1,.27-.23Z"></path><path d="M332.11,250.8l-.16.37L321.53,237.7l.26-.23Z"></path><path d="M330.62,254.23c-.06.12-.12.24-.17.36l-11.36-14.66.26-.25Z"></path><path d="M329.08,257.6l-.16.37-12.2-15.76A3,3,0,0,1,317,242Z"></path><path d="M327.53,261l-.17.36-13-16.78.25-.25Z"></path><path d="M326,264.3l-.17.35-13.72-17.72.25-.26Z"></path></g><path d="M315.46,245.56c2.05,2.11,7.3,9.31,8.18,10.49.46.62,2.2,3.19,2.67,3.8.06.08-.07.16-.13.08-.9-1.17-1.91-2.26-2.81-3.44s-6.51-8.3-8-10.86C315.34,245.58,315.42,245.52,315.46,245.56Z" style="fill:#263238"></path><path d="M337.6,235.58c-1.35,7.57-12.36,30.2-12.36,30.2l-7-9.49,16.33-27C337.21,228.83,338.51,230.5,337.6,235.58Z" style="opacity:0.1"></path><path d="M380.06,303.24l-60.75,1.45s-2.42-43.2,10.36-73.92c.87-2.09,10.28-5.27,15-1.81C365.13,244.11,380.15,304,380.06,303.24Z" style="fill:#FFC107"></path><path d="M345.34,229.51l-15,.45a4.86,4.86,0,0,1,.53-.38l14-.41A4.7,4.7,0,0,1,345.34,229.51Zm3.12,2.84-19.66.58-.13.36,20.11-.6Zm2.8,3.19-23.67.71-.12.36,24.07-.72Zm2.42,3.22-27.17.8c0,.12-.08.24-.11.36l27.52-.82Zm2.15,3.22-30.31.9-.09.35,30.61-.91Zm1.94,3.22-33.13,1a3.58,3.58,0,0,1-.09.35l33.42-1C357.91,245.43,357.84,245.32,357.77,245.2Zm1.8,3.23-35.71,1.07a3.59,3.59,0,0,0-.08.35l36-1.07A3.9,3.9,0,0,0,359.57,248.43Zm1.69,3.24-38.11,1.13c0,.12,0,.24-.07.35L361.44,252Zm1.58,3.23-40.33,1.2c0,.12,0,.23-.07.35l40.57-1.2Zm1.5,3.24-42.4,1.26-.06.35,42.62-1.26A3.73,3.73,0,0,0,364.34,258.14Zm1.43,3.24-44.34,1.32c0,.12,0,.24-.05.36l44.55-1.33C365.88,261.61,365.83,261.5,365.77,261.38Zm1.37,3.24L321,266c0,.12,0,.23-.05.35L367.28,265A3.65,3.65,0,0,0,367.14,264.62Zm1.31,3.25-47.86,1.42c0,.12,0,.24,0,.36l48-1.43Zm1.26,3.24-49.46,1.47c0,.12,0,.24,0,.36l49.63-1.48C369.8,271.34,369.75,271.23,369.71,271.11Zm1.21,3.25-51,1.52,0,.36,51.13-1.53C371,274.6,371,274.48,370.92,274.36Zm1.17,3.25-52.38,1.56,0,.36L372.21,278Zm1.12,3.25-53.71,1.6c0,.12,0,.24,0,.36l53.85-1.61A2.91,2.91,0,0,0,373.21,280.86Zm1.1,3.25-55,1.63c0,.12,0,.24,0,.36l55.1-1.64C374.38,284.34,374.35,284.23,374.31,284.11Zm1.05,3.25L319.23,289c0,.12,0,.24,0,.36l56.25-1.68C375.44,287.59,375.4,287.48,375.36,287.36Zm1,3.25-57.23,1.7v.36L376.5,291C376.46,290.85,376.42,290.73,376.39,290.61Zm1,3.25-58.24,1.74V296l58.36-1.74Zm1,3.26-59.19,1.76v.36l59.29-1.76C378.41,297.37,378.37,297.25,378.34,297.12Zm.92,3.25-60.05,1.79c0,.13,0,.25,0,.36l60.14-1.79C379.33,300.61,379.29,300.49,379.26,300.37Z" style="opacity:0.1"></path><path d="M332.6,238.84c3,.38,8.71-3.73,10.34-8.13.11-.31-.76-3.19-1.64-6.74-.53-2.15-1.06-4.57-1.39-6.81-.07-.45-13.53,5.49-13.53,5.49A35.91,35.91,0,0,1,329,231a5.94,5.94,0,0,1,0,.93v.16C329,233.91,329.39,238.44,332.6,238.84Z" style="fill: rgb(235, 148, 129);"></path><path d="M329,232a.81.81,0,0,1,0,.16,9.7,9.7,0,0,0,1.45-.14c8.23-1.4,8.89-12.06,8.92-14.75-2.44.73-13,5.41-13,5.41A35.89,35.89,0,0,1,329,231,4.21,4.21,0,0,1,329,232Z" style="fill:#263238"></path><path d="M339.94,199.36c2.1,4.82,1.13,19.56-2.06,23.19-4.61,5.26-13,6.68-17.67.94-4.54-5.56-2.93-24.75.7-28.13C326.26,190.38,336.83,192.24,339.94,199.36Z" style="fill: rgb(235, 148, 129);"></path><path d="M326.85,209.63s.08.05.07.09c-.09,1,0,2.14.85,2.52,0,0,0,.07,0,.06C326.67,212.08,326.61,210.55,326.85,209.63Z" style="fill:#263238"></path><path d="M327.8,208.64c1.61,0,1.54,3.19.05,3.21S326.46,208.66,327.8,208.64Z" style="fill:#263238"></path><path d="M321.09,209.66s-.08.05-.08.09c0,1-.15,2.13-1.05,2.44,0,0,0,.06,0,.06C321.07,212.12,321.26,210.6,321.09,209.66Z" style="fill:#263238"></path><path d="M320.23,208.6c-1.6-.15-1.8,3.05-.32,3.2S321.56,208.73,320.23,208.6Z" style="fill:#263238"></path><path d="M329.1,207.2c-.43-.12-.81-.3-1.23-.46a2.14,2.14,0,0,1-1.17-.72.69.69,0,0,1,.13-.82,1.69,1.69,0,0,1,1.7-.13,2.47,2.47,0,0,1,1.4,1.1A.72.72,0,0,1,329.1,207.2Z" style="fill:#263238"></path><path d="M319,207c.45-.06.85-.2,1.28-.3a2.18,2.18,0,0,0,1.25-.56.68.68,0,0,0,0-.83,1.68,1.68,0,0,0-1.67-.36,2.48,2.48,0,0,0-1.53.92A.73.73,0,0,0,319,207Z" style="fill:#263238"></path><path d="M327.57,218.88c-.24.23-.49.54-.85.56a2.45,2.45,0,0,1-1.06-.27s-.07,0-.05.05a1.34,1.34,0,0,0,1.25.57,1,1,0,0,0,.8-.86C327.68,218.87,327.6,218.85,327.57,218.88Z" style="fill:#263238"></path><path d="M326.59,215.88a3.39,3.39,0,0,1-2.29,1.45,3.84,3.84,0,0,1-1.22,0l-.24,0-.21,0a.24.24,0,0,1-.2-.22h0a.31.31,0,0,1,0-.1h0v-.09c0-.76.09-1.93.09-1.93-.28.14-1.72.75-1.69.35a50.7,50.7,0,0,1,1.54-10.22.09.09,0,0,1,.18,0c-.13,3.19-.83,6.33-1,9.53a5.94,5.94,0,0,1,1.61-.45c.1,0-.24,2.25-.21,2.59a.16.16,0,0,0,0,0,4.74,4.74,0,0,0,3.53-1C326.57,215.73,326.65,215.8,326.59,215.88Z" style="fill:#263238"></path><path d="M323.54,217a3.94,3.94,0,0,0,1.58,1.28,1.83,1.83,0,0,0,1.09.09c.8-.19.84-.92.71-1.55a4.46,4.46,0,0,0-.34-1A5.21,5.21,0,0,1,323.54,217Z" style="fill:#263238"></path><path d="M325.12,218.27a1.83,1.83,0,0,0,1.09.09c.8-.19.84-.92.71-1.55A1.86,1.86,0,0,0,325.12,218.27Z" style="fill:#ff99ba"></path><path d="M318.68,200.19c.58-1.25,1.23-2.51,2-2.74s1.23,1.63,3,1.78c2.33.2,3.5-1.92,6.77-2.08,4.69-.23,6.68,3.73,6.65,10.38,0,5.95,3.56,6.58,3.56,6.58s2.45-13.05-1.16-17.47-12-6.5-17.81-2.48C319.54,195.63,318.68,200.19,318.68,200.19Z" style="fill:#263238"></path><path d="M337.66,211.71s2.83-5,5.06-4,.42,8-2,9.15a2.55,2.55,0,0,1-3.53-1Z" style="fill: rgb(235, 148, 129);"></path><path d="M342.15,209.68s.06,0,0,.07c-1.68.87-2.44,2.58-2.93,4.32a1.4,1.4,0,0,1,2.06-.58c.05,0,0,.1,0,.1a1.55,1.55,0,0,0-1.66.7,7.3,7.3,0,0,0-.69,1.47c-.07.16-.36.11-.32-.08v0C338.35,213.42,339.78,210.13,342.15,209.68Z" style="fill:#263238"></path><path d="M345.38,248.94c-6.66,13.29-19.66,41.29-29.95,45.22-13.5,5.15-40.26-3.71-47.43-5.79-3.13-.91,1.69-22.05,4.83-23.56s32.62,5.24,35.2,4.88,18.43-18.64,27.57-27.34C347.13,231.38,351,237.69,345.38,248.94Z" style="fill: rgb(235, 148, 129);"></path><path d="M269.33,265.86c1.65-.13,1.59-1-.87-2.64s-13.57-6-11.71-9.76,17.44,2.66,21.33,5.69,9.11,9.3,9.11,9.3C283.9,267.82,275.79,267,269.33,265.86Z" style="fill: rgb(235, 148, 129);"></path><path d="M279.87,292c-9.19-2.14-20.76-4.23-28.47-11.57a5.28,5.28,0,0,1-1.66-3c-3.51-3.23-3-5.85-3-5.85-2.36-4-1.51-6.63-1.51-6.63s-4.08-3.83-2.18-6.69c2.13-3.2,7.45,2.8,12.4,4.32,11.33,3.47,28.41,5.24,31.78,5.91Z" style="fill: rgb(235, 148, 129);"></path><path d="M264.73,274.52a75,75,0,0,1-9.75-3.6,76.47,76.47,0,0,1-9.66-6,.09.09,0,1,0-.11.14,40.34,40.34,0,0,0,19.47,9.65C264.84,274.71,264.89,274.58,264.73,274.52Z" style="fill:#263238"></path><path d="M263.62,281.67c-3.16-1.24-8.71-3.45-16.85-10.22,0,0-.07,0-.05,0a36.19,36.19,0,0,0,16.84,10.33C263.77,281.88,263.83,281.75,263.62,281.67Z" style="fill:#263238"></path><path d="M263,285.5c-5.3-2.31-8.36-4.44-13.18-8.12a0,0,0,0,0-.05.05c5.05,4.75,7.42,5.91,13.18,8.26C263.1,285.77,263.17,285.59,263,285.5Z" style="fill:#263238"></path><path d="M322.54,253.84,336,272.11s10.91-22.47,12.25-30c1.52-8.45-3.14-7.38-9.88-2.77S322.54,253.84,322.54,253.84Z" style="fill:#FFC107"></path><path d="M348.46,238l-1.65-2.1a1.94,1.94,0,0,1,.73.37h0l.59.76A3.16,3.16,0,0,1,348.46,238Zm-5-1.57-.34.14,5,6.31c0-.16.07-.31.1-.45Zm-3,1.54-.31.19,6.76,8.58c0-.14.09-.28.13-.41Zm-2.75,1.81-.29.21,8.16,10.36.15-.38Zm-2.6,2a3.11,3.11,0,0,0-.28.23l9.34,11.87c.05-.13.1-.26.16-.38Zm-2.51,2.13-.26.23,10.37,13.18c.06-.12.11-.25.16-.37Zm-2.43,2.22a2.84,2.84,0,0,0-.26.24l11.31,14.36c.06-.12.11-.25.16-.37Zm-2.38,2.27-.26.25,12.17,15.45.17-.36Zm-2.35,2.33-.25.26,13,16.46c0-.12.11-.24.17-.36Zm-2.3,2.37-.24.27,13.69,17.4c.06-.11.11-.23.17-.36Z" style="opacity:0.1"></path><path d="M326.32,252c2,2.1,7.24,9.23,8.11,10.4.46.62,2.19,3.17,2.66,3.78.06.08-.08.15-.13.08-.89-1.17-1.9-2.25-2.8-3.42s-6.46-8.23-7.93-10.77C326.19,252.06,326.27,252,326.32,252Z" style="fill:#263238"></path><path d="M345.07,251.64c0-.09.17,0,.14.07q-1.06,3-2.25,6a17.91,17.91,0,0,0,1.66-2.89s.08,0,.07,0a15.16,15.16,0,0,1-1.92,3.33c-.56,1.37-1.12,2.74-1.7,4.1-1.48,3.46-2.92,6.95-4.59,10.33a.27.27,0,0,1-.45,0c-.45-.65-.88-1.31-1.28-2,0-.07.05-.16.11-.09.46.47.88,1,1.3,1.46,1.34-3.38,2.85-6.69,4.28-10S343.44,255,345.07,251.64Z" style="fill:#263238"></path><path d="M329.14,246.67c.75-.93,1.51-1.86,2.3-2.77,0,0,0,0,0,0-.52.7-1.07,1.39-1.62,2.08,1.3-1.18,2.62-2.34,4-3.44,0,0,.05,0,0,0-1.81,1.95-3.73,3.8-5.59,5.71s-3.67,3.71-5.53,5.55c.24.46.49.92.75,1.37a.08.08,0,0,1-.13.08c-.36-.44-.72-.88-1.1-1.31a.26.26,0,0,1,0-.36C324.43,251.25,326.74,248.9,329.14,246.67Z" style="fill:#263238"></path><path d="M262.44,264.36c1.22.27,2.45.53,3.68.75a19.36,19.36,0,0,0,3.69.44c.76.07.37-.67,0-1.05a8,8,0,0,0-1.47-1.09,35.55,35.55,0,0,0-3.29-1.74,33.88,33.88,0,0,1-6.53-3.84,8.91,8.91,0,0,1-1.4-1.35,3.76,3.76,0,0,1-.91-1.85,2.31,2.31,0,0,1,.13-1.1,1.89,1.89,0,0,1,.64-.94,3.66,3.66,0,0,1,2-.68,13.7,13.7,0,0,1,3.85.41c1.24.29,2.45.65,3.65,1.05,2.39.82,4.72,1.78,7,2.8q1.72.78,3.42,1.59a16.62,16.62,0,0,1,3.07,2.39c1.85,1.73,3.59,3.52,5.32,5.36l-.26-.15,10.93,2.07c3.65.63,7.3,1.37,10.95,1.85a4.25,4.25,0,0,0,1.2.05,6.78,6.78,0,0,0,1.09-.74c.71-.56,1.41-1.17,2.1-1.78,1.38-1.23,2.73-2.5,4.09-3.76,2.7-2.54,5.35-5.14,8-7.73-2.52,2.73-5.1,5.39-7.72,8-1.3,1.32-2.63,2.62-4,3.88-.69.63-1.37,1.26-2.1,1.86a7.58,7.58,0,0,1-1.21.84,4.05,4.05,0,0,1-1.54,0c-3.72-.42-7.37-1.05-11-1.69l-11-2-.14,0-.11-.12c-1.72-1.8-3.48-3.58-5.31-5.27a16,16,0,0,0-2.82-2.24c-1.11-.55-2.24-1.09-3.38-1.6-2.27-1-4.56-2-6.91-2.82-1.17-.4-2.36-.76-3.56-1.05a13,13,0,0,0-3.59-.42,2.86,2.86,0,0,0-1.53.47,1.06,1.06,0,0,0-.41.58,1.55,1.55,0,0,0-.1.74,5.11,5.11,0,0,0,2,2.76,33.62,33.62,0,0,0,6.32,3.89,29.56,29.56,0,0,1,3.29,1.86,8.2,8.2,0,0,1,1.5,1.21,1.82,1.82,0,0,1,.51.89.58.58,0,0,1-.19.58,1.16,1.16,0,0,1-.54.12,20.22,20.22,0,0,1-3.74-.57C264.86,265,263.65,264.69,262.44,264.36Z" style="fill:#263238"></path></g><g id="freepik--character-1--inject-86"><path d="M140.23,108.43c6.2,9.49.9,19.15,2.72,25.75,1.12,4,6.93,9.66,7.15,14,.36,7.14-5.82,7.87-5.61,11.75.29,5.5,7.09,7.06,5.92,15.58s-12.69,14.6-34.71,10.75S84.23,171.18,85.48,164s9-7.4,11-12.43c1.27-3.22-2.44-6.8-.9-12.95s8.06-6.41,10.42-11.33,3.27-18.28,12.73-22.49S137.17,103.75,140.23,108.43Z" style="fill:#263238"></path><path d="M139.22,108.34a18.36,18.36,0,0,1,3.65,7.92,40.64,40.64,0,0,1,.61,9.28,24.09,24.09,0,0,0,.19,5.5,13.69,13.69,0,0,0,1.84,4.37c1.7,2.76,4,5.14,5.38,8.09,1.32,2.79,2,6.21.32,9-.91,1.52-2.38,2.55-3.5,3.89s-1.85,3-1,4.58c.76,1.34,2.17,2.27,3.14,3.46a14.16,14.16,0,0,1,2.23,3.93,10.88,10.88,0,0,1-.42,8.78c-3.19,6.27-10.51,8.23-17,8.94l-2.7.27c-.14,0-.19-.2-.05-.22,6.52-.9,14.1-2,18.19-7.79a10.13,10.13,0,0,0,1.5-8.85,12.88,12.88,0,0,0-2.11-4.1c-.92-1.19-2.1-2.11-3.05-3.27a4.08,4.08,0,0,1-.79-4,10.08,10.08,0,0,1,2.82-3.78,8.16,8.16,0,0,0,2.66-4.07,9,9,0,0,0-.46-4.76c-1.06-3.07-3.23-5.51-5.06-8.13a15,15,0,0,1-3.1-8.69c0-1.65.18-3.3.24-4.94a41.35,41.35,0,0,0,0-4.59,21,21,0,0,0-2.35-8.75,11.91,11.91,0,0,0-1.34-2C139.06,108.36,139.17,108.27,139.22,108.34Z" style="fill:#263238"></path><path d="M86,158.67A8.27,8.27,0,0,1,88.39,156c1-.72,2.14-1.25,3.22-1.88a6.37,6.37,0,0,0,2.58-2.38,6,6,0,0,0,.18-4.11,29.68,29.68,0,0,1-.83-4.28,13.85,13.85,0,0,1,4.8-11.52c1.07-1,2.22-1.87,3.3-2.85a17.72,17.72,0,0,0,3.1-3.59c1.89-2.93,3.09-6.26,4.82-9.29a53.48,53.48,0,0,1,6.28-8.67c.06-.06.15,0,.09.11a45.62,45.62,0,0,0-5.57,7.86c-1.51,2.65-2.62,5.49-4,8.22a22.6,22.6,0,0,1-2.29,3.85,23.65,23.65,0,0,1-2.89,3c-2.13,1.93-4.29,3.81-5.5,6.49a13.64,13.64,0,0,0-1,8.38c.51,2.45,1.4,5.24-.3,7.44-1.44,1.86-3.82,2.54-5.65,3.9A8.75,8.75,0,0,0,85.41,163C84.82,169.33,90,174,95.47,176a.14.14,0,0,1-.09.27c-4.86-1.48-9.54-5.16-10.49-10.39A10.7,10.7,0,0,1,86,158.67Z" style="fill:#263238"></path><path d="M207.78,421.93c-2.05.62-60-1.14-62.17-2.61-.84-.55-3.83-54.52-3.83-54.52l37.56.95,2.59,35.36s21.88,10.6,24.09,12.47S209.82,421.32,207.78,421.93Z" style="fill: rgb(247, 169, 160);"></path><path d="M145.61,419.32c2.15,1.47,60.12,3.23,62.16,2.61s.44-6.5-1.75-8.35c-1.25-1.05-8.71-4.86-15-8,4.23,2.23,13,9.87-13.45,5.46-17.87-3-28.62-5.54-33.49-6.9C144.13,412.45,144.89,418.85,145.61,419.32Z" style="fill:#263238"></path><path d="M180.71,387.28l-38.43,1.89s-7.38-4.81-9.06-13.53c-4.94-25.49,3.3-73,3.05-74.3-.42-2.18-29-107.32-29-107.32H144s30.57,93.56,32.7,102.63c2.89,12.35,4.51,52.06,8.4,75.05A18.28,18.28,0,0,1,180.71,387.28Z" style="fill:#37474f"></path><path d="M136.25,301.27c-.84-3.75-29-107.25-29-107.25h18.06Z" style="fill:#263238"></path><path d="M112.42,428.25c-2.13.08-57.77-16.28-59.49-18.25-.66-.74,1.25-9,3.85-18.88a2.81,2.81,0,0,1,.08-.31c.53-2,11.85-35.59,11.85-35.59l35.57,10.37L92.87,401l-.19.6s18.49,15.79,20.15,18.15S114.56,428.17,112.42,428.25Z" style="fill: rgb(247, 169, 160);"></path><path d="M55.51,396c-1.91,7.59-3.13,13.34-2.57,14,1.72,2,57.35,18.33,59.48,18.25s2.06-6.17.41-8.53c-1-1.43-8.27-7.86-13.8-12.67,3.69,3.48,8.75,11.51-14.86,1.88C69.6,403,60.55,398.65,55.51,396Z" style="fill:#263238"></path><path d="M142.1,194s-.95,29.91-6.55,36.08c0,0-9.31,60-11.34,76.62s-9.48,51.56-17,70.46c-3.22,8.13-10.77,12.64-10.77,12.64L60,381.31s-6.23-14.42-2.9-22.05c9.19-21,28.72-55.54,28.86-56.68,1.13-8.78,7.16-69,6.65-70.52-5.19-15.48,3.26-38,3.26-38Z" style="fill:#37474f"></path><path d="M144.36,225a53.5,53.5,0,0,1-9.5,4.63,95,95,0,0,1-9.93,3.49.1.1,0,0,0,0,.19c3.29-.92,6.63-1.57,9.85-2.69-.27,1.09-.42,2.24-.6,3.34-.24,1.42-.46,2.84-.68,4.26-.43,2.86-.8,5.72-1.18,8.58-.78,5.72-1.6,11.43-2.36,17.15-.43,3.18-.83,6.37-1.12,9.57,0,.14.22.16.24,0,1.13-5.65,1.9-11.36,2.73-17.06s1.77-11.39,2.55-17.1c.23-1.64.44-3.27.64-4.91a36.71,36.71,0,0,0,.4-4.06l.06,0a30.89,30.89,0,0,0,9-5.2C144.65,225.09,144.49,224.89,144.36,225Z" style="fill:#263238"></path><path d="M138.6,199.39c0-.13-.27-.14-.25,0a130.41,130.41,0,0,1,.57,13.23c0,2-.57,13.42-4.16,12.93-.61-.08-1-.63-1.14-1.51a14.13,14.13,0,0,1,.15-3.49c.17-2.38.26-4.77.24-7.16a65,65,0,0,0-1.39-13.26.12.12,0,0,0-.23,0A121.87,121.87,0,0,1,133,218.6c-.17,3-1.22,7.49,1.87,7.65s4.47-7.38,4.66-9.43A67.46,67.46,0,0,0,138.6,199.39Z" style="fill:#263238"></path><path d="M134.88,225.85a20,20,0,0,0-.58,2.4,5.35,5.35,0,0,0-.14,1.95c0,.12.19.12.24,0a6.93,6.93,0,0,0,.65-1.94c.2-.75.41-1.49.59-2.24A.39.39,0,0,0,134.88,225.85Z" style="fill:#263238"></path><path d="M133.61,146.3c9.5,11.12,19.94,27.08,30.16,40.6,4.46,5.91,16.6,16.66,18.55,19.09,3.37,4.22-21.48,18.15-22.82,14.69-.84-2.17-8.14-10.79-13.48-21.13-6.86-13.29-16.05-35-18.82-48.26C124.73,139.44,129.93,142,133.61,146.3Z" style="fill: rgb(247, 169, 160);"></path><path d="M179.48,203.32c13.63,11.54,12.78,27.6,12.52,30.39-.21,2.38-.35,3.61-.35,3.61-.3,4.27-2.31,5.82-2.31,5.82s1.11,6.09-1.82,7.27c-3.29,1.33-4.21-7.07-7.18-10.79-6.8-8.55-18.87-18.79-21.07-21.06Z" style="fill: rgb(247, 169, 160);"></path><path d="M179.5,225.65a69,69,0,0,1,5.54,7.82,70.15,70.15,0,0,1,4.19,9.62.09.09,0,0,0,.17-.05,37.37,37.37,0,0,0-9.68-17.57C179.61,225.36,179.41,225.52,179.5,225.65Z" style="fill:#263238"></path><path d="M184.06,220.79c1.77,2.59,4.83,7.17,7.49,16.55,0,0,.07,0,.06,0a33.4,33.4,0,0,0-7.28-16.72C184.21,220.47,184,220.62,184.06,220.79Z" style="fill:#263238"></path><path d="M171.49,229.84c-1.33-.76-1.73-.07-.72,2.45s7.19,11.64,3.83,13.53-11.88-11.11-13.26-15.44a72.31,72.31,0,0,1-2.07-11.82C161.43,220.76,167.19,225.58,171.49,229.84Z" style="fill: rgb(247, 169, 160);"></path><path d="M151.78,167l-18.71,8s-5.65-14.76-7.41-24.16,1.21-13.23,10.65-2.9A201.81,201.81,0,0,1,151.78,167Z" style="fill:#FFC107"></path><path d="M151.78,167l-18.71,8s-5.65-14.76-7.41-24.16,1.21-13.23,10.65-2.9A201.81,201.81,0,0,1,151.78,167Z" style="fill:#FFC107"></path><path d="M130.57,146.76a.85.85,0,1,1-.85-.85A.85.85,0,0,1,130.57,146.76Zm-4.43-4.25a.3.3,0,0,0,.13,0,.84.84,0,0,0,.82-.66A1.92,1.92,0,0,0,126.14,142.51Zm3.58,13.61a.85.85,0,1,0,.85.85A.85.85,0,0,0,129.72,156.12Zm6.9,0a.85.85,0,1,0,.85.85A.85.85,0,0,0,136.62,156.12Zm7.7,1.12a.84.84,0,0,1-.8.58.85.85,0,0,1-.1-1.69Zm-18-6.19a.82.82,0,0,0-.53.19c.09.47.19,1,.3,1.46a.59.59,0,0,0,.23,0,.85.85,0,1,0,0-1.69Zm6.9,0a.85.85,0,1,0,.85.84A.85.85,0,0,0,133.17,151.05Zm6.22.34a.8.8,0,0,0-.17.5.85.85,0,0,0,.85.85.8.8,0,0,0,.4-.11Zm-9.38,15c.15.43.29.84.42,1.25a.81.81,0,0,0,.14-.46A.82.82,0,0,0,130,166.4Zm6.61-.06a.85.85,0,1,0,.85.85A.85.85,0,0,0,136.62,166.34Zm6.9,0a.85.85,0,1,0,.85.85A.85.85,0,0,0,143.52,166.34Zm6.9,0a.85.85,0,0,0-.85.85.86.86,0,0,0,.28.63l1.42-.61v0A.85.85,0,0,0,150.42,166.34Zm-17.25-5.08a.85.85,0,1,0,.85.85A.85.85,0,0,0,133.17,161.26Zm6.9,0a.85.85,0,1,0,.85.85A.85.85,0,0,0,140.07,161.26Zm6.9,0a.85.85,0,1,0,.85.85A.85.85,0,0,0,147,161.26Zm-13.8,10.22a.85.85,0,1,0,.85.84A.85.85,0,0,0,133.17,171.48Zm6.9,0a.85.85,0,0,0-.85.84v0h0l1.45-.62A.84.84,0,0,0,140.07,171.48Z" style="fill:#fff"></path><path d="M132.76,171.35c2.52-1.36,5.07-2.67,7.65-3.91,1.28-.61,2.54-1.24,3.83-1.82s2.7-1.13,4-1.73a.08.08,0,0,1,.08.14c-1.26.63-2.47,1.35-3.73,2s-2.62,1.27-3.93,1.9q-3.88,1.88-7.86,3.55C132.74,171.5,132.68,171.39,132.76,171.35Z" style="fill:#263238"></path><path d="M148.43,168.43,133.07,175s-5.65-14.76-7.41-24.16c-1-5.28-.48-8.81,1.82-9C132.22,147.68,143.09,161.23,148.43,168.43Z" style="fill:#263238"></path><path d="M142.36,183.44l1.76,11.09-48.29-.1S97.21,158.8,110.72,145c6.76-6.91,14.43-6.15,19.18-1,1.2,1.3,15.4,18.77,16.74,26.28C147.8,176.85,142.36,183.44,142.36,183.44Z" style="fill:#FFC107"></path><path d="M109.87,146.76a.85.85,0,0,1-.85.85.76.76,0,0,1-.44-.13c.34-.45.69-.88,1-1.3A.81.81,0,0,1,109.87,146.76Zm6-.85a.85.85,0,1,0,.85.85A.85.85,0,0,0,115.92,145.91Zm6.9,0a.85.85,0,1,0,.85.85A.85.85,0,0,0,122.82,145.91Zm6.9,0a.85.85,0,1,0,.85.85A.85.85,0,0,0,129.72,145.91Zm-10.35-5.08a.85.85,0,1,0,.85.85A.85.85,0,0,0,119.37,140.83Zm6.45.13a.84.84,0,0,0-.4.72.85.85,0,1,0,1.7,0v0A10.78,10.78,0,0,0,125.82,141ZM109,156.12a.85.85,0,1,0,.85.85A.85.85,0,0,0,109,156.12Zm6.9,0a.85.85,0,1,0,.85.85A.85.85,0,0,0,115.92,156.12Zm6.9,0a.85.85,0,1,0,.85.85A.85.85,0,0,0,122.82,156.12Zm6.9,0a.85.85,0,1,0,.85.85A.85.85,0,0,0,129.72,156.12Zm6.9,0a.85.85,0,1,0,.85.85A.85.85,0,0,0,136.62,156.12Zm-30.52-4.88c-.27.47-.53,1-.79,1.45a.58.58,0,0,0,.26.05.85.85,0,0,0,.85-.85A.81.81,0,0,0,106.1,151.24Zm6.37-.19a.85.85,0,1,0,.85.84A.85.85,0,0,0,112.47,151.05Zm6.9,0a.85.85,0,1,0,.85.84A.85.85,0,0,0,119.37,151.05Zm6.9,0a.85.85,0,1,0,.85.84A.85.85,0,0,0,126.27,151.05Zm6.9,0a.85.85,0,1,0,.85.84A.85.85,0,0,0,133.17,151.05Zm-31,15.29a.85.85,0,1,0,.85.85A.85.85,0,0,0,102.12,166.34Zm6.9,0a.85.85,0,1,0,.85.85A.85.85,0,0,0,109,166.34Zm6.9,0a.85.85,0,1,0,.85.85A.85.85,0,0,0,115.92,166.34Zm6.9,0a.85.85,0,1,0,.85.85A.85.85,0,0,0,122.82,166.34Zm6.9,0a.85.85,0,1,0,.85.85A.85.85,0,0,0,129.72,166.34Zm6.9,0a.85.85,0,1,0,.85.85A.85.85,0,0,0,136.62,166.34Zm6.9,0a.85.85,0,1,0,.85.85A.85.85,0,0,0,143.52,166.34Zm-38-5.08a.85.85,0,1,0,.85.85A.85.85,0,0,0,105.57,161.26Zm6.9,0a.85.85,0,1,0,.85.85A.85.85,0,0,0,112.47,161.26Zm6.9,0a.85.85,0,1,0,.85.85A.85.85,0,0,0,119.37,161.26Zm6.9,0a.85.85,0,1,0,.85.85A.85.85,0,0,0,126.27,161.26Zm6.9,0a.85.85,0,1,0,.85.85A.85.85,0,0,0,133.17,161.26Zm6.9,0a.85.85,0,1,0,.85.85A.85.85,0,0,0,140.07,161.26Zm-37.95,15.29a.85.85,0,1,0,.85.85A.85.85,0,0,0,102.12,176.55Zm6.9,0a.85.85,0,1,0,.85.85A.85.85,0,0,0,109,176.55Zm6.9,0a.85.85,0,1,0,.85.85A.85.85,0,0,0,115.92,176.55Zm6.9,0a.85.85,0,1,0,.85.85A.85.85,0,0,0,122.82,176.55Zm6.9,0a.85.85,0,1,0,.85.85A.85.85,0,0,0,129.72,176.55Zm6.9,0a.85.85,0,1,0,.85.85A.85.85,0,0,0,136.62,176.55Zm6.9,0a.85.85,0,1,0,.85.85A.85.85,0,0,0,143.52,176.55Zm-44.62-5c-.12.55-.24,1.1-.34,1.64h.11a.85.85,0,0,0,.85-.85A.83.83,0,0,0,98.9,171.52Zm6.67,0a.85.85,0,1,0,.85.84A.85.85,0,0,0,105.57,171.48Zm6.9,0a.85.85,0,1,0,.85.84A.85.85,0,0,0,112.47,171.48Zm6.9,0a.85.85,0,1,0,.85.84A.85.85,0,0,0,119.37,171.48Zm6.9,0a.85.85,0,1,0,.85.84A.85.85,0,0,0,126.27,171.48Zm6.9,0a.85.85,0,1,0,.85.84A.85.85,0,0,0,133.17,171.48Zm6.9,0a.85.85,0,1,0,.85.84A.85.85,0,0,0,140.07,171.48Zm6.71,0a.83.83,0,0,0-.66.81.84.84,0,0,0,.64.82A11.07,11.07,0,0,0,146.78,171.51Zm-44.66,15.26a.85.85,0,1,0,.85.85A.85.85,0,0,0,102.12,186.77Zm6.9,0a.85.85,0,1,0,.85.85A.85.85,0,0,0,109,186.77Zm6.9,0a.85.85,0,1,0,.85.85A.85.85,0,0,0,115.92,186.77Zm6.9,0a.85.85,0,1,0,.85.85A.85.85,0,0,0,122.82,186.77Zm6.9,0a.85.85,0,1,0,.85.85A.85.85,0,0,0,129.72,186.77Zm6.9,0a.85.85,0,1,0,.85.85A.85.85,0,0,0,136.62,186.77Zm6.31.24a.84.84,0,0,0-.26.61.82.82,0,0,0,.47.75Zm-44.26-5.32a.85.85,0,1,0,.85.85A.85.85,0,0,0,98.67,181.69Zm6.9,0a.85.85,0,1,0,.85.85A.85.85,0,0,0,105.57,181.69Zm6.9,0a.85.85,0,1,0,.85.85A.85.85,0,0,0,112.47,181.69Zm6.9,0a.85.85,0,1,0,.85.85A.85.85,0,0,0,119.37,181.69Zm6.9,0a.85.85,0,1,0,.85.85A.85.85,0,0,0,126.27,181.69Zm6.9,0a.85.85,0,1,0,.85.85A.85.85,0,0,0,133.17,181.69Zm6.9,0a.85.85,0,1,0,.85.85A.85.85,0,0,0,140.07,181.69Zm-41.4,10.22a.85.85,0,1,0,.85.84A.85.85,0,0,0,98.67,191.91Zm6.9,0a.85.85,0,1,0,.85.84A.85.85,0,0,0,105.57,191.91Zm6.9,0a.85.85,0,1,0,.85.84A.85.85,0,0,0,112.47,191.91Zm6.9,0a.85.85,0,1,0,.85.84A.85.85,0,0,0,119.37,191.91Zm6.9,0a.85.85,0,1,0,.85.84A.85.85,0,0,0,126.27,191.91Zm6.9,0a.85.85,0,1,0,.85.84A.85.85,0,0,0,133.17,191.91Zm6.9,0a.85.85,0,1,0,.85.84A.85.85,0,0,0,140.07,191.91Z" style="fill:#fff"></path><path d="M134.25,179.9a52.05,52.05,0,0,0-7.63,1.33c-1.24.33-2.46.71-3.68,1.13q-.9.3-1.83.57a8.73,8.73,0,0,1-2,.39,0,0,0,0,0,0,.09,15.07,15.07,0,0,0,1.9,0,13.65,13.65,0,0,0,1.8-.36c1.26-.32,2.51-.7,3.77-1,2.54-.68,5.08-1.35,7.67-1.84C134.4,180.09,134.37,179.89,134.25,179.9Z" style="fill:#263238"></path><path d="M140.63,182.13a54.36,54.36,0,0,0-6.38-.25c-1.07,0-2.13.1-3.19.22-.51.05-1,.11-1.52.18s-1.1.23-1.65.29c-.06,0-.06.1,0,.1.52,0,1.06,0,1.59,0l1.59-.06c1.07,0,2.13-.05,3.19-.1,2.13-.09,4.25-.16,6.38-.18C140.75,182.3,140.74,182.14,140.63,182.13Z" style="fill:#263238"></path><path d="M118.71,141.67c.06,1,3.45,7.85,7.77,8.41,1.41.18,2.72-7.46,2.72-7.46l.23-.54,3.16-7.57-8.22-7.59-1.2-1s-.72,2.13-1.6,4.79c0,.12-.09.25-.13.38s-.11.29-.15.43c-.14.39-.27.8-.4,1.21s-.2.6-.29.93-.19.65-.29,1A54.75,54.75,0,0,0,118.71,141.67Z" style="fill: rgb(247, 169, 160);"></path><path d="M132.59,134.5l-3,7.28a17.64,17.64,0,0,1-8.24-10.34l.25-.75c.89-2.66,1.61-4.79,1.61-4.79l1.2,1Z" style="fill:#263238"></path><path d="M144.88,123.71c-.95,14.37-9.67,15.42-12.77,15.22-2.82-.19-12.37-1.2-12.91-15.6s6.45-18.49,12.91-18.4S145.83,109.33,144.88,123.71Z" style="fill: rgb(247, 169, 160);"></path><path d="M142.7,120.7c-.33-.08-.62-.21-.94-.32a1.57,1.57,0,0,1-.89-.51.51.51,0,0,1,.07-.62,1.27,1.27,0,0,1,1.28-.15,1.92,1.92,0,0,1,1.09.8A.55.55,0,0,1,142.7,120.7Z" style="fill:#263238"></path><path d="M133.45,120a8.26,8.26,0,0,0,1-.08,1.64,1.64,0,0,0,1-.28.52.52,0,0,0,.08-.62,1.26,1.26,0,0,0-1.21-.45,1.92,1.92,0,0,0-1.25.51A.55.55,0,0,0,133.45,120Z" style="fill:#263238"></path><path d="M135.11,123.09s-.08,0-.08.08c-.07,1-.31,2.09-1.22,2.33,0,0,0,.06,0,.06C134.9,125.51,135.21,124,135.11,123.09Z" style="fill:#263238"></path><path d="M134.34,122c-1.56-.28-2,2.86-.55,3.12S135.65,122.22,134.34,122Z" style="fill:#263238"></path><path d="M133.7,122.07c-.3.14-.61.42-.94.4s-.64-.38-.84-.73c0,0,0,0-.06,0-.09.6,0,1.25.69,1.42s1.07-.31,1.3-.89C133.89,122.19,133.82,122,133.7,122.07Z" style="fill:#263238"></path><path d="M140.52,123.62s.07.06.06.1c-.15,1-.16,2.1.68,2.53,0,0,0,.07,0,.06C140.19,126,140.22,124.51,140.52,123.62Z" style="fill:#263238"></path><path d="M141.51,122.71c1.59.08,1.31,3.24-.15,3.16S140.19,122.65,141.51,122.71Z" style="fill:#263238"></path><path d="M142.15,123c.24.19.46.51.76.56s.62-.27.87-.58c0,0,.05,0,.05,0,0,.6-.29,1.21-.88,1.28s-.88-.49-1-1.1C142,123.06,142.06,122.9,142.15,123Z" style="fill:#263238"></path><path d="M133.61,130.35c.19.26.36.62.71.71a2.63,2.63,0,0,0,1.08-.05,0,0,0,0,1,0,.06,1.33,1.33,0,0,1-1.32.3,1.06,1.06,0,0,1-.6-1C133.51,130.31,133.58,130.31,133.61,130.35Z" style="fill:#263238"></path><path d="M134.6,128.44a3.26,3.26,0,0,0,2.1,1.56,3.85,3.85,0,0,0,1.17.11h.23l.21,0a.23.23,0,0,0,.2-.21h0a.14.14,0,0,0,0-.09h0v-.08c.06-.74.05-1.87.05-1.87.26.15,1.6.84,1.6.45a48.89,48.89,0,0,0-.77-9.94.09.09,0,0,0-.17,0c-.1,3.08.35,6.15.31,9.24A5.57,5.57,0,0,0,138,127c-.11,0,.07,2.17,0,2.5v0a4.57,4.57,0,0,1-3.33-1.22C134.62,128.3,134.54,128.36,134.6,128.44Z" style="fill:#263238"></path><path d="M119.76,123c2.3.51,3.53-4.31,3.53-4.31s4.75.69,7.28-5.91a10.63,10.63,0,0,1-2.9,5.35s8.49.3,13-6.2c0,0-1.91,3.36-3.41,4.45a10,10,0,0,0,5.77-3.09s.89,4.25,1.86,5.52c0,0,1.73-14.68-12-15,0,0-8.57-.64-12.57,5.65S119.76,123,119.76,123Z" style="fill:#263238"></path><path d="M121.41,124.59s-2.42-4.92-4.61-4.13-.84,7.6,1.39,8.85a2.44,2.44,0,0,0,3.43-.8Z" style="fill: rgb(247, 169, 160);"></path><path d="M117.24,122.4s-.06,0,0,.07a6.1,6.1,0,0,1,2.56,4.29,1.34,1.34,0,0,0-1.93-.67s0,.1,0,.09a1.51,1.51,0,0,1,1.55.77,7.48,7.48,0,0,1,.58,1.44c0,.16.33.12.3-.06v0C120.66,126.18,119.48,123,117.24,122.4Z" style="fill:#263238"></path><path d="M119.92,128.91a.71.71,0,0,1-1.4-.2.71.71,0,0,1,.8-.6A.7.7,0,0,1,119.92,128.91Z" style="fill:#fff"></path><path d="M78.33,277.64l43.9,7.29c11.86,2,11.53-7.83,10.34-18.26s-2.89-26.23-13.49-28l-11.4-1.9-11.4-1.89C85.68,233.13,79,247.52,74.45,257S66.47,275.67,78.33,277.64Z" style="fill:#FFC107"></path><path d="M115.3,243.43a3.69,3.69,0,1,0,4.24-3A3.7,3.7,0,0,0,115.3,243.43Z" style="opacity:0.1"></path><path d="M91,239.4a3.69,3.69,0,1,0,4.24-3A3.68,3.68,0,0,0,91,239.4Z" style="opacity:0.1"></path><path d="M116.47,243.63a2.5,2.5,0,1,0,2.88-2.06A2.5,2.5,0,0,0,116.47,243.63Z" style="fill:#263238"></path><path d="M92.21,239.6a2.5,2.5,0,1,0,2.88-2.06A2.51,2.51,0,0,0,92.21,239.6Z" style="fill:#263238"></path><path d="M119.36,245.54a1.24,1.24,0,0,1-.33,0,1.5,1.5,0,0,1-1.14-1.79c2.18-9.73,6.64-36.34,1.24-42.58a3.08,3.08,0,0,0-2.75-1.12,1.5,1.5,0,1,1-.24-3,6.1,6.1,0,0,1,5.26,2.15c3.22,3.72,4.08,12.52,2.56,26.16-1.11,9.92-3.12,18.95-3.14,19A1.5,1.5,0,0,1,119.36,245.54Z" style="fill:#FFC107"></path><path d="M107.52,149.31C89.46,170.22,74,200,80.41,207.57c6.82,8,16.42,12.8,26.11,16.57,3.07,1.19,14.45-21.26,11.35-22.93-5.27-2.83-14.62-8.75-15-8.85-.89-.2,10-27.81,14-38.16C122.89,138.53,115.46,140.1,107.52,149.31Z" style="fill: rgb(247, 169, 160);"></path><path d="M147,219.91a3.92,3.92,0,0,1-3.3,3,5.83,5.83,0,0,1,.1,3.95c-.86,2.24-4.75,1.87-4.75,1.87a7.14,7.14,0,0,1-.55,4.18c-1,2.06-5,2.24-5,2.24a6.32,6.32,0,0,1-2.81,3.38c-3.58,1.86-8.9-1.27-12.3-3.22s-11.2-10.68-12.86-12.2l12.36-21.92s17.73,4.43,21.4,7.3C142.36,210.92,147.55,216.9,147,219.91Z" style="fill: rgb(247, 169, 160);"></path><path d="M143.73,222.49c-2.67-3.35-6.18-5.73-9.56-8.31-.08-.06-.16.06-.09.12,3.39,2.52,6.23,5.68,9.51,8.34C143.68,222.71,143.81,222.58,143.73,222.49Z" style="fill:#263238"></path><path d="M139.14,228.42a11.53,11.53,0,0,0-2.29-1.82c-.86-.58-1.72-1.16-2.59-1.71-1.75-1.12-3.52-2.2-5.33-3.23-.08,0-.17.07-.09.12,1.74,1.12,3.47,2.26,5.16,3.45l2.52,1.81a13.55,13.55,0,0,0,2.44,1.61A.15.15,0,0,0,139.14,228.42Z" style="fill:#263238"></path><path d="M133.4,235.12a7.63,7.63,0,0,0-2.14-1.52l-2.42-1.49c-1.6-1-3.2-2-4.77-3.07a.07.07,0,0,0-.08.12c1.58,1.08,3.15,2.19,4.75,3.26L131.1,234a7.43,7.43,0,0,0,2.26,1.23S133.43,235.16,133.4,235.12Z" style="fill:#263238"></path><path d="M91.63,165.59l18.26,9s6.43-14.43,8.69-23.72-.5-13.28-10.47-3.48A204.21,204.21,0,0,0,91.63,165.59Z" style="fill:#FFC107"></path><path d="M109.87,146.76a.85.85,0,0,1-.85.85.84.84,0,0,1-.72-.4c.41-.41.82-.79,1.2-1.15A.85.85,0,0,1,109.87,146.76Zm6-.85a.85.85,0,1,0,.85.85A.85.85,0,0,0,115.92,145.91Zm-13.8,10.21a.85.85,0,1,0,.85.85A.85.85,0,0,0,102.12,156.12Zm6.9,0a.85.85,0,1,0,.85.85A.85.85,0,0,0,109,156.12Zm6.9,0a.85.85,0,0,0,0,1.7.84.84,0,0,0,.72-.4,0,0,0,0,0,0,0c0-.11.07-.23.11-.34a.22.22,0,0,0,0-.08A.85.85,0,0,0,115.92,156.12Zm-10.35-5.07a.85.85,0,1,0,.85.84A.85.85,0,0,0,105.57,151.05Zm6.9,0a.85.85,0,1,0,.85.84A.85.85,0,0,0,112.47,151.05ZM95.22,166.34a.83.83,0,0,0-.81.62l1.49.73a.8.8,0,0,0,.17-.5A.85.85,0,0,0,95.22,166.34Zm6.9,0a.85.85,0,1,0,.85.85A.85.85,0,0,0,102.12,166.34Zm6.9,0a.85.85,0,1,0,.85.85A.85.85,0,0,0,109,166.34Zm-10.35-5.08a.85.85,0,1,0,.85.85A.85.85,0,0,0,98.67,161.26Zm6.9,0a.85.85,0,1,0,.85.85A.85.85,0,0,0,105.57,161.26Zm6.9,0a.85.85,0,1,0,.85.85A.85.85,0,0,0,112.47,161.26Zm-7.7,10.8a.83.83,0,0,1,.8-.58.85.85,0,0,1,.85.84.81.81,0,0,1-.15.48Z" style="fill:#fff"></path><path d="M110.6,170.78c-2.46-1.47-4.95-2.89-7.48-4.24-1.25-.66-2.48-1.35-3.74-2s-2.65-1.23-3.95-1.9c-.09-.05-.18.09-.08.14,1.23.69,2.41,1.46,3.64,2.15s2.56,1.39,3.84,2.07q3.8,2,7.7,3.88C110.6,170.93,110.67,170.82,110.6,170.78Z" style="fill:#263238"></path><path d="M109.12,174.21l.81.3-.11,0c.41-1.31.9-2.6,1.37-3.89s1-2.56,1.54-3.83,1.08-2.52,1.67-3.76,1.18-2.49,1.85-3.7c-.4,1.32-.86,2.62-1.33,3.91s-1,2.57-1.51,3.84-1.07,2.53-1.64,3.78-1.16,2.5-1.8,3.72l0,.08-.07,0Z" style="fill:#263238"></path><path d="M116.75,161.81a8.37,8.37,0,0,1-1.21,1.71,8.12,8.12,0,0,1-1.58,1.39,8.78,8.78,0,0,1,2.79-3.1Z" style="fill:#263238"></path><path d="M94.68,241.38a1.53,1.53,0,0,1-.3,0,1.49,1.49,0,0,1-1.17-1.76A162,162,0,0,1,99,219.08c5.13-14.15,10.91-21.58,17.15-22.06a1.5,1.5,0,1,1,.24,3c-10.16.79-18,29.26-20.23,40.17A1.5,1.5,0,0,1,94.68,241.38Z" style="fill:#FFC107"></path></g></svg>