<svg class="animated" id="freepik_stories-developer-activity" xmlns="http://www.w3.org/2000/svg" viewBox="0 0 500 500" version="1.1" xmlns:xlink="http://www.w3.org/1999/xlink" xmlns:svgjs="http://svgjs.com/svgjs"><style>svg#freepik_stories-developer-activity:not(.animated) .animable {opacity: 0;}svg#freepik_stories-developer-activity.animated #freepik--background-complete--inject-9 {animation: 1s 1 forwards cubic-bezier(.36,-0.01,.5,1.38) fadeIn;animation-delay: 0.2s;opacity: 0}svg#freepik_stories-developer-activity.animated #freepik--Windows--inject-9 {animation: 1s 1 forwards cubic-bezier(.36,-0.01,.5,1.38) fadeIn;animation-delay: 0.5s;opacity: 0}svg#freepik_stories-developer-activity.animated #freepik--Plant--inject-9 {animation: 3s Infinite  linear floating;animation-delay: 0s;}            @keyframes fadeIn {                0% {                    opacity: 0;                }                100% {                    opacity: 1;                }            }                    @keyframes floating {                0% {                    opacity: 1;                    transform: translateY(0px);                }                50% {                    transform: translateY(-10px);                }                100% {                    opacity: 1;                    transform: translateY(0px);                }            }        </style><g id="freepik--background-complete--inject-9" class="animable" style="transform-origin: 254.58px 228.698px;"><rect x="322.78" y="288.33" width="88.24" height="122.11" style="fill: rgb(235, 235, 235); transform-origin: 366.9px 349.385px;" id="ely8lxajyd2w" class="animable"></rect><rect x="318.5" y="283.8" width="96.79" height="4.53" style="fill: rgb(219, 219, 219); transform-origin: 366.895px 286.065px;" id="elqvg442cw4j" class="animable"></rect><rect x="415.29" y="283.8" width="30.44" height="4.53" style="fill: rgb(235, 235, 235); transform-origin: 430.51px 286.065px;" id="elc370ctzaiiu" class="animable"></rect><rect x="411.01" y="288.33" width="29.9" height="122.11" style="fill: rgb(219, 219, 219); transform-origin: 425.96px 349.385px;" id="elia4hhe1pun" class="animable"></rect><path d="M401.53,344.86H332.26V305.7h69.27Zm-69-.25h68.77V306H332.51Z" style="fill: rgb(199, 199, 199); transform-origin: 366.895px 325.28px;" id="el6zz53lwkbtt" class="animable"></path><rect x="357.23" y="317.15" width="13.48" height="7.75" style="fill: rgb(199, 199, 199); transform-origin: 363.97px 321.025px;" id="ela1ap40m23o" class="animable"></rect><path d="M374.82,324.44H361.09v-6.83h13.73Zm-13.48-.25h13.23v-6.33H361.34Z" style="fill: rgb(199, 199, 199); transform-origin: 367.955px 321.025px;" id="eljvxhaihz84q" class="animable"></path><path d="M401.53,394H332.26V354.86h69.27Zm-69-.25h68.77V355.11H332.51Z" style="fill: rgb(199, 199, 199); transform-origin: 366.895px 374.43px;" id="elajf1pftcy3o" class="animable"></path><rect x="357.23" y="366.31" width="13.48" height="7.75" style="fill: rgb(199, 199, 199); transform-origin: 363.97px 370.185px;" id="elzk4w225ol0f" class="animable"></rect><path d="M374.82,373.6H361.09v-6.83h13.73Zm-13.48-.25h13.23V367H361.34Z" style="fill: rgb(199, 199, 199); transform-origin: 367.955px 370.185px;" id="elcw7ebt352e5" class="animable"></path><path d="M74.39,132.33a3.21,3.21,0,0,1,3.35,0c.28.17.57.34.86.49s.59.31.89.45a3.21,3.21,0,0,1,1.87,2.77l.12,4.13,13.43-.42-.12-4.15a3.14,3.14,0,0,1,1.69-2.87c.57-.32,1.13-.66,1.67-1a3.23,3.23,0,0,1,3.36-.24l3.63,2,6.35-11.85-3.63-1.94a3.21,3.21,0,0,1-1.66-2.93,18.25,18.25,0,0,0-.07-2,3.18,3.18,0,0,1,1.46-3l3.52-2.19L104,98.14l-3.52,2.19a3.14,3.14,0,0,1-3.29,0l-.91-.52-.93-.47a3.12,3.12,0,0,1-1.82-2.75l-.13-4.13L80,92.88,80.13,97a3.15,3.15,0,0,1-1.62,2.87A17.75,17.75,0,0,0,76.69,101a3.13,3.13,0,0,1-3.28.18l-3.63-1.94-6.35,11.84,3.62,2a3.21,3.21,0,0,1,1.67,2.93c0,.66,0,1.31.06,2a3.19,3.19,0,0,1-1.46,3l-3.52,2.17,7.09,11.42Zm2.76-19.9A11,11,0,1,1,81,125.26,11,11,0,0,1,77.15,112.43Z" style="fill: rgb(235, 235, 235); transform-origin: 87.46px 116.315px;" id="el8o1ifwbn04j" class="animable"></path><path d="M122.69,84.92a2.24,2.24,0,0,1,2.08-1.1l.69,0,.7,0a2.24,2.24,0,0,1,2.07,1.09l1.44,2.51,8.15-4.71-1.44-2.5a2.26,2.26,0,0,1,.08-2.35,13.21,13.21,0,0,0,.71-1.21,2.23,2.23,0,0,1,2-1.24H142V66h-2.89a2.23,2.23,0,0,1-2-1.24,13.21,13.21,0,0,0-.71-1.21,2.26,2.26,0,0,1-.08-2.35l1.44-2.5L129.67,54l-1.45,2.52a2.24,2.24,0,0,1-2.07,1.09l-.69,0-.69,0a2.24,2.24,0,0,1-2.08-1.1L121.25,54l-8.16,4.71,1.45,2.49a2.26,2.26,0,0,1-.08,2.35,11.4,11.4,0,0,0-.71,1.22,2.24,2.24,0,0,1-2,1.24h-2.88v9.41h2.88a2.24,2.24,0,0,1,2,1.24,11.4,11.4,0,0,0,.71,1.22,2.26,2.26,0,0,1,.08,2.35l-1.45,2.49,8.16,4.71Zm-5-14.21a7.72,7.72,0,1,1,7.72,7.71A7.72,7.72,0,0,1,117.74,70.71Z" style="fill: rgb(235, 235, 235); transform-origin: 125.435px 70.715px;" id="el6pszb6z5k5x" class="animable"></path><path d="M436.57,250.56l-4.7-8.16-2.5,1.45a2.24,2.24,0,0,1-2.34-.08,12.48,12.48,0,0,0-1.22-.71,2.22,2.22,0,0,1-1.24-2v-2.88h-9.42v2.88a2.23,2.23,0,0,1-1.23,2,11.4,11.4,0,0,0-1.22.71,2.26,2.26,0,0,1-2.35.08l-2.5-1.45-4.7,8.16,2.51,1.44a2.23,2.23,0,0,1,1.09,2.08c0,.23,0,.46,0,.69s0,.46,0,.69a2.23,2.23,0,0,1-1.09,2.07L403.15,259l4.7,8.15,2.51-1.44a2.24,2.24,0,0,1,2.34.08,13.38,13.38,0,0,0,1.22.71,2.23,2.23,0,0,1,1.23,2v2.88h9.42v-2.88a2.23,2.23,0,0,1,1.23-2,13.38,13.38,0,0,0,1.22-.71,2.26,2.26,0,0,1,2.35-.08l2.5,1.44,4.7-8.15-2.5-1.44a2.23,2.23,0,0,1-1.09-2.07c0-.23,0-.47,0-.7s0-.46,0-.69a2.23,2.23,0,0,1,1.09-2.08Zm-9,4.21a7.71,7.71,0,1,1-7.71-7.71A7.71,7.71,0,0,1,427.57,254.77Z" style="fill: rgb(235, 235, 235); transform-origin: 419.86px 254.78px;" id="elvlq08b7pfpm" class="animable"></path><path d="M267.92,53a7.44,7.44,0,0,1,1.18-4.13,3.64,3.64,0,0,1,6.41,0,8,8,0,0,1,0,8.26,4,4,0,0,1-3.2,1.92,3.93,3.93,0,0,1-3.21-1.92A7.44,7.44,0,0,1,267.92,53Zm6.83,0a5.75,5.75,0,0,0-.83-3.07,2,2,0,0,0-1.61-1.06,2.09,2.09,0,0,0-1.64,1.06,5.66,5.66,0,0,0-.83,3.07,5.6,5.6,0,0,0,.83,3.06,2.08,2.08,0,0,0,1.64,1.07,2,2,0,0,0,1.61-1.07A5.69,5.69,0,0,0,274.75,53Z" style="fill: rgb(235, 235, 235); transform-origin: 272.289px 53.0028px;" id="el71wujrh5h44" class="animable"></path><path d="M283.7,47.9V58.09a1,1,0,0,1-1,.95.93.93,0,0,1-1-.95v-8.5l-.69.4a.9.9,0,0,1-.49.13.94.94,0,0,1-.81-.48.91.91,0,0,1,.31-1.29l2.13-1.27s0,0,.07,0,.05,0,.08,0l.11,0a.1.1,0,0,1,.07,0h.38a.15.15,0,0,1,.1,0h.07c.05,0,.07.06.1.06l.07,0s.06,0,.07.05,0,0,.07.07a.13.13,0,0,1,.05.07l.07.07,0,0s0,0,0,.05,0,.06,0,.09,0,.07,0,.09,0,.07,0,.08,0,.09,0,.12Z" style="fill: rgb(235, 235, 235); transform-origin: 281.63px 53.057px;" id="elkr7xomm6vw" class="animable"></path><path d="M289.49,47.9V58.09a1,1,0,0,1-1,.95.93.93,0,0,1-.95-.95v-8.5l-.69.4a.9.9,0,0,1-.49.13.93.93,0,0,1-.81-.48.91.91,0,0,1,.31-1.29L288,47.08s.05,0,.07,0,.05,0,.08,0l.11,0a.1.1,0,0,1,.07,0h.38a.15.15,0,0,1,.1,0h.07c.05,0,.07.06.1.06l.07,0,.07.05s.05,0,.07.07a.13.13,0,0,1,.05.07l.07.07,0,0s0,0,0,.05,0,.06,0,.09,0,.07,0,.09,0,.07,0,.08,0,.09,0,.12Z" style="fill: rgb(235, 235, 235); transform-origin: 287.445px 53.0558px;" id="elikl5x8okvkm" class="animable"></path><path d="M295.28,47.9V58.09a1,1,0,0,1-1,.95.93.93,0,0,1-.95-.95v-8.5l-.69.4a.9.9,0,0,1-.49.13,1,1,0,0,1-.5-1.77l2.13-1.27s.05,0,.07,0,.05,0,.08,0l.11,0s.05,0,.07,0h.38a.15.15,0,0,1,.1,0h.07c.05,0,.07.06.1.06l.07,0,.07.05s.05,0,.07.07a.21.21,0,0,1,.05.07l.07.07,0,0s0,0,0,.05,0,.06,0,.09a.47.47,0,0,1,0,.09.45.45,0,0,0,0,.08c0,.05,0,.09,0,.12Z" style="fill: rgb(235, 235, 235); transform-origin: 293.279px 53.0558px;" id="eldmq579h3u1q" class="animable"></path><path d="M297.47,53a7.44,7.44,0,0,1,1.18-4.13,3.64,3.64,0,0,1,6.41,0,7.93,7.93,0,0,1,0,8.26,4,4,0,0,1-3.2,1.92,3.93,3.93,0,0,1-3.21-1.92A7.44,7.44,0,0,1,297.47,53Zm6.83,0a5.75,5.75,0,0,0-.83-3.07,2,2,0,0,0-1.61-1.06,2.09,2.09,0,0,0-1.64,1.06,5.75,5.75,0,0,0-.83,3.07,5.69,5.69,0,0,0,.83,3.06,2.08,2.08,0,0,0,1.64,1.07,2,2,0,0,0,1.61-1.07A5.69,5.69,0,0,0,304.3,53Z" style="fill: rgb(235, 235, 235); transform-origin: 301.845px 53.0028px;" id="el4w7vc6txecw" class="animable"></path><path d="M309.74,53a7.44,7.44,0,0,1,1.18-4.13A3.88,3.88,0,0,1,314.13,47a3.93,3.93,0,0,1,3.2,1.91,7.93,7.93,0,0,1,0,8.26,4,4,0,0,1-3.2,1.92,3.91,3.91,0,0,1-3.21-1.92A7.44,7.44,0,0,1,309.74,53Zm6.83,0a5.75,5.75,0,0,0-.83-3.07,2,2,0,0,0-1.61-1.06,2.09,2.09,0,0,0-1.64,1.06,5.66,5.66,0,0,0-.83,3.07,5.6,5.6,0,0,0,.83,3.06,2.08,2.08,0,0,0,1.64,1.07,2,2,0,0,0,1.61-1.07A5.69,5.69,0,0,0,316.57,53Z" style="fill: rgb(235, 235, 235); transform-origin: 314.114px 53.045px;" id="elhz3g4k5ydg" class="animable"></path><path d="M322,53a7.44,7.44,0,0,1,1.18-4.13A3.88,3.88,0,0,1,326.4,47a3.93,3.93,0,0,1,3.2,1.91,7.93,7.93,0,0,1,0,8.26A4,4,0,0,1,326.4,59a3.91,3.91,0,0,1-3.21-1.92A7.44,7.44,0,0,1,322,53Zm6.83,0a5.75,5.75,0,0,0-.83-3.07,2,2,0,0,0-1.61-1.06,2.09,2.09,0,0,0-1.64,1.06,5.66,5.66,0,0,0-.83,3.07,5.6,5.6,0,0,0,.83,3.06,2.08,2.08,0,0,0,1.64,1.07A2,2,0,0,0,328,56.05,5.69,5.69,0,0,0,328.84,53Z" style="fill: rgb(235, 235, 235); transform-origin: 326.38px 53px;" id="elyo6ku6avx2q" class="animable"></path><path d="M337.79,47.9V58.09a1,1,0,0,1-1,.95.94.94,0,0,1-.95-.95v-8.5l-.69.4a.89.89,0,0,1-.48.13.94.94,0,0,1-.82-.48.91.91,0,0,1,.31-1.29l2.13-1.27s.05,0,.07,0,.05,0,.09,0l.1,0a.1.1,0,0,1,.07,0H337a.15.15,0,0,1,.1,0h.07c.05,0,.07.06.11.06l.06,0s.06,0,.07.05.05,0,.07.07a.13.13,0,0,1,.05.07.46.46,0,0,1,.07.07l0,0s0,0,0,.05,0,.06,0,.09,0,.07,0,.09,0,.07,0,.08,0,.09,0,.12Z" style="fill: rgb(235, 235, 235); transform-origin: 335.745px 53.0557px;" id="el5ng3b690ep" class="animable"></path><path d="M340,53a7.44,7.44,0,0,1,1.18-4.13,3.64,3.64,0,0,1,6.41,0,7.93,7.93,0,0,1,0,8.26,4,4,0,0,1-3.2,1.92,3.93,3.93,0,0,1-3.21-1.92A7.44,7.44,0,0,1,340,53Zm6.83,0a5.75,5.75,0,0,0-.83-3.07,2,2,0,0,0-1.61-1.06,2.1,2.1,0,0,0-1.64,1.06A5.75,5.75,0,0,0,341.9,53a5.69,5.69,0,0,0,.83,3.06,2.09,2.09,0,0,0,1.64,1.07A2,2,0,0,0,346,56.05,5.69,5.69,0,0,0,346.81,53Z" style="fill: rgb(235, 235, 235); transform-origin: 344.375px 53.0028px;" id="elygoad346kb" class="animable"></path><path d="M271.56,68.63v10.2a1,1,0,0,1-1,1,.93.93,0,0,1-.95-1v-8.5l-.69.39a.84.84,0,0,1-.49.14.94.94,0,0,1-.81-.48.93.93,0,0,1,.31-1.3l2.13-1.26s.05,0,.07,0,0,0,.08-.06h.11a.1.1,0,0,1,.07,0,.23.23,0,0,1,.12,0h.19a.1.1,0,0,0,.07,0,.24.24,0,0,1,.1,0,.1.1,0,0,1,.07,0s.07,0,.1,0l.07.06.07,0s.05,0,.07.07a.1.1,0,0,1,.05.07l.07.06,0,0s0,0,0,0,0,0,0,.09,0,.07,0,.08,0,.07,0,.09,0,.09,0,.12Z" style="fill: rgb(235, 235, 235); transform-origin: 269.517px 73.7911px;" id="el7fx17e8k87n" class="animable"></path><path d="M273.75,73.73a7.44,7.44,0,0,1,1.18-4.13,3.64,3.64,0,0,1,6.41,0,7.93,7.93,0,0,1,0,8.26,4,4,0,0,1-3.2,1.92,3.93,3.93,0,0,1-3.21-1.92A7.46,7.46,0,0,1,273.75,73.73Zm6.83,0a5.75,5.75,0,0,0-.83-3.07,2,2,0,0,0-1.61-1.06,2.08,2.08,0,0,0-1.64,1.06,6.07,6.07,0,0,0,0,6.13,2.12,2.12,0,0,0,1.64,1.07,2,2,0,0,0,1.61-1.07A5.71,5.71,0,0,0,280.58,73.73Z" style="fill: rgb(235, 235, 235); transform-origin: 278.125px 73.7328px;" id="elebgmzs7et3l" class="animable"></path><path d="M289.53,68.63v10.2a1,1,0,0,1-1,1,.94.94,0,0,1-.95-1v-8.5l-.69.39a.81.81,0,0,1-.48.14.94.94,0,0,1-.82-.48.93.93,0,0,1,.32-1.3l2.12-1.26s.05,0,.07,0,.05,0,.09-.06h.1a.1.1,0,0,1,.07,0,.25.25,0,0,1,.12,0h.19a.1.1,0,0,0,.07,0,.24.24,0,0,1,.1,0s.06,0,.07,0,.07,0,.11,0a.14.14,0,0,0,.07.06l.07,0a.19.19,0,0,1,.06.07.14.14,0,0,1,.06.07l.07.06v0s0,0,0,0a.16.16,0,0,1,0,.09s0,.07,0,.08a.64.64,0,0,0,0,.09.16.16,0,0,0,0,.12Z" style="fill: rgb(235, 235, 235); transform-origin: 287.488px 73.7914px;" id="elj7ja097o7m" class="animable"></path><path d="M291.72,73.73a7.44,7.44,0,0,1,1.18-4.13,3.64,3.64,0,0,1,6.41,0,7.93,7.93,0,0,1,0,8.26,3.64,3.64,0,0,1-6.41,0A7.46,7.46,0,0,1,291.72,73.73Zm6.83,0a5.66,5.66,0,0,0-.83-3.07,2,2,0,0,0-1.61-1.06,2.08,2.08,0,0,0-1.64,1.06,6.07,6.07,0,0,0,0,6.13,2.12,2.12,0,0,0,1.64,1.07,2,2,0,0,0,1.61-1.07A5.63,5.63,0,0,0,298.55,73.73Z" style="fill: rgb(235, 235, 235); transform-origin: 296.095px 73.73px;" id="elao8ve6tybuv" class="animable"></path><path d="M304,73.73a7.44,7.44,0,0,1,1.18-4.13,3.64,3.64,0,0,1,6.41,0,7.93,7.93,0,0,1,0,8.26,3.64,3.64,0,0,1-6.41,0A7.46,7.46,0,0,1,304,73.73Zm6.83,0a5.75,5.75,0,0,0-.83-3.07,2,2,0,0,0-1.61-1.06,2.08,2.08,0,0,0-1.64,1.06,6.07,6.07,0,0,0,0,6.13,2.12,2.12,0,0,0,1.64,1.07A2,2,0,0,0,310,76.79,5.71,5.71,0,0,0,310.82,73.73Z" style="fill: rgb(235, 235, 235); transform-origin: 308.375px 73.73px;" id="eltzyvmzgar9" class="animable"></path><path d="M316.26,73.73a7.44,7.44,0,0,1,1.18-4.13,3.64,3.64,0,0,1,6.41,0,7.93,7.93,0,0,1,0,8.26,3.64,3.64,0,0,1-6.41,0A7.46,7.46,0,0,1,316.26,73.73Zm6.83,0a5.75,5.75,0,0,0-.83-3.07,2,2,0,0,0-1.61-1.06A2.08,2.08,0,0,0,319,70.66a6.07,6.07,0,0,0,0,6.13,2.12,2.12,0,0,0,1.64,1.07,2,2,0,0,0,1.61-1.07A5.71,5.71,0,0,0,323.09,73.73Z" style="fill: rgb(235, 235, 235); transform-origin: 320.635px 73.73px;" id="el9zbal64hp3v" class="animable"></path><path d="M332,68.63v10.2a1,1,0,0,1-1,1,.94.94,0,0,1-1-1v-8.5l-.69.39a.81.81,0,0,1-.48.14,1,1,0,0,1-.5-1.78l2.12-1.26s.06,0,.07,0,.05,0,.09-.06h.1a.11.11,0,0,1,.07,0,.27.27,0,0,1,.12,0h.19a.11.11,0,0,0,.07,0,.35.35,0,0,1,.11,0,.11.11,0,0,1,.07,0c.05,0,.06,0,.1,0a.22.22,0,0,0,.07.06l.07,0a.46.46,0,0,1,.07.07.25.25,0,0,1,.05.07l.07.06v0s0,0,0,0,0,0,0,.09,0,.07,0,.08a.64.64,0,0,0,0,.09.16.16,0,0,0,0,.12Z" style="fill: rgb(235, 235, 235); transform-origin: 329.974px 73.7926px;" id="el17iwqreetxk" class="animable"></path><path d="M334.24,73.73a7.35,7.35,0,0,1,1.17-4.13,3.63,3.63,0,0,1,6.41,0,7.93,7.93,0,0,1,0,8.26,3.63,3.63,0,0,1-6.41,0A7.37,7.37,0,0,1,334.24,73.73Zm6.82,0a5.66,5.66,0,0,0-.83-3.07,2,2,0,0,0-1.6-1.06A2.05,2.05,0,0,0,337,70.66a6.07,6.07,0,0,0,0,6.13,2.09,2.09,0,0,0,1.64,1.07,2,2,0,0,0,1.6-1.07A5.63,5.63,0,0,0,341.06,73.73Z" style="fill: rgb(235, 235, 235); transform-origin: 338.609px 73.73px;" id="elrbud7z5urn" class="animable"></path><path d="M350,68.63v10.2a1,1,0,0,1-1,1,.93.93,0,0,1-.95-1v-8.5l-.69.39a.84.84,0,0,1-.49.14.91.91,0,0,1-.81-.48.93.93,0,0,1,.31-1.3l2.13-1.26s.05,0,.07,0,.05,0,.08-.06h.11s.05,0,.06,0a.3.3,0,0,1,.13,0h.19s.05,0,.06,0,.07,0,.11,0a.1.1,0,0,1,.07,0c.05,0,.07,0,.1,0l.07.06.07,0,.07.07s0,0,.05.07l.07.06,0,0s0,0,0,0,0,0,0,.09,0,.07,0,.08a.64.64,0,0,0,0,.09c0,.05,0,.09,0,.12Z" style="fill: rgb(235, 235, 235); transform-origin: 347.957px 73.7916px;" id="eltnqicxvb5be" class="animable"></path><path d="M268,94.47a7.41,7.41,0,0,1,1.18-4.13,3.64,3.64,0,0,1,6.41,0,7.93,7.93,0,0,1,0,8.26,4,4,0,0,1-3.2,1.92,3.93,3.93,0,0,1-3.21-1.92A7.48,7.48,0,0,1,268,94.47Zm6.83,0a5.79,5.79,0,0,0-.83-3.08,2,2,0,0,0-1.61-1,2.09,2.09,0,0,0-1.64,1,5.79,5.79,0,0,0-.83,3.08,5.71,5.71,0,0,0,.83,3.06,2.12,2.12,0,0,0,1.64,1.07A2,2,0,0,0,274,97.53,5.71,5.71,0,0,0,274.79,94.47Z" style="fill: rgb(235, 235, 235); transform-origin: 272.375px 94.4728px;" id="el6jbcm6fsnud" class="animable"></path><path d="M280.23,94.47a7.41,7.41,0,0,1,1.18-4.13,3.64,3.64,0,0,1,6.41,0,7.93,7.93,0,0,1,0,8.26,4,4,0,0,1-3.2,1.92,3.93,3.93,0,0,1-3.21-1.92A7.48,7.48,0,0,1,280.23,94.47Zm6.83,0a5.79,5.79,0,0,0-.83-3.08,2,2,0,0,0-1.61-1,2.09,2.09,0,0,0-1.64,1,5.79,5.79,0,0,0-.83,3.08,5.71,5.71,0,0,0,.83,3.06,2.12,2.12,0,0,0,1.64,1.07,2,2,0,0,0,1.61-1.07A5.71,5.71,0,0,0,287.06,94.47Z" style="fill: rgb(235, 235, 235); transform-origin: 284.605px 94.4728px;" id="elb2r0ejjexm" class="animable"></path><path d="M296,89.37v10.2a1,1,0,0,1-1,1,.94.94,0,0,1-1-1V91.06l-.69.4a.81.81,0,0,1-.48.14,1,1,0,0,1-.5-1.78l2.12-1.26.07,0s.05,0,.09,0h.1a.1.1,0,0,1,.07,0,.27.27,0,0,1,.12,0h.19a.1.1,0,0,0,.07,0,.24.24,0,0,1,.1,0s.06,0,.07,0,.07.05.11.05a.1.1,0,0,0,.07,0s0,0,.07.06.05,0,.06.06l.06.07a.23.23,0,0,0,.07.07v0s0,0,0,0a.14.14,0,0,1,0,.09s0,.06,0,.08a.64.64,0,0,0,0,.09.17.17,0,0,0,0,.12Z" style="fill: rgb(235, 235, 235); transform-origin: 293.974px 94.5626px;" id="elb0em9w0n4fe" class="animable"></path><path d="M298.21,94.47a7.33,7.33,0,0,1,1.17-4.13,3.63,3.63,0,0,1,6.41,0,7.93,7.93,0,0,1,0,8.26,3.63,3.63,0,0,1-6.41,0A7.4,7.4,0,0,1,298.21,94.47Zm6.82,0a5.7,5.7,0,0,0-.83-3.08,2,2,0,0,0-1.6-1,2.09,2.09,0,0,0-1.65,1,5.79,5.79,0,0,0-.83,3.08,5.71,5.71,0,0,0,.83,3.06,2.12,2.12,0,0,0,1.65,1.07,2,2,0,0,0,1.6-1.07A5.63,5.63,0,0,0,305,94.47Z" style="fill: rgb(235, 235, 235); transform-origin: 302.579px 94.47px;" id="elxwt4ha2yr7" class="animable"></path><path d="M310.47,94.47a7.41,7.41,0,0,1,1.18-4.13,3.64,3.64,0,0,1,6.41,0,7.93,7.93,0,0,1,0,8.26,3.64,3.64,0,0,1-6.41,0A7.48,7.48,0,0,1,310.47,94.47Zm6.83,0a5.7,5.7,0,0,0-.83-3.08,2,2,0,0,0-1.61-1,2.09,2.09,0,0,0-1.64,1,5.79,5.79,0,0,0-.83,3.08,5.71,5.71,0,0,0,.83,3.06,2.12,2.12,0,0,0,1.64,1.07,2,2,0,0,0,1.61-1.07A5.63,5.63,0,0,0,317.3,94.47Z" style="fill: rgb(235, 235, 235); transform-origin: 314.845px 94.47px;" id="elb21umr023zp" class="animable"></path><path d="M326.25,89.37v10.2a1,1,0,0,1-1,1,1,1,0,0,1-1-1V91.06l-.69.4a.79.79,0,0,1-.48.14,1,1,0,0,1-.5-1.78l2.12-1.26s.06,0,.07,0,0,0,.09,0h.1a.11.11,0,0,1,.07,0,.27.27,0,0,1,.12,0h.19a.11.11,0,0,0,.07,0,.35.35,0,0,1,.11,0,.11.11,0,0,1,.07,0c.05,0,.06.05.1.05a.13.13,0,0,0,.07,0l.07.06s0,0,.07.06l0,.07a.46.46,0,0,0,.07.07v0s0,0,0,0a.15.15,0,0,1,0,.09s0,.06,0,.08a.64.64,0,0,0,0,.09.17.17,0,0,0,0,.12Z" style="fill: rgb(235, 235, 235); transform-origin: 324.224px 94.5616px;" id="el8sr7pmrmxkb" class="animable"></path><path d="M332,89.37v10.2a1,1,0,0,1-1,1,1,1,0,0,1-1-1V91.06l-.69.4a.81.81,0,0,1-.48.14,1,1,0,0,1-.5-1.78l2.12-1.26s.06,0,.07,0,.05,0,.09,0h.1a.11.11,0,0,1,.07,0,.27.27,0,0,1,.12,0h.19a.11.11,0,0,0,.07,0,.35.35,0,0,1,.11,0,.11.11,0,0,1,.07,0c.05,0,.06.05.1.05a.13.13,0,0,0,.07,0l.07.06s.05,0,.07.06l.05.07.07.07v0s0,0,0,0a.15.15,0,0,1,0,.09s0,.06,0,.08a.64.64,0,0,0,0,.09.17.17,0,0,0,0,.12Z" style="fill: rgb(235, 235, 235); transform-origin: 329.974px 94.5616px;" id="elo1palcz32c" class="animable"></path><path d="M334.24,94.47a7.33,7.33,0,0,1,1.17-4.13,3.63,3.63,0,0,1,6.41,0,7.93,7.93,0,0,1,0,8.26,3.63,3.63,0,0,1-6.41,0A7.4,7.4,0,0,1,334.24,94.47Zm6.82,0a5.7,5.7,0,0,0-.83-3.08,2,2,0,0,0-1.6-1,2.06,2.06,0,0,0-1.64,1,5.7,5.7,0,0,0-.83,3.08,5.63,5.63,0,0,0,.83,3.06,2.09,2.09,0,0,0,1.64,1.07,2,2,0,0,0,1.6-1.07A5.63,5.63,0,0,0,341.06,94.47Z" style="fill: rgb(235, 235, 235); transform-origin: 338.609px 94.47px;" id="elk5tiklxkgnn" class="animable"></path><path d="M350,89.37v10.2a1,1,0,0,1-1,1,.94.94,0,0,1-.95-1V91.06l-.69.4a.84.84,0,0,1-.49.14.91.91,0,0,1-.81-.48.92.92,0,0,1,.31-1.3l2.13-1.26s.05,0,.07,0,.05,0,.08,0h.11s.05,0,.06,0a.3.3,0,0,1,.13,0h.19s.05,0,.06,0,.07,0,.11,0a.1.1,0,0,1,.07,0c.05,0,.07.05.1.05a.18.18,0,0,0,.07,0l.07.06s.05,0,.07.06l.05.07a.46.46,0,0,0,.07.07l0,0a.43.43,0,0,1,0,0,.15.15,0,0,1,0,.09.41.41,0,0,1,0,.08.64.64,0,0,0,0,.09.14.14,0,0,0,0,.12Z" style="fill: rgb(235, 235, 235); transform-origin: 347.955px 94.5615px;" id="eljfyw3mrire" class="animable"></path></g><g id="freepik--Floor--inject-9" class="animable" style="transform-origin: 250px 410.48px;"><polygon points="51.54 410.48 101.16 410.23 150.77 410.14 250 409.98 349.23 410.14 398.84 410.23 448.46 410.48 398.84 410.72 349.23 410.81 250 410.98 150.77 410.81 101.16 410.72 51.54 410.48" style="fill: rgb(38, 50, 56); transform-origin: 250px 410.48px;" id="eli1zxmi2lzh" class="animable"></polygon></g><g id="freepik--Shadow--inject-9" class="animable" style="transform-origin: 250.005px 455.47px;"><ellipse cx="103.3" cy="456.14" rx="44.28" ry="8.5" style="fill: rgb(235, 235, 235); transform-origin: 103.3px 456.14px;" id="elp7uskzev5he" class="animable"></ellipse><ellipse cx="267.97" cy="455.47" rx="173.02" ry="16.97" style="fill: rgb(235, 235, 235); transform-origin: 267.97px 455.47px;" id="el9cmmy55tdv" class="animable"></ellipse></g><g id="freepik--Character--inject-9" class="animable" style="transform-origin: 198.657px 292.16px;"><polygon points="181.38 314.51 184.16 331.19 203 432.89 206.03 432.89 192.34 331.19 190.31 314.51 181.38 314.51" style="fill: rgb(199, 199, 199); transform-origin: 193.705px 373.7px;" id="elmb14p8lj1od" class="animable"></polygon><polygon points="190.31 314.51 181.38 314.51 184.16 331.19 192.34 331.19 190.31 314.51" style="fill: rgb(166, 166, 166); transform-origin: 186.86px 322.85px;" id="el1ivcdfvdabch" class="animable"></polygon><polygon points="122.24 432.89 125.28 432.89 144.11 331.19 146.89 314.51 137.96 314.51 135.94 331.19 122.24 432.89" style="fill: rgb(199, 199, 199); transform-origin: 134.565px 373.7px;" id="elibyeoylf7v" class="animable"></polygon><polygon points="137.96 314.51 135.94 331.19 144.11 331.19 146.89 314.51 137.96 314.51" style="fill: rgb(166, 166, 166); transform-origin: 141.415px 322.85px;" id="elut70en6728" class="animable"></polygon><polygon points="65.75 432.89 68.79 432.89 87.62 331.19 90.4 314.51 81.47 314.51 79.45 331.19 65.75 432.89" style="fill: rgb(199, 199, 199); transform-origin: 78.075px 373.7px;" id="elsdefiujb5sn" class="animable"></polygon><polygon points="79.45 331.19 87.62 331.19 90.4 314.51 81.47 314.51 79.45 331.19" style="fill: rgb(166, 166, 166); transform-origin: 84.925px 322.85px;" id="elvs4v7b5zhm" class="animable"></polygon><polygon points="70.57 322.35 208.57 322.35 208.57 307.81 156.91 307.81 130.01 157.09 56.75 157.09 70.57 322.35" style="fill: rgb(199, 199, 199); transform-origin: 132.66px 239.72px;" id="elpjhmrnf6hi" class="animable"></polygon><polygon points="71.16 307.81 208.57 307.81 208.57 322.35 70.64 322.35 71.16 307.81" style="fill: rgb(219, 219, 219); transform-origin: 139.605px 315.08px;" id="elz4s3whd5cb" class="animable"></polygon><polygon points="70.57 322.35 78.09 322.35 63.92 157.09 56.75 157.09 70.57 322.35" style="fill: rgb(219, 219, 219); transform-origin: 67.42px 239.72px;" id="el6rf7bbk22gd" class="animable"></polygon><path d="M194.42,457.27c-2.87-.39-75.17-36.46-77-39.5-.23-.35,2.88-6.95,7.31-15.93,10-20.33,30-54.7,30-54.7l43.52,24.46-24,45.38s8,9.74,14.57,18c0,0,0,0,0,0,4,5.09,7.47,9.61,8.1,11C198.62,449.51,197.29,457.67,194.42,457.27Z" style="fill: rgb(211, 118, 106); transform-origin: 157.829px 402.212px;" id="elouzcpqwuxx" class="animable"></path><path d="M194.42,457.27c-2.87-.39-75.17-36.46-77-39.5-.23-.35,2.88-6.95,7.31-15.93,16.07,12.65,60.91,42.18,64.13,39.08,1.28-1.24,1-3.5,0-5.91,4,5.09,7.47,9.61,8.1,11C198.62,449.51,197.29,457.67,194.42,457.27Z" style="fill: rgb(38, 50, 56); transform-origin: 157.547px 429.562px;" id="elvmfurkjmh1k" class="animable"></path><path d="M182.89,413l-50.43-26.61s38.47-75.4,37.46-76.71c-3.53-4.55-46.13-2.48-64.53-20.77-19.48-19.36-4.6-46.93-4.6-46.93h50.9s-.47,13.81,1.72,15.62c1.45,1.21,76.29,8.42,79.22,28.17C237.7,319.92,182.89,413,182.89,413Z" style="fill: rgb(55, 71, 79); transform-origin: 164.158px 327.49px;" id="el2rxe3l4eyxe" class="animable"></path><path d="M186,403.56c-6.06-3.66-12.28-7-18.52-10.4s-12.51-6.64-18.85-9.78c-3.58-1.77-7.23-3.38-10.82-5.14a.1.1,0,0,0-.09.17c3.14,1.69,6.19,3.54,9.32,5.24s6.18,3.35,9.29,5c6.25,3.32,12.55,6.56,18.82,9.84,3.54,1.85,7.12,3.6,10.72,5.31A.13.13,0,1,0,186,403.56Z" style="fill: rgb(38, 50, 56); transform-origin: 161.88px 391.027px;" id="elhoju1idivvj" class="animable"></path><path d="M190,301.27c-1.25-2.59-4.58-3-7.05-3.59q-10.15-2.54-20.3-5.05c-12-3-24.36-5.78-35.1-12.13-5.13-3-10.12-6.87-12.68-12.41s-2.56-11.44-2.6-17.29c0-1.44.08-2.89.17-4.33,0-.12-.19-.12-.2,0-.37,5.76-1,11.52.33,17.22a23.38,23.38,0,0,0,3.23,7.77,26.65,26.65,0,0,0,5.85,6.14c9.5,7.46,21.42,11,32.95,14,6.51,1.67,13.05,3.25,19.58,4.85l10.09,2.47a9.25,9.25,0,0,1,4.14,1.63,4.36,4.36,0,0,1,1.25,3.66,14.35,14.35,0,0,1-1,4c-.6,1.58-1.24,3.15-1.88,4.72q-1.86,4.59-3.82,9.14-4,9.18-8.22,18.22c-5.66,12-11.71,23.85-17.87,35.61-.77,1.46-1.52,2.94-2.27,4.41,0,.09.09.16.14.08,6.6-11.63,12.77-23.52,18.64-35.53s11.38-24,16.1-36.45C190.26,306.21,191.05,303.51,190,301.27Z" style="fill: rgb(38, 50, 56); transform-origin: 151.134px 313.403px;" id="el76jzt6eijzc" class="animable"></path><path d="M339.35,460c-2.76.91-83.55.05-86.53-1.88-.35-.21-.38-17.53-.38-17.53-13.26-30.12-25.27-59.25-25.27-59.25l56.48-.07,20,51.29s11.49,5.24,21,9.83l0,0c5.83,2.81,10.91,5.38,12.07,6.32C339.73,451.14,342.1,459.06,339.35,460Z" style="fill: rgb(211, 118, 106); transform-origin: 283.867px 420.817px;" id="ely6mu794opve" class="animable"></path><path d="M339.35,460c-2.76.91-83.55.05-86.53-1.88-.35-.21-.44-7.51-.38-17.53,20,4.36,73.22,11.33,74.76,7.13.61-1.66-.66-3.56-2.57-5.31,5.83,2.81,10.91,5.38,12.07,6.32C339.73,451.14,342.1,459.06,339.35,460Z" style="fill: rgb(38, 50, 56); transform-origin: 296.494px 450.477px;" id="elwyi26cgpjrs" class="animable"></path><path d="M299.47,421.68l-61-.45s-30.68-79-35.62-84.3c-2.51-2.69-19.3-5.67-39.34-10.07l-.11,0c-7.41-1.63-15.26-3.45-23-5.53-20.12-5.37-39.47-12.43-48.29-22.18-18.43-20.38,0-57.2,0-57.2h51.94s1.29,16-2.69,25.84c0,0,38.21,5.61,70.39,16.05,18.23,5.92,34.52,13.39,40.83,22.28C264.92,323.49,299.47,421.68,299.47,421.68Z" style="fill: rgb(55, 71, 79); transform-origin: 191.694px 331.815px;" id="ely2daehp8pvo" class="animable"></path><path d="M292.59,412.53c-7.07-.52-14.14-.7-21.22-.87s-14.17-.25-21.25-.17c-4,0-8,.27-12,.33a.1.1,0,1,0,0,.19c3.56.08,7.12.35,10.69.44s7,.18,10.53.24c7.08.12,14.16.15,21.24.23,4,.05,8,0,12-.13A.13.13,0,0,0,292.59,412.53Z" style="fill: rgb(38, 50, 56); transform-origin: 265.352px 412.199px;" id="elhue9ot2n9gf" class="animable"></path><path d="M118.58,249.51a3.48,3.48,0,0,1-.29.69.09.09,0,0,0,0,.12c-.69,2.13-1,4.39-1.63,6.52a10.15,10.15,0,0,1-3.94,5.63c-4,2.8-8.88,4.07-13.56,5.23-.15,0-.1.25,0,.26a25.85,25.85,0,0,0,8-1.23A21,21,0,0,0,114,263.5a10.56,10.56,0,0,0,3.87-5.82,36.81,36.81,0,0,0,.67-3.75,29.19,29.19,0,0,0,.47-4.38A.2.2,0,0,0,118.58,249.51Z" style="fill: rgb(38, 50, 56); transform-origin: 109.038px 258.638px;" id="elogplsbe7rkf" class="animable"></path><path d="M150.88,264.21a59.27,59.27,0,0,0-9.34,3.56l-.15.07a2.26,2.26,0,0,0,.14-.57c0-.22.08-.45.11-.67s.06-.47.08-.71l0-.36v0a2.76,2.76,0,0,0,2-1,7.28,7.28,0,0,0,1.25-2.93c.35-1.33.68-2.67,1-4s.59-3,.83-4.51a29.14,29.14,0,0,0,.51-4.47.21.21,0,0,0-.41,0c-.35,1.37-.51,2.8-.77,4.19s-.56,2.79-.88,4.18-.67,2.77-1,4.14-.68,3-2.1,3.39c-2.91.83-1.6-5.71-1.47-7,.29-3,.48-6,1-8.92a.1.1,0,0,0-.19-.05c-.63,2.7-1.35,5.35-1.83,8.09-.24,1.33-.41,2.69-.55,4a6.24,6.24,0,0,0,.26,3.48,2.55,2.55,0,0,0,1.93,1.42l-.09.31c-.07.21-.14.43-.19.65s-.11.44-.16.66a1.6,1.6,0,0,0-.09.81.33.33,0,0,0,.14.17c-1.25.54-2.49,1.08-3.72,1.65a32.53,32.53,0,0,0-4.48,2.18c-.17.08,0,.31.12.28a33,33,0,0,0,4.7-1.7c1.56-.6,3.1-1.23,4.64-1.87a58.76,58.76,0,0,0,8.88-4.14A.14.14,0,0,0,150.88,264.21Z" style="fill: rgb(38, 50, 56); transform-origin: 141.894px 260.354px;" id="ela16h2980fvw" class="animable"></path><path d="M233.89,383q-4.83-11.94-10.21-23.64T212.3,336.23c-1.73-3.32-3.3-6.68-6.78-8.46a25,25,0,0,0-5-1.78c-2-.54-4-1.06-6.08-1.58-16.54-4.17-33.26-7.62-49.69-12.23-8.22-2.3-16.36-4.9-24.31-8-6.45-2.52-12.89-5.45-18.26-9.91a29.19,29.19,0,0,1-6.55-7.46c-2-3.41-6.79-12.68.26-40.76,0-.12-.14-.22-.18-.1-5.62,20-4.43,30.9-3.4,34.87a25.33,25.33,0,0,0,4.61,9.31c4.16,5.31,10,9,16,11.87a167.85,167.85,0,0,0,22.26,8.34c16.38,5.13,33.18,8.73,49.86,12.68,4.14,1,8.27,2,12.39,3,3.68.94,8,1.69,10.62,4.68a24.23,24.23,0,0,1,3.08,5.09q1.49,2.87,2.94,5.74,3,5.91,5.84,11.86,11.25,23.52,20.48,47.94c.76,2,1.51,4,2.28,6,.06.15.3.08.25-.08C240.28,399.12,237.12,391,233.89,383Z" style="fill: rgb(38, 50, 56); transform-origin: 167.185px 326.654px;" id="ela0xibgz4nav" class="animable"></path><path d="M211.57,353.89a58.51,58.51,0,0,0-4.4-10.87c-1.62-3.19-3.44-7-7-8.35a52.14,52.14,0,0,0-5.79-1.59q-3.06-.78-6.14-1.51-6.16-1.45-12.36-2.76c-4.6-1-9.24-1.87-13.91-2.37-.11,0-.12.16,0,.19,3.95,1.15,8,2,12,3s7.81,1.85,11.71,2.8,8,2,12,3a9.76,9.76,0,0,1,4.68,2.47c1.79,1.76,7.94,14.7,8.93,16.63C211.54,355.12,211.73,354.47,211.57,353.89Z" style="fill: rgb(38, 50, 56); transform-origin: 186.756px 340.601px;" id="elte73k621ao" class="animable"></path><path d="M232.81,291.42A94.2,94.2,0,0,0,218,284.65c-5.83-2-11.79-3.65-17.73-5.27q-18.35-5-37.09-8.35-5.33-1-10.68-1.81a95,95,0,0,0-10.5-1.29c-.13,0-.14.18,0,.21,3.08.76,6.26,1.24,9.39,1.77s6.19,1.09,9.28,1.68q9.25,1.77,18.45,3.86c12.14,2.76,24.29,5.77,36.15,9.52a157.59,157.59,0,0,1,17.31,6.9A.26.26,0,0,0,232.81,291.42Z" style="fill: rgb(38, 50, 56); transform-origin: 187.4px 279.904px;" id="elmwj6omtspf" class="animable"></path><path d="M163.41,208.53c-.67,0-3.77-.16-8.32-.33a25.52,25.52,0,0,1-1.69-15.43c.22-1.19-3.06,5.53-2.54,15.27-8.79-.34-20.74-.82-31.17-1.33,0-4.08-.08-7.87-.08-7.87a45.47,45.47,0,0,1-2.19,7.77c-1.43-.06-2.83-.15-4.17-.21a159.83,159.83,0,0,0,.32-17.38,55.73,55.73,0,0,1-6.25,17c-6.62-.39-11-.77-10.67-1.07,10.74-10.85,3.82-17.92,7.31-27.86,4.18-11.9,14.75-13.16,15-22.28.24-7.42.16-20.92,9.7-23.2a18.06,18.06,0,0,1,19.79-2.51c14.43,6.6,7.14,29.06,7.85,33.77,1,6.73,4,9.26,5.91,17s-1.89,12.67-2.61,17.84S165.07,208.62,163.41,208.53Z" style="fill: rgb(38, 50, 56); transform-origin: 130.163px 167.881px;" id="elr7l6fjctf9g" class="animable"></path><path d="M96.46,203.34a25.86,25.86,0,0,0,3.62-6.28c.9-2.21.72-4.54.41-6.95s-.69-4.86-.76-7.4a19.35,19.35,0,0,1,1.22-7.57,16.93,16.93,0,0,1,4.4-6.32,44.17,44.17,0,0,1,6-4.47,27.3,27.3,0,0,0,5.56-4.54,13.3,13.3,0,0,0,3.08-6.45,12.45,12.45,0,0,1-2.37,7,25,25,0,0,1-5.42,5.17,56.79,56.79,0,0,0-5.6,4.58,16.13,16.13,0,0,0-3.83,5.73,19,19,0,0,0-1.13,6.85c0,2.38.28,4.79.44,7.27a25.23,25.23,0,0,1,0,3.79,11,11,0,0,1-1.07,3.71A21.18,21.18,0,0,1,96.46,203.34Z" style="fill: rgb(38, 50, 56); transform-origin: 108.225px 178.35px;" id="elelfbfkwqiqc" class="animable"></path><path d="M156.29,138.17a37.68,37.68,0,0,1,1.45,9c.19,3,.22,6.06.23,9.08l0,4.5a22.79,22.79,0,0,0,.41,4.33,23.78,23.78,0,0,0,3.55,7.9,35.56,35.56,0,0,1,2.17,4.11,21.51,21.51,0,0,1,1.36,4.53,30.38,30.38,0,0,1,.36,4.66,19.34,19.34,0,0,1-.55,4.66c-.37,1.52-.89,3-1.35,4.36a23.21,23.21,0,0,0-1,4.3,9.28,9.28,0,0,0,3.16,7.88,9.41,9.41,0,0,1-4.09-7.94,22,22,0,0,1,.68-4.58c.35-1.49.82-2.92,1.08-4.34a24.3,24.3,0,0,0-.14-8.67,21.86,21.86,0,0,0-1.3-4.09,33.2,33.2,0,0,0-2.1-3.87,45.9,45.9,0,0,1-2.22-4,18.47,18.47,0,0,1-1.47-4.51,23.9,23.9,0,0,1-.3-4.67c0-1.53.08-3,.15-4.54.12-3,.29-6,.34-9A44.36,44.36,0,0,0,156.29,138.17Z" style="fill: rgb(38, 50, 56); transform-origin: 161.143px 172.825px;" id="el8wtyw1oi7xc" class="animable"></path><path d="M132.12,185.68C142.58,210,155.24,227.42,163.7,228c15.06,1.09,52.81-25.91,53.73-27.28,3.51-5.26-15.31-24-20-25.15-1-.24-30,24.52-32.38,23.56-2-.81-6.31-4.62-18.8-17.15C137.61,173.36,125.43,170.14,132.12,185.68Z" style="fill: rgb(211, 118, 106); transform-origin: 174.027px 201.401px;" id="elucj83llq4o" class="animable"></path><path d="M207.38,164.37c4.56-2.19,9.61-5.07,14.9-5.54s10.4,6,10.62,8-.44,14.63-5.71,15.2-3.11-9.32-3.43-10.39-.67-2.45-1.65-2.24-17.49,10.34-17.49,10.34Z" style="fill: rgb(211, 118, 106); transform-origin: 218.778px 170.43px;" id="el323mqh1qk9m" class="animable"></path><path d="M207.79,165.06c.3,0,13.82-7.13,19.1-7.6s10.41,6,10.62,8-.43,14.63-5.7,15.2-3.12-9.32-3.44-10.39-.66-2.45-1.65-2.24-17.49,10.34-17.49,10.34Z" style="fill: rgb(211, 118, 106); transform-origin: 222.667px 169.06px;" id="elwvu5olkv8s" class="animable"></path><path d="M230,180.2a6.39,6.39,0,0,1-1.22-3,11.34,11.34,0,0,1-.17-3.39,18.62,18.62,0,0,0,.33-3,5.78,5.78,0,0,0-1-2.7c-.48-.7-1.23-.36-1.87-.05a26.67,26.67,0,0,0-2.73,1.6c-.95.61-1.89,1.24-2.83,1.86a27.45,27.45,0,0,0-2.88,2c-.06.06,0,.18.08.14a26.79,26.79,0,0,0,2.54-1.49c1-.58,1.91-1.15,2.87-1.71s1.77-1.09,2.68-1.6c.32-.17.95-.61,1.34-.56s.72,1,.84,1.32a5,5,0,0,1,.13,2.87,14.63,14.63,0,0,0-.24,3,7.68,7.68,0,0,0,.52,2.72,10.5,10.5,0,0,0,1.5,2.13C229.87,180.41,230,180.28,230,180.2Z" style="fill: rgb(38, 50, 56); transform-origin: 223.803px 174.029px;" id="elo4bgbaviwwa" class="animable"></path><path d="M192.57,180.69s13.17-14.88,15.92-17.86c5.53-6,30.08-19.22,33.62-20s5.62,6.44-11,15.94c-8.75,5-9.82,10.45-9.33,13.35s3.86,8,8.75,7.37,7.3-8.16,11.72-9.45,2.34,7.3-.33,12.42a30.11,30.11,0,0,1-12.08,11.72c-4.07,2.05-16.59,9.13-16.59,9.13Z" style="fill: rgb(211, 118, 106); transform-origin: 218.694px 173.041px;" id="el1ohwad6b1a4" class="animable"></path><path d="M236.26,175.39c-1.7,1.63-3.59,3.71-6,4.07s-4.31-1.09-5.7-3a9.34,9.34,0,0,1-2-6.65,11.49,11.49,0,0,1,2.77-5.86,27.45,27.45,0,0,1,6.17-5.14c.1-.07,0-.21-.12-.15-2.15,1.25-8.86,4.88-9.59,11.24a9.57,9.57,0,0,0,2.11,6.76c1.3,1.84,3.08,3.55,5.48,3.48,2.93-.07,5.17-2.7,7.06-4.68C236.49,175.36,236.34,175.31,236.26,175.39Z" style="fill: rgb(38, 50, 56); transform-origin: 229.106px 169.394px;" id="elbp9jrjzdp45" class="animable"></path><path d="M250.29,140.09a15.78,15.78,0,0,1,3.41-2.44,15.53,15.53,0,0,1,3.88-1.56,17.41,17.41,0,0,1-7.29,4Z" style="fill: rgb(38, 50, 56); transform-origin: 253.935px 138.09px;" id="el2z63ihdg4h6" class="animable"></path><path d="M244.26,135.24a15.79,15.79,0,0,1,.68-4.13,15.38,15.38,0,0,1,1.64-3.84,15.25,15.25,0,0,1-.68,4.12A15.66,15.66,0,0,1,244.26,135.24Z" style="fill: rgb(38, 50, 56); transform-origin: 245.42px 131.255px;" id="eluusslzh9uho" class="animable"></path><path d="M236.56,136.08a17.59,17.59,0,0,1-4-7.28,15.43,15.43,0,0,1,2.43,3.4A15.68,15.68,0,0,1,236.56,136.08Z" style="fill: rgb(38, 50, 56); transform-origin: 234.56px 132.44px;" id="el25ycwd5ywph" class="animable"></path><path d="M231.71,142.12a15.72,15.72,0,0,1-4.12-.68,15.32,15.32,0,0,1-3.85-1.65,17.6,17.6,0,0,1,8,2.33Z" style="fill: rgb(38, 50, 56); transform-origin: 227.74px 140.955px;" id="elyibwry6m46" class="animable"></path><path d="M246.29,153.82a15.67,15.67,0,0,1,2.43,3.4,15.31,15.31,0,0,1,1.56,3.88,15.43,15.43,0,0,1-2.43-3.4A15.68,15.68,0,0,1,246.29,153.82Z" style="fill: rgb(38, 50, 56); transform-origin: 248.285px 157.46px;" id="elw6vbz7aqxo" class="animable"></path><path d="M251.14,147.78a17.7,17.7,0,0,1,8,2.33,15.79,15.79,0,0,1-4.13-.68A15.63,15.63,0,0,1,251.14,147.78Z" style="fill: rgb(38, 50, 56); transform-origin: 255.14px 148.945px;" id="el6whxv1vt59" class="animable"></path><path d="M129.15,180.94c1.59,6.85,8.13,19.69,8.13,19.69L163,195.24s-15.65-16.59-26.81-22.16C131.72,170.84,127.54,174,129.15,180.94Z" style="fill: rgb(255, 199, 39); transform-origin: 145.899px 186.499px;" id="elvc2cj7odtxl" class="animable"></path><path d="M129.15,180.94c1.59,6.85,8.13,19.69,8.13,19.69L163,195.24s-15.65-16.59-26.81-22.16C131.72,170.84,127.54,174,129.15,180.94Z" style="fill: rgb(255, 199, 39); transform-origin: 145.899px 186.499px;" id="el0604d12raw3a" class="animable"></path><path d="M136.72,197.12c3.77-1.05,7.54-2.05,11.37-2.88,1.91-.42,3.82-.8,5.74-1.16s3.87-.51,5.78-.9c.11,0,.13.15,0,.17-1.93.28-3.83.83-5.74,1.21s-3.82.79-5.73,1.2c-3.81.81-7.63,1.62-11.42,2.52C136.64,197.31,136.62,197.15,136.72,197.12Z" style="fill: rgb(38, 50, 56); transform-origin: 148.176px 194.732px;" id="el4wil0lf1f3u" class="animable"></path><path d="M145.66,182.59a8.22,8.22,0,0,1,1.11-1.89,8.41,8.41,0,0,1-.62,2.11A8.26,8.26,0,0,1,145,184.7,8.43,8.43,0,0,1,145.66,182.59Zm-10.51-2a8.11,8.11,0,0,0-1.9-1.12,8.29,8.29,0,0,0-2.11-.62,8.5,8.5,0,0,0,1.9,1.11A8.31,8.31,0,0,0,135.15,180.56Zm2.41,13.1a8.35,8.35,0,0,0,2.13-.56,7.94,7.94,0,0,0,1.94-1,8,8,0,0,0-2.13.56A8.33,8.33,0,0,0,137.56,193.66Zm12.49,2.21a8.22,8.22,0,0,0,.5,2l.52-.11A7.59,7.59,0,0,0,150.05,195.87Z" style="fill: rgb(255, 255, 255); transform-origin: 141.105px 188.375px;" id="el4zxzfgt363" class="animable"></path><path d="M158.23,196.24l-20.95,4.39s-6.54-12.84-8.13-19.69c-.92-3.95,0-6.67,1.87-7.87Z" style="fill: rgb(38, 50, 56); transform-origin: 143.51px 186.85px;" id="elznrzj4ncmeq" class="animable"></path><path d="M156.16,248.16S131.73,254,85.44,250c0,0,18.1-57.77,32.68-73.35,6.63-7.09,13.12-6,18.61-1.45,1.37,1.14,18.37,22.72,19.81,30.24,1.27,6.64-4.13,14-4.13,14Z" style="fill: rgb(255, 199, 39); transform-origin: 121.087px 211.48px;" id="ely2tqpyqphol" class="animable"></path><path d="M109.3,223.15a8.11,8.11,0,0,1,1.12-1.9,8.31,8.31,0,0,1-.63,2.11,8.5,8.5,0,0,1-1.11,1.9A8.29,8.29,0,0,1,109.3,223.15Zm19.3-22.66a8.54,8.54,0,0,0,1.12-1.9,8.29,8.29,0,0,0,.62-2.11,9.25,9.25,0,0,0-1.74,4ZM92.94,247.67a8.5,8.5,0,0,0,1.11-1.9,8.31,8.31,0,0,0,.63-2.11,7.91,7.91,0,0,0-1.12,1.89A8.37,8.37,0,0,0,92.94,247.67Zm44.26-16.54a8.54,8.54,0,0,0,1.12-1.9,8.29,8.29,0,0,0,.62-2.11,9.25,9.25,0,0,0-1.74,4ZM122.74,177a7.87,7.87,0,0,0,1.11-1.89,8,8,0,0,0,.63-2.12,8.13,8.13,0,0,0-1.11,1.9A8.43,8.43,0,0,0,122.74,177Zm3.69,45a8.07,8.07,0,0,0-1.9-1.11,7.91,7.91,0,0,0-2.11-.62,8.5,8.5,0,0,0,1.9,1.11A8.29,8.29,0,0,0,126.43,222Zm23.26-11.63a8.22,8.22,0,0,0-1.89-1.11,8.43,8.43,0,0,0-2.11-.63,7.91,7.91,0,0,0,1.89,1.12A8.41,8.41,0,0,0,149.69,210.34Zm-14.54-29.78a8.11,8.11,0,0,0-1.9-1.12,8.29,8.29,0,0,0-2.11-.62,8.5,8.5,0,0,0,1.9,1.11A8.31,8.31,0,0,0,135.15,180.56Zm1.11,65a8.07,8.07,0,0,0-1.9-1.11,7.8,7.8,0,0,0-2.11-.62,8.5,8.5,0,0,0,1.9,1.11A8.29,8.29,0,0,0,136.26,245.59ZM111,195.23a9.25,9.25,0,0,0-4-1.74,8.17,8.17,0,0,0,1.9,1.12A8.29,8.29,0,0,0,111,195.23Zm-4.1,44.15a8.11,8.11,0,0,0-1.9-1.12,8.29,8.29,0,0,0-2.11-.62,8.5,8.5,0,0,0,1.9,1.11A8.31,8.31,0,0,0,106.85,239.38Zm11.45-5.46a8.34,8.34,0,0,0,2.13-.55,8,8,0,0,0,1.94-1.06,9.24,9.24,0,0,0-4.07,1.61ZM147.63,224a8,8,0,0,0,2.13-.55,8.3,8.3,0,0,0,1.94-1,8,8,0,0,0-2.13.55A8.3,8.3,0,0,0,147.63,224Zm-32.35-16.86a8.45,8.45,0,0,0,2.13-.55,8.11,8.11,0,0,0,1.93-1.06,9.14,9.14,0,0,0-4.06,1.61Zm22.28-13.45a8.35,8.35,0,0,0,2.13-.56,7.94,7.94,0,0,0,1.94-1,8,8,0,0,0-2.13.56A8.33,8.33,0,0,0,137.56,193.66ZM93.79,229a8.46,8.46,0,0,0,2.13-.56,8.07,8.07,0,0,0,1.93-1A9.14,9.14,0,0,0,93.79,229Zm8-20.85a8,8,0,0,0,.55,2.13,8.44,8.44,0,0,0,1,1.93,8,8,0,0,0-.55-2.13A8.44,8.44,0,0,0,101.76,208.13Zm32.84,3a9.07,9.07,0,0,0,1.6,4.07,8,8,0,0,0-.55-2.13A8.3,8.3,0,0,0,134.6,211.16ZM147,239.65a9.24,9.24,0,0,0,1.61,4.07,8,8,0,0,0-.56-2.13A8.13,8.13,0,0,0,147,239.65Zm-31.67,4.63a8.46,8.46,0,0,0,.56,2.13,8.07,8.07,0,0,0,1.05,1.93,8.46,8.46,0,0,0-.56-2.13A8.07,8.07,0,0,0,115.29,244.28Zm3.27-59.63a8.46,8.46,0,0,0,.56,2.13,8.07,8.07,0,0,0,1,1.93,8.46,8.46,0,0,0-.56-2.13A8.07,8.07,0,0,0,118.56,184.65Zm31.49,11.22a8.46,8.46,0,0,0,.56,2.13,8.07,8.07,0,0,0,1,1.93,9.14,9.14,0,0,0-1.61-4.06Z" style="fill: rgb(255, 255, 255); transform-origin: 122.32px 210.665px;" id="elrbuohh0ateh" class="animable"></path><path d="M126.08,173.75c.06,1.28,4.44,10.32,10.09,11.09,1.84.25,3.64-9.74,3.64-9.74l.3-.7,4.22-9.9-10.69-10-1.56-1.35s-1,2.78-2.15,6.26c-.06.16-.11.32-.17.49s-.14.38-.2.57c-.18.51-.37,1-.54,1.57s-.27.8-.39,1.23-.26.84-.39,1.27A68.63,68.63,0,0,0,126.08,173.75Z" style="fill: rgb(211, 118, 106); transform-origin: 135.205px 168.997px;" id="elh5yfqqd0a2p" class="animable"></path><path d="M129.93,159.39a21.61,21.61,0,0,0,10.18,15l4.22-9.9-10.69-10-1.56-1.35S131.11,155.91,129.93,159.39Z" style="fill: rgb(38, 50, 56); transform-origin: 137.13px 163.765px;" id="ele9kcv6fed9" class="animable"></path><path d="M159.93,147.47c2.46,18.71-8.47,22.3-12.5,22.83-3.67.48-16.21,1.64-20.59-16.72s3.53-25.42,11.86-27S157.46,128.75,159.93,147.47Z" style="fill: rgb(211, 118, 106); transform-origin: 142.939px 148.382px;" id="eli4d1au4mfl" class="animable"></path><path d="M152.75,158.18a4.84,4.84,0,0,1-1.61,1.81,2.22,2.22,0,0,1-1.28.31c-1-.07-1.15-.92-1.12-1.68a5.33,5.33,0,0,1,.21-1.19A6.19,6.19,0,0,0,152.75,158.18Z" style="fill: rgb(38, 50, 56); transform-origin: 150.743px 158.867px;" id="eldys48gagelr" class="animable"></path><path d="M151.14,160a2.22,2.22,0,0,1-1.28.31c-1-.07-1.15-.92-1.12-1.68A2.23,2.23,0,0,1,151.14,160Z" style="fill: rgb(255, 153, 186); transform-origin: 149.938px 159.46px;" id="elo4z92g3k63" class="animable"></path><path d="M156.86,144.58c-.45,0-.86-.08-1.3-.12a2.14,2.14,0,0,1-1.3-.39.66.66,0,0,1-.08-.81,1.65,1.65,0,0,1,1.59-.57,2.51,2.51,0,0,1,1.62.69A.72.72,0,0,1,156.86,144.58Z" style="fill: rgb(38, 50, 56); transform-origin: 155.825px 143.62px;" id="elwdv60k7hqx" class="animable"></path><path d="M144,146a11.24,11.24,0,0,0,1.24-.41,2.13,2.13,0,0,0,1.18-.65.68.68,0,0,0-.09-.82,1.66,1.66,0,0,0-1.67-.2,2.37,2.37,0,0,0-1.43,1A.71.71,0,0,0,144,146Z" style="fill: rgb(38, 50, 56); transform-origin: 144.815px 144.902px;" id="elcthedpupxwi" class="animable"></path><path d="M147.47,150.23s-.1.07-.09.13c.21,1.27.24,2.75-.86,3.33,0,0,0,.08,0,.07C147.92,153.37,147.87,151.4,147.47,150.23Z" style="fill: rgb(38, 50, 56); transform-origin: 147.117px 151.995px;" id="el3zhwa2lxov8" class="animable"></path><path d="M146.15,149.05c-2.07.12-1.68,4.25.24,4.14S147.89,149,146.15,149.05Z" style="fill: rgb(38, 50, 56); transform-origin: 146.209px 151.121px;" id="elhvf55erun2l" class="animable"></path><path d="M145.36,149.35c-.34.26-.65.71-1.08.79s-.92-.3-1.29-.68c0,0-.07,0-.07,0,.06.79.44,1.58,1.3,1.62s1.28-.72,1.4-1.53C145.65,149.44,145.5,149.24,145.36,149.35Z" style="fill: rgb(38, 50, 56); transform-origin: 144.272px 150.2px;" id="elyd6axjxkj8m" class="animable"></path><path d="M154.55,149.3c0-.05.11,0,.11.1.07,1.28.37,2.74,1.56,3.07,0,0,0,.07,0,.07C154.79,152.46,154.41,150.52,154.55,149.3Z" style="fill: rgb(38, 50, 56); transform-origin: 155.371px 150.91px;" id="el2ij7uu8v3f6" class="animable"></path><path d="M155.58,147.86c2-.33,2.56,3.78.67,4.09S153.87,148.14,155.58,147.86Z" style="fill: rgb(38, 50, 56); transform-origin: 155.97px 149.904px;" id="elt6ygg312zsn" class="animable"></path><path d="M156.48,148c.35.18.72.54,1.11.51s.73-.51,1-1c0-.05.06,0,.07,0,.12.79,0,1.64-.78,1.89s-1.26-.39-1.55-1.15C156.25,148.19,156.33,148,156.48,148Z" style="fill: rgb(38, 50, 56); transform-origin: 157.499px 148.471px;" id="eljppz31d4ikc" class="animable"></path><path d="M148.3,160.75c.32.29.65.68,1.12.7a3.28,3.28,0,0,0,1.36-.39s.08,0,.06.07a1.74,1.74,0,0,1-1.6.77,1.37,1.37,0,0,1-1.06-1.09C148.16,160.74,148.25,160.71,148.3,160.75Z" style="fill: rgb(38, 50, 56); transform-origin: 149.51px 161.319px;" id="el0kxiunq9iet9" class="animable"></path><path d="M153.16,155.57s.46,1.88.56,2.78c0,.08-.21.14-.51.2h0a4.28,4.28,0,0,1-4.32-1.16.09.09,0,0,1,.12-.14,6.5,6.5,0,0,0,4,.71c0-.26-.91-3.2-.77-3.22a8,8,0,0,1,2.1.24c-.86-3.94-2.34-7.72-3.13-11.66a.13.13,0,0,1,.23-.09,65.61,65.61,0,0,1,3.9,12.43C155.46,156.16,153.53,155.68,153.16,155.57Z" style="fill: rgb(38, 50, 56); transform-origin: 152.102px 150.954px;" id="elfu8741kjlkp" class="animable"></path><path d="M128.42,154.85c2-.46,6.33-6.92,4.84-16.72,0,0,.73,8.89.29,10.29s2.42-3.63,1.33-11.55a32.44,32.44,0,0,0,8.79,2.83c3.9.41,6.17,0,6.39-.32s-5.55-1.12-7.32-2.58c0,0,10.68,2.94,15.31,2.52.53,0-.67-11-8.5-14.43s-18.17,3.44-20.69,6.85c0,0-3.44,1.1-6.4,7S126.26,155.34,128.42,154.85Z" style="fill: rgb(38, 50, 56); transform-origin: 139.94px 139.411px;" id="elx6ildsphj5g" class="animable"></path><path d="M144.55,156.87a5.92,5.92,0,1,1,5.76-7.38h0a5.94,5.94,0,0,1-4.29,7.2A6.16,6.16,0,0,1,144.55,156.87Zm0-11.06a5.57,5.57,0,0,0-1.27.15,5.16,5.16,0,1,0,1.27-.15Z" style="fill: rgb(69, 90, 100); transform-origin: 144.571px 150.95px;" id="el3r0qnxsfw4n" class="animable"></path><path d="M158.05,155.24c-2.26,0-4.32-2.33-4.67-5.4a7.11,7.11,0,0,1,.77-4.26,3.69,3.69,0,0,1,6.28-.72,7,7,0,0,1,1.71,4c.38,3.25-1.29,6.11-3.7,6.39A2.55,2.55,0,0,1,158.05,155.24Zm-.57-11-.3,0a3.13,3.13,0,0,0-2.34,1.73,6.3,6.3,0,0,0-.67,3.78c.32,2.81,2.19,4.91,4.18,4.68s3.33-2.7,3-5.51a6.27,6.27,0,0,0-1.52-3.52A3.24,3.24,0,0,0,157.48,144.22Z" style="fill: rgb(69, 90, 100); transform-origin: 157.757px 149.338px;" id="el9g1t00hxpx" class="animable"></path><path d="M150.19,150.2l-.57-.55c.8-.85,2.75-2.09,4.37-.72l-.52.6C152,148.3,150.27,150.12,150.19,150.2Z" style="fill: rgb(69, 90, 100); transform-origin: 151.805px 149.259px;" id="elunbaufxwm1f" class="animable"></path><path d="M124.14,154.73l-.74-.29c.14-.34,1.33-3.38,3.06-3.87s12.27-.68,12.72-.68l0,.79c-3.06.06-11.28.3-12.53.65S124.46,153.89,124.14,154.73Z" style="fill: rgb(69, 90, 100); transform-origin: 131.29px 152.31px;" id="eli6691nldt1q" class="animable"></path><path d="M127.71,160.49a3.9,3.9,0,0,0,.89.18,2.93,2.93,0,0,0,.89,0,2.68,2.68,0,0,0,1.07-.4,3.31,3.31,0,0,0,1.35-1.68l-1.26-5s-4.39-5.7-7-4.11S124.52,159.46,127.71,160.49Z" style="fill: rgb(211, 118, 106); transform-origin: 127.322px 154.952px;" id="eltytc1mfvrgp" class="animable"></path><path d="M124.71,151.86s0,.07,0,.08c2.24.79,3.49,2.78,4.39,4.86a1.75,1.75,0,0,0-2.65-.36c-.06,0,0,.13.06.11a2,2,0,0,1,2.19.59,9.21,9.21,0,0,1,1.11,1.7c.11.19.46.07.38-.15l0-.05C130.09,155.83,127.74,152,124.71,151.86Z" style="fill: rgb(38, 50, 56); transform-origin: 127.456px 155.397px;" id="el4vfrxokr2ph" class="animable"></path><path d="M127.94,159.68a.88.88,0,1,0,.64-1.06A.87.87,0,0,0,127.94,159.68Z" style="fill: rgb(255, 255, 255); transform-origin: 128.794px 159.473px;" id="elne9f0s2ajd" class="animable"></path><path d="M126.09,158.44a.6.6,0,0,0,.74.45.61.61,0,0,0,.46-.75.63.63,0,0,0-.75-.45A.61.61,0,0,0,126.09,158.44Z" style="fill: rgb(255, 255, 255); transform-origin: 126.69px 158.292px;" id="el6z2aj14yfru" class="animable"></path><path d="M115,180c-12.47,20.17-28.74,53.83-19.41,60C111,250.24,153.06,252.79,162.68,253c4.15.09,9.68-27.55,6.59-30.74s-47.12-1.25-47.7-3.91c-.33-1.51,1.92-14.94,4.57-31.64C129.19,167.44,118.6,174.22,115,180Z" style="fill: rgb(211, 118, 106); transform-origin: 131.498px 213.481px;" id="elev6d2y4nwd" class="animable"></path><path d="M166.88,216.49c10-1.39,12.82-.21,20.66-5.89,5.14-3.72,9.73-2,6.79,3.88-4.8,9.68-17.36,14.2-22.16,14.51Z" style="fill: rgb(211, 118, 106); transform-origin: 181.066px 218.814px;" id="elw5z2la4z7" class="animable"></path><path d="M140.24,226.15s11.27-6.26,21.81-8.8c7.29-1.77,23.58-3.83,39.16,12.24,3.69,3.81,6.26,11.86-2,7.83-5.89-2.86-8.77-6.46-12.5-7.5,0,0,2.05,10.63-1.91,14.18a98,98,0,0,1-11,8.55,21.05,21.05,0,0,1-1.79-1.92s-4,3-11.57,2.25Z" style="fill: rgb(211, 118, 106); transform-origin: 172.467px 234.633px;" id="eljeqeypzzz1" class="animable"></path><path d="M169.28,216.78c3.48,1.81,10.8,5.79,15.66,11.12,5.4,5.93,14.2,18.8,9.78,22.74-3.24,2.88-7-1.73-7-1.73s2.52,6.08-1,8c-3.18,1.79-5.9-1.95-5.9-1.95s.89,3.95-2.51,5.09c-4.09,1.37-5.29-7.15-10.63-9.34C166.47,250.27,169.28,216.78,169.28,216.78Z" style="fill: rgb(211, 118, 106); transform-origin: 181.65px 238.489px;" id="elnseolaq72i" class="animable"></path><path d="M177.5,232.59c3,2.25,8.5,9.1,10,16.19,0,.16-.07.27-.13.13a78.79,78.79,0,0,0-9.94-16.27S177.47,232.57,177.5,232.59Z" style="fill: rgb(38, 50, 56); transform-origin: 182.465px 240.78px;" id="eli9qfct0q8rs" class="animable"></path><path d="M171.85,238.33c2.39,2.2,7.74,9.51,9,16.75,0,.16-.08.27-.14.13a84.28,84.28,0,0,0-9-16.84S171.82,238.3,171.85,238.33Z" style="fill: rgb(38, 50, 56); transform-origin: 176.28px 246.798px;" id="ell1kpbeswdbg" class="animable"></path><path d="M152.88,220.3a55.54,55.54,0,0,1,13.8-3.92c2.38-.32,4.78-.47,7.16-.72a27.42,27.42,0,0,0,7-1.48,30.59,30.59,0,0,0,6.2-3.49,20.77,20.77,0,0,1,3.14-1.83,4.81,4.81,0,0,1,3.67-.25,2.42,2.42,0,0,1,1.49,1.23,3.33,3.33,0,0,1,.23,1.91,10.34,10.34,0,0,1-1.25,3.45,21.9,21.9,0,0,1-4.47,5.72l-.05-.48a56.77,56.77,0,0,1,9.15,6.38,26.63,26.63,0,0,1,3.82,4.12,11.15,11.15,0,0,1,2.43,5.14,3.19,3.19,0,0,1-.25,1.54,2.4,2.4,0,0,1-1.12,1.15,4.21,4.21,0,0,1-3,0,20.31,20.31,0,0,1-5-2.67c-1.53-1.08-3-2.24-4.47-3.3a26,26,0,0,0-2.3-1.51,7.61,7.61,0,0,0-2.43-1l.29-.53a69.49,69.49,0,0,1,4.75,6.45,34.18,34.18,0,0,1,3.59,7.18,15.71,15.71,0,0,1,1,3.93,5.24,5.24,0,0,1-.22,2.07,3.44,3.44,0,0,1-1.3,1.68,4.2,4.2,0,0,1-4,.45,8.72,8.72,0,0,1-3.25-2.44l.38-.24a12.49,12.49,0,0,1,1,3.84,4.85,4.85,0,0,1-1.09,3.81,3.71,3.71,0,0,1-3.78,1,7.54,7.54,0,0,1-3.25-2.26L181,255a6.11,6.11,0,0,1-.05,2.41,3.71,3.71,0,0,1-1.22,2.07,4,4,0,0,1-2.22.89,3,3,0,0,1-2.15-1,24,24,0,0,1-2.78-3.82,15.59,15.59,0,0,0-3-3.65,15.88,15.88,0,0,1,3,3.6,23.19,23.19,0,0,0,2.83,3.75,2.82,2.82,0,0,0,2,.92,3.69,3.69,0,0,0,2.07-.87,4.44,4.44,0,0,0,1.11-4.22l-.11-.56.39.41a7.37,7.37,0,0,0,3.11,2.12,3.34,3.34,0,0,0,3.39-.9,4.51,4.51,0,0,0,1-3.5,12.33,12.33,0,0,0-1-3.69l-.54-1.28.92,1a8.21,8.21,0,0,0,3.07,2.3,3.76,3.76,0,0,0,3.57-.42,3.39,3.39,0,0,0,1.27-3.3,15.07,15.07,0,0,0-1-3.79,32.79,32.79,0,0,0-3.58-7,66.75,66.75,0,0,0-4.73-6.36l-.56-.67.84.14a8,8,0,0,1,2.69,1.07c.81.47,1.59,1,2.35,1.53,1.52,1.07,3,2.23,4.48,3.27A19.1,19.1,0,0,0,201,238a3.5,3.5,0,0,0,2.44.09,1.92,1.92,0,0,0,1-2,10.51,10.51,0,0,0-2.27-4.78,26.66,26.66,0,0,0-3.69-4,57.32,57.32,0,0,0-9-6.36l-.36-.21.31-.27a21.36,21.36,0,0,0,4.37-5.53,9.91,9.91,0,0,0,1.21-3.26,2.81,2.81,0,0,0-.17-1.61,2,2,0,0,0-1.2-1,4.34,4.34,0,0,0-3.31.22,20.5,20.5,0,0,0-3.07,1.77,31.15,31.15,0,0,1-6.32,3.5c-4.59,1.71-9.5,1.49-14.23,2.05A56,56,0,0,0,152.88,220.3Z" style="fill: rgb(38, 50, 56); transform-origin: 179.046px 234.365px;" id="elxbxu6xf634" class="animable"></path><path d="M99.08,205.6l26.68-2.81s1.83-13.36,1.8-20.89c0-10-3.75-12.29-11.76-3.06C110.44,185,99.08,205.6,99.08,205.6Z" style="fill: rgb(255, 199, 39); transform-origin: 113.32px 189.31px;" id="elyf3uy0h8vqq" class="animable"></path><path d="M123.37,174.86a8.13,8.13,0,0,1,1.11-1.9,8,8,0,0,1-.63,2.12,7.87,7.87,0,0,1-1.11,1.89A8.43,8.43,0,0,1,123.37,174.86ZM111,195.23a9.25,9.25,0,0,0-4-1.74,8.17,8.17,0,0,0,1.9,1.12A8.29,8.29,0,0,0,111,195.23Zm7.61-10.58a8.46,8.46,0,0,0,.56,2.13,8.07,8.07,0,0,0,1,1.93,8.46,8.46,0,0,0-.56-2.13A8.07,8.07,0,0,0,118.56,184.65Z" style="fill: rgb(255, 255, 255); transform-origin: 115.74px 184.095px;" id="elr9qbe5am5" class="animable"></path><path d="M122.5,203.14c.29-.08,3-.46,3.22-.43.18-1.58.33-3.16.52-4.73.1-.79.21-1.58.33-2.36s.24-1.85.36-2.61c0-.12.18-.11.17,0-.06,1-.13,1.76-.18,2.63s-.12,1.56-.2,2.33c-.17,1.65-.29,3.4-.55,5a25.44,25.44,0,0,1-3.66.22C122.46,203.23,122.46,203.15,122.5,203.14Z" style="fill: rgb(38, 50, 56); transform-origin: 124.786px 198.062px;" id="elzlta0owng6p" class="animable"></path><path d="M101.53,202.78c3.85-.68,7.7-1.3,11.59-1.75,1.94-.22,3.88-.42,5.82-.58s3.91-.13,5.85-.33c.1,0,.11.17,0,.17-1.94.09-3.89.45-5.83.65s-3.88.4-5.82.62c-3.88.43-7.75.86-11.62,1.39C101.43,203,101.42,202.8,101.53,202.78Z" style="fill: rgb(38, 50, 56); transform-origin: 113.159px 201.539px;" id="el9jh5yvwz0ke" class="animable"></path></g><g id="freepik--Desk--inject-9" class="animable" style="transform-origin: 258px 356.025px;"><rect x="78.73" y="260.2" width="358.54" height="12.75" style="fill: rgb(38, 50, 56); transform-origin: 258px 266.575px;" id="el4umsdzbnyud" class="animable"></rect><rect x="78.73" y="267.97" width="358.54" height="4.98" style="fill: rgb(69, 90, 100); transform-origin: 258px 270.46px;" id="elkyzpdtnlwgm" class="animable"></rect><polygon points="91.59 451.85 86.44 451.85 101.44 272.95 114.59 272.95 91.59 451.85" style="fill: rgb(69, 90, 100); transform-origin: 100.515px 362.4px;" id="el13bdlv50wv1o" class="animable"></polygon><polygon points="114.59 272.95 113.05 284.92 100.44 284.92 101.44 272.95 114.59 272.95" style="fill: rgb(38, 50, 56); transform-origin: 107.515px 278.935px;" id="el9lowh3rpgqn" class="animable"></polygon><polygon points="424.41 451.85 429.56 451.85 414.56 272.95 401.41 272.95 424.41 451.85" style="fill: rgb(69, 90, 100); transform-origin: 415.485px 362.4px;" id="elw0y37xnxb" class="animable"></polygon><polygon points="401.41 272.95 402.95 284.92 415.56 284.92 414.56 272.95 401.41 272.95" style="fill: rgb(38, 50, 56); transform-origin: 408.485px 278.935px;" id="elbn4vnjgjoh6" class="animable"></polygon></g><g id="freepik--Windows--inject-9" class="animable" style="transform-origin: 291.76px 152.05px;"><rect x="332.06" y="55.78" width="106.3" height="76.25" style="fill: rgb(255, 255, 255); transform-origin: 385.21px 93.905px;" id="elqxftv9lviga" class="animable"></rect><path d="M438.61,132.28H331.81V55.53h106.8Zm-106.3-.5h105.8V56H332.31Z" style="fill: rgb(235, 235, 235); transform-origin: 385.21px 93.905px;" id="elyqf8eeuje8h" class="animable"></path><rect x="332.06" y="55.78" width="106.3" height="9.3" style="fill: rgb(255, 199, 39); transform-origin: 385.21px 60.43px;" id="el6lg55z00dy9" class="animable"></rect><path d="M438.61,65.33H331.81v-9.8h106.8Zm-106.3-.5h105.8V56H332.31Z" style="fill: rgb(235, 235, 235); transform-origin: 385.21px 60.43px;" id="elj2mtjp01bql" class="animable"></path><path d="M340.79,60.5a2.34,2.34,0,1,1-2.34-2.34A2.34,2.34,0,0,1,340.79,60.5Z" style="fill: rgb(38, 50, 56); transform-origin: 338.45px 60.5px;" id="elply7nyidmdm" class="animable"></path><path d="M350.35,60.5A2.34,2.34,0,1,1,348,58.16,2.34,2.34,0,0,1,350.35,60.5Z" style="fill: rgb(235, 235, 235); transform-origin: 348.01px 60.5px;" id="elk6mk2uukjhg" class="animable"></path><path d="M359.91,60.5a2.34,2.34,0,1,1-2.34-2.34A2.34,2.34,0,0,1,359.91,60.5Z" style="fill: rgb(69, 90, 100); transform-origin: 357.57px 60.5px;" id="el73505iojos6" class="animable"></path><rect x="332.06" y="64.58" width="106.3" height="1" style="fill: rgb(235, 235, 235); transform-origin: 385.21px 65.08px;" id="elep1qowho5sd" class="animable"></rect><rect x="341.76" y="79.68" width="3.42" height="1.25" style="fill: rgb(235, 235, 235); transform-origin: 343.47px 80.305px;" id="ellhbkxrmacao" class="animable"></rect><rect x="347.66" y="79.68" width="42.27" height="1.25" style="fill: rgb(235, 235, 235); transform-origin: 368.795px 80.305px;" id="el9gqoescw74b" class="animable"></rect><rect x="392.03" y="79.68" width="7.49" height="1.25" style="fill: rgb(255, 199, 39); transform-origin: 395.775px 80.305px;" id="el2jaq0d374ja" class="animable"></rect><rect x="403.42" y="96.37" width="6.49" height="1.25" style="fill: rgb(235, 235, 235); transform-origin: 406.665px 96.995px;" id="el0y70uomgc9vd" class="animable"></rect><rect x="400.93" y="79.68" width="21.87" height="1.25" style="fill: rgb(166, 166, 166); transform-origin: 411.865px 80.305px;" id="elfv7a7y9e19i" class="animable"></rect><rect x="345.17" y="83.01" width="3.42" height="1.25" style="fill: rgb(235, 235, 235); transform-origin: 346.88px 83.635px;" id="elav2ypag2c8v" class="animable"></rect><rect x="350.99" y="83.01" width="33.71" height="1.25" style="fill: rgb(166, 166, 166); transform-origin: 367.845px 83.635px;" id="eltbtnwvgrt9d" class="animable"></rect><rect x="391.15" y="96.37" width="10.73" height="1.25" style="fill: rgb(166, 166, 166); transform-origin: 396.515px 96.995px;" id="eld8sehlq5qet" class="animable"></rect><rect x="347.66" y="93.03" width="24.56" height="1.25" style="fill: rgb(166, 166, 166); transform-origin: 359.94px 93.655px;" id="elm38zgcrfumr" class="animable"></rect><rect x="350.99" y="86.35" width="17.23" height="1.25" style="fill: rgb(255, 199, 39); transform-origin: 359.605px 86.975px;" id="elyuyd8sfogpr" class="animable"></rect><rect x="397.37" y="89.69" width="17.23" height="1.25" style="fill: rgb(166, 166, 166); transform-origin: 405.985px 90.315px;" id="elt57cdpf4vrj" class="animable"></rect><rect x="370.14" y="86.35" width="31.6" height="1.25" style="fill: rgb(166, 166, 166); transform-origin: 385.94px 86.975px;" id="elbjzh52q72y" class="animable"></rect><rect x="347.66" y="96.37" width="41.26" height="1.25" style="fill: rgb(255, 199, 39); transform-origin: 368.29px 96.995px;" id="el5e0sjxp5z1w" class="animable"></rect><rect x="400.21" y="83.01" width="28.46" height="1.25" style="fill: rgb(255, 199, 39); transform-origin: 414.44px 83.635px;" id="el3bqbailn7d8" class="animable"></rect><rect x="386.32" y="83.01" width="12.48" height="1.25" style="fill: rgb(235, 235, 235); transform-origin: 392.56px 83.635px;" id="elfqvhw29iqcm" class="animable"></rect><rect x="413.69" y="86.35" width="11.06" height="1.25" style="fill: rgb(235, 235, 235); transform-origin: 419.22px 86.975px;" id="el8wzx9mieogh" class="animable"></rect><rect x="345.17" y="86.35" width="3.42" height="1.25" style="fill: rgb(235, 235, 235); transform-origin: 346.88px 86.975px;" id="elc1o23xp83n9" class="animable"></rect><rect x="341.76" y="89.69" width="3.42" height="1.25" style="fill: rgb(166, 166, 166); transform-origin: 343.47px 90.315px;" id="eludyf7fnnw7" class="animable"></rect><rect x="347.66" y="89.69" width="20.19" height="1.25" style="fill: rgb(235, 235, 235); transform-origin: 357.755px 90.315px;" id="elyxy49pu7nor" class="animable"></rect><rect x="350.99" y="99.71" width="20.19" height="1.25" style="fill: rgb(235, 235, 235); transform-origin: 361.085px 100.335px;" id="elq6k1a5pmtg" class="animable"></rect><rect x="391.72" y="103.05" width="27" height="1.25" style="fill: rgb(255, 199, 39); transform-origin: 405.22px 103.675px;" id="el1p5u2aa8rum" class="animable"></rect><rect x="372.82" y="99.71" width="23.33" height="1.25" style="fill: rgb(255, 199, 39); transform-origin: 384.485px 100.335px;" id="el5jrn4bber6a" class="animable"></rect><rect x="369.25" y="103.05" width="20.71" height="1.25" style="fill: rgb(235, 235, 235); transform-origin: 379.605px 103.675px;" id="elcnxjqjflx5r" class="animable"></rect><rect x="350.99" y="103.05" width="5.84" height="1.25" style="fill: rgb(166, 166, 166); transform-origin: 353.91px 103.675px;" id="el9463jjcarrg" class="animable"></rect><rect x="373.61" y="93.03" width="25.91" height="1.25" style="fill: rgb(235, 235, 235); transform-origin: 386.565px 93.655px;" id="ell6dyb9v9j0b" class="animable"></rect><rect x="400.93" y="93.03" width="24.54" height="1.25" style="fill: rgb(255, 199, 39); transform-origin: 413.2px 93.655px;" id="el045pn9vlwox1" class="animable"></rect><rect x="369.9" y="89.69" width="24.88" height="1.25" style="fill: rgb(255, 199, 39); transform-origin: 382.34px 90.315px;" id="elepig02zvokk" class="animable"></rect><rect x="341.76" y="93.03" width="3.42" height="1.25" style="fill: rgb(235, 235, 235); transform-origin: 343.47px 93.655px;" id="el9rld63pfui8" class="animable"></rect><rect x="341.76" y="96.37" width="3.42" height="1.25" style="fill: rgb(235, 235, 235); transform-origin: 343.47px 96.995px;" id="el9qena4ww6tp" class="animable"></rect><rect x="345.17" y="99.71" width="3.42" height="1.25" style="fill: rgb(166, 166, 166); transform-origin: 346.88px 100.335px;" id="ely4pbtjm1j5n" class="animable"></rect><rect x="345.17" y="103.05" width="3.42" height="1.25" style="fill: rgb(235, 235, 235); transform-origin: 346.88px 103.675px;" id="elsn6bsnj2rbf" class="animable"></rect><rect x="341.76" y="105.85" width="3.42" height="1.25" style="fill: rgb(235, 235, 235); transform-origin: 343.47px 106.475px;" id="elp93yzax715" class="animable"></rect><rect x="347.66" y="105.85" width="48.05" height="1.25" style="fill: rgb(235, 235, 235); transform-origin: 371.685px 106.475px;" id="el19k9hlo1k5d" class="animable"></rect><rect x="345.17" y="109.18" width="3.42" height="1.25" style="fill: rgb(235, 235, 235); transform-origin: 346.88px 109.805px;" id="ely9itqdlvxnh" class="animable"></rect><rect x="350.99" y="109.18" width="33.71" height="1.25" style="fill: rgb(166, 166, 166); transform-origin: 367.845px 109.805px;" id="ela3m9uycpq3" class="animable"></rect><rect x="347.66" y="119.2" width="24.56" height="1.25" style="fill: rgb(166, 166, 166); transform-origin: 359.94px 119.825px;" id="el2cacxn98kxn" class="animable"></rect><rect x="350.99" y="112.52" width="17.23" height="1.25" style="fill: rgb(255, 199, 39); transform-origin: 359.605px 113.145px;" id="elb0ecnabxng8" class="animable"></rect><rect x="370.14" y="112.52" width="31.6" height="1.25" style="fill: rgb(166, 166, 166); transform-origin: 385.94px 113.145px;" id="elps0kw1hzagm" class="animable"></rect><rect x="347.66" y="122.54" width="41.26" height="1.25" style="fill: rgb(255, 199, 39); transform-origin: 368.29px 123.165px;" id="elxc7t08p1o5" class="animable"></rect><rect x="400.21" y="109.18" width="28.46" height="1.25" style="fill: rgb(255, 199, 39); transform-origin: 414.44px 109.805px;" id="elwisrjd5th1a" class="animable"></rect><rect x="386.32" y="109.18" width="12.48" height="1.25" style="fill: rgb(235, 235, 235); transform-origin: 392.56px 109.805px;" id="elpu6xfqidhb" class="animable"></rect><rect x="413.69" y="112.52" width="11.06" height="1.25" style="fill: rgb(235, 235, 235); transform-origin: 419.22px 113.145px;" id="el5ppylosr0pe" class="animable"></rect><rect x="345.17" y="112.52" width="3.42" height="1.25" style="fill: rgb(235, 235, 235); transform-origin: 346.88px 113.145px;" id="elni36zun75d" class="animable"></rect><rect x="341.76" y="115.86" width="3.42" height="1.25" style="fill: rgb(166, 166, 166); transform-origin: 343.47px 116.485px;" id="elpsgz7u8l25" class="animable"></rect><rect x="347.66" y="115.86" width="20.19" height="1.25" style="fill: rgb(235, 235, 235); transform-origin: 357.755px 116.485px;" id="eljttujp50bma" class="animable"></rect><rect x="373.61" y="119.2" width="25.91" height="1.25" style="fill: rgb(235, 235, 235); transform-origin: 386.565px 119.825px;" id="elrigmfdo1zsj" class="animable"></rect><rect x="369.9" y="115.86" width="24.88" height="1.25" style="fill: rgb(255, 199, 39); transform-origin: 382.34px 116.485px;" id="elgjhwk898k8a" class="animable"></rect><rect x="341.76" y="119.2" width="3.42" height="1.25" style="fill: rgb(235, 235, 235); transform-origin: 343.47px 119.825px;" id="elyht91mm71bi" class="animable"></rect><path d="M343.87,76.39a.3.3,0,1,1-.42.42l-1.32-1.33,0,0h0a.08.08,0,0,1,0,0,0,0,0,0,1,0,0,0,0,0,0,0,0,0v-.14s0,0,0,0a0,0,0,0,0,0,0h0s0,0,0-.05h0l0,0,1.32-1.33a.3.3,0,0,1,.42.42l-1.11,1.12Z" style="fill: rgb(255, 199, 39); transform-origin: 343.06px 75.415px;" id="el8lilkshxmw2" class="animable"></path><path d="M345.06,76.54l1.15-2.73a.25.25,0,0,1,.34-.14.26.26,0,0,1,.14.33l-1.15,2.74a.27.27,0,0,1-.24.16l-.1,0A.27.27,0,0,1,345.06,76.54Z" style="fill: rgb(255, 199, 39); transform-origin: 345.871px 75.2733px;" id="elgfgypu7a3b5" class="animable"></path><path d="M349,75.44h0l0,0-1.32,1.33a.3.3,0,0,1-.21.09.3.3,0,0,1-.21-.51l1.11-1.12-1.11-1.12a.3.3,0,1,1,.42-.42l1.32,1.33,0,0h0l0,.05h0s0,0,0,0h0v.12h0s0,0,0,0v0S349,75.42,349,75.44Z" style="fill: rgb(255, 199, 39); transform-origin: 348.07px 75.215px;" id="elyn0y5vz8x8f" class="animable"></path><polygon points="432.87 253.81 431.67 253.81 431.67 253 432.07 253 432.07 252.6 432.87 252.6 432.87 253.81" style="fill: rgb(235, 235, 235); transform-origin: 432.27px 253.205px;" id="eln5pl36mcxh" class="animable"></polygon><path d="M430.07,253.81h-1.61V253h1.61Zm-3.21,0h-1.6V253h1.6Zm-3.2,0h-1.6V253h1.6Zm-3.21,0h-1.6V253h1.6Zm-3.2,0h-1.6V253h1.6Zm-3.2,0h-1.61V253h1.61Zm-3.21,0h-1.6V253h1.6Zm-3.2,0H406V253h1.6Zm-3.21,0h-1.6V253h1.6Zm-3.2,0h-1.6V253h1.6Zm-3.2,0h-1.61V253H398Zm-3.21,0h-1.6V253h1.6Zm-3.2,0H390V253h1.6Zm-3.21,0h-1.6V253h1.6Zm-3.2,0h-1.6V253h1.6Zm-3.2,0h-1.6V253H382Zm-3.21,0h-1.6V253h1.6Z" style="fill: rgb(235, 235, 235); transform-origin: 403.635px 253.405px;" id="elqwxlwipqf7" class="animable"></path><polygon points="375.6 253.81 374.4 253.81 374.4 252.6 375.2 252.6 375.2 253 375.6 253 375.6 253.81" style="fill: rgb(235, 235, 235); transform-origin: 375px 253.205px;" id="el544izp0z0x9" class="animable"></polygon><path d="M375.2,251h-.8v-1.6h.8Zm0-3.2h-.8v-1.6h.8Zm0-3.21h-.8V243h.8Zm0-3.2h-.8v-1.6h.8Zm0-3.2h-.8v-1.61h.8Zm0-3.21h-.8v-1.6h.8Zm0-3.2h-.8v-1.6h.8Zm0-3.2h-.8V227h.8Zm0-3.21h-.8v-1.6h.8Zm0-3.2h-.8v-1.6h.8Zm0-3.21h-.8v-1.6h.8Zm0-3.2h-.8v-1.6h.8Zm0-3.2h-.8V211h.8Zm0-3.21h-.8v-1.6h.8Zm0-3.2h-.8v-1.6h.8Zm0-3.21h-.8v-1.6h.8Zm0-3.2h-.8v-1.6h.8Z" style="fill: rgb(235, 235, 235); transform-origin: 374.8px 224.57px;" id="elx8omx5acae" class="animable"></path><polygon points="375.2 196.54 374.4 196.54 374.4 195.33 375.6 195.33 375.6 196.14 375.2 196.14 375.2 196.54" style="fill: rgb(235, 235, 235); transform-origin: 375px 195.935px;" id="el9mrizgyeg38" class="animable"></polygon><path d="M430.07,196.14h-1.61v-.81h1.61Zm-3.21,0h-1.6v-.81h1.6Zm-3.2,0h-1.6v-.81h1.6Zm-3.21,0h-1.6v-.81h1.6Zm-3.2,0h-1.6v-.81h1.6Zm-3.2,0h-1.61v-.81h1.61Zm-3.21,0h-1.6v-.81h1.6Zm-3.2,0H406v-.81h1.6Zm-3.21,0h-1.6v-.81h1.6Zm-3.2,0h-1.6v-.81h1.6Zm-3.2,0h-1.61v-.81H398Zm-3.21,0h-1.6v-.81h1.6Zm-3.2,0H390v-.81h1.6Zm-3.2,0h-1.61v-.81h1.61Zm-3.21,0h-1.6v-.81h1.6Zm-3.2,0h-1.6v-.81H382Zm-3.21,0h-1.6v-.81h1.6Z" style="fill: rgb(235, 235, 235); transform-origin: 403.635px 195.735px;" id="elhffc3b7748r" class="animable"></path><polygon points="432.87 196.54 432.07 196.54 432.07 196.14 431.67 196.14 431.67 195.33 432.87 195.33 432.87 196.54" style="fill: rgb(235, 235, 235); transform-origin: 432.27px 195.935px;" id="elll9e9vfs7y" class="animable"></polygon><path d="M432.87,251h-.8v-1.6h.8Zm0-3.2h-.8v-1.6h.8Zm0-3.2h-.8V243h.8Zm0-3.21h-.8v-1.6h.8Zm0-3.2h-.8v-1.6h.8Zm0-3.21h-.8v-1.6h.8Zm0-3.2h-.8v-1.6h.8Zm0-3.2h-.8V227h.8Zm0-3.21h-.8v-1.6h.8Zm0-3.2h-.8v-1.6h.8Zm0-3.21h-.8v-1.6h.8Zm0-3.2h-.8v-1.6h.8Zm0-3.2h-.8V211h.8Zm0-3.21h-.8v-1.6h.8Zm0-3.2h-.8v-1.6h.8Zm0-3.21h-.8v-1.6h.8Zm0-3.2h-.8v-1.6h.8Z" style="fill: rgb(235, 235, 235); transform-origin: 432.47px 224.57px;" id="elp6g0u8tfvnj" class="animable"></path><rect x="371.2" y="249.81" width="7.19" height="7.19" style="fill: rgb(255, 255, 255); transform-origin: 374.795px 253.405px;" id="elol5qkdkb8sk" class="animable"></rect><path d="M378.79,257.4h-8v-8h8Zm-7.18-.8H378v-6.39h-6.38Z" style="fill: rgb(235, 235, 235); transform-origin: 374.79px 253.4px;" id="eltqomlzmykj" class="animable"></path><rect x="371.23" y="220.98" width="7.19" height="7.19" style="fill: rgb(255, 255, 255); transform-origin: 374.825px 224.575px;" id="elb1b0e6bu47h" class="animable"></rect><path d="M378.79,228.56h-8v-8h8Zm-7.18-.8H378v-6.38h-6.38Z" style="fill: rgb(235, 235, 235); transform-origin: 374.79px 224.56px;" id="elyzrliky68i9" class="animable"></path><rect x="371.23" y="192.14" width="7.19" height="7.19" style="fill: rgb(255, 255, 255); transform-origin: 374.825px 195.735px;" id="el2dwuidpycxb" class="animable"></rect><path d="M378.79,199.73h-8v-8h8Zm-7.18-.8H378v-6.39h-6.38Z" style="fill: rgb(235, 235, 235); transform-origin: 374.79px 195.73px;" id="elq25cs5wwclq" class="animable"></path><rect x="428.91" y="249.81" width="7.19" height="7.19" style="fill: rgb(255, 255, 255); transform-origin: 432.505px 253.405px;" id="el33gvhiun7wv" class="animable"></rect><path d="M436.46,257.4h-8v-8h8Zm-7.18-.8h6.38v-6.39h-6.38Z" style="fill: rgb(235, 235, 235); transform-origin: 432.46px 253.4px;" id="elncodukngwt" class="animable"></path><rect x="428.91" y="220.98" width="7.19" height="7.19" style="fill: rgb(255, 255, 255); transform-origin: 432.505px 224.575px;" id="elihajimrxu9i" class="animable"></rect><path d="M436.46,228.56h-8v-8h8Zm-7.18-.8h6.38v-6.38h-6.38Z" style="fill: rgb(235, 235, 235); transform-origin: 432.46px 224.56px;" id="elby5m9d30e66" class="animable"></path><rect x="428.91" y="192.14" width="7.19" height="7.19" style="fill: rgb(255, 255, 255); transform-origin: 432.505px 195.735px;" id="elqgppajwp4tl" class="animable"></rect><path d="M436.46,199.73h-8v-8h8Zm-7.18-.8h6.38v-6.39h-6.38Z" style="fill: rgb(235, 235, 235); transform-origin: 432.46px 195.73px;" id="el3zcwxxodh8m" class="animable"></path><rect x="400.07" y="192.14" width="7.19" height="7.19" style="fill: rgb(255, 255, 255); transform-origin: 403.665px 195.735px;" id="eli6ku8q8p3od" class="animable"></rect><path d="M407.63,199.73h-8v-8h8Zm-7.19-.8h6.39v-6.39h-6.39Z" style="fill: rgb(235, 235, 235); transform-origin: 403.63px 195.73px;" id="el5wma4rn6aho" class="animable"></path><rect x="400.04" y="249.81" width="7.19" height="7.19" style="fill: rgb(255, 255, 255); transform-origin: 403.635px 253.405px;" id="ellkjej0anx9c" class="animable"></rect><path d="M407.63,257.4h-8v-8h8Zm-7.19-.8h6.39v-6.39h-6.39Z" style="fill: rgb(235, 235, 235); transform-origin: 403.63px 253.4px;" id="elupd6mmofke" class="animable"></path><rect x="296.92" y="118.57" width="97.3" height="124.25" style="fill: rgb(255, 255, 255); transform-origin: 345.57px 180.695px;" id="elzkt1qp5kag" class="animable"></rect><path d="M394.47,243.07h-97.8V118.32h97.8Zm-97.3-.5H394V118.82h-96.8Z" style="fill: rgb(235, 235, 235); transform-origin: 345.57px 180.695px;" id="el0u5cwaj2h20c" class="animable"></path><rect x="296.92" y="118.57" width="97.3" height="9.3" style="fill: rgb(255, 199, 39); transform-origin: 345.57px 123.22px;" id="elxcg050w37da" class="animable"></rect><path d="M394.47,128.12h-97.8v-9.8h97.8Zm-97.3-.5H394v-8.8h-96.8Z" style="fill: rgb(235, 235, 235); transform-origin: 345.57px 123.22px;" id="el3h8c1iq60mo" class="animable"></path><path d="M305.65,123.29a2.34,2.34,0,1,1-2.34-2.34A2.34,2.34,0,0,1,305.65,123.29Z" style="fill: rgb(38, 50, 56); transform-origin: 303.31px 123.29px;" id="elno9gg773jyj" class="animable"></path><path d="M315.21,123.29a2.34,2.34,0,1,1-2.34-2.34A2.34,2.34,0,0,1,315.21,123.29Z" style="fill: rgb(235, 235, 235); transform-origin: 312.87px 123.29px;" id="eld5mkp6qfinh" class="animable"></path><path d="M324.77,123.29a2.34,2.34,0,1,1-2.34-2.34A2.34,2.34,0,0,1,324.77,123.29Z" style="fill: rgb(69, 90, 100); transform-origin: 322.43px 123.29px;" id="el04oa82z5a3ly" class="animable"></path><rect x="296.92" y="127.37" width="97.3" height="1" style="fill: rgb(235, 235, 235); transform-origin: 345.57px 127.87px;" id="eleheosxbnxqi" class="animable"></rect><rect x="303.7" y="214.56" width="47.73" height="4.46" style="fill: rgb(199, 199, 199); transform-origin: 327.565px 216.79px;" id="elybyc55bphrf" class="animable"></rect><rect x="303.7" y="223.22" width="83.74" height="2.69" style="fill: rgb(235, 235, 235); transform-origin: 345.57px 224.565px;" id="elbditrgyjob" class="animable"></rect><rect x="303.7" y="228.35" width="83.74" height="2.69" style="fill: rgb(235, 235, 235); transform-origin: 345.57px 229.695px;" id="elbsbpn3au389" class="animable"></rect><rect x="303.7" y="233.47" width="83.74" height="2.69" style="fill: rgb(235, 235, 235); transform-origin: 345.57px 234.815px;" id="elzj2116bkyb" class="animable"></rect><g id="elaiic99on17"><rect x="303.77" y="133.43" width="83.59" height="75.64" style="fill: rgb(255, 255, 255); transform-origin: 345.565px 171.25px; transform: rotate(180deg);" class="animable"></rect></g><path d="M387.62,209.32h-84.1V133.18h84.1Zm-83.6-.5h83.1V133.68H304Z" style="fill: rgb(235, 235, 235); transform-origin: 345.57px 171.25px;" id="el6ela6lu4rdd" class="animable"></path><line x1="303.77" y1="133.43" x2="387.37" y2="209.07" style="fill: rgb(255, 255, 255); transform-origin: 345.57px 171.25px;" id="elpcuypv5kpb" class="animable"></line><g id="el59swl5n253a"><rect x="345.32" y="114.88" width="0.5" height="112.73" style="fill: rgb(235, 235, 235); transform-origin: 345.57px 171.245px; transform: rotate(-47.86deg);" class="animable"></rect></g><line x1="387.37" y1="133.43" x2="303.77" y2="209.07" style="fill: rgb(255, 255, 255); transform-origin: 345.57px 171.25px;" id="elmlrcc10sw4d" class="animable"></line><g id="elczzj1fmlwn"><rect x="289.2" y="171" width="112.73" height="0.5" style="fill: rgb(235, 235, 235); transform-origin: 345.565px 171.25px; transform: rotate(-42.15deg);" class="animable"></rect></g><rect x="145.16" y="46.95" width="97.3" height="64.25" style="fill: rgb(255, 255, 255); transform-origin: 193.81px 79.075px;" id="elsffw1ay3gxp" class="animable"></rect><path d="M242.71,111.45h-97.8V46.7h97.8Zm-97.3-.5h96.8V47.2h-96.8Z" style="fill: rgb(235, 235, 235); transform-origin: 193.81px 79.075px;" id="eln27tzsx3nx" class="animable"></path><rect x="145.16" y="46.95" width="97.3" height="9.3" style="fill: rgb(255, 199, 39); transform-origin: 193.81px 51.6px;" id="elrgs0ghya64q" class="animable"></rect><path d="M242.71,56.5h-97.8V46.7h97.8Zm-97.3-.5h96.8V47.2h-96.8Z" style="fill: rgb(235, 235, 235); transform-origin: 193.81px 51.6px;" id="ell3dk70z048" class="animable"></path><path d="M153.89,51.66a2.34,2.34,0,1,1-2.34-2.34A2.34,2.34,0,0,1,153.89,51.66Z" style="fill: rgb(38, 50, 56); transform-origin: 151.55px 51.66px;" id="el8gv2b4l6hnu" class="animable"></path><path d="M163.45,51.66a2.34,2.34,0,1,1-2.34-2.34A2.34,2.34,0,0,1,163.45,51.66Z" style="fill: rgb(235, 235, 235); transform-origin: 161.11px 51.66px;" id="elep58f2zqsqk" class="animable"></path><path d="M173,51.66a2.34,2.34,0,1,1-2.34-2.34A2.34,2.34,0,0,1,173,51.66Z" style="fill: rgb(69, 90, 100); transform-origin: 170.66px 51.66px;" id="elae4vpgyij74" class="animable"></path><rect x="145.16" y="55.75" width="97.3" height="1" style="fill: rgb(235, 235, 235); transform-origin: 193.81px 56.25px;" id="elg6siciygvzw" class="animable"></rect><path d="M179.22,92.81a2.63,2.63,0,0,1,0,3.72,2.67,2.67,0,0,1-1.82.74,2.79,2.79,0,0,1-1.9-.74L163.89,84.75c-.13,0-.17-.12-.21-.25a.58.58,0,0,0-.12-.08,1,1,0,0,1-.13-.33.23.23,0,0,1-.12-.17c0-.08,0-.2-.08-.25s-.09-.16-.09-.2v-.29c0-.08,0-.13,0-.25s0-.16,0-.21v-.29c0-.08.09-.12.09-.16s0-.21.08-.33,0,0,0-.08a2.24,2.24,0,0,1,.21-.38.08.08,0,0,1,.08-.08.72.72,0,0,1,.25-.29L175.5,69.33a2.7,2.7,0,0,1,3.72,0,2.63,2.63,0,0,1,0,3.72l-9.79,9.88Z" style="fill: rgb(235, 235, 235); transform-origin: 171.565px 82.9286px;" id="elaj6zke1k7mh" class="animable"></path><path d="M189.76,94.13,199.88,70a2.29,2.29,0,0,1,3-1.2,2.23,2.23,0,0,1,1.16,2.93L193.93,95.91a2.28,2.28,0,0,1-2.1,1.36,2,2,0,0,1-.83-.16A2.23,2.23,0,0,1,189.76,94.13Z" style="fill: rgb(235, 235, 235); transform-origin: 196.897px 82.9437px;" id="elncn5ilxeus" class="animable"></path><path d="M224.06,84.42a0,0,0,0,1,0,0,1.59,1.59,0,0,1-.29.29L212.12,96.53a2.71,2.71,0,0,1-3.72,0,2.63,2.63,0,0,1,0-3.72l9.79-9.88-9.79-9.88a2.63,2.63,0,0,1,0-3.72,2.7,2.7,0,0,1,3.72,0l11.61,11.78a1.59,1.59,0,0,1,.29.29s0,.08,0,.08a2.55,2.55,0,0,1,.21.38s0,0,0,.08a1.5,1.5,0,0,0,.13.37s0,0,0,.12v.29s0,.17,0,.21,0,.17,0,.21v.33s0,0,0,.08a2.85,2.85,0,0,0-.13.37s0,0,0,.13S224.15,84.25,224.06,84.42Z" style="fill: rgb(235, 235, 235); transform-origin: 215.995px 82.9281px;" id="elzsjq4dgpr9q" class="animable"></path><g id="eleuv29gdu9ld"><g style="opacity: 0.7; transform-origin: 262.34px 127.165px;" class="animable"><g id="elviv1cpslm1b"><rect x="231.56" y="67.23" width="61.57" height="119.86" style="fill: rgb(255, 255, 255); transform-origin: 262.345px 127.16px; transform: rotate(90deg);" class="animable"></rect></g><path d="M322.52,158.2H202.16V96.13H322.52Zm-119.86-.5H322V96.63H202.66Z" style="fill: rgb(219, 219, 219); transform-origin: 262.34px 127.165px;" id="elgjgwt8cahu9" class="animable"></path><g id="elhclylhgfao5"><rect x="209.66" y="104.39" width="50.35" height="45.56" style="fill: rgb(255, 199, 39); transform-origin: 234.835px 127.17px; transform: rotate(180deg);" class="animable"></rect></g><g id="elkhsfrtqa94s"><path d="M216.16,114.35a5.39,5.39,0,1,0,4.23-4.24A5.39,5.39,0,0,0,216.16,114.35Z" style="opacity: 0.1; transform-origin: 221.448px 115.395px;" class="animable"></path></g><g id="elduhm96kxhf"><polygon points="223.83 140.13 260.01 140.13 241.92 115.61 223.83 140.13" style="opacity: 0.2; transform-origin: 241.92px 127.87px;" class="animable"></polygon></g><polygon points="209.66 140.15 239.53 140.15 224.59 124.18 209.66 140.15" style="fill: rgb(255, 199, 39); transform-origin: 224.595px 132.165px;" id="elkphdenzs8is" class="animable"></polygon><g id="el7xlmmm0sew"><polygon points="209.66 140.15 239.53 140.15 224.59 124.18 209.66 140.15" style="opacity: 0.1; transform-origin: 224.595px 132.165px;" class="animable"></polygon></g><rect x="209.66" y="140.13" width="50.35" height="9.82" style="fill: rgb(255, 199, 39); transform-origin: 234.835px 145.04px;" id="el7m4dtbawajh" class="animable"></rect><g id="elcaqvufh1un"><rect x="209.66" y="140.13" width="50.35" height="9.82" style="opacity: 0.1; transform-origin: 234.835px 145.04px;" class="animable"></rect></g><rect x="268.44" y="104.39" width="42.89" height="3.12" style="fill: rgb(235, 235, 235); transform-origin: 289.885px 105.95px;" id="elngab2mvuyzk" class="animable"></rect><rect x="268.44" y="110.85" width="42.89" height="3.12" style="fill: rgb(235, 235, 235); transform-origin: 289.885px 112.41px;" id="elr31ywj0vub" class="animable"></rect><rect x="268.44" y="117.31" width="42.89" height="3.12" style="fill: rgb(235, 235, 235); transform-origin: 289.885px 118.87px;" id="el9123dk9vve9" class="animable"></rect><rect x="268.44" y="123.77" width="42.89" height="3.12" style="fill: rgb(235, 235, 235); transform-origin: 289.885px 125.33px;" id="el74e1wu68ktn" class="animable"></rect><rect x="268.44" y="130.23" width="42.89" height="3.12" style="fill: rgb(235, 235, 235); transform-origin: 289.885px 131.79px;" id="elx714j9gbv3n" class="animable"></rect></g></g></g><g id="freepik--Device--inject-9" class="animable" style="transform-origin: 238.055px 217.48px;"><polygon points="221.78 260.19 165.04 260.19 165.04 255.78 221.78 253.94 221.78 260.19" style="fill: rgb(69, 90, 100); transform-origin: 193.41px 257.065px;" id="el1bun43sr2fm" class="animable"></polygon><path d="M266.37,260.11H229c-3.2,0,1.42-9.09,13.08-12.58S270.05,256.7,266.37,260.11Z" style="fill: rgb(55, 71, 79); transform-origin: 247.455px 253.519px;" id="elers00vofuw4" class="animable"></path><path d="M251.69,260.11A9.38,9.38,0,0,1,252,257a12,12,0,0,1,1.23-2.91,9.77,9.77,0,0,1,2.06-2.42,7.65,7.65,0,0,1,2.75-1.51,19,19,0,0,0-2.21,2.07,15.61,15.61,0,0,0-1.74,2.38A27,27,0,0,0,251.69,260.11Z" style="fill: rgb(38, 50, 56); transform-origin: 254.854px 255.135px;" id="elzd310vi3n5" class="animable"></path><path d="M256.12,251.46a16,16,0,0,1,3.31,1.16,20.21,20.21,0,0,1,3.06,1.76,12.06,12.06,0,0,1,2.61,2.44,5.18,5.18,0,0,1,1.27,3.29,7.1,7.1,0,0,0-1.86-2.78,19.78,19.78,0,0,0-2.6-2.13C260.07,253.87,258.09,252.72,256.12,251.46Z" style="fill: rgb(38, 50, 56); transform-origin: 261.245px 255.785px;" id="eldwxufcinjvr" class="animable"></path><polygon points="293.23 242.5 202.24 242.5 216.71 174.76 307.7 174.76 293.23 242.5" style="fill: rgb(69, 90, 100); transform-origin: 254.97px 208.63px;" id="elmwga66hba7a" class="animable"></polygon><polygon points="296.6 242.5 205.61 242.5 220.08 174.76 311.07 174.76 296.6 242.5" style="fill: rgb(55, 71, 79); transform-origin: 258.34px 208.63px;" id="el3804bzs701y" class="animable"></polygon><polygon points="247.52 218.22 245.39 218.22 248.63 203.02 250.76 203.02 247.52 218.22" style="fill: rgb(38, 50, 56); transform-origin: 248.075px 210.62px;" id="el1k7px3sp53u" class="animable"></polygon><polygon points="251.73 218.22 249.6 218.22 252.84 203.02 254.97 203.02 251.73 218.22" style="fill: rgb(38, 50, 56); transform-origin: 252.285px 210.62px;" id="el5tm0fp6a4po" class="animable"></polygon><polygon points="255.94 218.22 253.81 218.22 257.05 203.02 259.18 203.02 255.94 218.22" style="fill: rgb(38, 50, 56); transform-origin: 256.495px 210.62px;" id="elzyoi8tbq5bp" class="animable"></polygon><polygon points="260.16 218.22 258.02 218.22 261.26 203.02 263.39 203.02 260.16 218.22" style="fill: rgb(38, 50, 56); transform-origin: 260.705px 210.62px;" id="elvv3xsx12k8h" class="animable"></polygon><polygon points="264.37 218.22 262.23 218.22 265.47 203.02 267.61 203.02 264.37 218.22" style="fill: rgb(38, 50, 56); transform-origin: 264.92px 210.62px;" id="elfza6siuee7t" class="animable"></polygon><polygon points="268.58 218.22 266.44 218.22 269.68 203.02 271.82 203.02 268.58 218.22" style="fill: rgb(38, 50, 56); transform-origin: 269.13px 210.62px;" id="elz2y8z3i3p69" class="animable"></polygon><polygon points="272.79 218.22 270.65 218.22 273.89 203.02 276.03 203.02 272.79 218.22" style="fill: rgb(38, 50, 56); transform-origin: 273.34px 210.62px;" id="elladf94wxwzg" class="animable"></polygon><polygon points="270.87 260.2 226.11 260.2 226.11 256.72 270.87 255.27 270.87 260.2" style="fill: rgb(69, 90, 100); transform-origin: 248.49px 257.735px;" id="elz1yokdj4mx" class="animable"></polygon><polygon points="283.03 260.19 259 260.19 244.53 222.23 268.56 222.23 283.03 260.19" style="fill: rgb(69, 90, 100); transform-origin: 263.78px 241.21px;" id="elrob6gvr35hd" class="animable"></polygon><polygon points="286.99 260.19 262.96 260.19 248.49 222.23 272.52 222.23 286.99 260.19" style="fill: rgb(38, 50, 56); transform-origin: 267.74px 241.21px;" id="el4e57laye2kk" class="animable"></polygon></g><g id="freepik--Plant--inject-9" class="animable" style="transform-origin: 386.825px 358.73px;"><path d="M376,373.91s-22.17-5-34.32-16.22-18.93-31.25-18.93-31.25A191,191,0,0,1,347.64,333c2,2.12,5.76,6.49,7.52,10.63a51.65,51.65,0,0,0,.06-7.6,34,34,0,0,1,7.89,4.79C373.19,349.61,376,373.91,376,373.91Z" style="fill: rgb(255, 199, 39); transform-origin: 349.375px 350.175px;" id="elbtszq2k9acu" class="animable"></path><path d="M336.62,336.19c-3-2.1-6.1-4.11-9.11-6.22a.18.18,0,0,1,.18-.3c5.72,3.41,11.35,7.06,16.79,10.88,1.9,1.33,3.77,2.72,5.61,4.13l-.38-.66c-.67-1.11-1.37-2.2-2.07-3.29a46.65,46.65,0,0,0-4.71-6.29c-.06-.07.05-.17.11-.1,1.73,2,3.45,4,5,6.07.75,1,1.44,2,2.1,3.11.35.55.68,1.11,1,1.67l.33.57c2.87,2.25,5.66,4.6,8.32,7.08,1.65,1.54,3.23,3.12,4.76,4.76-.85-2.68-1.6-5.39-2.6-8,0-.09.12-.12.15,0,1,2.77,2,5.55,2.77,8.4q2.55,2.74,4.85,5.71c0-.12-.05-.24-.08-.36-.25-1-.51-2.09-.79-3.12-.54-2-1.13-4-1.81-6A34.43,34.43,0,0,0,361.12,343c-.06-.08.05-.18.11-.11,4.33,5.13,6.87,11.28,8.49,17.73.23.95.46,1.89.67,2.84.12.5.25,1,.34,1.53.67.91,1.32,1.82,1.95,2.76a96,96,0,0,1,9.38,18.4,211.28,211.28,0,0,1,7.11,22.14c0,.15-.18.2-.23.06-4.34-13-8.76-26.13-16.18-37.72-1.57-2.45-3.27-4.81-5.07-7.09a41.82,41.82,0,0,1-10.78-2.14,48.07,48.07,0,0,1-10.8-5.22,68.07,68.07,0,0,1-5.54-4.18.08.08,0,1,1,.1-.12A44,44,0,0,0,350.83,358,55.68,55.68,0,0,0,362,361.73c1.64.36,3.3.62,5,.85a95.49,95.49,0,0,0-6.54-7.25c-.75-.74-1.52-1.46-2.29-2.18a52,52,0,0,0-8.2-4.69c-3.63-1.76-7.2-3.62-10.8-5.45-2-1-4-2.09-6.09-3.08-.08-.05,0-.17.08-.13,3.65,1.76,7.35,3.4,11,5.09,3.47,1.58,7,3.17,10.29,5l.42.25c-3-2.61-6.11-5.11-9.29-7.51C342.63,340.45,339.65,338.28,336.62,336.19Z" style="fill: rgb(38, 50, 56); transform-origin: 358.313px 369.047px;" id="el1yhlho2tiyn" class="animable"></path><path d="M337.88,347.61c1.8.79,3.64,1.49,5.42,2.33s3.57,1.86,5.32,2.89c.07.05,0,.15-.07.12-1.77-.85-3.56-1.64-5.31-2.52s-3.57-1.87-5.41-2.67C337.75,347.72,337.79,347.57,337.88,347.61Z" style="fill: rgb(38, 50, 56); transform-origin: 343.218px 350.279px;" id="ellb4vwldjmq" class="animable"></path><path d="M448,262.2a31.65,31.65,0,0,0-6.62,18.41c-.08,2,.24,4.75.47,8C433.62,293,427.42,301,427.42,301c4.7-2.82,11.14-4,14.62-3.5a43.49,43.49,0,0,1-.85,6.62c-1.53-.09-4.5.12-9.4,1.86a21.14,21.14,0,0,1,8.48,1.68c-3.95,12.58-15.7,25.49-48.13,31A68.07,68.07,0,0,1,397.88,293C407.6,273.87,448,262.2,448,262.2Z" style="fill: rgb(255, 199, 39); transform-origin: 419.251px 300.43px;" id="el0uocrgrimpen" class="animable"></path><path d="M380.91,392.42q.85-8.06,2.1-16.07a320.67,320.67,0,0,1,6.54-31.74,125.9,125.9,0,0,1,4.69-14.47,18.79,18.79,0,0,1-.12-2.6c0-1,0-2.08,0-3.11q0-3.12.3-6.23a74.84,74.84,0,0,1,2-12.16c.59-2.31,1.28-4.58,2-6.87a.08.08,0,0,1,.15,0,89.55,89.55,0,0,0-2.4,12.14A115.27,115.27,0,0,0,395,323.53c0,1.11-.06,2.22-.06,3.34,0,.47,0,.95,0,1.43A102.21,102.21,0,0,1,400.45,317a138.81,138.81,0,0,1,11.1-16.61,7.41,7.41,0,0,1,.27-1.81c.15-.73.31-1.45.47-2.17.33-1.48.7-3,1.11-4.42.8-2.94,1.87-5.78,2.79-8.68a.07.07,0,1,1,.14,0c-.86,2.87-1.42,5.85-2.08,8.77-.33,1.45-.64,2.9-1,4.35-.16.72-.32,1.44-.47,2.17l0,.16c1.32-1.65,2.65-3.29,4-4.89,6.19-7.26,13-14,19.82-20.61.84-.82,1.7-1.62,2.55-2.43a.08.08,0,0,1,.11.11c-6.53,6.82-13,13.71-19.06,20.92-1.44,1.72-2.87,3.45-4.27,5.21.74-.5,1.48-1,2.21-1.46,1.89-1.24,3.8-2.44,5.77-3.54s3.95-2.18,6-3.19,4.31-1.87,6.31-3c.09-.05.16.09.08.13a46.84,46.84,0,0,0-5.92,3.28c-2,1.17-3.95,2.35-5.89,3.58s-3.82,2.4-5.71,3.63c-1.58,1-3.13,2.14-4.77,3.09a155.73,155.73,0,0,0-10.39,15.12,113.93,113.93,0,0,0-5.37,10.19l1.16-.5,3-1.32c1.91-.85,3.83-1.68,5.74-2.51,3.64-1.58,7.33-3,10.9-4.77a49.26,49.26,0,0,0,5.82-3.23c.08-.06.15.07.08.13-6.65,4.58-14.11,7.81-21.47,11.07l-3.19,1.41c-.88.39-1.76.82-2.66,1.16a114.82,114.82,0,0,0-5.49,15,306.47,306.47,0,0,0-7.05,31.38c-1.86,10.59-3.12,21.26-4.09,32-.12,1.34-.24,2.67-.4,4a.42.42,0,0,1-.84,0C379.79,403.27,380.35,397.82,380.91,392.42Z" style="fill: rgb(38, 50, 56); transform-origin: 409.516px 339.979px;" id="elfrluv3egcbc" class="animable"></path><path d="M400.64,302.85c.6-3.3,1.48-6.52,2.37-9.75,0-.1.16-.05.14,0-.82,3.17-1.41,6.4-2,9.62s-1.15,6.57-1.61,9.87c0,.05-.09.06-.09,0A88.81,88.81,0,0,1,400.64,302.85Z" style="fill: rgb(38, 50, 56); transform-origin: 401.301px 302.837px;" id="el39feiuil2q1" class="animable"></path><path d="M414.62,311.79a57.5,57.5,0,0,1,7.06-4c1.18-.61,2.38-1.19,3.57-1.77s2.52-1.1,3.74-1.71a.08.08,0,0,1,.08.13c-1.19.59-2.31,1.31-3.48,1.95s-2.39,1.32-3.6,2c-2.37,1.27-4.7,2.68-7.19,3.72A.18.18,0,0,1,414.62,311.79Z" style="fill: rgb(38, 50, 56); transform-origin: 421.808px 308.22px;" id="elgvzd4nrl6rl" class="animable"></path><g id="elpppfaul6zg"><path d="M375.63,335.51s-20.51-4.9-29.93-18.66c-9-13.14-11.9-35.54-12.14-37.51.37,1.8,4.61,21.38,18.57,30.5C362.82,316.83,373.16,322.57,375.63,335.51Z" style="fill: rgb(38, 50, 56); opacity: 0.1; transform-origin: 354.595px 307.425px;" class="animable"></path></g><path d="M356.7,300.07a26.27,26.27,0,0,1,7.56,12.45,0,0,0,0,1-.07,0,30.51,30.51,0,0,0-7.6-12.37A.08.08,0,0,1,356.7,300.07Z" style="fill: rgb(38, 50, 56); transform-origin: 360.425px 306.292px;" id="elyp8s3kcq2ps" class="animable"></path><path d="M375.63,335.51s-20.51-4.9-29.93-18.66c-9-13.14-11.9-35.54-12.14-37.51a.84.84,0,0,1,0-.14s9.84,14,20.18,17.55S378.59,312.65,375.63,335.51Z" style="fill: rgb(255, 199, 39); transform-origin: 354.789px 307.355px;" id="eliy6hbf6ggf" class="animable"></path><path d="M337.18,286.91a82.73,82.73,0,0,0,6.34,10.84,43.44,43.44,0,0,0,8.44,8.69c2.78,2.21,5.73,4.22,8.55,6.38l-.07-.1c-.53-.78-1.09-1.55-1.68-2.29-1.17-1.5-2.45-2.92-3.74-4.32-2.55-2.77-5.16-5.48-7.44-8.47a30.82,30.82,0,0,1-3.29-5.3c0-.09.1-.14.14,0,3.33,6.93,10,11.37,14.72,17.22a31.89,31.89,0,0,1,1.89,2.6,10.35,10.35,0,0,1,1.18,2.08,43.35,43.35,0,0,1,7,7.07,28.39,28.39,0,0,0-.82-4,20.06,20.06,0,0,0-2.18-5.19c-.05-.08.08-.17.13-.09a24.74,24.74,0,0,1,2.39,5.17,18.1,18.1,0,0,1,.75,4.43h0a40.49,40.49,0,0,1,2.77,4.31c-.09-.44-.17-.88-.26-1.32-.4-2-.85-4.08-1.38-6.09A36.58,36.58,0,0,0,365.69,307a.08.08,0,0,1,.13-.08,44.38,44.38,0,0,1,5.47,11.3c.65,2,1.17,4.06,1.63,6.13.23,1,.43,2,.62,3,.1.52.22,1.06.3,1.6a73.26,73.26,0,0,1,4.73,13.9A203.28,203.28,0,0,1,383,368.78a216.58,216.58,0,0,1,1.41,27.54c0,1.15-.08,2.3-.15,3.46,0,.29-.46.34-.47,0-.2-4.55-.32-9.1-.59-13.65s-.67-9.09-1.15-13.63A242.43,242.43,0,0,0,377.72,346c-1.66-7.5-3.82-15.05-7.92-21.62a40.74,40.74,0,0,0-7.4-8.8c-2.87-2.58-6-4.84-9-7.23a49.5,49.5,0,0,1-8.31-8,64.92,64.92,0,0,1-6.52-10.59c-.48-.93-1-1.85-1.47-2.78C337,286.91,337.13,286.83,337.18,286.91Z" style="fill: rgb(38, 50, 56); transform-origin: 360.745px 343.447px;" id="elv9wubb72lr" class="animable"></path><path d="M340.72,289.92a68.66,68.66,0,0,0,4.57,8c0,.06-.06.12-.1.06a56.72,56.72,0,0,1-4.62-8C340.53,289.88,340.68,289.83,340.72,289.92Z" style="fill: rgb(38, 50, 56); transform-origin: 342.927px 293.939px;" id="eli3lzg2umbpp" class="animable"></path><path d="M450.9,326.44s.33,29.15-17.1,37.56-26.78,1.41-38.62,4.23l0,0c.46-.69,8.91-12.84,22.36-16.19C431.39,348.57,446.71,338.58,450.9,326.44Z" style="fill: rgb(255, 199, 39); transform-origin: 423.04px 347.376px;" id="ell84zip1gft" class="animable"></path><g id="eluif6k08th8s"><path d="M450.9,326.44s.33,29.15-17.1,37.56-26.78,1.41-38.62,4.23l0,0A66,66,0,0,1,415,362.37C426,361,447,353.88,450.9,326.44Z" style="opacity: 0.1; transform-origin: 423.04px 347.376px;" class="animable"></path></g><path d="M394,368.75a29.31,29.31,0,0,1,6.93-4.7c.38-.18.76-.32,1.14-.48a7.63,7.63,0,0,1,.59-.67,20.15,20.15,0,0,1,1.64-1.56,24.14,24.14,0,0,1,3.5-2.53c2.89-1.7,6.06-2.89,9-4.46a.07.07,0,1,1,.07.13c-1.46.76-2.87,1.59-4.29,2.42s-2.79,1.58-4.14,2.44a29.86,29.86,0,0,0-3.45,2.59c-.3.27-.6.56-.89.86a46,46,0,0,1,5.89-1.57c3.19-.64,6.42-1.1,9.6-1.78a43.13,43.13,0,0,0,4.62-1.25c1.45-1.16,2.89-2.32,4.26-3.58a34.49,34.49,0,0,0,4.51-5c.06-.08.19,0,.13.08a53.43,53.43,0,0,1-7.15,7.89c.75-.29,1.5-.59,2.23-.93a36,36,0,0,0,14.85-12.35c.06-.08.19,0,.13.07a40.78,40.78,0,0,1-12,11.54,36.18,36.18,0,0,1-7.6,3.59,69.1,69.1,0,0,1-9.43,2.23,66.74,66.74,0,0,0-9.24,2.2,27.73,27.73,0,0,0-7.74,4.08A36.17,36.17,0,0,0,386.74,381c-3.3,6.61-4.87,14-5.75,21.31,0,.31-.52.31-.5,0C381.31,390,384.59,377.26,394,368.75Z" style="fill: rgb(38, 50, 56); transform-origin: 411.837px 373.405px;" id="elfgklzhsw5ab" class="animable"></path><path d="M414.26,359.24a10.07,10.07,0,0,1,3.58-3.25,13.08,13.08,0,0,0,4.26-3.52c.06-.08.19,0,.13.08a14.4,14.4,0,0,1-3.76,3.37,13.06,13.06,0,0,0-4.1,3.39C414.32,359.38,414.21,359.31,414.26,359.24Z" style="fill: rgb(38, 50, 56); transform-origin: 418.246px 355.888px;" id="el1sjpanaun53" class="animable"></path><polygon points="405.01 390.26 404.22 406.29 401.79 455.26 365.22 455.26 362.79 406.29 362 390.26 405.01 390.26" style="fill: rgb(55, 71, 79); transform-origin: 383.505px 422.76px;" id="eln7b1cgakq2f" class="animable"></polygon><polygon points="405.01 390.26 404.22 406.29 362.79 406.29 362 390.26 405.01 390.26" style="fill: rgb(38, 50, 56); transform-origin: 383.505px 398.275px;" id="el5f5ysgujx69" class="animable"></polygon><rect x="359.44" y="383.57" width="48.14" height="15.29" style="fill: rgb(55, 71, 79); transform-origin: 383.51px 391.215px;" id="elmcgf49smqpj" class="animable"></rect></g><defs>     <filter id="active" height="200%">         <feMorphology in="SourceAlpha" result="DILATED" operator="dilate" radius="2"></feMorphology>                <feFlood flood-color="#32DFEC" flood-opacity="1" result="PINK"></feFlood>        <feComposite in="PINK" in2="DILATED" operator="in" result="OUTLINE"></feComposite>        <feMerge>            <feMergeNode in="OUTLINE"></feMergeNode>            <feMergeNode in="SourceGraphic"></feMergeNode>        </feMerge>    </filter>    <filter id="hover" height="200%">        <feMorphology in="SourceAlpha" result="DILATED" operator="dilate" radius="2"></feMorphology>                <feFlood flood-color="#ff0000" flood-opacity="0.5" result="PINK"></feFlood>        <feComposite in="PINK" in2="DILATED" operator="in" result="OUTLINE"></feComposite>        <feMerge>            <feMergeNode in="OUTLINE"></feMergeNode>            <feMergeNode in="SourceGraphic"></feMergeNode>        </feMerge>            <feColorMatrix type="matrix" values="0   0   0   0   0                0   1   0   0   0                0   0   0   0   0                0   0   0   1   0 "></feColorMatrix>    </filter></defs></svg>